<svg width="663" height="386" viewBox="0 0 663 386" fill="none" xmlns="http://www.w3.org/2000/svg">
<ellipse cx="138.5" cy="303.5" rx="128.5" ry="114.5" fill="url(#paint0_linear_1_22)"/>
<ellipse cx="370" cy="178.5" rx="129" ry="114.5" fill="url(#paint1_linear_1_22)"/>
<ellipse cx="677.5" cy="51.5" rx="128.5" ry="114.5" fill="url(#paint2_linear_1_22)"/>
<rect y="19" width="112" height="98" fill="url(#paint3_linear_1_22)"/>
<rect x="529" y="273" width="112" height="98" fill="url(#paint4_linear_1_22)"/>
<ellipse cx="443" cy="64" rx="46" ry="45" fill="url(#paint5_linear_1_22)" style="mix-blend-mode:screen"/>
<ellipse cx="45.0537" cy="45.6694" rx="45.0537" ry="45.6694" transform="matrix(0.0446782 0.999001 -0.999054 0.0434795 636.252 174)" fill="url(#paint6_linear_1_22)" style="mix-blend-mode:screen"/>
<ellipse cx="195.5" cy="72" rx="45.5" ry="45" fill="url(#paint7_linear_1_22)" style="mix-blend-mode:screen"/>
<ellipse cx="45.0526" cy="45.6705" rx="45.0526" ry="45.6705" transform="matrix(0.01194 -0.999929 0.999932 0.0116191 10 233.099)" fill="url(#paint8_linear_1_22)" style="mix-blend-mode:screen"/>
<ellipse cx="45.6703" cy="45.0528" rx="45.6703" ry="45.0528" transform="matrix(-0.999807 0.0196371 -0.0201794 -0.999796 223.141 370.087)" fill="url(#paint9_linear_1_22)" style="mix-blend-mode:screen"/>
<ellipse cx="45.6705" cy="45.0526" rx="45.6705" ry="45.0526" transform="matrix(-0.999948 0.0102076 -0.0104895 -0.999945 511.309 370.081)" fill="url(#paint10_linear_1_22)" style="mix-blend-mode:screen"/>
<defs>
<linearGradient id="paint0_linear_1_22" x1="138.5" y1="189" x2="-258.158" y2="449.096" gradientUnits="userSpaceOnUse">
<stop offset="0.187053" stop-color="#161A42"/>
<stop offset="1" stop-color="#D9D9D9" stop-opacity="0"/>
</linearGradient>
<linearGradient id="paint1_linear_1_22" x1="370" y1="64" x2="-27.27" y2="325.511" gradientUnits="userSpaceOnUse">
<stop offset="0.187053" stop-color="#161A42"/>
<stop offset="1" stop-color="#D9D9D9" stop-opacity="0"/>
</linearGradient>
<linearGradient id="paint2_linear_1_22" x1="677.5" y1="-63" x2="280.842" y2="197.096" gradientUnits="userSpaceOnUse">
<stop offset="0.187053" stop-color="#161A42"/>
<stop offset="1" stop-color="#D9D9D9" stop-opacity="0"/>
</linearGradient>
<linearGradient id="paint3_linear_1_22" x1="154.246" y1="-36.3069" x2="57.7378" y2="118.086" gradientUnits="userSpaceOnUse">
<stop offset="0.53495" stop-color="#161A42"/>
<stop offset="1" stop-color="#404685" stop-opacity="0"/>
</linearGradient>
<linearGradient id="paint4_linear_1_22" x1="683.246" y1="217.693" x2="586.738" y2="372.086" gradientUnits="userSpaceOnUse">
<stop offset="0.53495" stop-color="#161A42"/>
<stop offset="1" stop-color="#404685" stop-opacity="0"/>
</linearGradient>
<linearGradient id="paint5_linear_1_22" x1="443" y1="19" x2="443.473" y2="46.0971" gradientUnits="userSpaceOnUse">
<stop stop-color="#161A42"/>
<stop offset="1" stop-color="#161A42" stop-opacity="0"/>
</linearGradient>
<linearGradient id="paint6_linear_1_22" x1="45.0537" y1="0" x2="45.5515" y2="27.4996" gradientUnits="userSpaceOnUse">
<stop stop-color="#161A42"/>
<stop offset="1" stop-color="#161A42" stop-opacity="0"/>
</linearGradient>
<linearGradient id="paint7_linear_1_22" x1="195.5" y1="27" x2="195.979" y2="54.097" gradientUnits="userSpaceOnUse">
<stop stop-color="#161A42"/>
<stop offset="1" stop-color="#161A42" stop-opacity="0"/>
</linearGradient>
<linearGradient id="paint8_linear_1_22" x1="45.0526" y1="0" x2="45.5504" y2="27.5003" gradientUnits="userSpaceOnUse">
<stop stop-color="#161A42"/>
<stop offset="1" stop-color="#161A42" stop-opacity="0"/>
</linearGradient>
<linearGradient id="paint9_linear_1_22" x1="45.6703" y1="0" x2="46.1482" y2="27.1288" gradientUnits="userSpaceOnUse">
<stop stop-color="#161A42"/>
<stop offset="1" stop-color="#161A42" stop-opacity="0"/>
</linearGradient>
<linearGradient id="paint10_linear_1_22" x1="45.6705" y1="0" x2="46.1484" y2="27.1287" gradientUnits="userSpaceOnUse">
<stop stop-color="#161A42"/>
<stop offset="1" stop-color="#161A42" stop-opacity="0"/>
</linearGradient>
</defs>
</svg>
