<svg width="350" height="271" viewBox="0 0 350 271" fill="none" xmlns="http://www.w3.org/2000/svg">
<rect width="350" height="271" fill="#F5F5F5"/>
<g clip-path="url(#clip0_0_1)">
<path d="M347.211 267.125C346.6 267.878 345.982 268.625 345.371 269.367C343.613 270.434 341.528 271.004 339.394 271H10.6061C8.56696 271.002 6.57108 270.482 4.86008 269.505C4.29225 268.845 3.73082 268.18 3.16298 267.515L3.73081 267.24L170.177 185.951C171.654 185.231 173.314 184.853 175.002 184.851C176.689 184.849 178.35 185.224 179.829 185.94L346.65 266.85L347.211 267.125Z" fill="#242159"/>
<path d="M339.394 96.1968L195.14 22.7957C189.073 19.7084 182.191 18.0817 175.184 18.0786C168.178 18.0756 161.294 19.6964 155.223 22.7784L10.6061 96.1968C7.79438 96.2003 5.099 97.1859 3.11084 98.9377C1.12268 100.689 0.00397752 103.064 0 105.542V261.655C0.00327592 264.133 1.12175 266.508 3.11006 268.26C5.09837 270.012 7.79416 270.997 10.6061 271H339.394C342.205 270.996 344.9 270.01 346.888 268.258C348.876 266.507 349.995 264.132 350 261.655V105.542C349.996 103.064 348.877 100.689 346.889 98.9377C344.901 97.1859 342.206 96.2003 339.394 96.1968ZM348.752 261.655C348.746 263.84 347.758 265.935 346.005 267.48C344.251 269.025 341.874 269.895 339.394 269.901H10.6061C8.12546 269.897 5.74774 269.027 3.99368 267.481C2.23963 265.936 1.25223 263.841 1.24777 261.655V105.542C1.25079 103.356 2.23772 101.26 3.99209 99.7141C5.74645 98.1684 8.12501 97.2988 10.6061 97.2961L155.223 23.8777C161.294 20.7958 168.178 19.175 175.184 19.178C182.191 19.181 189.073 20.8078 195.14 23.8951L339.394 97.2961C341.875 97.2988 344.254 98.1684 346.008 99.7141C347.762 101.26 348.749 103.356 348.752 105.542V261.655Z" fill="#242159"/>
<path d="M175.187 184.522C174.1 184.525 173.021 184.366 171.995 184.05L171.807 183.991L171.768 183.622C171.651 183.673 171.532 183.722 171.413 183.768L171.288 183.816L171.162 183.767C170.899 183.666 170.638 183.551 170.386 183.426L55.5258 126.558V10.4442C55.5293 7.74806 56.7464 5.1632 58.9102 3.25673C61.074 1.35026 64.0077 0.277875 67.0677 0.274849H282.932C285.992 0.277875 288.926 1.35026 291.09 3.25673C293.254 5.1632 294.471 7.74806 294.474 10.4442V126.706L294.315 126.785L179.988 183.426C178.52 184.147 176.867 184.524 175.187 184.522Z" fill="#646694"/>
<path d="M175.187 184.797C174.065 184.8 172.951 184.635 171.892 184.309L171.514 184.192L171.498 184.035L171.288 184.116L171.037 184.019C170.764 183.914 170.494 183.795 170.233 183.665L55.2139 126.719V10.4442C55.2175 7.6752 56.4675 5.0205 58.6897 3.06251C60.912 1.10451 63.925 0.00313386 67.0677 0H282.932C286.075 0.00314548 289.088 1.10452 291.31 3.06251C293.532 5.0205 294.783 7.67521 294.786 10.4442V126.867L180.141 183.665C178.627 184.409 176.921 184.799 175.187 184.797ZM172.683 183.38C174.977 183.961 177.438 183.719 179.53 182.707L293.538 126.224V10.4442C293.535 7.96667 292.417 5.5914 290.428 3.83951C288.44 2.08762 285.744 1.10218 282.932 1.09939H67.0677C64.2558 1.10217 61.5599 2.08761 59.5716 3.8395C57.5833 5.59139 56.4648 7.96667 56.4617 10.4442V126.075L63.9418 129.777L170.845 182.707C170.99 182.779 171.138 182.847 171.288 182.911C171.438 182.847 171.585 182.779 171.73 182.707L172.571 182.29L172.683 183.38Z" fill="#242159"/>
<path d="M347.236 100.254L301.961 122.681L294.162 126.545L179.835 183.186C178.414 183.884 176.814 184.25 175.187 184.247C174.136 184.25 173.092 184.095 172.099 183.791C171.823 183.713 171.552 183.621 171.288 183.516C171.032 183.417 170.783 183.307 170.539 183.186L63.6364 130.256L55.8378 126.397L2.85745 100.166C2.71339 100.093 2.60771 99.9729 2.56334 99.8319C2.51897 99.6909 2.53948 99.5402 2.62044 99.4125C2.70162 99.2858 2.83656 99.1926 2.99562 99.1534C3.15468 99.1143 3.32487 99.1323 3.46884 99.2036L55.8378 125.133L63.6364 128.992L171.151 182.224C171.507 182.401 171.878 182.553 172.261 182.68C172.423 182.735 172.592 182.785 172.76 182.829C173.828 183.118 174.951 183.213 176.062 183.109C177.173 183.005 178.248 182.704 179.224 182.224L294.162 125.287L301.961 121.422L346.625 99.297C346.696 99.2617 346.774 99.239 346.856 99.2304C346.937 99.2217 347.019 99.2273 347.098 99.2467C347.177 99.2661 347.25 99.2989 347.315 99.3434C347.379 99.3879 347.433 99.4431 347.473 99.5059C347.513 99.5687 347.539 99.6379 347.549 99.7094C347.559 99.781 347.552 99.8535 347.53 99.923C347.508 99.9924 347.471 100.057 347.421 100.114C347.37 100.171 347.307 100.218 347.236 100.254Z" fill="#242159"/>
<path d="M102.364 36.2799H84.8951C83.5714 36.2799 82.3019 35.8166 81.3659 34.9919C80.4299 34.1672 79.9041 33.0487 79.9041 31.8824C79.9041 30.716 80.4299 29.5975 81.3659 28.7728C82.3019 27.9481 83.5714 27.4848 84.8951 27.4848H102.364C103.688 27.4848 104.957 27.9481 105.893 28.7728C106.829 29.5975 107.355 30.716 107.355 31.8824C107.355 33.0487 106.829 34.1672 105.893 34.9919C104.957 35.8166 103.688 36.2799 102.364 36.2799Z" fill="#242159"/>
<path d="M122.952 51.1217H84.8951C83.5714 51.1217 82.3019 50.6584 81.3659 49.8337C80.4299 49.009 79.9041 47.8904 79.9041 46.7241C79.9041 45.5578 80.4299 44.4393 81.3659 43.6146C82.3019 42.7899 83.5714 42.3266 84.8951 42.3266H122.952C124.276 42.3266 125.545 42.7899 126.481 43.6146C127.417 44.4393 127.943 45.5578 127.943 46.7241C127.943 47.8904 127.417 49.009 126.481 49.8337C125.545 50.6584 124.276 51.1217 122.952 51.1217Z" fill="#E6E6E6"/>
<path d="M229.278 90.6998H121.346C120.022 90.6998 118.753 90.2365 117.817 89.4118C116.881 88.5871 116.355 87.4685 116.355 86.3022C116.355 85.1359 116.881 84.0174 117.817 83.1927C118.753 82.368 120.022 81.9047 121.346 81.9047H229.278C230.602 81.9047 231.871 82.368 232.807 83.1927C233.743 84.0174 234.269 85.1359 234.269 86.3022C234.269 87.4685 233.743 88.5871 232.807 89.4118C231.871 90.2365 230.602 90.6998 229.278 90.6998Z" fill="#242159"/>
<path d="M239.26 107.74H110.74C109.416 107.74 108.147 107.277 107.211 106.452C106.275 105.628 105.749 104.509 105.749 103.343C105.749 102.176 106.275 101.058 107.211 100.233C108.147 99.4085 109.416 98.9452 110.74 98.9452H239.26C240.584 98.9452 241.853 99.4085 242.79 100.233C243.726 101.058 244.251 102.176 244.251 103.343C244.251 104.509 243.726 105.628 242.79 106.452C241.853 107.277 240.584 107.74 239.26 107.74Z" fill="#E6E6E6"/>
<path d="M239.26 124.231H110.74C109.416 124.231 108.147 123.768 107.211 122.943C106.275 122.119 105.749 121 105.749 119.834C105.749 118.667 106.275 117.549 107.211 116.724C108.147 115.899 109.416 115.436 110.74 115.436H239.26C240.584 115.436 241.853 115.899 242.79 116.724C243.726 117.549 244.251 118.667 244.251 119.834C244.251 121 243.726 122.119 242.79 122.943C241.853 123.768 240.584 124.231 239.26 124.231Z" fill="#E6E6E6"/>
</g>
<defs>
<clipPath id="clip0_0_1">
<rect width="350" height="271" fill="white"/>
</clipPath>
</defs>
</svg>
