<svg width="432" height="418" viewBox="0 0 432 418" fill="none" xmlns="http://www.w3.org/2000/svg">
<path d="M394.129 417.583V375.664C394.129 375.664 410.454 405.383 394.129 417.583Z" fill="#0D0C57"/>
<path d="M395.137 417.576L364.278 389.227C364.278 389.227 397.196 397.291 395.137 417.576Z" fill="#0D0C57"/>
<path d="M286.294 184.962L122.537 280.736C121.963 281.071 121.281 281.164 120.639 280.995C119.998 280.827 119.449 280.411 119.113 279.838L13.8066 99.5413C13.4725 98.9678 13.3794 98.2851 13.5477 97.6429C13.716 97.0008 14.132 96.4516 14.7043 96.116L178.462 0.34167C179.035 0.00733993 179.717 -0.0858421 180.359 0.0825662C181.001 0.250975 181.55 0.667222 181.885 1.23999L287.192 181.537C287.526 182.11 287.619 182.793 287.451 183.435C287.283 184.077 286.867 184.626 286.294 184.962Z" fill="#ADAED0"/>
<path d="M286.294 184.962L122.537 280.736C121.963 281.071 121.281 281.164 120.639 280.995C119.998 280.827 119.449 280.411 119.113 279.838L13.8066 99.5413C13.4725 98.9678 13.3794 98.2851 13.5477 97.6429C13.716 97.0008 14.132 96.4516 14.7043 96.116L178.462 0.34167C179.035 0.00733993 179.717 -0.0858421 180.359 0.0825662C181.001 0.250975 181.55 0.667222 181.885 1.23999L287.192 181.537C287.526 182.11 287.619 182.793 287.451 183.435C287.283 184.077 286.867 184.626 286.294 184.962ZM15.2094 96.9807C14.866 97.1821 14.6164 97.5116 14.5154 97.8969C14.4144 98.2822 14.4703 98.6918 14.6708 99.0359L119.978 279.333C120.179 279.676 120.508 279.926 120.893 280.027C121.278 280.128 121.688 280.072 122.031 279.872L285.789 184.097C286.133 183.896 286.382 183.566 286.483 183.181C286.584 182.796 286.528 182.386 286.328 182.042L181.021 1.74537C180.82 1.40169 180.49 1.15193 180.105 1.05088C179.72 0.949833 179.311 1.00575 178.967 1.20637L15.2094 96.9807Z" fill="#3F3D56"/>
<path d="M120.473 114.936L79.8581 138.69C79.2849 139.024 78.6027 139.117 77.9609 138.949C77.3192 138.78 76.7705 138.364 76.435 137.791L52.6968 97.149C52.3627 96.5755 52.2696 95.8927 52.4379 95.2506C52.6062 94.6084 53.0221 94.0593 53.5945 93.7236L94.2099 69.9696C94.783 69.6353 95.4653 69.5421 96.107 69.7105C96.7488 69.8789 97.2975 70.2951 97.6329 70.8679L121.371 111.51C121.705 112.084 121.798 112.767 121.63 113.409C121.462 114.051 121.046 114.6 120.473 114.936ZM54.0996 94.5884C53.7562 94.7898 53.5066 95.1192 53.4056 95.5045C53.3046 95.8898 53.3605 96.2995 53.561 96.6436L77.2992 137.286C77.5005 137.63 77.8297 137.879 78.2148 137.981C78.5998 138.082 79.0092 138.026 79.3531 137.825L119.968 114.071C120.312 113.87 120.561 113.54 120.662 113.155C120.763 112.77 120.708 112.36 120.507 112.016L96.7688 71.3733C96.5676 71.0296 96.2383 70.7799 95.8533 70.6788C95.4682 70.5778 95.0588 70.6337 94.715 70.8343L54.0996 94.5884Z" fill="#F2F2F2"/>
<path d="M111.711 126.731L71.0961 150.485C70.5803 150.786 69.9662 150.87 69.3887 150.718C68.8111 150.567 68.3172 150.192 68.0154 149.676L44.2771 109.034C43.9764 108.518 43.8926 107.903 44.0441 107.325C44.1955 106.747 44.5699 106.253 45.0851 105.951L85.7004 82.1971C86.2163 81.8962 86.8303 81.8124 87.4079 81.9639C87.9854 82.1155 88.4793 82.4901 88.7812 83.0056L112.519 123.648C112.82 124.164 112.904 124.779 112.752 125.357C112.601 125.935 112.227 126.429 111.711 126.731Z" fill="#6C63FF"/>
<path d="M209.744 96.0792L82.7127 170.374C82.197 170.675 81.5827 170.76 81.005 170.608C80.4272 170.456 79.9333 170.081 79.6319 169.565C79.3305 169.049 79.2464 168.435 79.3979 167.856C79.5494 167.278 79.9242 166.784 80.4399 166.482L207.471 92.1879C207.726 92.0385 208.008 91.941 208.301 91.9008C208.595 91.8606 208.893 91.8786 209.179 91.9536C209.465 92.0287 209.733 92.1594 209.969 92.3384C210.204 92.5173 210.402 92.7409 210.552 92.9964C210.701 93.2519 210.798 93.5343 210.839 93.8275C210.879 94.1207 210.861 94.4189 210.786 94.7052C210.711 94.9915 210.58 95.2602 210.401 95.4959C210.222 95.7316 209.999 95.9298 209.744 96.0792Z" fill="#CCCCCC"/>
<path d="M186.895 127.424L90.5413 183.777C90.2859 183.926 90.0037 184.024 89.7107 184.064C89.4177 184.104 89.1196 184.086 88.8336 184.011C88.2558 183.86 87.7619 183.485 87.4605 182.969C87.1591 182.453 87.0749 181.838 87.2264 181.26C87.378 180.682 87.7528 180.187 88.2685 179.886L184.622 123.533C184.877 123.384 185.159 123.286 185.452 123.246C185.745 123.206 186.044 123.224 186.33 123.299C186.616 123.374 186.884 123.505 187.12 123.684C187.355 123.863 187.553 124.086 187.703 124.342C187.852 124.597 187.949 124.88 187.99 125.173C188.03 125.466 188.012 125.764 187.937 126.05C187.862 126.337 187.731 126.605 187.552 126.841C187.373 127.077 187.15 127.275 186.895 127.424Z" fill="#CCCCCC"/>
<path d="M180.523 47.0421L124.353 79.8935C123.837 80.1951 123.223 80.2793 122.645 80.1277C122.067 79.9761 121.573 79.601 121.272 79.085C120.97 78.569 120.886 77.9543 121.038 77.3761C121.189 76.798 121.564 76.3038 122.08 76.0022L178.25 43.1508C178.766 42.8492 179.38 42.765 179.958 42.9166C180.244 42.9917 180.512 43.1224 180.748 43.3013C180.983 43.4802 181.181 43.7038 181.331 43.9593C181.48 44.2148 181.577 44.4972 181.618 44.7904C181.658 45.0836 181.64 45.3819 181.565 45.6681C181.49 45.9544 181.359 46.2231 181.18 46.4588C181.002 46.6946 180.778 46.8928 180.523 47.0421Z" fill="#CCCCCC"/>
<path d="M174.333 68.6441L132.181 93.2968C131.926 93.4462 131.644 93.5437 131.351 93.5839C131.058 93.6241 130.759 93.6061 130.473 93.5311C130.187 93.456 129.919 93.3253 129.683 93.1464C129.448 92.9675 129.25 92.7439 129.1 92.4884C128.951 92.2328 128.854 91.9504 128.813 91.6572C128.773 91.364 128.791 91.0658 128.866 90.7795C128.941 90.4932 129.072 90.2246 129.251 89.9888C129.43 89.7531 129.653 89.5549 129.908 89.4055L172.06 64.7528C172.576 64.4512 173.19 64.3669 173.768 64.5185C174.346 64.6702 174.84 65.0452 175.141 65.5613C175.442 66.0773 175.527 66.692 175.375 67.2701C175.224 67.8483 174.849 68.3425 174.333 68.6441Z" fill="#CCCCCC"/>
<path d="M225.401 122.886L98.3698 197.18C97.8541 197.482 97.2399 197.566 96.6621 197.415C96.0844 197.263 95.5905 196.888 95.2891 196.372C94.9877 195.856 94.9035 195.241 95.055 194.663C95.2065 194.085 95.5813 193.591 96.097 193.289L223.128 118.995C223.644 118.693 224.258 118.609 224.836 118.76C225.413 118.912 225.907 119.287 226.209 119.803C226.51 120.319 226.594 120.934 226.443 121.512C226.291 122.09 225.917 122.584 225.401 122.886Z" fill="#CCCCCC"/>
<path d="M202.552 154.231L106.198 210.584C105.943 210.733 105.661 210.831 105.368 210.871C105.075 210.911 104.777 210.893 104.491 210.818C104.205 210.743 103.936 210.612 103.7 210.433C103.465 210.254 103.267 210.031 103.118 209.775C102.968 209.52 102.871 209.237 102.831 208.944C102.791 208.651 102.809 208.353 102.884 208.067C102.959 207.78 103.089 207.512 103.268 207.276C103.447 207.04 103.67 206.842 103.926 206.693L200.279 150.34C200.534 150.191 200.817 150.093 201.11 150.053C201.403 150.013 201.701 150.031 201.987 150.106C202.273 150.181 202.541 150.311 202.777 150.49C203.012 150.669 203.211 150.893 203.36 151.148C203.509 151.404 203.606 151.686 203.647 151.979C203.687 152.273 203.669 152.571 203.594 152.857C203.519 153.143 203.388 153.412 203.209 153.648C203.031 153.884 202.807 154.082 202.552 154.231Z" fill="#CCCCCC"/>
<path d="M241.058 149.693L114.027 223.987C113.772 224.137 113.489 224.234 113.196 224.274C112.903 224.314 112.605 224.297 112.319 224.221C112.033 224.146 111.765 224.016 111.529 223.837C111.293 223.658 111.095 223.434 110.946 223.179C110.797 222.923 110.699 222.641 110.659 222.348C110.619 222.054 110.637 221.756 110.712 221.47C110.787 221.184 110.918 220.915 111.097 220.679C111.275 220.443 111.499 220.245 111.754 220.096L238.785 145.801C239.04 145.652 239.323 145.554 239.616 145.514C239.909 145.474 240.207 145.492 240.493 145.567C240.779 145.642 241.047 145.773 241.283 145.952C241.519 146.131 241.717 146.354 241.866 146.61C242.015 146.865 242.113 147.148 242.153 147.441C242.193 147.734 242.175 148.032 242.1 148.319C242.025 148.605 241.894 148.874 241.716 149.109C241.537 149.345 241.313 149.543 241.058 149.693Z" fill="#CCCCCC"/>
<path d="M248.887 163.096L121.856 237.391C121.6 237.54 121.318 237.637 121.025 237.678C120.732 237.718 120.434 237.7 120.148 237.625C119.862 237.55 119.593 237.419 119.358 237.24C119.122 237.061 118.924 236.838 118.775 236.582C118.626 236.327 118.528 236.044 118.488 235.751C118.448 235.458 118.466 235.159 118.541 234.873C118.616 234.587 118.746 234.318 118.925 234.083C119.104 233.847 119.327 233.649 119.583 233.499L246.614 159.205C246.869 159.055 247.151 158.958 247.444 158.918C247.737 158.877 248.035 158.895 248.321 158.97C248.607 159.046 248.876 159.176 249.112 159.355C249.347 159.534 249.545 159.758 249.694 160.013C249.844 160.269 249.941 160.551 249.981 160.844C250.022 161.137 250.004 161.436 249.929 161.722C249.854 162.008 249.723 162.277 249.544 162.513C249.365 162.748 249.142 162.947 248.887 163.096Z" fill="#CCCCCC"/>
<path d="M207.807 215.274C209.572 213.194 211.161 210.971 212.557 208.627C213.808 206.512 215.036 204.252 215.312 201.772C215.454 200.716 215.344 199.642 214.992 198.636C214.64 197.631 214.055 196.723 213.286 195.986C212.543 195.3 211.601 194.869 210.597 194.755C209.593 194.641 208.578 194.849 207.701 195.35C206.812 195.86 206.078 196.602 205.576 197.495C205.074 198.389 204.823 199.402 204.85 200.426C204.922 201.555 205.248 202.652 205.803 203.637C206.358 204.621 207.128 205.468 208.055 206.113C211.81 208.835 217.674 208.693 221.676 206.622C226.184 204.288 228.513 198.184 224.971 194.005C224.235 193.136 223.009 194.107 223.193 195.045C223.427 196.311 224.136 197.44 225.174 198.202C226.212 198.963 227.501 199.299 228.779 199.141C230.056 198.983 231.225 198.343 232.047 197.352C232.868 196.36 233.281 195.092 233.2 193.807L231.608 194.738C233.559 195.603 235.704 195.939 237.827 195.711C239.949 195.483 241.974 194.7 243.698 193.44C244.551 192.82 245.313 192.084 245.961 191.252C246.74 190.235 248.049 189.577 249.109 188.845L256.748 183.563C257.871 182.786 256.803 180.935 255.67 181.718L248.752 186.501C247.599 187.299 246.439 188.086 245.293 188.893C244.474 189.47 243.97 190.402 243.225 191.087C241.814 192.357 240.071 193.199 238.2 193.516C236.329 193.833 234.406 193.611 232.656 192.876C232.493 192.788 232.31 192.744 232.125 192.747C231.94 192.751 231.759 192.801 231.599 192.895C231.439 192.988 231.306 193.121 231.212 193.281C231.118 193.441 231.067 193.622 231.064 193.807C231.148 194.574 230.926 195.343 230.446 195.947C229.966 196.551 229.268 196.941 228.502 197.032C227.736 197.123 226.965 196.907 226.358 196.432C225.75 195.957 225.355 195.261 225.258 194.495L223.48 195.535C225.764 198.231 224.243 202.365 221.611 204.174C218.668 206.197 214.319 206.548 211.001 205.291C210.187 205.011 209.44 204.565 208.805 203.983C208.171 203.401 207.664 202.694 207.315 201.907C206.992 201.195 206.899 200.401 207.051 199.634C207.203 198.868 207.591 198.168 208.162 197.634C208.656 197.146 209.32 196.869 210.014 196.861C210.709 196.854 211.379 197.117 211.883 197.595C212.433 198.156 212.836 198.843 213.057 199.597C213.278 200.351 213.311 201.148 213.152 201.917C212.81 204.058 211.627 206.032 210.527 207.861C209.271 209.944 207.85 211.924 206.278 213.781C205.397 214.824 206.917 216.328 207.807 215.274Z" fill="#6C63FF"/>
<path d="M226.767 266.083C226.951 266.272 227.12 266.476 227.272 266.692L250.927 266.113L253.686 261.067L261.841 264.239L257.823 273.647C257.499 274.407 256.936 275.041 256.221 275.454C255.506 275.867 254.675 276.037 253.855 275.938L227.13 272.707C226.499 273.506 225.641 274.093 224.669 274.392C223.696 274.69 222.656 274.686 221.687 274.378C220.717 274.071 219.864 273.475 219.241 272.671C218.618 271.866 218.254 270.891 218.199 269.875C218.143 268.859 218.398 267.85 218.929 266.982C219.461 266.114 220.244 265.429 221.174 265.017C222.104 264.605 223.137 264.487 224.136 264.677C225.135 264.868 226.053 265.358 226.767 266.083Z" fill="#FFB7B7"/>
<path d="M303.878 409.837H296.101L292.4 379.816L303.88 379.817L303.878 409.837Z" fill="#FFB7B7"/>
<path d="M305.862 417.382L280.783 417.381V417.063C280.783 414.473 281.811 411.988 283.642 410.156C285.473 408.325 287.955 407.296 290.544 407.295H290.545L305.862 407.296L305.862 417.382Z" fill="#2F2E41"/>
<path d="M233.252 409.664L226.1 406.606L234.482 377.544L245.038 382.057L233.252 409.664Z" fill="#FFB7B7"/>
<path d="M232.115 417.382L209.052 407.522L209.177 407.23C210.194 404.848 212.115 402.968 214.517 402.003C216.92 401.038 219.607 401.067 221.988 402.085L221.988 402.085L236.074 408.107L232.115 417.382Z" fill="#2F2E41"/>
<path d="M266.073 272.586L265.51 281.706L281.951 283.467L299.153 285.309L294.089 271.46L266.073 272.586Z" fill="#FFB7B7"/>
<path d="M264.992 281.824L258.605 237.269L269.676 233.639L272.927 229.177L288.749 230.114L291.072 235.321L299.509 239.31L298.213 263.405L299.158 283.562L264.992 281.824Z" fill="#2F2E41"/>
<path d="M260.972 269.884L249.712 265.376L249.76 265.175C249.809 264.973 254.601 244.933 255.237 241.712C255.9 238.357 258.322 237.43 258.425 237.392L258.5 237.364L262.956 238.721L264.913 254.109L260.972 269.884Z" fill="#2F2E41"/>
<path d="M239.045 404.388L224.056 401.311L248.013 335.162L256.212 312.599C256.212 312.599 261.412 294.509 263.762 287.508L265.18 278.115L298.745 281.832C298.745 281.832 308.119 295.609 305.272 318.064L306.56 402.465L291.571 403.234L279.016 318.112L256.981 364.775C256.981 364.775 250.036 384.688 245.066 389.004L239.045 404.388Z" fill="#0D0C57"/>
<path d="M285.285 284.965C285.548 284.959 285.812 284.973 286.074 285.009L301.733 267.257L299.911 261.801L307.78 257.974L311.943 267.319C312.279 268.074 312.362 268.918 312.178 269.724C311.994 270.53 311.554 271.254 310.924 271.788L290.386 289.203C290.542 290.208 290.389 291.238 289.947 292.154C289.505 293.071 288.794 293.831 287.909 294.333C287.025 294.835 286.009 295.056 284.995 294.967C283.982 294.877 283.021 294.481 282.238 293.831C281.455 293.181 280.889 292.308 280.615 291.328C280.34 290.348 280.37 289.307 280.701 288.345C281.032 287.382 281.647 286.544 282.466 285.94C283.285 285.336 284.268 284.996 285.285 284.965Z" fill="#FFB7B7"/>
<path d="M300.483 268.985L293.951 253.61L296.499 242.9L299.244 239.43C299.445 239.344 299.661 239.3 299.88 239.302C300.099 239.304 300.315 239.352 300.514 239.442C301.526 239.849 302.388 241.099 303.076 243.156L309.198 260.604L300.483 268.985Z" fill="#2F2E41"/>
<path d="M266.593 223.48V211.888C266.593 207.769 268.229 203.818 271.14 200.905C274.051 197.992 277.999 196.356 282.116 196.356C286.232 196.356 290.18 197.992 293.091 200.905C296.002 203.818 297.638 207.769 297.638 211.888V223.48C297.637 224.033 297.417 224.563 297.026 224.954C296.635 225.345 296.105 225.565 295.553 225.566H268.679C268.126 225.565 267.596 225.345 267.205 224.954C266.814 224.563 266.594 224.033 266.593 223.48Z" fill="#2F2E41"/>
<path d="M278.926 225.296C285.211 225.296 290.306 220.198 290.306 213.908C290.306 207.619 285.211 202.521 278.926 202.521C272.641 202.521 267.546 207.619 267.546 213.908C267.546 220.198 272.641 225.296 278.926 225.296Z" fill="#FFB7B7"/>
<path d="M262.921 212.816C262.925 209.558 264.22 206.435 266.522 204.131C268.824 201.828 271.945 200.532 275.2 200.529H277.517C280.772 200.532 283.893 201.828 286.195 204.131C288.497 206.435 289.792 209.558 289.795 212.816V213.047H284.899L283.229 208.368L282.896 213.047H280.365L279.523 210.687L279.354 213.047H262.921L262.921 212.816Z" fill="#2F2E41"/>
<path d="M277.806 226.869C277.576 226.558 277.439 226.188 277.41 225.802C277.381 225.416 277.462 225.029 277.643 224.687C280.098 220.014 283.535 211.38 278.973 206.055L278.645 205.673H291.89V225.573L279.858 227.697C279.736 227.719 279.612 227.73 279.489 227.73C279.16 227.73 278.836 227.652 278.544 227.502C278.251 227.353 277.998 227.136 277.806 226.869Z" fill="#2F2E41"/>
<path d="M123.29 403.279L130.319 405.793L143.354 379.859L132.98 376.149L123.29 403.279Z" fill="#9F616A"/>
<path d="M119.062 409.457L122.317 400.342L136.16 405.292C138.498 406.132 140.408 407.864 141.471 410.111C142.534 412.357 142.663 414.934 141.83 417.275L141.727 417.562L119.062 409.457Z" fill="#2F2E41"/>
<path d="M168.999 410.237L176.463 410.236L180.015 381.425L168.998 381.426L168.999 410.237Z" fill="#9F616A"/>
<path d="M167.095 407.798L181.795 407.797H181.796C183.026 407.797 184.244 408.04 185.381 408.511C186.518 408.982 187.55 409.673 188.42 410.543C189.29 411.414 189.98 412.447 190.451 413.584C190.922 414.722 191.164 415.941 191.164 417.172V417.476L167.095 417.477L167.095 407.798Z" fill="#2F2E41"/>
<path d="M151.987 226.169L155.233 219.75C155.233 219.75 167.327 222.782 168.426 229.796L151.987 226.169Z" fill="#F1F1F1"/>
<path d="M138.592 299.565L147.42 348.863L123.979 390.347L137.983 395.83L161.729 355.618L164.773 344.651L166.6 401.923L179.23 401.539L185.02 348.061L175.733 298.346L138.592 299.565Z" fill="#0D0C57"/>
<path d="M155.351 311.219C142.381 311.219 134.146 308.737 133.962 308.698L133.663 308.634L140.419 277.293L140.723 248.383C140.723 236.132 148.781 227.1 149.899 226.266C150.087 225.523 150.435 224.829 150.919 224.234C151.403 223.639 152.011 223.157 152.7 222.821C155.388 221.601 158.672 223.065 158.81 223.128L168.668 226.827L168.715 226.964C168.833 227.314 181.818 269.969 181.818 269.969C181.818 269.969 181.032 307.238 180.758 308.459C180.758 308.459 162.557 311.219 155.351 311.219Z" fill="#3F3D56"/>
<path d="M165.316 217.729C172.675 217.729 178.64 211.76 178.64 204.396C178.64 197.033 172.675 191.064 165.316 191.064C157.958 191.064 151.993 197.033 151.993 204.396C151.993 211.76 157.958 217.729 165.316 217.729Z" fill="#9F616A"/>
<path opacity="0.2" d="M150.461 250.747L173.771 283.292L177.213 268.094L150.461 250.747Z" fill="black"/>
<path d="M223.542 272.891C222.886 273.41 222.125 273.779 221.311 273.971C220.498 274.164 219.652 274.176 218.834 274.006C218.015 273.836 217.244 273.489 216.574 272.989C215.904 272.488 215.352 271.847 214.957 271.11L194.893 274.324L199.24 264.695L217.626 263.119C218.908 262.537 220.358 262.445 221.702 262.86C223.047 263.276 224.192 264.171 224.921 265.376C225.651 266.58 225.913 268.011 225.659 269.396C225.404 270.781 224.651 272.024 223.542 272.891Z" fill="#9F616A"/>
<path d="M200.273 264.147L207.482 263.439L209.48 273.502L200.409 273.663L200.273 264.147Z" fill="#F1F1F1"/>
<path d="M206.183 277.009L170.876 273.863L153.048 245.491L152.993 245.24C152.487 242.923 152.842 240.5 153.99 238.425C155.138 236.349 157.002 234.763 159.234 233.962C161.465 233.161 163.912 233.2 166.117 234.072C168.321 234.944 170.134 236.589 171.215 238.7L181.68 259.128L202.801 262.322L206.183 277.009Z" fill="#3F3D56"/>
<path d="M153.967 215.972L165.026 216.369C165.7 216.394 167.53 209.114 167.769 207.604C167.959 206.62 168.499 205.74 169.29 205.126C170.08 204.513 171.067 204.208 172.066 204.269C172.894 204.348 174.981 202.8 177.135 200.967C181.225 197.488 181.012 190.954 176.52 188.014C176.397 187.934 176.276 187.861 176.158 187.794C173.324 186.207 170.009 185.674 166.762 185.633C163.818 185.596 160.79 185.967 158.197 187.361C153.547 189.861 151.073 195.324 150.855 200.601C150.638 205.878 152.328 211.039 154.247 215.959" fill="#2F2E41"/>
</svg>
