<svg width="507" height="301" viewBox="0 0 507 301" fill="none" xmlns="http://www.w3.org/2000/svg">
<g clip-path="url(#clip0_5_2)">
<mask id="mask0_5_2" style="mask-type:luminance" maskUnits="userSpaceOnUse" x="0" y="0" width="507" height="301">
<path d="M507 0H0V301H507V0Z" fill="white"/>
</mask>
<g mask="url(#mask0_5_2)">
<path d="M227.359 295.64C223.572 295.637 219.847 296.596 216.536 298.428H238.154C234.853 296.597 231.137 295.637 227.359 295.64Z" fill="#E6E6E6"/>
<path d="M269.308 292.853C262.982 292.846 256.81 294.793 251.642 298.428H286.95C281.788 294.798 275.625 292.85 269.308 292.853Z" fill="#E6E6E6"/>
<path d="M506.927 257.565C505.347 229.017 482.336 205.741 453.718 203.79C440.526 202.866 427.419 206.515 416.618 214.12C405.816 221.724 397.983 232.816 394.446 245.518C393.751 245.493 393.058 245.465 392.357 245.465C379.971 245.467 367.919 249.467 358.003 256.865C348.088 264.264 340.842 274.663 337.35 286.508C329.143 282.914 319.972 282.134 311.272 284.291C302.572 286.448 294.836 291.42 289.275 298.428H468.104C490.075 298.428 507.863 280.289 506.968 258.408C506.956 258.128 506.943 257.847 506.927 257.565Z" fill="#0D0743"/>
<path d="M167.631 106.287C167.631 106.287 144.833 99.2088 148.333 110.855C151.833 122.5 171.035 116.618 171.035 116.618L167.631 106.287Z" fill="#FFB8B8"/>
<path d="M254.778 62.5756C254.778 62.5756 243.094 46.6615 231.743 63.1824C220.369 79.7357 209.795 93.3251 209.795 93.3251L181.548 102.505L165.206 103.951L169.708 118.432L217.223 111.562C217.223 111.562 270.122 80.2403 254.778 62.5756Z" fill="#2F2E41"/>
<path d="M202.629 150.707C202.629 150.707 184.88 163.091 186.063 174.296C187.247 185.5 194.938 216.164 194.938 216.164L210.911 213.806C210.911 213.806 212.686 190.218 206.77 181.372L235.168 165.45L202.629 150.707Z" fill="#FFB8B8"/>
<path d="M241.971 179.898C241.971 179.898 240.788 201.717 243.746 210.562C246.704 219.408 249.662 252.431 249.662 252.431H266.228C266.228 252.431 273.919 223.536 264.453 210.562C264.453 210.562 261.495 193.461 269.777 185.205L241.971 179.898Z" fill="#FFB8B8"/>
<path d="M238.126 119.453C238.126 119.453 199.671 143.631 199.671 151.297L230.435 176.654L241.084 164.86L239.901 182.551L273.031 189.038C273.031 189.038 284.863 144.221 284.272 142.452C283.68 140.683 281.905 114.736 281.905 114.736L238.126 119.453Z" fill="#2F2E41"/>
<path d="M210.911 210.857L193.754 214.395L196.803 226.887C198.303 233.035 198.474 239.431 197.304 245.65C197.304 245.65 215.053 250.367 215.053 248.008C215.053 245.65 210.911 236.214 212.095 229.728C213.278 223.241 210.911 210.857 210.911 210.857Z" fill="#6C63FF"/>
<path d="M219.786 255.085C219.194 252.726 214.279 242.031 214.074 243.84C213.869 245.65 204.404 248.598 200.854 245.06C200.854 245.06 196.121 240.932 194.346 245.06C192.571 249.188 189.022 256.264 189.022 256.264C189.022 256.264 173.048 263.93 175.414 268.058C175.893 268.893 177.219 269.245 179.029 269.276C178.987 269.385 178.965 269.501 178.964 269.618V270.036C178.964 270.294 179.067 270.541 179.249 270.723C179.432 270.905 179.679 271.007 179.938 271.007H180.357C180.615 271.007 180.863 270.905 181.045 270.723C181.228 270.541 181.331 270.294 181.331 270.036V269.618C181.33 269.468 181.293 269.32 181.224 269.186C181.708 269.144 182.21 269.088 182.726 269.02C182.589 269.19 182.515 269.401 182.514 269.618V270.036C182.514 270.294 182.616 270.541 182.799 270.723C182.982 270.905 183.229 271.007 183.487 271.007H183.907C184.165 271.007 184.412 270.905 184.595 270.723C184.778 270.541 184.88 270.294 184.88 270.036V269.618C184.88 269.446 184.833 269.276 184.744 269.127C184.656 268.979 184.529 268.857 184.377 268.774C185.738 268.547 187.16 268.259 188.573 267.939C188.48 268.09 188.431 268.263 188.43 268.439V268.857C188.43 269.114 188.533 269.361 188.715 269.543C188.898 269.725 189.145 269.827 189.404 269.827H189.823C190.081 269.827 190.329 269.725 190.511 269.543C190.694 269.361 190.796 269.114 190.796 268.857V268.439C190.796 268.251 190.741 268.068 190.639 267.911C190.536 267.753 190.39 267.629 190.218 267.553C191.278 267.296 192.316 267.027 193.305 266.761C193.213 266.911 193.164 267.084 193.163 267.26V267.677C193.163 267.935 193.265 268.182 193.448 268.364C193.631 268.546 193.878 268.648 194.136 268.648H194.556C194.814 268.648 195.062 268.546 195.244 268.364C195.427 268.182 195.529 267.935 195.529 267.677V267.26C195.529 267.053 195.462 266.852 195.339 266.687C195.216 266.521 195.043 266.398 194.845 266.338C198.319 265.362 200.854 264.52 200.854 264.52C200.854 264.52 203.797 263.452 207.362 262.01V262.37C207.362 262.628 207.464 262.874 207.647 263.056C207.829 263.238 208.077 263.341 208.335 263.341H208.755C209.013 263.341 209.26 263.238 209.443 263.056C209.626 262.874 209.728 262.628 209.728 262.37V261.952C209.728 261.805 209.694 261.66 209.628 261.528C209.563 261.396 209.468 261.281 209.352 261.191C210.067 260.891 210.789 260.583 211.503 260.269V260.601C211.503 260.858 211.606 261.105 211.788 261.287C211.971 261.469 212.218 261.572 212.477 261.572H212.896C213.154 261.572 213.402 261.469 213.584 261.287C213.767 261.105 213.869 260.858 213.869 260.601V260.183C213.869 260.027 213.831 259.873 213.759 259.735C213.686 259.597 213.581 259.478 213.453 259.389C214.225 259.03 214.968 258.671 215.654 258.32C215.651 258.351 215.644 258.382 215.644 258.414V258.832C215.644 259.089 215.747 259.336 215.929 259.518C216.112 259.7 216.36 259.802 216.618 259.802H217.037C217.295 259.802 217.543 259.7 217.726 259.518C217.908 259.336 218.011 259.089 218.011 258.832V258.414C218.011 258.19 217.933 257.974 217.791 257.8C217.649 257.627 217.452 257.508 217.232 257.463C218.886 256.506 219.929 255.656 219.786 255.085Z" fill="#2F2E41"/>
<path d="M267.411 249.777L248.668 248.598C248.668 248.598 249.804 268.058 247.532 274.545C245.261 281.032 246.397 283.391 246.397 283.391L262.867 284.57L267.411 249.777Z" fill="#6C63FF"/>
<path d="M267.641 292.787C267.556 290.357 264.986 278.876 264.407 280.603C263.829 282.33 253.954 283.246 251.223 279.048C251.223 279.048 247.457 274.027 244.858 277.695C242.259 281.364 237.307 287.547 237.307 287.547C237.307 287.547 220.081 291.725 221.532 296.254C221.825 297.17 223.048 297.79 224.812 298.196C224.748 298.294 224.702 298.403 224.677 298.517L224.589 298.926C224.536 299.178 224.584 299.44 224.725 299.656C224.865 299.872 225.086 300.024 225.339 300.077L225.749 300.165C226.001 300.218 226.265 300.17 226.481 300.03C226.698 299.89 226.85 299.67 226.904 299.418L226.991 299.009C227.022 298.862 227.017 298.709 226.978 298.564C227.46 298.623 227.962 298.673 228.481 298.714C228.312 298.852 228.195 299.042 228.148 299.255L228.061 299.664C228.007 299.915 228.056 300.178 228.196 300.394C228.337 300.61 228.558 300.762 228.81 300.815L229.22 300.902C229.473 300.956 229.736 300.907 229.953 300.767C230.17 300.627 230.322 300.407 230.375 300.156L230.463 299.747C230.499 299.578 230.488 299.402 230.433 299.238C230.377 299.075 230.279 298.929 230.147 298.816C231.526 298.877 232.977 298.891 234.426 298.872C234.303 299 234.219 299.159 234.181 299.331L234.094 299.74C234.04 299.992 234.089 300.254 234.229 300.47C234.37 300.686 234.591 300.838 234.843 300.891L235.253 300.978C235.506 301.032 235.769 300.984 235.986 300.844C236.203 300.703 236.354 300.483 236.408 300.232L236.496 299.823C236.535 299.639 236.52 299.449 236.452 299.273C236.384 299.098 236.267 298.947 236.115 298.837C237.205 298.805 238.278 298.758 239.3 298.703C239.179 298.831 239.094 298.989 239.057 299.161L238.97 299.57C238.916 299.822 238.964 300.084 239.105 300.3C239.245 300.516 239.466 300.668 239.719 300.721L240.129 300.809C240.381 300.862 240.645 300.814 240.861 300.674C241.078 300.534 241.23 300.314 241.284 300.062L241.371 299.653C241.414 299.451 241.391 299.241 241.305 299.053C241.219 298.865 241.075 298.71 240.895 298.609C244.497 298.377 247.152 298.08 247.152 298.08C247.152 298.08 250.254 297.648 254.042 296.978L253.966 297.33C253.913 297.582 253.961 297.845 254.102 298.061C254.242 298.277 254.463 298.428 254.716 298.482L255.126 298.569C255.378 298.623 255.642 298.574 255.858 298.434C256.075 298.294 256.227 298.074 256.281 297.822L256.368 297.413C256.399 297.269 256.396 297.12 256.359 296.978C256.323 296.835 256.255 296.703 256.159 296.591C256.922 296.446 257.692 296.295 258.456 296.136L258.387 296.461C258.333 296.712 258.382 296.975 258.522 297.191C258.663 297.407 258.883 297.559 259.136 297.612L259.546 297.699C259.798 297.753 260.062 297.705 260.279 297.564C260.495 297.424 260.647 297.204 260.701 296.953L260.789 296.544C260.821 296.391 260.816 296.233 260.774 296.083C260.732 295.932 260.654 295.794 260.547 295.68C261.377 295.49 262.179 295.293 262.924 295.092C262.914 295.123 262.901 295.151 262.894 295.182L262.807 295.591C262.753 295.843 262.802 296.106 262.942 296.322C263.083 296.538 263.304 296.689 263.556 296.743L263.966 296.83C264.219 296.884 264.482 296.835 264.699 296.695C264.916 296.555 265.068 296.335 265.122 296.083L265.209 295.674C265.256 295.455 265.225 295.227 265.123 295.028C265.02 294.829 264.852 294.672 264.646 294.582C266.464 293.99 267.662 293.376 267.641 292.787Z" fill="#2F2E41"/>
<path d="M238.126 42.7919C247.601 42.7919 255.283 35.1354 255.283 25.6905C255.283 16.2457 247.601 8.58917 238.126 8.58917C228.65 8.58917 220.969 16.2457 220.969 25.6905C220.969 35.1354 228.65 42.7919 238.126 42.7919Z" fill="#FFB8B8"/>
<path d="M253.508 23.9214C253.508 23.9214 262.974 35.7155 267.707 35.1258L247 51.0477C247 51.0477 244.634 41.0228 241.675 39.8434C238.717 38.664 253.508 23.9214 253.508 23.9214Z" fill="#FFB8B8"/>
<path d="M290.484 111.492C290.484 111.492 290.482 46.4208 279.531 40.8153C268.586 35.2132 261.346 32.0157 261.346 32.0157C261.185 34.1509 260.576 36.2286 259.559 38.1146C258.542 40.0006 257.14 41.6529 255.442 42.9648C251.813 45.7575 248.197 48.0731 246.178 48.0805L246.113 47.8044L245.866 47.1033L239.901 56.3551C239.901 56.3551 234.576 57.5345 232.801 61.0727C231.841 62.9869 236.369 82.2566 233.689 99.6982C231.415 114.496 221.832 127.854 221.56 129.478C221.101 132.224 232.748 125.031 237.993 121.668C238.07 121.754 238.126 121.812 238.126 121.812C238.126 121.812 235.168 122.991 241.084 121.222C244.436 120.22 249.116 120.164 252.545 120.304C252.541 121.329 252.565 122.143 252.62 122.697C253.212 128.594 282.793 136.849 286.934 135.08C291.075 133.311 290.484 111.492 290.484 111.492Z" fill="#2F2E41"/>
<path d="M269.777 133.901C269.777 133.901 252.029 149.823 263.861 152.771C275.693 155.72 280.426 136.26 280.426 136.26L269.777 133.901Z" fill="#FFB8B8"/>
<path d="M249.071 175.18C249.071 175.18 257.353 167.514 262.086 171.642C266.819 175.77 269.777 178.718 269.777 178.718C269.777 178.718 256.17 170.462 249.071 175.18Z" fill="#6C63FF"/>
<path d="M251.222 266.907C251.222 266.907 255.89 262.587 258.558 264.913C261.226 267.24 262.893 268.902 262.893 268.902C262.893 268.902 255.223 264.248 251.222 266.907Z" fill="#2F2E41"/>
<path d="M198.921 226.716C198.921 226.716 202.126 221.228 205.357 222.68C208.589 224.133 210.669 225.239 210.669 225.239C210.669 225.239 201.973 223.012 198.921 226.716Z" fill="#2F2E41"/>
<path d="M286.013 48.9064C280.149 37.1561 262.305 43.5647 265.204 56.3666C265.248 56.5574 265.293 56.7502 265.34 56.9448C268.396 69.0632 273.39 80.612 280.131 91.1475L273.623 120.043L266.523 134.785L281.314 138.324L299.654 94.096C299.654 94.096 294.595 66.101 286.013 48.9064Z" fill="#2F2E41"/>
<path opacity="0.2" d="M277.468 92.0319L266.228 134.491L275.693 114.441L277.468 92.0319Z" fill="black"/>
<path d="M248.901 5.75628C248.901 5.75628 239.417 -4.19582 229.871 2.07163C220.325 8.33909 215.797 14.4273 216.733 18.6664C217.669 22.9056 220.439 28.802 220.439 28.802C220.439 28.802 218.717 20.0197 226.621 19.3698C234.526 18.72 245.446 13.506 245.446 13.506L252.833 29.2298C252.833 29.2298 253.877 25.586 256.772 26.6312C259.668 27.6763 257.423 6.92196 248.901 5.75628Z" fill="#2F2E41"/>
<path d="M188.134 230.612C188.133 232.106 188.009 233.597 187.761 235.07V235.076C187.082 239.039 185.508 242.797 183.159 246.065C180.81 249.333 177.747 252.027 174.2 253.942C170.654 255.858 166.718 256.945 162.688 257.123C158.659 257.3 154.641 256.563 150.939 254.967H150.933C149.838 254.496 148.776 253.95 147.756 253.333C144.595 251.431 141.864 248.894 139.738 245.884C137.611 242.874 136.135 239.457 135.403 235.849C135.06 234.124 134.888 232.37 134.889 230.612C134.889 229.81 134.924 229.014 134.995 228.23V228.224C135.609 221.452 138.807 215.174 143.93 210.684C149.052 206.195 155.709 203.836 162.525 204.096C169.341 204.355 175.798 207.213 180.562 212.079C185.326 216.945 188.034 223.448 188.128 230.247V230.252C188.134 230.376 188.134 230.488 188.134 230.612Z" fill="#6C63FF"/>
<path d="M168.065 221.749H156.141L150.179 211.458L154.223 204.472L154.459 204.408C159.579 203.045 164.986 203.196 170.02 204.842L170.235 204.913L174.027 211.458L168.065 221.749ZM156.824 220.569H167.382L172.661 211.458L169.437 205.893C164.758 204.414 159.757 204.273 155.002 205.485L151.545 211.458L156.824 220.569Z" fill="white"/>
<path d="M167.473 242.979H155.55L149.587 232.686L155.55 222.393H167.473L173.435 232.686L167.473 242.979ZM156.232 241.799H166.79L172.069 232.686L166.79 223.573H156.232L150.954 232.686L156.232 241.799Z" fill="white"/>
<path d="M161.511 257.738C157.793 257.745 154.113 256.986 150.703 255.508L150.095 255.244L156.141 244.8H168.065L173.856 254.799L173.28 255.074C169.61 256.837 165.586 257.748 161.511 257.738ZM151.787 254.682C155.04 255.986 158.523 256.623 162.029 256.554C165.535 256.485 168.99 255.711 172.189 254.28L167.382 245.98H156.824L151.787 254.682Z" fill="white"/>
<path d="M187.588 232.363H175.665L169.702 222.073L175.664 211.777H181.094L181.269 211.961C185.977 216.898 188.639 223.427 188.72 230.239V230.41L187.588 232.363ZM176.347 231.184H186.905L187.534 230.098C187.42 223.725 184.944 217.619 180.584 212.956H176.348L171.069 222.073L176.347 231.184Z" fill="white"/>
<path d="M175.5 253.894L169.702 243.892L175.664 233.596H187.588L188.353 234.911L188.345 235.175C187.698 238.93 186.267 242.508 184.144 245.677C182.021 248.845 179.253 251.533 176.02 253.567L175.5 253.894ZM171.069 243.892L175.905 252.235C178.835 250.295 181.341 247.784 183.272 244.853C185.203 241.922 186.52 238.633 187.143 235.182L186.906 234.775H176.348L171.069 243.892Z" fill="white"/>
<path d="M147.967 254.149L147.45 253.838C144.22 251.892 141.429 249.298 139.256 246.222C137.082 243.145 135.573 239.652 134.823 235.964L134.779 235.746L136.026 233.596H147.95L153.912 243.892L147.967 254.149ZM136.028 235.949C136.747 239.335 138.136 242.544 140.114 245.388C142.093 248.232 144.62 250.654 147.549 252.512L152.546 243.892L147.267 234.775H136.709L136.028 235.949Z" fill="white"/>
<path d="M147.95 231.184H136.026L134.404 228.388V228.23C134.988 221.547 138.043 215.319 142.975 210.755L143.146 210.597H147.95L153.912 220.894L147.95 231.184ZM136.709 230.005H147.267L152.546 220.894L147.267 211.777H143.613C139.048 216.071 136.202 221.869 135.601 228.096L136.709 230.005Z" fill="white"/>
</g>
</g>
<defs>
<clipPath id="clip0_5_2">
<rect width="507" height="301" fill="white"/>
</clipPath>
</defs>
</svg>
