<svg width="411" height="374" viewBox="0 0 411 374" fill="none" xmlns="http://www.w3.org/2000/svg">
<g clip-path="url(#clip0_1_24)">
<path d="M355.742 316.896H54.2492V265.705H58.9002V227.602C58.9103 218.624 62.4805 210.018 68.8275 203.67C75.1745 197.322 83.78 193.751 92.7561 193.741H317.782C326.758 193.751 335.364 197.322 341.711 203.67C348.058 210.018 351.628 218.624 351.638 227.602V265.705H355.742V316.896Z" fill="#1E1854"/>
<path d="M363.911 373.24H348.903V372.966C348.888 359.691 343.608 346.963 334.222 337.576C324.836 328.188 312.11 322.908 298.836 322.893H111.155C97.8815 322.908 85.1556 328.188 75.7695 337.576C66.3835 346.963 61.1039 359.691 61.0888 372.966V373.24H46.0803C42.6609 373.236 39.3826 371.876 36.9647 369.458C34.5469 367.039 33.1868 363.761 33.183 360.341V276.66C28.8247 274.197 25.28 260.822 27.5824 250.14C29.0274 243.437 33.1987 235.341 44.8653 234.84C56.2223 234.352 64.652 245.015 65.4049 255.28C65.813 260.682 64.2268 266.046 60.9466 270.356H61.0888V282.294C85.7164 274.401 110.379 270.384 134.396 270.356C158.973 270.38 183.379 274.443 206.639 282.381C255.001 266.737 302.862 266.433 348.903 281.48V270.356H349.045C345.765 266.046 344.178 260.682 344.587 255.28C345.412 244.021 354.621 234.852 365.114 234.84H365.149C377.523 234.84 381.899 242.29 383.392 248.543C386.034 259.61 381.184 274.176 376.809 276.659V360.341C376.805 363.761 375.445 367.039 373.027 369.458C370.609 371.876 367.331 373.236 363.911 373.24Z" fill="#0D0740"/>
<path d="M280.06 350.848L287.304 356.024L310.713 330.54L300.021 322.901L280.06 350.848Z" fill="#FFB6B6"/>
<path d="M279.902 347.162L281.941 348.619L292.215 351.069L294.169 357.355L294.169 357.355C296.58 359.078 298.209 361.689 298.696 364.612C299.182 367.536 298.488 370.533 296.766 372.945L296.555 373.24L273.196 356.551L279.902 347.162Z" fill="#2F2E41"/>
<path d="M329.152 282.62H275.957C270.997 282.617 266.241 280.645 262.734 277.136C259.228 273.627 257.258 268.869 257.258 263.908C257.258 258.947 259.228 254.189 262.734 250.68C266.241 247.171 270.997 245.198 275.957 245.195H329.152C334.114 245.195 338.873 247.167 342.381 250.676C345.89 254.185 347.861 258.945 347.861 263.908C347.861 268.871 345.89 273.63 342.381 277.139C338.873 280.649 334.114 282.62 329.152 282.62Z" fill="#0A0534"/>
<path d="M303.053 151.955L311.634 158.49L321.981 161.67C321.981 161.67 326.259 221.852 330.113 225.707C333.968 229.562 330.492 229.666 331.266 234.674C332.041 239.682 333.923 249.948 333.923 249.948C307.905 263.722 285.475 264.092 267.457 247.973C267.227 246.976 267.344 245.93 267.789 245.009C268.234 244.087 268.981 243.346 269.906 242.907C273.259 241.127 266.814 232.821 269.555 231.433C272.295 230.044 268.441 217.997 268.441 217.997L270.969 192.861L268.972 188.843L273.847 164.258L282.306 161.168L285.685 153.026L303.053 151.955Z" fill="#2D2880"/>
<path d="M308.428 95.7673C308.39 96.8541 308.59 97.9362 309.015 98.9373C309.44 99.9384 310.079 100.834 310.888 101.561C311.696 102.289 312.654 102.83 313.694 103.147C314.735 103.463 315.832 103.548 316.908 103.395L329 126.902L335.737 114.931L323.222 94.4436C322.845 92.6519 321.824 91.0607 320.352 89.9715C318.881 88.8823 317.061 88.3708 315.237 88.534C313.414 88.6972 311.714 89.5236 310.459 90.8567C309.204 92.1899 308.481 93.9371 308.428 95.7673Z" fill="#FFB6B6"/>
<path d="M328.793 101.518L354.729 141.721L354.643 141.906C354.545 142.118 348.672 154.804 342.981 166.424C342.105 168.214 341.233 169.978 340.387 171.667C340.022 172.396 339.662 173.11 339.308 173.809C336.918 178.522 334.829 182.417 333.583 184.267C330.825 188.451 326.72 191.565 321.949 193.094L321.829 193.125L321.715 193.077C319.381 192.092 317.453 190.341 316.247 188.113C315.042 185.885 314.632 183.312 315.085 180.82C317.334 168.797 322.347 157.462 329.728 147.709L333.932 142.166L319.32 110.394L328.793 101.518Z" fill="#6C63FF"/>
<path d="M283.983 90.842C284.021 91.9289 283.821 93.0109 283.396 94.012C282.971 95.0131 282.332 95.9088 281.524 96.6361C280.715 97.3633 279.757 97.9045 278.717 98.2213C277.677 98.5382 276.58 98.6231 275.503 98.4701L263.411 121.977L256.674 110.006L269.19 89.5183C269.567 87.7266 270.588 86.1354 272.059 85.0462C273.531 83.957 275.351 83.4456 277.174 83.6087C278.998 83.7719 280.698 84.5983 281.953 85.9315C283.208 87.2646 283.93 89.0118 283.983 90.842Z" fill="#FFB6B6"/>
<path d="M263.619 96.5924L237.683 136.796L237.768 136.981C237.866 137.193 243.739 149.879 249.43 161.499C250.307 163.289 251.179 165.053 252.025 166.742C252.39 167.471 252.749 168.185 253.104 168.884C255.494 173.597 257.582 177.492 258.829 179.342C261.586 183.526 265.691 186.64 270.462 188.168L270.582 188.199L270.697 188.152C273.03 187.167 274.959 185.416 276.164 183.188C277.369 180.959 277.779 178.387 277.327 175.894C275.077 163.872 270.064 152.536 262.684 142.783L258.479 137.24L273.091 105.469L263.619 96.5924Z" fill="#6C63FF"/>
<path d="M294.27 148.318C303.643 148.318 311.242 140.719 311.242 131.344C311.242 121.969 303.643 114.37 294.27 114.37C284.897 114.37 277.298 121.969 277.298 131.344C277.298 140.719 284.897 148.318 294.27 148.318Z" fill="#FFB6B6"/>
<path d="M280.446 116.762C281.842 112.701 288.79 109.884 300.053 109.492C311.317 109.1 314.174 122.376 314.174 122.376C321.693 128.477 306.145 144.81 305.392 144.222L305.731 141.153C306.291 136.07 308.67 132.104 305.644 126.807L302.738 126.84L297.226 127.9C296.882 127.967 296.526 127.918 296.213 127.762C295.9 127.606 295.647 127.351 295.493 127.037C295.339 126.722 295.292 126.366 295.361 126.023C295.429 125.68 295.608 125.369 295.871 125.137L295.921 125.093L295.796 124.899C293.854 125.79 291.853 126.616 289.73 126.741C287.342 126.881 284.731 125.931 283.587 123.829C283.282 123.252 283.095 122.619 283.038 121.968C279.817 123.255 278.345 127.225 278.345 127.225C278.345 127.225 279.05 120.823 280.446 116.762Z" fill="#2F2E41"/>
<path d="M326.283 343.627L319.488 349.381L294.064 325.908L304.092 317.416L326.283 343.627Z" fill="#FFB6B6"/>
<path d="M333.593 348.746L311.685 367.3L311.45 367.023C309.535 364.761 308.597 361.831 308.842 358.877C309.087 355.924 310.495 353.188 312.756 351.273L312.757 351.272L314.187 344.847L324.225 341.56L326.137 339.94L333.593 348.746Z" fill="#2F2E41"/>
<path d="M284.292 278.723L289.908 266.542C289.845 255.432 280.546 246.409 269.459 247.105C263.285 247.493 257.503 250.946 255.115 261.212C248.972 287.609 309.242 342.541 309.242 342.541L320.317 335.696L320.827 328.465L314.625 324.641L314.619 318.474L308.705 315.669L284.292 278.723Z" fill="#0A0534"/>
<path d="M321.187 275.368L314.246 265.16C313.395 254.082 321.921 244.324 333.028 244.107C339.213 243.985 345.259 246.952 348.484 256.986C356.775 282.789 301.225 342.491 301.225 342.491L289.626 336.58L288.522 329.415L294.389 325.095L293.888 318.948L299.551 315.666L321.187 275.368Z" fill="#0D0740"/>
<path d="M296.754 191.77V195.032H285.942V191.77H289.291V183.912L286.161 185.707V182.182L290.976 179.446H293.384V191.77L296.754 191.77Z" fill="white"/>
<path d="M299.195 193.171C298.166 191.8 297.652 189.815 297.652 187.217C297.652 184.663 298.166 182.704 299.195 181.34C299.741 180.698 300.421 180.183 301.186 179.829C301.951 179.476 302.784 179.293 303.627 179.293C304.47 179.293 305.302 179.476 306.068 179.829C306.833 180.183 307.512 180.698 308.059 181.34C309.088 182.704 309.602 184.663 309.602 187.217C309.602 189.815 309.088 191.8 308.059 193.171C307.514 193.816 306.835 194.334 306.07 194.689C305.304 195.045 304.471 195.229 303.627 195.229C302.783 195.229 301.949 195.045 301.184 194.689C300.418 194.334 299.739 193.816 299.195 193.171ZM305.137 190.993C305.506 189.77 305.662 188.493 305.597 187.217C305.661 185.967 305.505 184.715 305.137 183.518C305.043 183.19 304.845 182.901 304.572 182.696C304.3 182.49 303.968 182.379 303.627 182.379C303.286 182.379 302.954 182.49 302.681 182.696C302.409 182.901 302.211 183.19 302.117 183.518C301.749 184.715 301.593 185.967 301.657 187.217C301.591 188.493 301.747 189.77 302.117 190.993C302.208 191.324 302.405 191.615 302.678 191.823C302.951 192.03 303.284 192.143 303.627 192.143C303.969 192.143 304.303 192.03 304.575 191.823C304.848 191.615 305.045 191.324 305.137 190.993Z" fill="white"/>
<path d="M181.45 364.578L173.148 364.577L169.198 332.549L181.451 332.55L181.45 364.578Z" fill="#A0616A"/>
<path d="M181.742 373.24L156.212 373.239V372.916C156.212 370.28 157.259 367.752 159.122 365.889C160.986 364.025 163.513 362.978 166.149 362.978H166.149L170.813 359.439L179.514 362.978L181.743 362.978L181.742 373.24Z" fill="#2F2E41"/>
<path d="M240.194 364.578L248.496 364.577L252.446 332.549L240.192 332.55L240.194 364.578Z" fill="#A0616A"/>
<path d="M239.902 373.24L265.432 373.239V372.916C265.432 370.28 264.385 367.752 262.521 365.889C260.658 364.025 258.13 362.978 255.495 362.978H255.494L250.831 359.439L242.13 362.978L239.901 362.978L239.902 373.24Z" fill="#2F2E41"/>
<path d="M168.833 309.013C168.955 307.186 169.93 297.079 169.93 297.079L172.265 275.645L176.381 218.828L176.65 215.108L198.209 210.969L212.944 203.904L230.458 209.503L244.095 214.618C244.095 214.618 244.118 216.808 244.223 219.453C244.364 222.915 244.609 227.16 245.193 228.263C246.167 230.213 245.922 240.682 245.922 240.682C245.922 240.682 246.891 261.982 248.111 264.318C249.332 266.653 249.577 271.517 249.209 272.492C248.841 273.467 250.429 299.047 250.429 299.047C250.429 299.047 254.505 344.313 251.948 351.139C249.391 357.964 239.728 353.493 239.728 353.493C239.728 353.493 240.195 351.671 237.393 350.813C234.591 349.955 226.056 285.769 226.056 285.769C226.056 285.769 224.468 272.609 223.008 268.837C221.549 265.065 220.206 254.468 220.206 254.468C220.206 254.468 211.192 236.928 211.076 233.028C211.076 233.028 209.896 229.378 208.781 233.395C207.666 237.413 204.38 247.035 204.38 247.035L201.175 258.852L197.403 276.509L194.963 291.374C194.963 291.374 191.309 311.103 190.725 311.956C190.141 312.808 190.725 330.833 190.725 330.833C190.725 330.833 187.899 346.183 183.906 348.863C179.913 351.543 169.333 348.905 169.333 348.905C169.333 348.905 168.71 310.841 168.833 309.013Z" fill="#0A0534"/>
<path d="M178.03 155.839L182.823 168.391L176.909 174.512L179.513 176.842L177.593 180.136L172.583 214.66L200.045 223.715L209.292 213.635L216.584 223.715L248.36 216.965L240.257 172.939V170.061L237.968 164.503V152.738L248.476 117.716L225.977 112.224L217.355 106.291L214.564 114.635L202.684 112.798L202.374 106.529L193.285 113.996L181.165 115.894L172 117.716L170.832 120.254L173.167 119.746L177.254 152.763L178.03 155.839Z" fill="#6C63FF"/>
<path d="M196.51 121.949L202.374 106.565L217.354 106.291L222.325 121.949L240.192 221.773C240.192 221.773 185.455 237.019 186.011 218.693C186.594 199.425 189.228 173.831 189.228 173.831L196.51 121.949Z" fill="#2D2880"/>
<path d="M209.53 102.262C219.275 102.262 227.176 94.3606 227.176 84.6132C227.176 74.8658 219.275 66.964 209.53 66.964C199.784 66.964 191.883 74.8658 191.883 84.6132C191.883 94.3606 199.784 102.262 209.53 102.262Z" fill="#A0616A"/>
<path d="M190.842 71.8098C193.715 68.6823 197.309 62.9576 208.193 60.5537C221.642 57.5832 227.997 69.7346 224.606 69.9337C234.523 72.9374 228.152 93.464 225.309 91.7425C225.285 91.7255 225.261 91.7072 225.239 91.6877C223.71 90.5614 222.426 89.1352 221.467 87.4961C220.507 85.8571 219.892 84.0396 219.659 82.1547L219.119 77.2973C219.042 81.2494 215.003 81.7722 210.877 80.3167C211.121 79.4502 211.587 78.6623 212.228 78.0307C212.869 77.3992 213.664 76.9458 214.534 76.7152C212.01 79.0438 208.725 80.7096 204.136 81.2404C204.699 79.0597 205.821 77.4545 207.578 76.503L207.415 76.343C205.734 77.6228 203.982 78.8529 201.96 79.4325C199.685 80.0845 196.96 79.7318 195.401 77.9511C194.982 77.4596 194.665 76.8891 194.469 76.2732C194.806 79.4031 192.707 82.9758 191.077 82.3624C189.72 82.0988 188.93 73.8917 190.842 71.8098Z" fill="#2F2E41"/>
<path d="M231.287 83.64L247.336 110.644L259.198 105.041C259.198 105.041 238.759 79.5085 238.108 78.774C238.386 77.5329 238.282 76.2365 237.808 75.0561C237.334 73.8757 236.513 72.867 235.454 72.1635C234.394 71.4599 233.146 71.0946 231.874 71.116C230.603 71.1373 229.368 71.5443 228.332 72.283C227.297 73.0217 226.51 74.0573 226.076 75.253C225.642 76.4486 225.581 77.7478 225.901 78.9788C226.222 80.2098 226.908 81.3145 227.87 82.1468C228.832 82.9791 230.023 83.4998 231.287 83.64Z" fill="#A0616A"/>
<path d="M239.058 150.747L263.965 132.802C265.59 131.631 266.953 130.134 267.966 128.406C268.98 126.679 269.622 124.759 269.851 122.769C270.08 120.779 269.892 118.763 269.298 116.85C268.704 114.937 267.718 113.17 266.402 111.66L248.476 91.0943L240.667 101.678L246.686 114.264L235.032 117.338L239.058 150.747Z" fill="#2D2880"/>
<path d="M196.308 86.1782L180.259 113.183L168.397 107.579C168.397 107.579 188.837 82.0468 189.488 81.3122C189.209 80.0712 189.313 78.7747 189.787 77.5943C190.261 76.4139 191.082 75.4052 192.142 74.7017C193.201 73.9981 194.449 73.6329 195.721 73.6542C196.993 73.6755 198.228 74.0825 199.263 74.8212C200.299 75.5599 201.085 76.5956 201.519 77.7912C201.953 78.9868 202.014 80.286 201.694 81.517C201.374 82.748 200.687 83.8527 199.725 84.685C198.764 85.5173 197.572 86.038 196.308 86.1782Z" fill="#A0616A"/>
<path d="M188.538 153.286L163.63 135.34C162.005 134.169 160.643 132.672 159.629 130.944C158.616 129.217 157.974 127.297 157.744 125.307C157.515 123.317 157.703 121.301 158.297 119.388C158.891 117.476 159.878 115.708 161.194 114.198L179.119 93.6325L186.928 104.216L180.909 116.803L192.563 119.876L188.538 153.286Z" fill="#2D2880"/>
<path d="M213.737 148.261C214.3 148.926 214.596 149.777 214.569 150.647C214.588 151.51 214.31 152.352 213.781 153.033C213.21 153.738 212.457 154.271 211.603 154.577C209.54 155.292 207.297 155.292 205.234 154.577C204.38 154.272 203.627 153.738 203.056 153.033C202.528 152.352 202.249 151.51 202.268 150.647C202.239 149.766 202.535 148.906 203.1 148.229C203.718 147.542 204.538 147.07 205.442 146.882C204.649 146.636 203.943 146.169 203.406 145.536C202.912 144.936 202.648 144.179 202.662 143.402C202.647 142.586 202.914 141.789 203.417 141.147C203.958 140.478 204.669 139.968 205.475 139.669C207.377 138.984 209.46 138.984 211.362 139.669C212.169 139.968 212.879 140.478 213.42 141.147C213.923 141.789 214.19 142.586 214.175 143.402C214.189 144.194 213.921 144.966 213.42 145.58C212.9 146.211 212.202 146.673 211.417 146.904C212.311 147.109 213.121 147.582 213.737 148.261ZM210.126 151.589C210.337 151.453 210.509 151.264 210.624 151.042C210.739 150.819 210.794 150.57 210.782 150.319C210.788 150.065 210.734 149.814 210.624 149.586C210.513 149.357 210.35 149.159 210.148 149.006C209.684 148.556 209.064 148.305 208.419 148.305C207.773 148.305 207.153 148.556 206.689 149.006C206.487 149.158 206.324 149.357 206.214 149.586C206.103 149.814 206.049 150.065 206.055 150.319C206.044 150.57 206.098 150.819 206.213 151.042C206.329 151.264 206.5 151.453 206.711 151.589C207.235 151.876 207.822 152.027 208.419 152.027C209.015 152.027 209.603 151.876 210.126 151.589ZM207.029 142.647C206.846 142.794 206.702 142.983 206.608 143.199C206.515 143.414 206.475 143.649 206.493 143.883C206.493 144.846 207.135 145.489 208.419 145.81C209.702 145.489 210.344 144.847 210.345 143.883C210.362 143.649 210.322 143.414 210.229 143.199C210.135 142.983 209.991 142.794 209.808 142.647C209.393 142.382 208.911 142.241 208.419 142.241C207.926 142.241 207.444 142.382 207.029 142.647Z" fill="white"/>
<path d="M16.4593 96.3436C16.842 96.9095 17.3441 97.3845 17.9302 97.7353C18.5163 98.0861 19.1721 98.3041 19.8516 98.374C20.531 98.4439 21.2176 98.3639 21.8628 98.1397C22.508 97.9155 23.0962 97.5525 23.5859 97.0763L38.422 104.531L37.4113 95.9615L23.4777 90.196C22.6233 89.4262 21.5163 88.9965 20.3664 88.9885C19.2164 88.9804 18.1035 89.3944 17.2384 90.1522C16.3734 90.9099 15.8162 91.9587 15.6726 93.0998C15.529 94.241 15.809 95.3951 16.4593 96.3436Z" fill="#9E616A"/>
<path d="M77.8357 130.934L70.4487 125.838C70.4487 125.838 61.9896 125.265 60.7173 122.575C59.4451 119.885 59.2307 120.79 57.8744 120.468C56.5181 120.146 55.8183 116.098 53.5448 116.575C48.4297 117.65 24.374 101.752 26.9702 99.7653L28.9001 91.6266C30.9393 92.388 33.0654 92.8923 35.2293 93.1279C38.5011 93.4264 46.2097 97.1651 47.3515 98.3911C48.4934 99.6171 50.5161 99.1418 53.2286 99.7852C55.9411 100.429 56.8905 104.792 61.3893 103.631C67.7194 101.997 100.514 117.554 104.062 119.006C107.956 120.6 110.675 125.351 110.675 125.351L109.603 129.872L77.8357 130.934Z" fill="#6C63FF"/>
<path d="M131.147 362.083H137.585L140.649 337.247H131.147L131.147 362.083Z" fill="#9E616A"/>
<path d="M129.046 357.673L139.332 357.059V361.467L149.111 368.221C149.594 368.555 149.957 369.034 150.149 369.589C150.34 370.144 150.349 370.746 150.175 371.306C150 371.867 149.651 372.357 149.178 372.705C148.705 373.052 148.133 373.24 147.546 373.24H135.301L133.19 368.88L132.366 373.24H127.749L129.046 357.673Z" fill="#2F2E41"/>
<path d="M50.4555 356.613L56.4372 358.995L68.468 337.052L59.6398 333.538L50.4555 356.613Z" fill="#9E616A"/>
<path d="M50.1342 351.738L59.9176 354.973L58.2878 359.068L64.8755 368.961C65.2009 369.449 65.3617 370.029 65.3343 370.615C65.3069 371.202 65.0928 371.764 64.7233 372.22C64.3537 372.676 63.8481 373.002 63.2801 373.151C62.7122 373.299 62.1118 373.262 61.5664 373.045L50.1892 368.515L49.8403 363.684L47.4625 367.43L43.1728 365.722L50.1342 351.738Z" fill="#2F2E41"/>
<path d="M118.17 288.179L107.434 238.072L90.6696 293.746L64.1242 346.539L63.9836 346.819L55.5749 342.291C54.3882 320.855 57.2067 300.767 67.5151 283.202L72.3964 234.99C72.546 233.342 76.1872 194.668 87.7168 187.809L91.0933 180.109L124.676 171.814L124.799 171.951C128.028 175.581 130.161 180.053 130.95 184.848L140.985 245.648L140.991 245.682L138.3 288.098L141.981 350.674H128.664C120.425 335.17 116.927 314.339 118.17 288.179Z" fill="#0A0534"/>
<path d="M147.08 78.0297C147.591 78.482 147.998 79.0411 148.27 79.6675C148.543 80.2939 148.675 80.9725 148.657 81.6554C148.638 82.3383 148.471 83.0089 148.166 83.62C147.86 84.2311 147.425 84.7678 146.89 85.1924L152.373 100.866L144.006 98.7615L140.081 84.2001C139.428 83.2537 139.144 82.1005 139.284 80.959C139.424 79.8174 139.978 78.7668 140.84 78.0062C141.703 77.2456 142.814 76.8279 143.964 76.8323C145.114 76.8366 146.223 77.2626 147.08 78.0297Z" fill="#9E616A"/>
<path d="M81.1946 196.422C80.2902 196.422 79.7765 196.245 79.5775 195.865C79.2857 195.306 79.7922 194.577 80.3786 193.732C80.7876 193.143 81.9824 191.973 81.3949 191.901C72.4861 190.813 76.7626 135.879 80.6234 128.618C81.4079 127.143 80.5779 124.879 81.4612 122.375C83.8743 115.537 87.1681 113.436 93.7298 109.25C94.2625 108.91 94.8171 108.555 95.3938 108.185C96.1397 107.705 96.0982 106.116 96.0542 104.432C96.0055 102.562 95.9549 100.627 96.8713 99.4176L96.9309 99.3387L97.0271 99.3163C99.2436 98.8039 106.699 97.8525 111.114 99.3233L111.175 99.3441L111.22 99.3894C112.269 100.438 112.364 102.47 112.457 104.435C112.532 106.048 112.604 107.571 113.197 108.232C117.734 113.289 122.878 113.191 122.93 113.19L123.185 113.182L123.211 113.436C126.391 119.49 123.901 141.974 126.111 155.941C128.357 170.13 147.537 182.208 131.114 184.353C131.149 184.407 131.169 184.471 131.171 184.535C131.173 184.6 131.157 184.665 131.125 184.721C130.133 186.576 84.6034 196.422 81.1946 196.422Z" fill="#2D2880"/>
<path d="M155.438 127.232L146.323 131.754C128.758 138.503 119.578 136.859 114.966 134.293C110.044 131.556 109.191 127.359 109.158 127.182L109.155 127.096L110.279 118.188C110.422 117.057 110.804 115.969 111.399 114.996C111.994 114.023 112.79 113.188 113.732 112.546C114.674 111.904 115.743 111.469 116.866 111.271C117.989 111.073 119.141 111.117 120.246 111.398L141.218 116.736L140.835 106.554L141.665 102.888L140.135 98.4316L140.762 89.4819L148.284 87.6405L156.175 101.776L154.757 105.677L156.093 107.619L156.09 107.709L155.438 127.232Z" fill="#6C63FF"/>
<path d="M109.708 134.375V137.439L102.923 149.961H98.546L105.309 137.636H98.13V134.375L109.708 134.375Z" fill="white"/>
<path d="M283.154 57.9953C288.194 47.2778 284.115 34.7491 276.832 31.3234C269.55 27.8976 257.3 32.7454 252.26 43.4628C247.595 53.3832 251.069 65.0025 257.051 69.2355C256.95 69.2651 256.856 69.3137 256.774 69.3787L255.337 70.5626C255.227 70.6529 255.143 70.7696 255.091 70.9018C255.039 71.034 255.022 71.1772 255.041 71.3179C255.06 71.4585 255.115 71.592 255.2 71.7055C255.286 71.819 255.398 71.9089 255.528 71.9665L259.153 73.5776C259.283 73.6353 259.425 73.6588 259.566 73.646C259.708 73.6332 259.844 73.5844 259.961 73.5044C260.078 73.4244 260.173 73.3157 260.236 73.1887C260.3 73.0617 260.33 72.9206 260.323 72.7788L260.239 70.9184C260.234 70.8537 260.222 70.7897 260.203 70.7278C267.285 72.6741 278.478 67.9372 283.154 57.9953Z" fill="#1E1854"/>
<path d="M279.025 42.6243C280.169 45.9442 279.995 49.5765 278.539 52.7717C277.083 55.9669 274.456 58.4809 271.2 59.795C270.458 60.1037 271.05 61.2043 271.787 60.8975C275.276 59.4437 278.087 56.7243 279.656 53.2847C281.224 49.845 281.435 45.9394 280.244 42.3512C279.993 41.5943 278.772 41.8619 279.025 42.6243Z" fill="white"/>
<path d="M371.581 93.9068C381.779 87.8867 385.46 75.2356 381.369 68.3038C377.279 61.372 364.426 58.4813 354.227 64.5013C344.788 70.0736 341.119 81.6334 343.68 88.4997C343.581 88.4676 343.476 88.4548 343.371 88.4622L341.517 88.6315C341.375 88.6444 341.24 88.6932 341.122 88.7733C341.005 88.8534 340.91 88.9622 340.847 89.0892C340.784 89.2162 340.754 89.3574 340.761 89.4992C340.767 89.641 340.81 89.7788 340.885 89.8994L342.974 93.272C343.048 93.3927 343.153 93.4923 343.277 93.5613C343.401 93.6303 343.54 93.6664 343.682 93.6663C343.824 93.6661 343.964 93.6297 344.088 93.5604C344.212 93.4912 344.316 93.3914 344.39 93.2706L345.367 91.6854C345.4 91.6294 345.426 91.5698 345.445 91.5077C350.203 97.1036 362.12 99.4912 371.581 93.9068Z" fill="#6C63FF"/>
<path d="M376.821 78.8786C375.897 82.2665 373.709 85.1706 370.707 86.9914C367.705 88.8123 364.119 89.4109 360.688 88.6637C359.901 88.5013 359.771 89.7442 360.553 89.9056C364.255 90.6686 368.109 90.0037 371.341 88.044C374.574 86.0843 376.946 82.9749 377.982 79.3392C378.2 78.572 377.04 78.1057 376.821 78.8786Z" fill="white"/>
<path d="M306.667 44.6807C305.383 41.8531 304.786 38.7613 304.927 35.6587C305.068 32.5561 305.942 29.531 307.477 26.8315C307.915 26.0709 308.351 25.1503 309.31 25.0041C309.673 24.9381 310.047 24.9971 310.372 25.1714C310.697 25.3457 310.953 25.6251 311.098 25.9638C311.227 26.4144 311.203 26.8947 311.032 27.3306C310.86 27.7665 310.55 28.1338 310.148 28.3759C309.747 28.618 309.278 28.7213 308.812 28.6701C308.347 28.6188 307.911 28.4157 307.572 28.0922C305.752 26.6259 305.983 24.0453 306.158 21.968C306.557 17.2347 306.551 12.2655 304.537 7.86007C302.674 3.78409 298.872 0.374786 294.279 0.00244508C293.475 -0.0626781 293.43 1.18608 294.229 1.25089C298.784 1.62018 302.349 5.3735 303.863 9.48134C304.718 11.9545 305.143 14.5558 305.121 17.1725C305.135 18.5156 305.073 19.8586 304.97 21.1974C304.812 22.5025 304.771 23.819 304.847 25.1314C305.061 27.2732 306.357 29.5695 308.672 29.9117C310.832 30.231 312.942 27.971 312.358 25.8234C312.217 25.3592 311.963 24.9371 311.619 24.5951C311.275 24.2531 310.851 24.0019 310.386 23.864C309.921 23.7261 309.429 23.7057 308.954 23.8048C308.479 23.9039 308.036 24.1193 307.665 24.4317C306.853 25.1091 306.326 26.2726 305.863 27.2024C304.466 29.9996 303.714 33.0747 303.662 36.2013C303.61 39.3278 304.26 42.4261 305.565 45.268C305.907 45.9959 307.009 45.4067 306.667 44.6807Z" fill="#CCCCCC"/>
<path d="M118.1 102.917C117.63 102.057 116.82 99.6003 115.912 99.6331C114.982 99.6739 114.052 99.5948 113.143 99.3978C113.044 99.3814 112.946 99.3595 112.853 99.3376C109.016 98.3799 105.081 97.8658 101.127 97.8053C97.937 97.7615 94.435 98.1446 92.208 100.427C89.981 102.709 90.3093 107.415 93.379 108.285C83.1206 110.062 72.5755 107.724 64.0285 101.778C58.5951 97.9585 54.2396 92.8417 49.6324 88.0587C45.0252 83.2702 39.9474 78.6678 33.7369 76.3256C27.521 73.9779 19.9208 74.3062 14.9141 78.6788C8.80767 84.009 8.3371 93.181 8.33163 101.286C8.32616 104.318 9.27277 103.677 11.9485 105.106C14.4326 106.43 17.0427 109.155 18.5583 106.786C20.074 104.416 20.3421 101.488 20.654 98.6918C20.9604 95.8954 21.4146 92.9511 23.1874 90.7676C26.2352 87.0134 32.2377 86.9751 36.4455 89.3557C40.6532 91.7362 43.4821 95.9008 46.1578 99.9286C48.8335 103.951 51.6569 108.126 55.8592 110.523C61.3802 113.67 68.3129 113.205 74.0747 115.887C77.7353 117.594 80.6955 120.456 83.7323 123.11C86.7746 125.764 90.1069 128.32 94.052 129.179C97.9917 130.044 102.67 128.742 104.607 125.201C106.352 121.999 105.499 117.9 107.053 114.595C108.251 112.045 110.697 110.354 112.902 108.592C113.81 107.864 114.046 110.37 114.817 109.484C117.044 109.04 119.135 104.805 118.1 102.917Z" fill="#0D0740"/>
<path d="M102.758 98.3888C112.307 98.3888 120.047 90.6468 120.047 81.0967C120.047 71.5465 112.307 63.8045 102.758 63.8045C93.209 63.8045 85.4682 71.5465 85.4682 81.0967C85.4682 90.6468 93.209 98.3888 102.758 98.3888Z" fill="#2F2E41"/>
<path d="M104.15 99.8162C111.009 99.6218 116.412 93.9027 116.218 87.0422C116.024 80.1817 110.305 74.7777 103.446 74.9721C96.5864 75.1665 91.1832 80.8856 91.3775 87.7461C91.5719 94.6066 97.2902 100.011 104.15 99.8162Z" fill="#9E616A"/>
<path d="M103.918 68.4421L98.881 68.5849C95.7068 68.6774 92.699 70.0256 90.5176 72.3337C88.3363 74.6418 87.1596 77.7212 87.2459 80.896L87.249 81.0076L87.3408 81.0651C90.0785 82.8768 93.31 83.7963 96.5912 83.6974L96.8744 83.6894L99.6575 83.5633C100.126 82.3577 100.282 81.0535 100.113 79.7713C100.533 80.9867 100.861 82.232 101.094 83.4968L113.581 82.9282C114.308 82.8922 114.992 82.5737 115.487 82.0406C115.982 81.5075 116.249 80.802 116.231 80.0746C116.138 76.9 114.789 73.8922 112.48 71.7113C110.172 69.5305 107.092 68.3547 103.918 68.4421Z" fill="#2F2E41"/>
<path d="M93.8808 65.3239C92.744 66.726 90.9185 67.3103 89.2783 68.0696C86.3844 69.4384 83.868 71.4925 81.9473 74.0538C80.0266 76.6152 78.7596 79.6065 78.2561 82.7683C77.8696 85.343 78.0048 87.9931 77.3505 90.511C76.7005 93.0288 74.9851 95.5295 72.436 96.0355C70.7111 96.3807 68.9546 95.7605 67.3055 95.1459C66.3986 94.8109 65.4917 94.4744 64.5847 94.1365C65.4535 91.7628 66.3209 89.3892 67.1868 87.0157C65.751 89.2732 64.066 91.3622 62.1635 93.2432C58.9133 92.0384 55.6602 90.8337 52.4043 89.629C60.3252 89.4346 58.7559 81.7835 60.3092 74.0181C61.163 69.7511 69.3749 66.6454 70.8867 62.5658C71.7034 60.3531 73.1367 58.4208 75.0171 56.9974C76.8976 55.5741 79.1464 54.7193 81.4974 54.5343C83.8483 54.3493 86.2031 54.8418 88.283 55.9535C90.3628 57.0653 92.0807 58.7496 93.2333 60.8073C94.8777 61.4092 94.9966 63.9395 93.8808 65.3239Z" fill="#2F2E41"/>
<path d="M94.6728 70.4665C98.2285 70.4665 101.111 67.5837 101.111 64.0275C101.111 60.4713 98.2285 57.5885 94.6728 57.5885C91.1171 57.5885 88.2347 60.4713 88.2347 64.0275C88.2347 67.5837 91.1171 70.4665 94.6728 70.4665Z" fill="#2F2E41"/>
</g>
<defs>
<clipPath id="clip0_1_24">
<rect width="411" height="374" fill="white"/>
</clipPath>
</defs>
</svg>
