<svg width="423" height="295" viewBox="0 0 423 295" fill="none" xmlns="http://www.w3.org/2000/svg">
<g clip-path="url(#clip0_4_271)">
<mask id="mask0_4_271" style="mask-type:luminance" maskUnits="userSpaceOnUse" x="0" y="0" width="423" height="295">
<path d="M423 0H0V295H423V0Z" fill="white"/>
</mask>
<g mask="url(#mask0_4_271)">
<path d="M0.143999 25.5488C1.51901 37.221 11.1626 46.4636 13.4505 57.9918C13.7373 59.5032 13.9127 61.0335 13.9754 62.5706C14.3044 69.1914 12.9922 75.9488 13.6686 82.5807C14.929 95.0173 22.4953 104.736 32.1019 113.159C39.3687 119.514 47.8036 125.104 55.562 130.514C75.3148 144.298 93.8405 161.702 101.954 184.367C107.361 199.48 107.775 215.905 111.745 231.458C115.715 247.011 124.756 262.926 140.036 267.885C156.437 273.21 174.508 264.333 191.385 267.841C209.496 271.607 222.341 288.708 240.212 293.538C262.918 299.675 285.547 284.594 308.856 281.452C320.048 279.942 331.44 281.223 342.691 280.255C355.216 279.167 367.344 275.318 378.201 268.986C381.897 266.818 385.634 264.156 387.353 260.219C388.832 256.819 388.606 252.941 388.152 249.26C386.451 235.597 382.149 220.746 388.917 208.738C395.16 197.66 410.288 189.736 408.045 177.229C406.696 169.7 399.288 164.999 392.421 161.628C378.257 154.675 363.168 149.232 350.509 139.841C341.453 133.114 333.654 123.727 330.327 113.17C328.963 108.949 328.402 104.511 328.671 100.083C329.137 93.1045 331.554 85.2688 327.341 79.682C325.515 77.2596 322.717 75.7715 319.904 74.6342C309.295 70.3508 297.512 70.1034 286.482 67.0608C282.701 66.0294 279.066 64.5205 275.667 62.5706C268.94 58.6786 263.525 52.944 262.216 45.4592C261.451 41.0724 262.131 36.2831 259.939 32.4059C256.243 25.8331 248.936 23.0859 240.774 22.1923C230.672 21.0845 219.232 22.8163 211.574 23.6693L210.809 23.7505C200.973 24.7734 191.218 22.5984 181.634 19.3194C171.285 15.8078 161.168 11.0296 151.325 7.63242C150.401 7.3124 149.479 7.00591 148.56 6.71297C141.375 4.42556 134.018 2.71537 126.56 1.59875C116.042 0.017143 105.381 -0.394016 94.7719 0.372815C89.3917 0.760092 84.0381 1.45544 78.7376 2.45543C77.1802 2.75083 75.6253 3.06716 74.0729 3.40442C65.0466 5.33564 56.0684 7.69519 46.861 7.83551C46.1994 7.83551 45.5341 7.83551 44.8724 7.83551C33.8908 7.64719 22.6616 4.8593 12.2419 8.22693C7.50325 9.76673 2.96055 12.7946 1.05328 17.3882C-0.00754845 19.9472 -0.177576 22.8015 0.143999 25.5488Z" fill="#0D0740" fill-opacity="0.78"/>
<path opacity="0.2" d="M13.9756 62.5707H23.4639C23.6054 60.12 24.4631 57.7644 25.9307 55.7955C27.3983 53.8267 29.4116 52.3308 31.7213 51.493C29.9971 50.5447 28.6375 49.0504 27.8567 47.2455C27.0758 45.4405 26.918 43.4274 27.4081 41.5231C27.8981 39.6187 29.0083 37.9312 30.5637 36.7263C32.1191 35.5214 34.0315 34.8674 35.9997 34.8674C37.968 34.8674 39.8803 35.5214 41.4358 36.7263C42.9912 37.9312 44.1013 39.6187 44.5914 41.5231C45.0814 43.4274 44.9236 45.4405 44.1428 47.2455C43.3619 49.0504 42.0024 50.5447 40.2781 51.493C42.5879 52.3308 44.6011 53.8267 46.0687 55.7955C47.5364 57.7644 48.394 60.12 48.5356 62.5707H48.6169C48.8256 60.1874 49.7116 57.9133 51.1706 56.0162C52.6296 54.119 54.6008 52.6778 56.8522 51.8623C55.5418 51.1416 54.4351 50.1017 53.635 48.8391C52.8349 47.5766 52.3673 46.1324 52.2758 44.6409C52.1843 43.1494 52.4718 41.659 53.1116 40.3082C53.7513 38.9575 54.7226 37.7903 55.9351 36.9152C57.1475 36.0401 58.5618 35.4855 60.0464 35.3029C61.531 35.1203 63.0377 35.3157 64.4264 35.871C65.8151 36.4262 67.0407 37.3232 67.9893 38.4786C68.9379 39.634 69.5786 41.0103 69.8519 42.4794C70.939 41.5932 72.1671 40.8954 73.4853 40.4153C71.7611 39.4669 70.4016 37.9727 69.6207 36.1677C68.8399 34.3628 68.682 32.3497 69.1721 30.4453C69.6622 28.541 70.7723 26.8535 72.3277 25.6486C73.8831 24.4436 75.7955 23.7897 77.7638 23.7897C79.732 23.7897 81.6444 24.4436 83.1998 25.6486C84.7552 26.8535 85.8653 28.541 86.3554 30.4453C86.8455 32.3497 86.6877 34.3628 85.9068 36.1677C85.1259 37.9727 83.7664 39.4669 82.0422 40.4153C84.4721 41.2946 86.5715 42.9009 88.0544 45.0154C89.5374 47.1299 90.3317 49.6497 90.3292 52.2315V62.5707H94.3951V54.4471C94.3926 51.8652 95.1869 49.3454 96.6699 47.231C98.1528 45.1165 100.252 43.5101 102.682 42.6308C100.958 41.6825 99.5983 40.1882 98.8175 38.3833C98.0366 36.5784 97.8788 34.5652 98.3689 32.6609C98.859 30.7565 99.9691 29.069 101.524 27.8641C103.08 26.6592 104.992 26.0053 106.961 26.0053C108.929 26.0053 110.841 26.6592 112.397 27.8641C113.952 29.069 115.062 30.7565 115.552 32.6609C116.042 34.5652 115.884 36.5784 115.104 38.3833C114.323 40.1882 112.963 41.6825 111.239 42.6308C112.846 43.2155 114.317 44.1206 115.562 45.2912C116.808 46.4618 117.802 47.8734 118.484 49.4399C119.971 47.3285 122.071 45.7249 124.501 44.8464C122.777 43.898 121.417 42.4038 120.637 40.5988C119.856 38.7939 119.698 36.7808 120.188 34.8764C120.678 32.972 121.788 31.2846 123.344 30.0797C124.899 28.8747 126.811 28.2208 128.78 28.2208C130.748 28.2208 132.66 28.8747 134.216 30.0797C135.771 31.2846 136.881 32.972 137.371 34.8764C137.861 36.7808 137.703 38.7939 136.923 40.5988C136.142 42.4038 134.782 43.898 133.058 44.8464C135.737 45.8202 138.007 47.6725 139.497 50.1009V48.5389C139.494 45.9571 140.289 43.4373 141.772 41.3228C143.255 39.2084 145.354 37.602 147.784 36.7227C146.06 35.7744 144.7 34.2801 143.919 32.4752C143.138 30.6702 142.981 28.6571 143.471 26.7527C143.961 24.8484 145.071 23.1609 146.626 21.956C148.182 20.7511 150.094 20.0971 152.062 20.0971C154.031 20.0971 155.943 20.7511 157.498 21.956C159.054 23.1609 160.164 24.8484 160.654 26.7527C161.144 28.6571 160.986 30.6702 160.205 32.4752C159.424 34.2801 158.065 35.7744 156.341 36.7227C158.771 37.602 160.87 39.2084 162.353 41.3228C163.836 43.4373 164.63 45.9571 164.628 48.5389V62.5707H169.063C169.754 61.0416 170.744 59.6659 171.975 58.5245C173.206 57.3831 174.653 56.4989 176.23 55.9241C174.506 54.9758 173.147 53.4815 172.366 51.6766C171.585 49.8716 171.427 47.8585 171.917 45.9541C172.407 44.0498 173.517 42.3623 175.073 41.1574C176.628 39.9525 178.54 39.2985 180.509 39.2985C182.477 39.2985 184.389 39.9525 185.945 41.1574C187.5 42.3623 188.61 44.0498 189.1 45.9541C189.59 47.8585 189.433 49.8716 188.652 51.6766C187.871 53.4815 186.511 54.9758 184.787 55.9241C185.664 56.2422 186.502 56.6571 187.286 57.1611C187.598 54.8922 188.526 52.7518 189.968 50.9716C191.411 49.1915 193.313 47.8395 195.469 47.0619C193.745 46.1136 192.386 44.6193 191.605 42.8144C190.824 41.0095 190.666 38.9963 191.156 37.092C191.646 35.1876 192.756 33.5001 194.312 32.2952C195.867 31.0903 197.779 30.4363 199.748 30.4363C201.716 30.4363 203.628 31.0903 205.184 32.2952C206.739 33.5001 207.849 35.1876 208.339 37.092C208.829 38.9963 208.672 41.0095 207.891 42.8144C207.11 44.6193 205.75 46.1136 204.026 47.0619C205.878 47.7375 207.545 48.8379 208.893 50.2745C210.241 51.7112 211.233 53.4439 211.788 55.3333C213.175 53.7697 214.931 52.5766 216.897 51.8623C215.172 50.9139 213.813 49.4197 213.032 47.6147C212.251 45.8098 212.093 43.7967 212.583 41.8923C213.073 39.9879 214.184 38.3005 215.739 37.0956C217.294 35.8906 219.207 35.2367 221.175 35.2367C223.143 35.2367 225.056 35.8906 226.611 37.0956C228.166 38.3005 229.277 39.9879 229.767 41.8923C230.257 43.7967 230.099 45.8098 229.318 47.6147C228.537 49.4197 227.178 50.9139 225.453 51.8623C226.809 52.3566 228.07 53.0812 229.179 54.004C229.855 52.4056 230.853 50.9638 232.113 49.7692C233.372 48.5746 234.865 47.6529 236.498 47.0619C234.774 46.1136 233.414 44.6193 232.633 42.8144C231.852 41.0095 231.694 38.9963 232.185 37.092C232.675 35.1876 233.785 33.5001 235.34 32.2952C236.896 31.0903 238.808 30.4363 240.776 30.4363C242.744 30.4363 244.657 31.0903 246.212 32.2952C247.768 33.5001 248.878 35.1876 249.368 37.092C249.858 38.9963 249.7 41.0095 248.919 42.8144C248.138 44.6193 246.779 46.1136 245.055 47.0619C247.485 47.9412 249.584 49.5476 251.067 51.6621C252.55 53.7765 253.344 56.2963 253.342 58.8782V62.5707H275.667C279.065 64.5191 282.699 66.0268 286.479 67.0572C297.508 70.0999 309.292 70.3473 319.9 74.6307C322.713 75.768 325.511 77.2561 327.337 79.6784C331.551 85.2653 329.133 93.101 328.668 100.08C328.395 104.504 328.953 108.94 330.313 113.159H32.102C22.4917 104.755 14.9292 95.0174 13.6688 82.5808C13.0108 75.9526 14.3045 69.1952 13.9756 62.5707Z" fill="#2C2477"/>
<path d="M367.371 28.4218V171.69L359.979 166.89V28.4218H355.543L353.695 162.089L346.672 156.92L351.477 26.5755" stroke="#E0E0E0" stroke-miterlimit="10"/>
<path d="M376.616 38.761L346.676 40.4226" stroke="#E0E0E0" stroke-miterlimit="10"/>
<path d="M374.767 46.1461L346.676 47.2539" stroke="#E0E0E0" stroke-miterlimit="10"/>
<path d="M374.767 55.0083L346.676 55.7468" stroke="#E0E0E0" stroke-miterlimit="10"/>
<path d="M374.767 63.132L346.676 64.2398" stroke="#E0E0E0" stroke-miterlimit="10"/>
<path d="M374.767 72.3634H345.567" stroke="#E0E0E0" stroke-miterlimit="10"/>
<path d="M374.767 81.5949L344.828 80.4871" stroke="#E0E0E0" stroke-miterlimit="10"/>
<path d="M374.767 90.0878L344.828 88.6108" stroke="#E0E0E0" stroke-miterlimit="10"/>
<path d="M374.767 99.3192L344.828 97.1037" stroke="#E0E0E0" stroke-miterlimit="10"/>
<path d="M375.507 107.443L343.719 104.489" stroke="#E0E0E0" stroke-miterlimit="10"/>
<path d="M375.507 116.674L343.719 111.874" stroke="#E0E0E0" stroke-miterlimit="10"/>
<path d="M375.507 127.383L342.61 121.475" stroke="#E0E0E0" stroke-miterlimit="10"/>
<path d="M375.507 139.568L342.61 129.968" stroke="#E0E0E0" stroke-miterlimit="10"/>
<path d="M376.246 152.123L341.501 138.461" stroke="#E0E0E0" stroke-miterlimit="10"/>
<path d="M376.246 163.57L341.501 146.584" stroke="#E0E0E0" stroke-miterlimit="10"/>
<path d="M338.54 28.0525L332.626 153.966H324.864L329.669 28.0525H321.168L315.624 153.966H307.122L311.927 28.0525H301.578L297.882 153.966H288.641L292.707 29.1603H283.097L280.879 153.966H272.377L274.965 28.0525H266.463L264.615 153.966H256.483L258.332 28.0525H248.721V153.966H239.111V28.0525H230.24L231.719 153.966H223.956L221.739 28.0525H212.868L215.825 153.966H208.062L204.366 28.0525H196.604L199.561 153.966H192.538L186.994 28.0525H179.601L185.515 153.966H178.123L169.991 28.0525H161.12L171.469 153.966H164.447L154.467 28.0525H147.444L157.793 153.966H150.031L140.051 26.5755H133.028L144.487 153.966H137.094L125.266 26.5755" stroke="#E0E0E0" stroke-miterlimit="10"/>
<path d="M108.633 28.4218L119.722 156.181L114.177 160.612L105.676 28.4218H99.7621L105.676 165.413L97.1747 170.952L93.8517 26.5755" stroke="#413886" stroke-miterlimit="10"/>
<path d="M85.72 42.8228H119.726" stroke="#403B68" stroke-miterlimit="10"/>
<path d="M85.72 52.0543H119.726" stroke="#403B68" stroke-miterlimit="10"/>
<path d="M85.72 62.3935L119.726 61.2857" stroke="#403B68" stroke-miterlimit="10"/>
<path d="M85.72 71.2557L121.204 69.4094" stroke="#403B68" stroke-miterlimit="10"/>
<path d="M85.72 81.2256L121.204 79.7486" stroke="#403B68" stroke-miterlimit="10"/>
<path d="M85.72 91.9341L122.683 90.0878" stroke="#403B68" stroke-miterlimit="10"/>
<path d="M85.72 102.273L122.683 98.5807" stroke="#403B68" stroke-miterlimit="10"/>
<path d="M85.72 114.09L122.683 105.227" stroke="#403B68" stroke-miterlimit="10"/>
<path d="M85.72 124.429L124.161 111.505" stroke="#403B68" stroke-miterlimit="10"/>
<path d="M85.72 135.137L124.161 120.367" stroke="#403B68" stroke-miterlimit="10"/>
<path d="M84.6111 145.476L122.878 129.432" stroke="#403B68" stroke-miterlimit="10"/>
<path d="M84.6111 157.293L124.161 137.353" stroke="#403B68" stroke-miterlimit="10"/>
<path d="M84.6111 168.001L125.27 145.476" stroke="#413886" stroke-miterlimit="10"/>
<path d="M346.676 38.761L119.726 40.6073" stroke="#413886" stroke-miterlimit="10"/>
<path d="M346.491 45.4076L119.541 47.2539" stroke="#413886" stroke-miterlimit="10"/>
<path d="M346.306 52.0543L119.356 53.9005" stroke="#413886" stroke-miterlimit="10"/>
<path d="M346.121 58.7009L119.171 60.5472" stroke="#413886" stroke-miterlimit="10"/>
<path d="M345.937 65.3475L118.986 67.1938" stroke="#413886" stroke-miterlimit="10"/>
<path d="M345.752 71.9942L121.759 73.8405" stroke="#413886" stroke-miterlimit="10"/>
<path d="M345.567 78.6408L121.574 80.4871" stroke="#413886" stroke-miterlimit="10"/>
<path d="M345.382 85.2874L121.389 87.1337" stroke="#413886" stroke-miterlimit="10"/>
<path d="M345.197 91.9341L121.204 93.7804" stroke="#413886" stroke-miterlimit="10"/>
<path d="M345.013 98.5807L123.237 100.427" stroke="#413886" stroke-miterlimit="10"/>
<path d="M344.828 105.227L123.052 107.074" stroke="#413886" stroke-miterlimit="10"/>
<path d="M344.643 111.874L122.867 113.72" stroke="#413886" stroke-miterlimit="10"/>
<path d="M344.458 118.521L124.161 120.367" stroke="#413886" stroke-miterlimit="10"/>
<path d="M344.273 125.167L123.976 127.014" stroke="#413886" stroke-miterlimit="10"/>
<path d="M344.089 131.814L124.9 133.66" stroke="#413886" stroke-miterlimit="10"/>
<path d="M343.904 138.461L124.716 140.307" stroke="#413886" stroke-miterlimit="10"/>
<path d="M343.719 145.107L124.531 146.953" stroke="#413886" stroke-miterlimit="10"/>
<path d="M376.242 177.967L342.606 153.966H124.157L85.72 177.967" stroke="#413886" stroke-width="3" stroke-miterlimit="10"/>
<path d="M378.331 151.998C378.331 151.998 379.185 126.792 392.831 112.557C398.596 106.621 402.277 98.9758 403.321 90.7709C403.787 86.8736 403.895 82.9418 403.643 79.0248" stroke="#535461" stroke-width="2" stroke-miterlimit="10"/>
<path d="M412.188 70.0039C411.253 72.8176 403.447 79.287 403.447 79.287C403.447 79.287 401.055 69.4352 401.99 66.6215C402.454 65.2885 403.423 64.1911 404.69 63.5669C405.957 62.9426 407.418 62.8415 408.759 63.2855C410.1 63.7295 411.211 64.6829 411.854 65.9395C412.496 67.1961 412.618 68.6548 412.192 70.0002L412.188 70.0039Z" fill="#6C63FF"/>
<path d="M415.445 88.3855C413.131 90.2318 403.055 91.4319 403.055 91.4319C403.055 91.4319 406.407 81.8645 408.721 80.0108C409.27 79.5517 409.904 79.2067 410.588 78.996C411.272 78.7852 411.991 78.7129 412.703 78.7833C413.414 78.8538 414.105 79.0655 414.734 79.4062C415.363 79.7468 415.918 80.2095 416.365 80.767C416.813 81.3246 417.145 81.9659 417.341 82.6532C417.537 83.3405 417.594 84.0601 417.509 84.7696C417.423 85.4792 417.196 86.1646 416.842 86.7855C416.487 87.4064 416.012 87.9504 415.445 88.3855Z" fill="#6C63FF"/>
<path d="M406.234 114.902C403.299 115.334 393.999 111.283 393.999 111.283C393.999 111.283 401.728 104.714 404.663 104.267C406.056 104.094 407.462 104.473 408.579 105.322C409.697 106.171 410.438 107.423 410.643 108.81C410.848 110.198 410.502 111.611 409.678 112.746C408.854 113.882 407.618 114.65 406.234 114.887V114.902Z" fill="#6C63FF"/>
<path d="M394.742 133.394C391.922 134.318 382.071 131.891 382.071 131.891C382.071 131.891 388.577 124.115 391.397 123.188C392.072 122.953 392.786 122.854 393.5 122.898C394.213 122.941 394.911 123.127 395.551 123.443C396.192 123.76 396.763 124.2 397.231 124.74C397.699 125.279 398.055 125.907 398.277 126.585C398.5 127.264 398.584 127.98 398.527 128.691C398.469 129.403 398.269 130.096 397.94 130.73C397.611 131.363 397.159 131.925 396.609 132.382C396.06 132.839 395.425 133.182 394.742 133.391V133.394Z" fill="#6C63FF"/>
<path d="M392.162 88.4188C393.533 91.0479 402.271 96.199 402.271 96.199C402.271 96.199 403.066 86.0961 401.698 83.4633C401.373 82.8378 400.927 82.2825 400.386 81.829C399.846 81.3756 399.221 81.033 398.548 80.8208C397.875 80.6085 397.167 80.5308 396.464 80.592C395.76 80.6533 395.076 80.8522 394.45 81.1776C393.824 81.503 393.268 81.9484 392.814 82.4884C392.36 83.0284 392.017 83.6524 391.805 84.3248C391.592 84.9972 391.515 85.7048 391.576 86.4073C391.637 87.1097 391.836 87.7932 392.162 88.4188Z" fill="#6C63FF"/>
<path d="M379 110.227C381.096 112.328 390.976 114.629 390.976 114.629C390.976 114.629 388.71 104.751 386.614 102.65C385.603 101.668 384.245 101.122 382.835 101.13C381.425 101.139 380.074 101.701 379.075 102.695C378.075 103.69 377.507 105.037 377.493 106.446C377.479 107.855 378.02 109.213 379 110.227Z" fill="#6C63FF"/>
<path d="M369.116 133.169C370.824 135.591 380.175 139.528 380.175 139.528C380.175 139.528 379.613 129.406 377.902 126.973C377.498 126.39 376.983 125.892 376.386 125.508C375.789 125.125 375.121 124.864 374.422 124.739C373.723 124.615 373.007 124.63 372.314 124.784C371.621 124.938 370.965 125.228 370.385 125.636C369.804 126.045 369.311 126.564 368.933 127.164C368.554 127.765 368.299 128.434 368.181 129.133C368.063 129.832 368.085 130.548 368.245 131.239C368.406 131.93 368.702 132.582 369.116 133.158V133.169Z" fill="#6C63FF"/>
<path d="M383.875 174.522C383.875 174.522 384.729 149.317 398.375 135.082C404.14 129.145 407.821 121.5 408.865 113.296C409.332 109.398 409.439 105.467 409.187 101.55" stroke="#535461" stroke-width="2" stroke-miterlimit="10"/>
<path d="M417.733 92.5286C416.798 95.3423 408.991 101.812 408.991 101.812C408.991 101.812 406.6 91.9599 407.535 89.1462C407.998 87.8132 408.968 86.7159 410.234 86.0916C411.501 85.4673 412.963 85.3662 414.303 85.8102C415.644 86.2542 416.756 87.2076 417.398 88.4642C418.041 89.7208 418.162 91.1795 417.736 92.5249L417.733 92.5286Z" fill="#6C63FF"/>
<path d="M420.989 110.91C418.675 112.757 408.599 113.957 408.599 113.957C408.599 113.957 411.952 104.389 414.266 102.535C414.814 102.076 415.449 101.731 416.132 101.521C416.816 101.31 417.535 101.238 418.247 101.308C418.959 101.378 419.65 101.59 420.279 101.931C420.908 102.272 421.462 102.734 421.91 103.292C422.357 103.849 422.689 104.491 422.885 105.178C423.082 105.865 423.139 106.585 423.053 107.294C422.967 108.004 422.74 108.689 422.386 109.31C422.032 109.931 421.557 110.475 420.989 110.91Z" fill="#6C63FF"/>
<path d="M411.778 137.427C408.843 137.859 399.544 133.808 399.544 133.808C399.544 133.808 407.272 127.239 410.207 126.792C411.6 126.619 413.006 126.997 414.124 127.846C415.241 128.695 415.982 129.948 416.187 131.335C416.392 132.723 416.046 134.135 415.222 135.271C414.398 136.407 413.162 137.175 411.778 137.412V137.427Z" fill="#6C63FF"/>
<path d="M400.286 155.919C397.466 156.842 387.616 154.416 387.616 154.416C387.616 154.416 394.121 146.64 396.941 145.713C397.616 145.477 398.331 145.379 399.044 145.422C399.758 145.466 400.455 145.652 401.096 145.968C401.736 146.284 402.307 146.725 402.776 147.265C403.244 147.804 403.599 148.432 403.822 149.11C404.044 149.789 404.129 150.504 404.071 151.216C404.013 151.928 403.814 152.621 403.485 153.254C403.155 153.888 402.703 154.45 402.154 154.907C401.605 155.364 400.97 155.707 400.286 155.915V155.919Z" fill="#6C63FF"/>
<path d="M397.706 110.943C399.078 113.573 407.816 118.724 407.816 118.724C407.816 118.724 408.61 108.621 407.243 105.988C406.585 104.725 405.452 103.774 404.092 103.346C402.733 102.917 401.259 103.045 399.994 103.702C398.73 104.359 397.778 105.492 397.349 106.85C396.92 108.207 397.049 109.68 397.706 110.943Z" fill="#6C63FF"/>
<path d="M384.544 132.752C386.64 134.853 396.52 137.153 396.52 137.153C396.52 137.153 394.254 127.276 392.158 125.175C391.147 124.192 389.79 123.647 388.379 123.655C386.969 123.664 385.618 124.226 384.619 125.22C383.62 126.215 383.052 127.562 383.038 128.971C383.024 130.38 383.565 131.738 384.544 132.752Z" fill="#6C63FF"/>
<path d="M374.66 155.694C376.368 158.116 385.719 162.052 385.719 162.052C385.719 162.052 385.158 151.931 383.446 149.498C383.043 148.914 382.527 148.416 381.93 148.033C381.333 147.65 380.666 147.388 379.967 147.264C379.268 147.14 378.551 147.155 377.858 147.309C377.165 147.463 376.509 147.753 375.929 148.161C375.349 148.57 374.855 149.089 374.477 149.689C374.099 150.289 373.843 150.958 373.725 151.658C373.607 152.357 373.629 153.073 373.79 153.764C373.95 154.455 374.246 155.107 374.66 155.683V155.694Z" fill="#6C63FF"/>
<path d="M80.3567 39.806C80.5378 32.6608 85.4908 26.3835 92.4804 24.851L92.68 24.8104C92.9624 24.7542 93.2497 24.727 93.5376 24.7292H370.166C372.209 24.7126 374.221 25.2249 376.007 26.2163C377.793 27.2077 379.291 28.6443 380.356 30.3862L380.426 30.5081C380.833 31.2209 381.052 32.0251 381.062 32.8455L383.631 177.964H374.76L371.803 36.1688C371.803 36.1688 371.803 32.107 368.107 31.7377C367.541 31.6823 360.681 31.6417 349.474 31.6158L342.976 154.335H339.28L346.506 31.6121C297.235 31.5161 176.637 31.638 120.664 31.7045L127.843 153.596H124.146L117.7 31.7082L96.3948 31.734C94.8325 31.735 93.2978 32.1446 91.9431 32.9219C90.5885 33.6993 89.4612 34.8174 88.6733 36.1651L85.7163 177.96H76.8452L80.3567 39.806Z" fill="#413886"/>
<path d="M76.7972 180.955C76.7972 180.955 75.5996 161.436 85.0879 149.442C89.1003 144.437 91.3791 138.267 91.5822 131.858C91.654 128.813 91.4461 125.767 90.9613 122.76" stroke="#535461" stroke-width="2" stroke-miterlimit="10"/>
<path d="M96.8975 115.175C96.3837 117.417 90.8319 122.985 90.8319 122.985C90.8319 122.985 88.2445 115.556 88.7731 113.318C88.8944 112.784 89.1198 112.28 89.4362 111.834C89.7526 111.387 90.154 111.007 90.6174 110.716C91.0807 110.425 91.597 110.227 92.1367 110.135C92.6765 110.043 93.2291 110.058 93.763 110.179C94.297 110.3 94.8018 110.525 95.2486 110.842C95.6955 111.158 96.0756 111.559 96.3674 112.022C96.6591 112.484 96.8568 113 96.949 113.539C97.0412 114.079 97.0262 114.631 96.9048 115.164L96.8975 115.175Z" fill="#6C63FF"/>
<path d="M100.764 129.126C99.1115 130.728 91.4233 132.39 91.4233 132.39C91.4233 132.39 93.3047 124.757 94.9569 123.159C95.3494 122.778 95.8131 122.478 96.3215 122.276C96.83 122.074 97.3733 121.974 97.9204 121.982C98.4675 121.99 99.0077 122.105 99.5102 122.322C100.013 122.538 100.467 122.851 100.849 123.243C101.23 123.636 101.53 124.099 101.732 124.607C101.934 125.115 102.034 125.657 102.026 126.204C102.019 126.751 101.903 127.29 101.686 127.792C101.47 128.294 101.156 128.749 100.764 129.129V129.126Z" fill="#6C63FF"/>
<path d="M95.6075 150.269C93.3897 150.82 85.8974 148.375 85.8974 148.375C85.8974 148.375 91.3715 142.737 93.6115 142.186C94.6844 141.922 95.8186 142.094 96.7644 142.665C97.7103 143.236 98.3903 144.159 98.655 145.231C98.9197 146.303 98.7473 147.436 98.1758 148.381C97.6043 149.326 96.6804 150.005 95.6075 150.269Z" fill="#6C63FF"/>
<path d="M88.0967 165.391C85.9861 166.31 78.2055 165.162 78.2055 165.162C78.2055 165.162 82.641 158.677 84.7626 157.776C85.2661 157.545 85.8108 157.416 86.3648 157.397C86.9187 157.379 87.4708 157.471 87.9887 157.668C88.5066 157.865 88.9799 158.164 89.3809 158.546C89.7818 158.929 90.1024 159.387 90.3237 159.895C90.5451 160.402 90.6628 160.949 90.67 161.503C90.6772 162.056 90.5737 162.606 90.3656 163.119C90.1575 163.632 89.849 164.099 89.4581 164.491C89.0673 164.884 88.6019 165.195 88.0893 165.405L88.0967 165.391Z" fill="#6C63FF"/>
<path d="M82.7962 130.883C84.0456 132.815 91.1719 136.145 91.1719 136.145C91.1719 136.145 91.0426 128.288 89.7895 126.356C89.1886 125.43 88.2439 124.78 87.1632 124.549C86.0825 124.319 84.9544 124.526 84.0271 125.127C83.0997 125.727 82.449 126.671 82.2182 127.75C81.9874 128.83 82.1953 129.957 82.7962 130.883Z" fill="#6C63FF"/>
<path d="M74.2394 148.663C76.0099 150.14 83.809 151.181 83.809 151.181C83.809 151.181 81.3325 143.722 79.5583 142.253C79.137 141.904 78.651 141.641 78.1281 141.48C77.6052 141.319 77.0556 141.262 76.5107 141.313C75.9658 141.364 75.4363 141.522 74.9524 141.777C74.4685 142.032 74.0397 142.38 73.6905 142.801C73.3412 143.222 73.0784 143.708 72.917 144.23C72.7555 144.752 72.6987 145.301 72.7497 145.846C72.8006 146.39 72.9584 146.919 73.214 147.402C73.4696 147.886 73.8181 148.314 74.2394 148.663Z" fill="#6C63FF"/>
<path d="M68.2995 167.1C69.7965 168.847 77.3036 171.199 77.3036 171.199C77.3036 171.199 76.1245 163.445 74.6238 161.683C73.9042 160.845 72.8808 160.326 71.7787 160.242C70.6765 160.157 69.5859 160.514 68.7467 161.233C67.9076 161.952 67.3887 162.974 67.3041 164.075C67.2195 165.176 67.5763 166.266 68.2958 167.104L68.2995 167.1Z" fill="#6C63FF"/>
<path opacity="0.5" d="M96.8975 115.175C96.3837 117.417 90.8319 122.985 90.8319 122.985C90.8319 122.985 88.2445 115.556 88.7731 113.318C88.8944 112.784 89.1198 112.28 89.4362 111.834C89.7526 111.387 90.154 111.007 90.6174 110.716C91.0807 110.425 91.597 110.227 92.1367 110.135C92.6765 110.043 93.2291 110.058 93.763 110.179C94.297 110.3 94.8018 110.525 95.2486 110.842C95.6955 111.158 96.0756 111.559 96.3674 112.022C96.6591 112.484 96.8568 113 96.949 113.539C97.0412 114.079 97.0262 114.631 96.9048 115.164L96.8975 115.175Z" fill="white"/>
<path opacity="0.5" d="M100.764 129.126C99.1115 130.728 91.4233 132.39 91.4233 132.39C91.4233 132.39 93.3047 124.757 94.9569 123.159C95.3494 122.778 95.8131 122.478 96.3215 122.276C96.83 122.074 97.3733 121.974 97.9204 121.982C98.4675 121.99 99.0077 122.105 99.5102 122.322C100.013 122.538 100.467 122.851 100.849 123.243C101.23 123.636 101.53 124.099 101.732 124.607C101.934 125.115 102.034 125.657 102.026 126.204C102.019 126.751 101.903 127.29 101.686 127.792C101.47 128.294 101.156 128.749 100.764 129.129V129.126Z" fill="white"/>
<path opacity="0.5" d="M95.6075 150.269C93.3897 150.82 85.8974 148.375 85.8974 148.375C85.8974 148.375 91.3715 142.737 93.6115 142.186C94.6844 141.922 95.8186 142.094 96.7644 142.665C97.7103 143.236 98.3903 144.159 98.655 145.231C98.9197 146.303 98.7473 147.436 98.1758 148.381C97.6043 149.326 96.6804 150.005 95.6075 150.269Z" fill="white"/>
<path opacity="0.5" d="M88.0967 165.391C85.9861 166.31 78.2055 165.162 78.2055 165.162C78.2055 165.162 82.641 158.677 84.7626 157.776C85.2661 157.545 85.8108 157.416 86.3648 157.397C86.9187 157.379 87.4708 157.471 87.9887 157.668C88.5066 157.865 88.9799 158.164 89.3809 158.546C89.7818 158.929 90.1024 159.387 90.3237 159.895C90.5451 160.402 90.6628 160.949 90.67 161.503C90.6772 162.056 90.5737 162.606 90.3656 163.119C90.1575 163.632 89.849 164.099 89.4581 164.491C89.0673 164.884 88.6019 165.195 88.0893 165.405L88.0967 165.391Z" fill="white"/>
<path opacity="0.5" d="M82.7962 130.883C84.0456 132.815 91.1719 136.145 91.1719 136.145C91.1719 136.145 91.0426 128.288 89.7895 126.356C89.1886 125.43 88.2439 124.78 87.1632 124.549C86.0825 124.319 84.9544 124.526 84.0271 125.127C83.0997 125.727 82.449 126.671 82.2182 127.75C81.9874 128.83 82.1953 129.957 82.7962 130.883Z" fill="white"/>
<path opacity="0.5" d="M74.2394 148.663C76.0099 150.14 83.809 151.181 83.809 151.181C83.809 151.181 81.3325 143.722 79.5583 142.253C79.137 141.904 78.651 141.641 78.1281 141.48C77.6052 141.319 77.0556 141.262 76.5107 141.313C75.9658 141.364 75.4363 141.522 74.9524 141.777C74.4685 142.032 74.0397 142.38 73.6905 142.801C73.3412 143.222 73.0784 143.708 72.917 144.23C72.7555 144.752 72.6987 145.301 72.7497 145.846C72.8006 146.39 72.9584 146.919 73.214 147.402C73.4696 147.886 73.8181 148.314 74.2394 148.663Z" fill="white"/>
<path opacity="0.5" d="M68.2995 167.1C69.7965 168.847 77.3036 171.199 77.3036 171.199C77.3036 171.199 76.1245 163.445 74.6238 161.683C73.9042 160.845 72.8808 160.326 71.7787 160.242C70.6765 160.157 69.5859 160.514 68.7467 161.233C67.9076 161.952 67.3887 162.974 67.3041 164.075C67.2195 165.176 67.5763 166.266 68.2958 167.104L68.2995 167.1Z" fill="white"/>
<g opacity="0.1">
<path d="M141.271 105.904C141.227 105.848 141.205 105.811 141.205 105.811L141.271 105.904Z" fill="url(#paint0_linear_4_271)"/>
</g>
<path d="M202.385 110.943C202.315 113.296 203.775 114.178 203.775 114.178L217.414 126.246C222.677 128.151 223.328 138.147 223.328 138.147C223.846 139.07 224.067 140.672 224.067 142.578C224.004 148.486 222.334 156.72 222.334 156.72L222.382 156.798L222.334 157.038L222.382 157.115L222.334 157.355C222.595 157.777 222.877 158.185 223.18 158.578C221.702 161.602 218.948 166.469 217.758 167.506C216.113 168.935 212.823 179.566 212.823 179.566L212.93 179.541L212.823 179.884H212.893C212.095 181.424 211.282 183.41 211.108 185.371C210.991 186.657 210.724 187.924 210.313 189.149C209.828 190.571 209.786 192.107 210.192 193.554C210.517 194.711 210.733 195.897 210.835 197.095C211.041 199.403 211.608 201.665 212.516 203.797C214.021 207.368 216.013 212.246 216.117 213.228C216.172 213.76 216.301 214.542 216.449 215.351L216.364 215.373L212.827 223.386C212.827 223.386 211.84 225.602 209.87 225.602C209.678 225.6 209.488 225.64 209.312 225.718C209.137 225.795 208.98 225.909 208.851 226.052C208.723 226.195 208.627 226.363 208.568 226.546C208.51 226.728 208.491 226.921 208.513 227.112C208.487 227.335 208.517 227.56 208.598 227.769V227.791C208.598 227.828 208.632 227.865 208.646 227.902L208.68 227.965C208.698 228.002 208.72 228.035 208.746 228.072L208.791 228.135L208.872 228.235L208.927 228.297L209.023 228.393L209.09 228.456L209.201 228.545L209.282 228.604L209.412 228.685L209.508 228.744L209.652 228.818L209.763 228.873L209.922 228.94L210.047 228.991L210.225 229.051L210.365 229.095L210.565 229.143L210.724 229.18L210.942 229.217L211.116 229.246L211.356 229.272L211.544 229.294H211.81H212.01H212.516H212.868H213.064C213.253 229.294 213.449 229.278 213.651 229.246C220.068 228.611 224.836 223.707 224.836 223.707V223.615V223.523V223.43L224.858 223.405C224.858 223.405 224.444 217.02 222.097 215.576C221.863 214.39 221.74 213.185 221.728 211.976C221.728 207.545 223.043 203.088 219.425 195.788C219.425 195.788 219.258 193.882 220.578 191.028C221.352 189.498 222.208 188.012 223.143 186.575L223.306 186.556L223.043 186.904C223.043 186.904 227.32 186.586 227.649 183.728C227.68 183.49 227.736 183.256 227.815 183.03C228.806 180.157 233.589 176.084 235.71 175.793C238.013 175.475 242.619 180.87 244.43 184.681C244.533 184.898 244.641 185.105 244.748 185.294C246.515 188.399 248.707 187.697 248.707 187.697C248.629 187.605 248.562 187.516 248.492 187.424C248.565 187.415 248.636 187.4 248.707 187.38C248.513 187.145 248.334 186.898 248.171 186.641C249.815 188.421 251.564 190.061 252.325 191.017C253.97 193.081 253.149 194.507 253.149 195.142C253.149 198.003 249.364 206.408 250.351 211.02C250.839 213.298 250.281 215.964 249.59 218.076H249.446C246.648 219.132 246.322 222.921 246.345 224.826C246.345 224.885 246.345 224.944 246.345 225C246.345 225.096 246.345 225.188 246.345 225.277V225.336C246.345 225.407 246.345 225.476 246.345 225.543V225.591C246.345 225.664 246.345 225.735 246.345 225.797C246.345 225.864 246.345 225.927 246.345 225.978V226.001V226.111V226.141V226.2V226.241C246.345 226.241 254.24 229.73 260.986 230.672C261.222 230.705 261.448 230.731 261.666 230.749H261.865L262.29 230.775H262.867H263.052C263.181 230.775 263.303 230.775 263.421 230.745H263.54C263.692 230.726 263.837 230.701 263.972 230.672L264.061 230.649C264.164 230.624 264.26 230.601 264.353 230.572L264.475 230.531L264.693 230.446L264.804 230.395C264.87 230.361 264.933 230.328 264.996 230.291L265.096 230.214C265.17 230.165 265.242 230.112 265.31 230.055C265.377 229.997 265.44 229.934 265.499 229.867L265.547 229.808C265.584 229.763 265.618 229.716 265.65 229.667L265.695 229.593C265.722 229.547 265.745 229.5 265.765 229.453L265.798 229.379C265.818 229.326 265.835 229.272 265.85 229.217V229.161C265.866 229.09 265.877 229.017 265.883 228.943C265.883 228.943 265.883 228.918 265.883 228.903C265.886 228.844 265.886 228.785 265.883 228.726C265.883 228.703 265.883 228.678 265.883 228.655C265.979 227.681 265.207 226.709 264.434 226.857C262.789 227.175 260.649 225.269 260.649 225.269L256.151 217.929C256.081 216.211 256.273 214.029 257.359 212.257C259.5 208.767 262.131 201.308 262.131 201.308C262.131 201.308 261.802 196.707 263.118 194.484C264.434 192.261 263.118 188.772 263.118 188.772L259.093 181.018C259.555 181.018 259.832 181.018 259.832 181.018L259.688 180.7H259.832C259.832 180.7 254.898 169.751 252.924 168.481C251.516 167.577 249.527 162.481 248.488 159.619C248.902 159.401 249.132 159.25 249.132 159.25C249.132 159.25 250.285 145.443 250.285 136.725C250.285 128.007 256.199 124.506 256.199 124.506L269.901 116.405C273.52 114.976 274.015 111.328 274.015 111.328L273.974 111.224C274.004 111.088 274.015 111.01 274.015 111.01L273.974 110.907C274.004 110.77 274.015 110.692 274.015 110.692L267.435 93.8727C267.435 93.9244 267.395 93.9687 267.376 94.0167C266.911 91.118 265.473 86.5799 261.019 86.2623C254.439 85.786 252.148 89.1204 253.453 89.4379C254.757 89.7555 260.361 91.9784 260.361 91.9784L262.579 95.5491C262.434 95.5011 262.353 95.4679 262.353 95.4679C262.479 95.5163 262.59 95.5964 262.675 95.7005L262.823 95.9368C262.534 95.8556 262.357 95.7855 262.357 95.7855C262.397 95.8022 262.436 95.8233 262.471 95.8482C262.504 95.8655 262.535 95.8853 262.564 95.9073C262.594 95.934 262.622 95.9624 262.649 95.9922C262.679 96.0216 262.707 96.0524 262.734 96.0846C262.763 96.1215 262.789 96.1621 262.819 96.2027L262.863 96.2692C262.693 96.2235 262.525 96.1693 262.361 96.1067C264.083 96.6606 264.804 107.1 264.948 109.769L256.428 113.562C256.428 113.562 247.875 113.562 244.256 115.626C241.081 117.435 239.551 115.947 239.226 115.556C239.447 115.839 239.643 116.112 239.813 116.375L239.721 116.312L239.636 116.253L239.566 116.198L239.488 116.132L239.462 116.109C238.714 114.711 238.221 113.19 238.006 111.619C238.41 110.657 238.608 109.622 238.587 108.579C238.567 107.536 238.329 106.509 237.888 105.563C238.026 105.661 238.178 105.74 238.339 105.796C237.969 105.104 237.719 104.355 237.599 103.58C237.518 102.713 237.766 101.79 237.396 100.996C237.357 100.915 237.312 100.838 237.263 100.763C237.263 100.737 237.263 100.708 237.233 100.678C236.864 99.8731 235.958 99.43 235.385 98.7284C235.016 98.2558 234.805 97.6798 234.45 97.1923C234 96.6181 233.378 96.2029 232.675 96.0075C231.972 95.8122 231.225 95.8469 230.543 96.1067C230.003 96.3246 229.501 96.6901 228.917 96.7012C228.615 96.6865 228.315 96.6345 228.026 96.5461C226.215 96.1704 224.329 96.5233 222.777 97.5284C221.265 98.5262 220.069 99.9356 219.332 101.59C218.934 102.403 218.674 103.277 218.564 104.175C218.52 105.117 218.535 106.06 218.608 107C218.641 108.547 218.412 110.172 219.074 111.579C219.114 111.667 219.166 111.745 219.21 111.83C219.21 111.852 219.21 111.874 219.236 111.896C219.865 113.237 221.18 114.112 222.441 114.957L224.071 116.032L224.256 116.154C223.789 116.107 223.319 116.097 222.851 116.124C220.382 116.283 215.459 113.909 215.459 113.909L210.321 109.263L212.827 98.9906L212.731 99.0608L212.827 98.673L212.731 98.7432L212.827 98.3555C212.779 98.3924 212.735 98.4257 212.687 98.4589L215.292 94.2272C215.292 94.2272 220.885 92.0116 222.201 91.6867C223.517 91.3618 221.214 88.0384 214.634 88.5111C209.792 88.8619 208.513 94.194 208.177 97.004C207.892 96.6901 207.726 96.4612 207.726 96.4612L203.113 107.362C202.631 108.386 202.379 109.502 202.374 110.633C202.381 110.74 202.381 110.847 202.385 110.943ZM226.481 116.527C226.848 116.405 227.175 116.188 227.431 115.899C227.844 116.056 228.269 116.18 228.702 116.268C228.585 116.672 228.42 117.06 228.211 117.424C228.148 117.177 228.118 117.025 228.118 117.025C227.582 116.828 227.036 116.66 226.481 116.523V116.527ZM223.698 185.615C224.067 185.02 224.437 184.441 224.807 183.894C224.489 184.477 224.067 185.113 223.698 185.615Z" fill="url(#paint1_linear_4_271)"/>
<path d="M257.289 179.009L262.002 188.425C262.002 188.425 263.259 191.877 262.002 194.074C260.745 196.272 261.059 200.825 261.059 200.825C261.059 200.825 258.546 208.21 256.502 211.655C254.458 215.1 255.715 220.148 255.715 220.148L247.546 221.089C247.546 221.089 250.688 214.967 249.764 210.414C248.84 205.861 252.436 197.549 252.436 194.717C252.436 194.089 253.223 192.675 251.649 190.637C250.074 188.598 244.108 183.418 244.256 180.434L257.289 179.009Z" fill="#F7BBC3"/>
<path d="M215.655 176.812C215.655 176.812 212.638 180.984 212.287 185.046C212.182 186.314 211.934 187.567 211.548 188.779C211.084 190.189 211.043 191.704 211.43 193.137C211.741 194.284 211.946 195.456 212.043 196.641C212.237 198.925 212.778 201.166 213.648 203.287C215.085 206.821 216.974 211.644 217.085 212.615C217.244 214.184 218.028 217.951 218.028 217.951L224.311 220.307C224.311 220.307 222.426 215.754 222.426 211.359C222.426 206.965 223.683 202.571 220.208 195.348C220.208 195.348 220.049 193.465 221.317 190.64C222.585 187.816 227.446 180.438 227.446 180.438L215.655 176.812Z" fill="#F7BBC3"/>
<path opacity="0.1" d="M225.812 182.41C226.329 182.971 223.664 186.545 223.664 186.545C223.664 186.545 227.749 186.231 228.063 183.407C228.093 183.172 228.146 182.94 228.222 182.716C229.168 179.877 233.737 175.848 235.762 175.56C237.98 175.246 242.36 180.582 244.09 184.348C244.19 184.566 244.29 184.765 244.393 184.954C246.082 188.026 248.174 187.332 248.174 187.332C247.065 185.966 246.836 184.884 247.184 184.009C248.559 180.622 258.856 180.722 258.856 180.722C258.856 180.722 254.144 169.892 252.259 168.636C250.374 167.381 247.387 157.961 247.387 157.961C247.387 157.961 224.917 155.45 224.762 156.547C224.607 157.644 220.205 166.28 218.634 167.691C217.063 169.102 213.925 179.625 213.925 179.625C219.266 178.056 225.158 181.9 225.786 182.373L225.812 182.41Z" fill="black"/>
<path d="M225.812 182.096C226.329 182.657 223.664 186.231 223.664 186.231C223.664 186.231 227.749 185.918 228.063 183.093C228.093 182.858 228.146 182.626 228.222 182.402C229.168 179.563 233.737 175.534 235.762 175.246C237.98 174.932 242.36 180.268 244.09 184.034C244.19 184.252 244.29 184.452 244.393 184.64C246.082 187.712 248.174 187.018 248.174 187.018C247.065 185.652 246.836 184.57 247.184 183.695C248.559 180.309 258.856 180.408 258.856 180.408C258.856 180.408 254.144 169.578 252.259 168.322C250.374 167.067 247.387 157.647 247.387 157.647C247.387 157.647 224.917 155.136 224.762 156.233C224.607 157.33 220.205 165.967 218.634 167.377C217.063 168.788 213.921 179.308 213.921 179.308C219.262 177.739 225.154 181.582 225.782 182.055L225.812 182.096Z" fill="#565171"/>
<path opacity="0.1" d="M255.327 217.231L259.647 224.531C259.647 224.531 261.691 226.414 263.262 226.1C264.833 225.786 266.404 230.494 259.962 229.553C253.519 228.611 245.979 225.159 245.979 225.159C245.979 225.159 245.273 218.8 248.884 217.404L255.327 217.231Z" fill="black"/>
<path opacity="0.1" d="M217.303 214.705L213.925 222.633C213.925 222.633 212.982 224.848 211.097 224.848C209.212 224.848 208.584 228.774 214.712 228.146C220.84 227.518 225.398 222.651 225.398 222.651C225.398 222.651 224.925 215.118 222.097 214.646C220.511 214.345 218.881 214.365 217.303 214.705Z" fill="black"/>
<path d="M255.327 217.544L259.647 224.845C259.647 224.845 261.691 226.728 263.262 226.414C264.833 226.1 266.404 230.808 259.962 229.867C253.519 228.925 245.979 225.472 245.979 225.472C245.979 225.472 245.273 219.114 248.884 217.718L255.327 217.544Z" fill="#B77983"/>
<path d="M217.303 215.034L213.925 222.961C213.925 222.961 212.982 225.177 211.097 225.177C209.212 225.177 208.584 229.102 214.712 228.475C220.84 227.847 225.398 222.98 225.398 222.98C225.398 222.98 224.925 215.447 222.097 214.974C220.511 214.673 218.881 214.693 217.303 215.034Z" fill="#B77983"/>
<g opacity="0.1">
<path d="M225.546 156.251C225.387 157.359 220.988 165.985 219.417 167.396C217.976 168.692 215.207 177.668 214.764 179.123C214.479 179.179 214.198 179.241 213.917 179.323C213.917 179.323 217.059 168.806 218.63 167.392C220.201 165.978 224.6 157.344 224.758 156.248C224.788 156.03 225.708 155.952 227.154 155.974C226.178 155.993 225.575 156.074 225.546 156.251Z" fill="black"/>
<path d="M236.55 175.242C238.767 174.928 243.147 180.264 244.877 184.031C244.977 184.249 245.077 184.448 245.18 184.636C246.156 186.409 247.261 186.926 248.026 187.047C247.52 187.14 245.809 187.217 244.393 184.636C244.29 184.448 244.19 184.249 244.09 184.031C242.504 180.574 238.675 175.804 236.354 175.279L236.55 175.242Z" fill="black"/>
<path d="M225.812 182.096L225.786 182.07C225.28 181.701 221.351 179.116 217.044 178.957C221.646 178.798 226.034 181.667 226.573 182.07L226.599 182.096C227.054 182.591 225.05 185.419 224.559 186.084C224.265 186.15 223.968 186.199 223.668 186.228C223.668 186.228 226.329 182.657 225.812 182.096Z" fill="black"/>
</g>
<path d="M266.245 97.0742C266.245 97.0742 266.245 87.4993 259.962 87.0267C253.678 86.554 251.46 89.8515 252.735 90.1654C254.011 90.4792 259.333 92.6763 259.333 92.6763L262.789 98.4847L266.245 97.0742Z" fill="#F7BBC3"/>
<path d="M209.367 99.2713C209.367 99.2713 209.367 89.6964 215.651 89.2238C221.935 88.7511 224.152 92.0486 222.877 92.3624C221.602 92.6763 216.279 94.8734 216.279 94.8734L212.823 100.682L209.367 99.2713Z" fill="#F7BBC3"/>
<path d="M237.806 109.16C237.806 109.16 237.333 115.437 241.262 119.049C245.191 122.66 232.151 127.209 232.151 127.209L226.337 120.304C226.337 120.304 231.05 117.479 228.555 112.613L237.806 109.16Z" fill="#F7BBC3"/>
<path opacity="0.1" d="M239.063 116.538C239.063 116.538 240.479 118.753 243.935 116.697C247.391 114.64 255.563 114.636 255.563 114.636L263.732 110.87C263.732 110.87 263.104 97.3696 261.218 96.7418C261.218 96.7418 264.989 98.3112 266.09 95.1725L272.374 111.811C272.374 111.811 271.901 115.423 268.445 116.833L255.404 124.839C255.404 124.839 249.749 128.291 249.749 136.924C249.749 145.558 248.64 159.213 248.64 159.213C248.64 159.213 230.414 170.202 223.029 157.33C223.029 157.33 226.015 142.105 223.971 138.335C223.971 138.335 223.343 128.446 218.316 126.563L205.283 114.636C205.283 114.636 202.769 113.067 204.655 108.514L209.053 97.6834C209.053 97.6834 211.725 101.45 213.925 99.5666L211.411 110.242L216.438 114.95C216.438 114.95 221.151 117.306 223.509 117.165C225.867 117.025 228.536 118.107 228.536 118.107C228.536 118.107 229.645 124.384 234.664 123.757C234.664 123.757 244.249 123.288 239.063 116.538Z" fill="black"/>
<path opacity="0.1" d="M239.063 115.91C239.063 115.91 240.479 118.126 243.935 116.069C247.391 114.012 255.563 114.027 255.563 114.027L263.732 110.26C263.732 110.26 263.103 96.7603 261.218 96.1326C261.218 96.1326 264.989 97.7019 266.09 94.5632L272.374 111.202C272.374 111.202 271.901 114.813 268.445 116.224L255.404 124.237C255.404 124.237 249.749 127.689 249.749 136.323C249.749 144.956 248.64 158.611 248.64 158.611C248.64 158.611 230.414 169.6 223.029 156.728C223.029 156.728 226.015 141.503 223.971 137.733C223.971 137.733 223.343 127.844 218.316 125.961L205.275 114.03C205.275 114.03 202.762 112.461 204.647 107.908L209.046 97.0779C209.046 97.0779 211.718 100.844 213.917 98.9611L211.404 109.636L216.431 114.344C216.431 114.344 221.144 116.7 223.502 116.56C225.86 116.42 228.529 117.502 228.529 117.502C228.529 117.502 229.638 123.779 234.657 123.151C234.664 123.129 244.249 122.66 239.063 115.91Z" fill="black"/>
<path d="M205.283 114.341L218.323 126.271C223.35 128.155 223.979 138.043 223.979 138.043C226.023 141.81 223.036 157.038 223.036 157.038C230.429 169.91 248.647 158.921 248.647 158.921C248.647 158.921 248.684 158.471 248.744 157.677C248.795 156.983 248.865 156.022 248.943 154.881C249.047 153.404 249.165 151.621 249.276 149.686C249.523 145.458 249.749 140.532 249.749 136.633C249.749 127.999 255.404 124.547 255.404 124.547L265.188 118.543L268.448 116.541C271.904 115.127 272.377 111.52 272.377 111.52L266.094 94.8808C265.066 97.8127 261.706 96.6347 261.27 96.4686C263.118 97.3031 263.736 110.578 263.736 110.578L255.567 114.344C255.567 114.344 247.398 114.344 243.938 116.386C240.981 118.122 239.536 116.793 239.167 116.353C244.134 123 234.668 123.447 234.668 123.447C229.641 124.074 228.54 117.797 228.54 117.797C228.54 117.797 225.867 116.689 223.513 116.855C221.158 117.021 216.442 114.64 216.442 114.64L211.415 109.932L213.928 99.2565C211.711 101.14 209.057 97.3733 209.057 97.3733L204.658 108.204C202.769 112.771 205.283 114.341 205.283 114.341Z" fill="#B45181"/>
<path opacity="0.1" d="M237.806 109.788C237.76 110.775 237.811 111.764 237.958 112.742C237.274 114.443 236.005 115.844 234.378 116.692C232.751 117.541 230.875 117.781 229.087 117.369C229.444 115.975 229.243 114.497 228.529 113.248L237.806 109.788Z" fill="black"/>
<path d="M230.817 116.933C235.069 116.933 238.516 113.489 238.516 109.241C238.516 104.993 235.069 101.55 230.817 101.55C226.564 101.55 223.117 104.993 223.117 109.241C223.117 113.489 226.564 116.933 230.817 116.933Z" fill="#F7BBC3"/>
<path opacity="0.1" d="M230.939 104.866C231.005 105.645 231.061 106.475 230.702 107.17C230.503 107.519 230.254 107.837 229.963 108.115L228.351 109.773C227.843 110.219 227.449 110.78 227.202 111.409C226.736 112.96 228.111 114.499 228.067 116.12C227.82 116.506 227.454 116.801 227.024 116.96C226.595 117.119 226.125 117.132 225.686 116.999C225.331 116.863 224.996 116.678 224.692 116.449L223.114 115.375C221.912 114.555 220.656 113.669 220.053 112.347C219.421 110.955 219.635 109.345 219.606 107.816C219.537 106.886 219.523 105.952 219.565 105.021C219.671 104.132 219.92 103.266 220.304 102.458C221.001 100.841 222.141 99.4544 223.594 98.4589C224.321 97.9687 225.14 97.63 226.001 97.4632C226.862 97.2963 227.748 97.3046 228.606 97.4877C228.882 97.5743 229.168 97.6252 229.456 97.6391C230.015 97.6391 230.495 97.2699 231.009 97.052C231.662 96.797 232.382 96.7641 233.056 96.9583C233.73 97.1525 234.321 97.5631 234.738 98.1266C235.078 98.6066 235.274 99.1789 235.629 99.6442C236.158 100.338 237.019 100.778 237.378 101.572C237.736 102.366 237.496 103.274 237.573 104.131C237.684 104.896 237.92 105.639 238.272 106.328C237.4 106.025 236.975 105.072 236.424 104.341C235.988 103.799 235.44 103.355 234.819 103.041C234.198 102.726 233.516 102.548 232.82 102.517C232.34 102.495 231.449 102.458 231.068 102.824C230.584 103.292 230.891 104.297 230.939 104.866Z" fill="black"/>
<path d="M230.783 104.552C230.85 105.331 230.905 106.162 230.547 106.856C230.347 107.205 230.098 107.523 229.808 107.801L228.174 109.466C227.667 109.909 227.273 110.466 227.024 111.091C226.559 112.642 227.934 114.182 227.889 115.803C227.643 116.189 227.277 116.484 226.847 116.642C226.417 116.801 225.947 116.815 225.509 116.682C225.153 116.546 224.819 116.361 224.515 116.132L222.958 115.072C221.757 114.252 220.5 113.366 219.898 112.044C219.266 110.652 219.48 109.042 219.451 107.513C219.382 106.583 219.368 105.65 219.41 104.718C219.515 103.829 219.765 102.964 220.149 102.155C220.845 100.538 221.986 99.1516 223.439 98.1561C224.166 97.6659 224.985 97.3273 225.846 97.1604C226.707 96.9935 227.593 97.0019 228.451 97.185C228.727 97.2715 229.012 97.3224 229.301 97.3364C229.859 97.3364 230.34 96.9671 230.854 96.7492C231.507 96.4942 232.226 96.4613 232.901 96.6555C233.575 96.8497 234.166 97.2603 234.583 97.8238C234.923 98.3038 235.119 98.8762 235.474 99.3414C236.003 100.036 236.864 100.475 237.222 101.269C237.581 102.063 237.341 102.971 237.418 103.828C237.529 104.594 237.765 105.336 238.117 106.025C237.244 105.722 236.819 104.77 236.269 104.038C235.832 103.496 235.285 103.052 234.664 102.738C234.042 102.423 233.361 102.245 232.665 102.214C232.184 102.192 231.293 102.155 230.913 102.521C230.425 102.979 230.721 103.979 230.783 104.552Z" fill="#74585E"/>
<g opacity="0.1">
<path d="M239.13 116.313C239.085 116.257 239.063 116.224 239.063 116.224L239.13 116.313Z" fill="black"/>
<path d="M212.524 99.7956C213.041 99.8062 213.542 99.6185 213.925 99.2712L213.773 99.9064C213.355 99.9903 212.921 99.9518 212.524 99.7956Z" fill="black"/>
<path d="M240.379 117.125C244.315 123.162 235.452 123.602 235.452 123.602C234.776 123.695 234.089 123.646 233.434 123.458C233.842 123.506 234.256 123.506 234.664 123.458C234.664 123.458 244.164 122.989 239.13 116.324C239.458 116.708 239.892 116.987 240.379 117.125Z" fill="black"/>
<path d="M224.296 117.01C223.659 117.026 223.023 116.951 222.408 116.785C222.774 116.849 223.145 116.872 223.517 116.855C224.495 116.814 225.475 116.912 226.425 117.147C225.723 117.019 225.009 116.974 224.296 117.01Z" fill="black"/>
<path d="M204.655 108.218L209.053 97.388C209.23 97.6286 209.42 97.8591 209.622 98.0785L205.442 108.359C203.557 112.912 206.07 114.481 206.07 114.481L219.111 126.412C224.138 128.295 224.766 138.184 224.766 138.184C226.81 141.95 223.823 157.178 223.823 157.178C225.805 160.631 228.566 162.348 231.549 163.057C228.27 162.499 225.195 160.775 223.047 157.019C223.047 157.019 226.034 141.795 223.99 138.025C223.99 138.025 223.361 128.136 218.334 126.253L205.283 114.341C205.283 114.341 202.769 112.771 204.655 108.218Z" fill="black"/>
<path d="M261.218 96.4464C261.541 96.5704 261.873 96.6656 262.213 96.7307C263.935 98.241 264.515 110.729 264.515 110.729L256.347 114.496C256.347 114.496 248.178 114.496 244.718 116.538C243.025 117.538 241.824 117.52 241.022 117.243C241.761 117.287 242.711 117.092 243.916 116.383C247.372 114.341 255.545 114.341 255.545 114.341L263.713 110.574C263.713 110.574 263.103 97.0741 261.218 96.4464Z" fill="black"/>
<path d="M262.59 96.7935C263.784 96.9486 265.425 96.7751 266.09 94.8771L266.46 95.8556C265.428 97.3179 263.543 97.0483 262.59 96.7935Z" fill="black"/>
</g>
<path opacity="0.1" d="M249.276 149.682C249.523 145.454 249.749 140.528 249.749 136.629C249.749 127.996 255.404 124.543 255.404 124.543L265.188 118.539C259.496 120.016 251.922 122.56 251.242 125.555C250.133 130.422 248.1 130.891 248.884 139.218C249.209 142.696 249.34 146.19 249.276 149.682Z" fill="black"/>
<path opacity="0.1" d="M247.782 161.665C247.782 161.665 246.367 166.059 250.296 168.884L247.782 161.665Z" fill="black"/>
<path opacity="0.1" d="M225.786 161.665C225.786 161.665 225.313 164.962 223.428 166.218L225.786 161.665Z" fill="black"/>
<path opacity="0.1" d="M245.979 224.845C245.979 224.845 253.519 228.297 259.962 229.239C263.229 229.715 264.434 228.74 264.623 227.706C264.837 228.914 263.883 230.443 259.962 229.867C253.519 228.925 245.979 225.472 245.979 225.472C245.931 224.951 245.913 224.427 245.927 223.903C245.938 224.475 245.979 224.845 245.979 224.845Z" fill="black"/>
<path opacity="0.1" d="M214.553 228.138C220.682 227.511 225.239 222.644 225.239 222.644C225.239 222.644 225.006 218.929 223.89 216.555C225.143 218.9 225.398 222.958 225.398 222.958C225.398 222.958 220.84 227.825 214.712 228.452C211.581 228.774 210.214 227.906 209.877 226.975C210.391 227.777 211.781 228.423 214.553 228.138Z" fill="black"/>
<path d="M221.923 67.1901C221.922 70.4705 223.087 73.6448 225.21 76.1475C227.332 78.6502 230.276 80.3187 233.515 80.8558C236.754 81.3929 240.079 80.7637 242.898 79.0803C245.716 77.3968 247.844 74.7685 248.904 71.6636C249.964 68.5587 249.885 65.1789 248.683 62.1262C247.481 59.0736 245.233 56.5464 242.34 54.9949C239.447 53.4435 236.096 52.9685 232.885 53.6546C229.674 54.3408 226.811 56.1435 224.807 58.7415C222.938 61.1626 221.925 64.1332 221.923 67.1901Z" fill="url(#paint2_linear_4_271)"/>
<path d="M222.434 67.1901C222.429 70.3514 223.548 73.4115 225.592 75.8252C227.636 78.2388 230.471 79.849 233.592 80.3688C236.713 80.8887 239.918 80.2844 242.635 78.6636C245.352 77.0429 247.404 74.511 248.427 71.5192C249.449 68.5275 249.375 65.2703 248.217 62.3282C247.059 59.3861 244.893 56.9503 242.105 55.4549C239.317 53.9595 236.088 53.5018 232.994 54.1632C229.9 54.8246 227.141 56.5623 225.209 59.0665C223.413 61.3948 222.437 64.2506 222.434 67.1901Z" fill="#E0E0E0"/>
<path d="M228.303 60.6358V65.8128" stroke="#535461" stroke-miterlimit="10"/>
<path d="M238.202 65.3512L232.794 68.9183" stroke="#535461" stroke-miterlimit="10"/>
<path d="M232.794 57.4196L239.126 60.0635" stroke="#535461" stroke-miterlimit="10"/>
<path d="M243.384 66.2707L243.036 74.3205" stroke="#535461" stroke-miterlimit="10"/>
<path d="M239.126 76.7355L231.988 73.1721" stroke="#535461" stroke-miterlimit="10"/>
<path d="M228.303 73.7482V78.242" stroke="#535461" stroke-miterlimit="10"/>
<path d="M225.657 70.2956L222.544 68.9183" stroke="#535461" stroke-miterlimit="10"/>
<path d="M243.037 59.6019L242.8 55.8391" stroke="#535461" stroke-miterlimit="10"/>
<path d="M245.11 63.9739L248.969 65.0743" stroke="#535461" stroke-miterlimit="10"/>
<path d="M246.145 63.9739L243.155 58.7969L238.205 59.6019V65.3512L243.499 68.1133L246.145 63.9739Z" fill="#6C63FF"/>
<path d="M225.209 59.0517L228.307 60.6358C229.342 59.2548 233.6 57.6448 233.6 57.6448L233.156 54.111C229.997 54.7446 227.174 56.4997 225.209 59.0517Z" fill="#6C63FF"/>
<path d="M233.6 68.3422L228.189 65.8128L225.195 70.0667L228.303 75.011L233.6 74.206V68.3422Z" fill="#6C63FF"/>
<path d="M238.202 76.0449V80.2951C239.935 79.9765 241.589 79.3181 243.066 78.3579C244.544 77.3978 245.816 76.1549 246.81 74.7008L243.036 73.1537L238.202 76.0449Z" fill="#6C63FF"/>
<path d="M40.1044 165.265C40.1045 168.017 41.0826 170.68 42.8646 172.779C44.6466 174.878 47.1166 176.276 49.8345 176.726C52.5525 177.175 55.3418 176.646 57.7056 175.232C60.0693 173.819 61.8539 171.612 62.7414 169.007C63.6289 166.402 63.5616 163.566 62.5515 161.005C61.5414 158.445 59.6541 156.326 57.226 155.026C54.7978 153.726 51.9865 153.329 49.2929 153.906C46.5993 154.484 44.1985 155.998 42.5181 158.179C40.9527 160.21 40.1041 162.702 40.1044 165.265Z" fill="url(#paint3_linear_4_271)"/>
<path d="M40.5332 165.265C40.5338 167.916 41.4764 170.48 43.1929 172.501C44.9095 174.522 47.2885 175.869 49.9062 176.301C52.5239 176.733 55.2102 176.223 57.4865 174.861C59.7628 173.5 61.4813 171.375 62.3358 168.866C63.1903 166.356 63.1253 163.625 62.1523 161.159C61.1794 158.694 59.3618 156.653 57.0232 155.401C54.6847 154.149 51.9771 153.767 49.383 154.323C46.7888 154.879 44.4766 156.337 42.8581 158.437C41.3501 160.395 40.5326 162.795 40.5332 165.265Z" fill="#E0E0E0"/>
<path d="M45.4566 159.767V164.109" stroke="#535461" stroke-miterlimit="10"/>
<path d="M53.7584 163.721L49.2194 166.712" stroke="#535461" stroke-miterlimit="10"/>
<path d="M49.2194 157.067L54.5309 159.287" stroke="#535461" stroke-miterlimit="10"/>
<path d="M58.1019 164.493L57.8132 171.247" stroke="#535461" stroke-miterlimit="10"/>
<path d="M54.5309 173.27L48.543 170.28" stroke="#535461" stroke-miterlimit="10"/>
<path d="M45.4566 170.763V174.533" stroke="#535461" stroke-miterlimit="10"/>
<path d="M43.2352 167.868L40.6256 166.712" stroke="#535461" stroke-miterlimit="10"/>
<path d="M57.8135 158.899L57.6136 155.746" stroke="#535461" stroke-miterlimit="10"/>
<path d="M59.5504 162.566L62.7884 163.489" stroke="#535461" stroke-miterlimit="10"/>
<path d="M60.4191 162.566L57.9093 158.227L53.7584 158.899V163.722L58.1976 166.037L60.4191 162.566Z" fill="#6C63FF"/>
<path d="M42.8581 158.437L45.4455 159.767C46.3141 158.611 49.881 157.259 49.881 157.259L49.5114 154.305C46.8675 154.836 44.5047 156.304 42.8581 158.437Z" fill="#6C63FF"/>
<path d="M49.8958 166.229L45.3605 164.109L42.847 167.676L45.4566 171.823L49.8958 171.147V166.229Z" fill="#6C63FF"/>
<path d="M53.7584 172.691V176.269C55.2122 176.001 56.5986 175.449 57.8376 174.643C59.0766 173.838 60.1437 172.795 60.9772 171.576L57.8132 170.28L53.7584 172.691Z" fill="#6C63FF"/>
<path d="M31.5661 179.227C31.5661 181.979 32.5443 184.642 34.3262 186.74C36.1082 188.839 38.5782 190.238 41.2962 190.687C44.0141 191.137 46.8035 190.607 49.1672 189.194C51.531 187.78 53.3156 185.574 54.203 182.969C55.0905 180.363 55.0232 177.528 54.0131 174.967C53.003 172.407 51.1158 170.287 48.6876 168.987C46.2595 167.687 43.4481 167.291 40.7546 167.868C38.061 168.446 35.6601 169.96 33.9797 172.141C32.4144 174.172 31.5657 176.663 31.5661 179.227Z" fill="url(#paint4_linear_4_271)"/>
<path d="M31.9948 179.227C31.9955 181.877 32.938 184.441 34.6546 186.463C36.3711 188.484 38.7502 189.83 41.3678 190.263C43.9855 190.695 46.6718 190.185 48.9481 188.823C51.2245 187.461 52.943 185.337 53.7974 182.827C54.6519 180.318 54.5869 177.587 53.614 175.121C52.6411 172.655 50.8234 170.614 48.4849 169.362C46.1463 168.11 43.4388 167.728 40.8446 168.284C38.2505 168.841 35.9382 170.299 34.3198 172.399C32.8117 174.356 31.9942 176.757 31.9948 179.227Z" fill="#E0E0E0"/>
<path d="M36.9182 173.728V178.067" stroke="#535461" stroke-miterlimit="10"/>
<path d="M45.22 177.683L40.6847 180.674" stroke="#535461" stroke-miterlimit="10"/>
<path d="M40.6847 171.029L45.9926 173.248" stroke="#535461" stroke-miterlimit="10"/>
<path d="M49.5635 178.455L49.2748 185.205" stroke="#535461" stroke-miterlimit="10"/>
<path d="M45.9926 187.232L40.0083 184.241" stroke="#535461" stroke-miterlimit="10"/>
<path d="M36.9182 184.725V188.495" stroke="#535461" stroke-miterlimit="10"/>
<path d="M34.6968 181.83L32.0872 180.674" stroke="#535461" stroke-miterlimit="10"/>
<path d="M49.2751 172.861L49.0752 169.707" stroke="#535461" stroke-miterlimit="10"/>
<path d="M51.0121 176.527L54.25 177.45" stroke="#535461" stroke-miterlimit="10"/>
<path d="M51.8807 176.527L49.371 172.185L45.22 172.861V177.683L49.663 179.998L51.8807 176.527Z" fill="#6C63FF"/>
<path d="M34.3198 172.399L36.9071 173.728C37.7758 172.573 41.3427 171.221 41.3427 171.221L40.973 168.267C38.3292 168.798 35.9664 170.265 34.3198 172.399Z" fill="#6C63FF"/>
<path d="M41.3574 180.19L36.8221 178.067L34.3124 181.638L36.9182 185.785L41.3574 185.109V180.19Z" fill="#6C63FF"/>
<path d="M45.22 186.641V190.219C46.6733 189.953 48.0593 189.402 49.2983 188.597C50.5373 187.793 51.6046 186.752 52.4388 185.534L49.2748 184.237L45.22 186.641Z" fill="#6C63FF"/>
</g>
</g>
<defs>
<linearGradient id="paint0_linear_4_271" x1="141.223" y1="105.904" x2="141.223" y2="105.811" gradientUnits="userSpaceOnUse">
<stop stop-color="#808080" stop-opacity="0.25"/>
<stop offset="0.54" stop-color="#808080" stop-opacity="0.12"/>
<stop offset="1" stop-color="#808080" stop-opacity="0.1"/>
</linearGradient>
<linearGradient id="paint1_linear_4_271" x1="238.198" y1="230.786" x2="238.198" y2="86.2069" gradientUnits="userSpaceOnUse">
<stop stop-color="#808080" stop-opacity="0.25"/>
<stop offset="0.54" stop-color="#808080" stop-opacity="0.12"/>
<stop offset="1" stop-color="#808080" stop-opacity="0.1"/>
</linearGradient>
<linearGradient id="paint2_linear_4_271" x1="235.784" y1="81.0373" x2="235.784" y2="53.343" gradientUnits="userSpaceOnUse">
<stop stop-color="#808080" stop-opacity="0.25"/>
<stop offset="0.54" stop-color="#808080" stop-opacity="0.12"/>
<stop offset="1" stop-color="#808080" stop-opacity="0.1"/>
</linearGradient>
<linearGradient id="paint3_linear_4_271" x1="51.7292" y1="176.878" x2="51.7292" y2="153.652" gradientUnits="userSpaceOnUse">
<stop stop-color="#808080" stop-opacity="0.25"/>
<stop offset="0.54" stop-color="#808080" stop-opacity="0.12"/>
<stop offset="1" stop-color="#808080" stop-opacity="0.1"/>
</linearGradient>
<linearGradient id="paint4_linear_4_271" x1="43.1945" y1="190.84" x2="43.1945" y2="167.613" gradientUnits="userSpaceOnUse">
<stop stop-color="#808080" stop-opacity="0.25"/>
<stop offset="0.54" stop-color="#808080" stop-opacity="0.12"/>
<stop offset="1" stop-color="#808080" stop-opacity="0.1"/>
</linearGradient>
<clipPath id="clip0_4_271">
<rect width="423" height="295" fill="white"/>
</clipPath>
</defs>
</svg>
