<svg width="485" height="357" viewBox="0 0 485 357" fill="none" xmlns="http://www.w3.org/2000/svg">
<g clip-path="url(#clip0_4_48)">
<path d="M432.916 190.792C430.804 215.2 420.169 238.786 404.999 258.293C404.365 259.109 403.723 259.917 403.074 260.718C401.613 262.519 400.114 264.287 398.577 266.021C396.697 268.157 394.763 270.244 392.773 272.281C391.153 273.958 389.496 275.6 387.801 277.205C386.493 278.457 385.17 279.684 383.832 280.888C367.732 295.443 349.238 307.454 330.183 317.958C292.995 338.451 252.235 353.975 209.838 356.235C167.446 358.49 123.192 346.343 92.1035 317.414C50.2048 278.429 38.5113 213.404 55.5222 158.747C66.8363 122.385 89.929 89.4899 121.357 68.0056C152.514 46.7084 191.819 37.1221 229.018 43.3883C258.713 25.3318 297.588 24.9862 329.871 38.3516C347.097 45.4846 362.557 56.0908 376.119 68.9065C382.33 74.7879 388.141 81.0776 393.515 87.7335C394.064 88.4077 394.608 89.0876 395.146 89.7732C397.4 92.623 399.58 95.5314 401.686 98.4983C404.71 102.753 407.581 107.103 410.299 111.546C411.047 112.77 411.789 114 412.513 115.24C413 116.073 413.493 116.912 413.974 117.756C413.985 117.773 413.993 117.792 413.997 117.813C421.534 131.076 427.695 145.229 430.906 160.022C431.472 162.639 431.948 165.268 432.316 167.92V167.925C432.639 170.175 432.882 172.435 433.047 174.707C433.434 180.064 433.39 185.443 432.916 190.792Z" fill="#1D146B" fill-opacity="0.79"/>
<path opacity="0.3" d="M321.87 228.182L237.747 158.106L319.471 230.989C319.629 231.256 319.849 231.481 320.111 231.646C320.374 231.81 320.672 231.91 320.981 231.937C321.29 231.963 321.601 231.916 321.887 231.798C322.174 231.681 322.429 231.497 322.63 231.261C322.832 231.025 322.974 230.745 323.046 230.443C323.117 230.142 323.115 229.827 323.041 229.526C322.967 229.225 322.822 228.946 322.618 228.713C322.414 228.479 322.158 228.297 321.87 228.182Z" fill="#F0F0F0"/>
<path d="M128.955 192.522C156.806 192.522 179.385 169.945 179.385 142.094C179.385 114.244 156.806 91.6661 128.955 91.6661C101.103 91.6661 78.5246 114.244 78.5246 142.094C78.5246 169.945 101.103 192.522 128.955 192.522Z" fill="#F2F2F2"/>
<path d="M173.718 138.695C173.719 144.722 172.532 150.69 170.226 156.258C167.919 161.827 164.538 166.887 160.276 171.148C156.014 175.41 150.955 178.791 145.386 181.097C139.817 183.403 133.849 184.59 127.821 184.59C122.449 184.587 117.119 183.647 112.069 181.813C104.174 178.937 97.2189 173.95 91.9616 167.395C86.7043 160.84 83.3461 152.969 82.2527 144.638C81.1593 136.306 82.3725 127.835 85.7602 120.146C89.148 112.456 94.5805 105.843 101.466 101.027C108.352 96.2114 116.427 93.3766 124.812 92.8318C133.197 92.287 141.571 94.0529 149.022 97.9374C156.474 101.822 162.716 107.676 167.071 114.862C171.425 122.049 173.724 130.292 173.718 138.695Z" fill="white"/>
<path d="M119.888 137.561C127.712 137.561 134.054 131.219 134.054 123.396C134.054 115.573 127.712 109.231 119.888 109.231C112.065 109.231 105.723 115.573 105.723 123.396C105.723 131.219 112.065 137.561 119.888 137.561Z" fill="#E4E4E4"/>
<path d="M171.928 125.963C168.858 127.44 165.358 127.761 162.07 126.867C158.783 125.974 155.927 123.925 154.027 121.098C152.127 118.27 151.31 114.852 151.725 111.47C152.141 108.089 153.761 104.971 156.289 102.687C163.801 108.625 169.269 116.763 171.928 125.963Z" fill="#F2F2F2"/>
<path d="M143.12 159.092C145.937 159.092 148.22 156.809 148.22 153.993C148.22 151.177 145.937 148.893 143.12 148.893C140.304 148.893 138.021 151.177 138.021 153.993C138.021 156.809 140.304 159.092 143.12 159.092Z" fill="#E4E4E4"/>
<path d="M122.155 182.89C122.155 183.338 122.096 183.783 121.979 184.216C118.596 183.792 115.271 182.987 112.069 181.813C112.335 180.583 113.047 179.494 114.067 178.757C115.087 178.02 116.344 177.686 117.596 177.819C118.848 177.953 120.006 178.545 120.847 179.481C121.689 180.417 122.155 181.631 122.155 182.89Z" fill="#F2F2F2"/>
<path d="M92.1237 136.428C92.1235 139.015 91.1401 141.506 89.3726 143.395C87.6052 145.284 85.1858 146.432 82.6043 146.604C81.4359 139.869 81.7765 132.959 83.6016 126.371C85.9825 126.768 88.1455 127.996 89.7059 129.838C91.2663 131.679 92.123 134.014 92.1237 136.428Z" fill="#F2F2F2"/>
<path d="M343.636 120.226C344.794 120.226 345.734 119.287 345.734 118.128C345.734 116.969 344.794 116.03 343.636 116.03C342.477 116.03 341.538 116.969 341.538 118.128C341.538 119.287 342.477 120.226 343.636 120.226Z" fill="#6C63FF"/>
<path d="M324.283 69.1893C324.96 69.1893 325.509 68.6406 325.509 67.9637C325.509 67.2868 324.96 66.7381 324.283 66.7381C323.606 66.7381 323.057 67.2868 323.057 67.9637C323.057 68.6406 323.606 69.1893 324.283 69.1893Z" fill="#F0F0F0"/>
<path d="M127.663 309.431C128.34 309.431 128.888 308.882 128.888 308.205C128.888 307.528 128.34 306.98 127.663 306.98C126.986 306.98 126.437 307.528 126.437 308.205C126.437 308.882 126.986 309.431 127.663 309.431Z" fill="#F0F0F0"/>
<path d="M331.241 189.109C331.918 189.109 332.466 188.56 332.466 187.884C332.466 187.207 331.918 186.658 331.241 186.658C330.564 186.658 330.015 187.207 330.015 187.884C330.015 188.56 330.564 189.109 331.241 189.109Z" fill="#F0F0F0"/>
<path d="M173.08 200.684C174.239 200.684 175.178 199.745 175.178 198.586C175.178 197.428 174.239 196.488 173.08 196.488C171.922 196.488 170.983 197.428 170.983 198.586C170.983 199.745 171.922 200.684 173.08 200.684Z" fill="#6C63FF"/>
<path d="M97.1522 245.888C102.623 245.888 107.059 241.453 107.059 235.982C107.059 230.511 102.623 226.076 97.1522 226.076C91.681 226.076 87.2458 230.511 87.2458 235.982C87.2458 241.453 91.681 245.888 97.1522 245.888Z" fill="#6C63FF"/>
<path d="M151.461 248.237C152.138 248.237 152.687 247.688 152.687 247.012C152.687 246.335 152.138 245.786 151.461 245.786C150.784 245.786 150.236 246.335 150.236 247.012C150.236 247.688 150.784 248.237 151.461 248.237Z" fill="#F0F0F0"/>
<path d="M276.12 56.7239C276.796 56.7239 277.345 56.1752 277.345 55.4983C277.345 54.8214 276.796 54.2727 276.12 54.2727C275.443 54.2727 274.894 54.8214 274.894 55.4983C274.894 56.1752 275.443 56.7239 276.12 56.7239Z" fill="#F0F0F0"/>
<path d="M203.024 317.93C203.701 317.93 204.25 317.381 204.25 316.704C204.25 316.027 203.701 315.479 203.024 315.479C202.348 315.479 201.799 316.027 201.799 316.704C201.799 317.381 202.348 317.93 203.024 317.93Z" fill="#F0F0F0"/>
<path d="M184.892 68.0561C185.569 68.0561 186.118 67.5074 186.118 66.8305C186.118 66.1536 185.569 65.6049 184.892 65.6049C184.215 65.6049 183.667 66.1536 183.667 66.8305C183.667 67.5074 184.215 68.0561 184.892 68.0561Z" fill="#F0F0F0"/>
<path d="M216.623 127.55C217.3 127.55 217.849 127.001 217.849 126.324C217.849 125.647 217.3 125.099 216.623 125.099C215.947 125.099 215.398 125.647 215.398 126.324C215.398 127.001 215.947 127.55 216.623 127.55Z" fill="#F0F0F0"/>
<path d="M168.052 273.534C168.729 273.534 169.277 272.985 169.277 272.308C169.277 271.631 168.729 271.082 168.052 271.082C167.375 271.082 166.826 271.631 166.826 272.308C166.826 272.985 167.375 273.534 168.052 273.534Z" fill="#F0F0F0"/>
<path d="M311.409 281.466C312.086 281.466 312.634 280.917 312.634 280.241C312.634 279.564 312.086 279.015 311.409 279.015C310.732 279.015 310.183 279.564 310.183 280.241C310.183 280.917 310.732 281.466 311.409 281.466Z" fill="#F0F0F0"/>
<path d="M247.946 210.074C248.623 210.074 249.172 209.525 249.172 208.848C249.172 208.171 248.623 207.622 247.946 207.622C247.269 207.622 246.721 208.171 246.721 208.848C246.721 209.525 247.269 210.074 247.946 210.074Z" fill="#F0F0F0"/>
<path d="M280.244 127.349C280.921 127.349 281.47 126.8 281.47 126.123C281.47 125.446 280.921 124.898 280.244 124.898C279.567 124.898 279.018 125.446 279.018 126.123C279.018 126.8 279.567 127.349 280.244 127.349Z" fill="#F0F0F0"/>
<path d="M338.964 168.25C340.306 168.25 341.394 167.162 341.394 165.82C341.394 164.478 340.306 163.39 338.964 163.39C337.622 163.39 336.534 164.478 336.534 165.82C336.534 167.162 337.622 168.25 338.964 168.25Z" fill="#FF6584"/>
<path d="M240.371 87.7922C241.713 87.7922 242.801 86.7042 242.801 85.3621C242.801 84.0199 241.713 82.9319 240.371 82.9319C239.029 82.9319 237.941 84.0199 237.941 85.3621C237.941 86.7042 239.029 87.7922 240.371 87.7922Z" fill="#FF6584"/>
<path d="M240.371 254.941C241.713 254.941 242.801 253.853 242.801 252.511C242.801 251.169 241.713 250.081 240.371 250.081C239.029 250.081 237.941 251.169 237.941 252.511C237.941 253.853 239.029 254.941 240.371 254.941Z" fill="#FF6584"/>
<path d="M391.78 266.515C390.833 266.516 389.913 266.825 389.157 267.396C388.402 267.966 387.852 268.767 387.592 269.677C387.478 270.067 387.42 270.472 387.422 270.878V277.7C389.117 276.097 390.775 274.456 392.397 272.776C394.386 270.737 396.322 268.65 398.205 266.515H391.78Z" fill="#6C63FF"/>
<path d="M407.208 301.963C399.892 301.963 391.873 301.686 383.151 301.133C338.04 298.269 279.607 288.309 218.616 273.091C157.625 257.872 101.363 239.211 60.1946 220.547C40.1402 211.454 24.7485 202.848 14.4477 194.966C3.54173 186.621 -1.22868 179.348 0.268392 173.348C3.1854 161.66 29.014 159.102 50.168 159.015L50.1752 160.715C21.1252 160.835 3.98719 165.467 1.91795 173.76C-0.717929 184.321 20.7791 200.81 60.8966 218.998C101.975 237.622 158.133 256.247 219.028 271.442C279.922 286.636 338.247 296.578 383.259 299.437C427.217 302.229 453.942 297.772 456.578 287.21C458.766 278.441 444.34 265.523 415.956 250.835L416.738 249.326C437.361 259.998 461.301 275.306 458.227 287.622C456.73 293.622 449.102 297.801 435.554 300.044C427.831 301.322 418.345 301.963 407.208 301.963Z" fill="#6C63FF"/>
<path d="M404.903 175.241C436.353 175.241 461.849 149.746 461.849 118.297C461.849 86.8473 436.353 61.3526 404.903 61.3526C373.452 61.3526 347.957 86.8473 347.957 118.297C347.957 149.746 373.452 175.241 404.903 175.241Z" fill="white"/>
<path d="M404.903 60.5027C393.472 60.5027 382.297 63.8923 372.793 70.2428C363.288 76.5932 355.881 85.6194 351.506 96.1799C347.132 106.74 345.987 118.361 348.217 129.572C350.447 140.783 355.952 151.081 364.035 159.163C372.118 167.246 382.416 172.75 393.627 174.98C404.839 177.21 416.46 176.066 427.02 171.691C437.581 167.317 446.608 159.909 452.958 150.405C459.309 140.901 462.699 129.727 462.699 118.297C462.726 110.699 461.25 103.172 458.355 96.1476C455.46 89.1234 451.204 82.7414 445.832 77.3692C440.459 71.9971 434.077 67.7411 427.053 64.8464C420.028 61.9516 412.5 60.4754 404.903 60.5027ZM404.903 174.391C393.808 174.391 382.962 171.101 373.737 164.937C364.512 158.774 357.322 150.013 353.077 139.763C348.831 129.513 347.72 118.234 349.884 107.353C352.049 96.472 357.391 86.477 365.237 78.6321C373.082 70.7872 383.077 65.4448 393.959 63.2804C404.841 61.116 416.12 62.2268 426.37 66.4725C436.62 70.7181 445.381 77.9078 451.545 87.1324C457.709 96.3571 460.999 107.202 460.999 118.297C461.028 125.671 459.596 132.978 456.787 139.797C453.978 146.615 449.847 152.811 444.633 158.025C439.418 163.24 433.223 167.37 426.404 170.179C419.585 172.988 412.277 174.419 404.903 174.391Z" fill="#2F2E41"/>
<path d="M354.929 131.935C354.668 131.935 354.415 131.845 354.213 131.68C354.011 131.515 353.872 131.285 353.82 131.03C352.191 122.733 352.485 114.173 354.68 106.008C356.874 97.8421 360.91 90.2879 366.479 83.9251C366.679 83.7018 366.96 83.567 367.259 83.5503C367.559 83.5335 367.853 83.6361 368.076 83.8357C368.3 84.0352 368.436 84.3154 368.454 84.6147C368.472 84.9141 368.37 85.2083 368.171 85.4329C362.835 91.5304 358.967 98.7696 356.864 106.595C354.761 114.42 354.479 122.623 356.04 130.574C356.074 130.738 356.07 130.909 356.03 131.072C355.99 131.235 355.914 131.388 355.807 131.518C355.701 131.648 355.567 131.753 355.415 131.826C355.263 131.898 355.097 131.935 354.929 131.935Z" fill="#2F2E41"/>
<path d="M405.195 172.386C425.184 172.386 441.389 156.182 441.389 136.193C441.389 116.204 425.184 100 405.195 100C385.205 100 369 116.204 369 136.193C369 156.182 385.205 172.386 405.195 172.386Z" fill="#171054" fill-opacity="0.79"/>
<path d="M393.364 148.672C391.018 148.607 388.098 148.525 385.848 146.882C385.178 146.373 384.628 145.723 384.236 144.979C383.843 144.234 383.619 143.413 383.577 142.572C383.536 141.975 383.634 141.377 383.863 140.823C384.092 140.27 384.446 139.778 384.897 139.384C386.072 138.391 387.788 138.158 389.637 138.702L387.721 124.703L389.127 124.51L391.379 140.967L390.205 140.429C388.844 139.804 386.975 139.486 385.814 140.468C385.528 140.724 385.306 141.043 385.164 141.4C385.022 141.756 384.965 142.14 384.995 142.523C385.03 143.148 385.199 143.759 385.49 144.313C385.782 144.868 386.19 145.353 386.685 145.736C388.436 147.015 390.763 147.179 393.403 147.253L393.364 148.672Z" fill="#2F2E41"/>
<path d="M380.767 125.91H373.122V127.329H380.767V125.91Z" fill="#2F2E41"/>
<path d="M404.896 125.91H397.252V127.329H404.896V125.91Z" fill="#2F2E41"/>
<path d="M406.387 180.147H373.58C372.357 180.149 371.184 180.635 370.319 181.5C369.455 182.364 368.968 183.537 368.967 184.76V257.472C368.971 262.4 370.322 267.233 372.875 271.447C375.428 275.662 379.085 279.098 383.45 281.383C384.793 280.182 386.117 278.954 387.422 277.7C389.117 276.097 390.775 274.455 392.397 272.776C394.386 270.737 396.322 268.65 398.205 266.515C399.747 264.782 401.246 263.014 402.704 261.212C403.356 260.413 403.998 259.605 404.631 258.787C419.811 239.279 430.452 215.691 432.566 191.281C429.177 187.758 425.111 184.956 420.613 183.043C416.114 181.129 411.276 180.145 406.387 180.147Z" fill="#2F2E41"/>
<path d="M407.583 195.321C406.802 194.557 405.878 193.955 404.864 193.549C403.85 193.144 402.765 192.943 401.673 192.959C399.775 192.973 397.94 193.646 396.483 194.862C396.25 195.051 396.028 195.253 395.82 195.469L368.967 223.006L349.492 242.979C349.196 243.277 348.951 243.621 348.767 243.999C348.475 244.582 348.325 245.227 348.331 245.88C348.336 246.416 348.449 246.947 348.661 247.44C348.873 247.933 349.18 248.379 349.566 248.752L350.331 249.5L355.884 254.911L355.889 254.906C356.635 255.511 357.569 255.838 358.53 255.829C359.067 255.823 359.597 255.711 360.09 255.499C360.583 255.287 361.029 254.98 361.403 254.594L362.304 253.676L368.752 247.064L368.967 246.843L407.73 207.09C409.271 205.509 410.121 203.382 410.093 201.175C410.066 198.968 409.163 196.863 407.583 195.321Z" fill="#6C63FF"/>
<path d="M407.31 118.122C408.507 115.592 407.28 112.888 405.178 111.272C402.529 109.234 399.102 109.571 396.089 110.536C392.79 111.591 389.565 113.491 386.001 113.382C384.731 113.359 383.497 112.953 382.461 112.218C381.425 111.482 380.636 110.45 380.196 109.258C378.288 104.363 380.443 98.8923 383.766 95.1799C385.642 93.054 387.96 91.3647 390.559 90.2305C393.157 89.0964 395.972 88.5451 398.806 88.6152C402.042 88.7757 405.187 89.7342 407.962 91.4053C410.737 93.0763 413.055 95.4079 414.711 98.1923C414.828 98.3825 415.015 98.5201 415.231 98.5768C415.448 98.6336 415.678 98.6051 415.874 98.4973C418.395 97.3699 421.116 96.7536 423.877 96.6841C426.639 96.6146 429.387 97.0933 431.962 98.0925C435.826 99.6674 439.119 102.38 441.404 105.871C443.69 109.362 444.859 113.465 444.757 117.636C444.729 118.73 446.429 118.729 446.457 117.636C446.563 111.805 444.411 106.159 440.451 101.877C438.44 99.7423 436.022 98.0323 433.339 96.8481C430.656 95.664 427.763 95.0297 424.831 94.9828C421.446 94.9108 418.089 95.6107 415.016 97.0295L416.178 97.3344C414.646 94.7554 412.588 92.528 410.138 90.7973C407.687 89.0666 404.9 87.8714 401.957 87.2896C399.043 86.7459 396.045 86.8352 393.169 87.5516C390.292 88.268 387.603 89.5946 385.284 91.4415C380.92 94.8565 377.613 100.156 377.819 105.839C377.908 108.299 378.639 110.823 380.346 112.656C382.533 115.003 385.799 115.409 388.815 114.808C392.825 114.009 396.485 111.372 400.664 111.453C401.483 111.454 402.292 111.628 403.039 111.964C403.785 112.301 404.452 112.792 404.994 113.405C405.915 114.444 406.47 115.938 405.843 117.264C405.378 118.248 406.843 119.112 407.31 118.122Z" fill="#2F2E41"/>
<path d="M136.027 322.601C115.856 322.602 97.103 321.91 80.315 320.513C58.3714 318.687 40.9827 315.752 28.6325 311.789C15.5566 307.593 8.61955 302.346 8.01391 296.191C6.83363 284.203 30.3017 273.117 50.1968 265.927L50.7745 267.526C23.4534 277.399 8.8683 287.52 9.7055 296.025C10.7718 306.858 36.5592 315.166 80.4558 318.819C125.404 322.559 184.555 321.233 247.015 315.085C309.474 308.938 367.75 298.706 411.106 286.275C453.447 274.135 477.121 260.959 476.054 250.126C475.169 241.132 457.241 233.812 425.572 229.514L425.801 227.829C448.812 230.952 476.502 237.327 477.746 249.96C478.352 256.114 472.571 262.613 460.564 269.278C449.223 275.572 432.741 281.841 411.574 287.909C368.122 300.368 309.74 310.619 247.181 316.777C207.937 320.639 169.981 322.601 136.027 322.601Z" fill="#6C63FF"/>
<path d="M475.094 256.087C480.565 256.087 485 251.652 485 246.181C485 240.71 480.565 236.275 475.094 236.275C469.622 236.275 465.187 240.71 465.187 246.181C465.187 251.652 469.622 256.087 475.094 256.087Z" fill="#6C63FF"/>
<path d="M187.813 19.812C193.284 19.812 197.719 15.377 197.719 9.90602C197.719 4.43508 193.284 0 187.813 0C182.342 0 177.906 4.43508 177.906 9.90602C177.906 15.377 182.342 19.812 187.813 19.812Z" fill="#E6E6E6"/>
<path d="M11.0246 255.521C16.4958 255.521 20.931 251.086 20.931 245.615C20.931 240.144 16.4958 235.709 11.0246 235.709C5.55347 235.709 1.11823 240.144 1.11823 245.615C1.11823 251.086 5.55347 255.521 11.0246 255.521Z" fill="#E6E6E6"/>
<path d="M72.2205 67.5313C75.5697 67.5313 78.2848 64.8163 78.2848 61.4673C78.2848 58.1182 75.5697 55.4033 72.2205 55.4033C68.8713 55.4033 66.1563 58.1182 66.1563 61.4673C66.1563 64.8163 68.8713 67.5313 72.2205 67.5313Z" fill="#FF6584"/>
<path d="M43.8891 297.574C47.2383 297.574 49.9533 294.859 49.9533 291.51C49.9533 288.161 47.2383 285.446 43.8891 285.446C40.5399 285.446 37.8248 288.161 37.8248 291.51C37.8248 294.859 40.5399 297.574 43.8891 297.574Z" fill="#FF6584"/>
<path d="M457.528 198.418C460.877 198.418 463.592 195.703 463.592 192.354C463.592 189.004 460.877 186.29 457.528 186.29C454.179 186.29 451.464 189.004 451.464 192.354C451.464 195.703 454.179 198.418 457.528 198.418Z" fill="#FF6584"/>
<path d="M365.734 349.011C371.205 349.011 375.641 344.576 375.641 339.105C375.641 333.634 371.205 329.199 365.734 329.199C360.263 329.199 355.828 333.634 355.828 339.105C355.828 344.576 360.263 349.011 365.734 349.011Z" fill="#E6E6E6"/>
</g>
<defs>
<clipPath id="clip0_4_48">
<rect width="485" height="357" fill="white"/>
</clipPath>
</defs>
</svg>
