<svg width="789" height="565" viewBox="0 0 789 565" fill="none" xmlns="http://www.w3.org/2000/svg">
<rect width="788.972" height="564.542" fill="#0D0740"/>
<g clip-path="url(#clip0_8_622)">
<path d="M556.495 225.412L556.051 225.295C560.993 199.51 573.413 176.095 591.022 159.363C604.335 146.733 620.169 138.286 637.033 134.817C653.897 131.349 671.236 132.972 687.418 139.536C703.599 146.099 718.09 157.387 729.527 172.335C740.964 187.283 748.97 205.4 752.792 224.981L752.349 225.099C741.888 171.208 701.631 133.571 654.452 133.571C607.891 133.571 566.694 172.196 556.495 225.412Z" fill="#3F3D56"/>
<path d="M654.295 242.897C710.791 242.897 756.59 236.247 756.59 228.044C756.59 219.84 710.791 213.19 654.295 213.19C597.799 213.19 552 219.84 552 228.044C552 236.247 597.799 242.897 654.295 242.897Z" fill="#2D2880"/>
<path d="M678.35 214.318C678.35 214.574 678.334 214.83 678.303 215.083C678.235 215.639 678.092 216.178 677.878 216.681C677.649 217.222 677.342 217.714 676.972 218.134C676.93 218.182 676.886 218.23 676.842 218.276C676.118 219.04 675.203 219.508 674.234 219.609C674.098 219.624 673.96 219.632 673.82 219.632C672.723 219.633 671.664 219.166 670.838 218.319C670.012 217.472 669.476 216.301 669.331 215.026C669.304 214.791 669.291 214.555 669.291 214.318C669.291 214.019 669.313 213.72 669.355 213.425C669.436 212.866 669.593 212.326 669.821 211.826C669.924 211.594 670.044 211.372 670.177 211.162C670.598 210.493 671.146 209.948 671.779 209.574C672.412 209.199 673.111 209.004 673.82 209.004C673.975 209.004 674.129 209.013 674.283 209.032C674.753 209.087 675.213 209.23 675.645 209.454C676.045 209.661 676.418 209.935 676.751 210.267C676.839 210.355 676.924 210.446 677.006 210.542C677.343 210.932 677.626 211.382 677.843 211.876C678.066 212.379 678.219 212.921 678.293 213.481C678.331 213.758 678.35 214.038 678.35 214.318Z" fill="#F2F2F2"/>
<path d="M675.635 211.862L675.627 213.464L676.992 213.472L677 211.871L675.635 211.862Z" fill="#CCCCCC"/>
<path d="M678.35 214.318C678.35 214.574 678.334 214.83 678.303 215.083L676.985 215.074L676.993 213.472L678.293 213.481C678.331 213.758 678.35 214.038 678.35 214.318Z" fill="#CCCCCC"/>
<path d="M677.878 216.681C677.649 217.222 677.342 217.714 676.972 218.134L676.977 216.676L677.878 216.681Z" fill="#CCCCCC"/>
<path d="M671.549 209.72L671.547 210.235L670.927 210.231C671.122 210.04 671.33 209.869 671.549 209.72Z" fill="#CCCCCC"/>
<path d="M674.283 209.032L674.277 210.252L672.911 210.243L672.916 209.111C673.214 209.04 673.517 209.004 673.82 209.004C673.975 209.004 674.129 209.013 674.283 209.032Z" fill="#CCCCCC"/>
<path d="M676.751 210.267L675.642 210.26L675.646 209.454C676.046 209.661 676.418 209.935 676.751 210.267Z" fill="#CCCCCC"/>
<path d="M670.177 211.162L670.174 211.828L669.821 211.826C669.924 211.594 670.044 211.372 670.177 211.162Z" fill="#CCCCCC"/>
<path d="M671.547 210.235L671.539 211.836L672.904 211.845L672.912 210.243L671.547 210.235Z" fill="#CCCCCC"/>
<path d="M674.277 210.252L674.269 211.853L675.635 211.862L675.642 210.26L674.277 210.252Z" fill="#CCCCCC"/>
<path d="M677.843 211.876L677 211.871L677.006 210.541C677.343 210.932 677.626 211.382 677.843 211.876Z" fill="#CCCCCC"/>
<path d="M670.174 211.828L670.167 213.429L671.532 213.438L671.539 211.836L670.174 211.828Z" fill="#CCCCCC"/>
<path d="M672.905 211.845L672.898 213.446L674.263 213.455L674.271 211.853L672.905 211.845Z" fill="#CCCCCC"/>
<path d="M671.532 213.438L671.524 215.039L672.89 215.048L672.897 213.446L671.532 213.438Z" fill="#CCCCCC"/>
<path d="M674.263 213.455L674.256 215.056L675.621 215.065L675.628 213.463L674.263 213.455Z" fill="#CCCCCC"/>
<path d="M670.167 213.43L670.159 215.031L669.331 215.026C669.304 214.791 669.291 214.555 669.291 214.318C669.291 214.019 669.313 213.72 669.355 213.425L670.167 213.43Z" fill="#CCCCCC"/>
<path d="M670.159 215.031L670.152 216.632L671.517 216.641L671.524 215.039L670.159 215.031Z" fill="#CCCCCC"/>
<path d="M672.89 215.048L672.882 216.65L674.247 216.658L674.255 215.057L672.89 215.048Z" fill="#CCCCCC"/>
<path d="M675.62 215.065L675.613 216.667L676.978 216.675L676.985 215.074L675.62 215.065Z" fill="#CCCCCC"/>
<path d="M670.152 216.633L670.149 217.429C669.993 217.177 669.856 216.91 669.741 216.63L670.152 216.633Z" fill="#CCCCCC"/>
<path d="M671.517 216.641L671.51 218.243L672.875 218.251L672.882 216.65L671.517 216.641Z" fill="#CCCCCC"/>
<path d="M674.249 216.658L674.241 218.26L675.606 218.268L675.614 216.667L674.249 216.658Z" fill="#CCCCCC"/>
<path d="M671.51 218.242L671.506 218.887C671.24 218.701 670.992 218.483 670.763 218.238L671.51 218.242Z" fill="#CCCCCC"/>
<path d="M674.24 218.26L674.234 219.609C674.098 219.624 673.96 219.632 673.82 219.632C673.501 219.632 673.182 219.593 672.869 219.514L672.875 218.251L674.24 218.26Z" fill="#CCCCCC"/>
<path d="M676.842 218.276C676.474 218.663 676.055 218.977 675.601 219.206L675.605 218.268L676.842 218.276Z" fill="#CCCCCC"/>
<path d="M719.189 145.344L724.646 170.245C724.646 170.245 724.848 187.795 726.061 194.672C727.274 201.55 731.317 218.15 731.317 218.15L736.168 219.099L735.157 195.858C735.157 195.858 735.157 181.866 734.147 178.783C733.136 175.7 731.115 144.158 731.115 144.158L719.189 145.344Z" fill="#A0616A"/>
<path opacity="0.1" d="M719.189 145.344L724.646 170.245C724.646 170.245 724.848 187.795 726.061 194.672C727.274 201.55 731.317 218.15 731.317 218.15L736.168 219.099L735.157 195.858C735.157 195.858 735.157 181.866 734.147 178.783C733.136 175.7 731.115 144.158 731.115 144.158L719.189 145.344Z" fill="black"/>
<path d="M734.32 40.9737C727.582 40.9737 722.12 48.0855 722.12 56.8583V68.0043H725.042L726.733 63.8746L726.31 68.0043H745.091L746.629 64.2501L746.244 68.0043H748.359V59.2527C748.359 49.1575 742.073 40.9737 734.32 40.9737Z" fill="#2F2E41"/>
<path d="M714.034 141.431C714.034 141.431 711.608 153.526 714.843 154.712C718.077 155.897 717.268 141.431 717.268 141.431H714.034Z" fill="#A0616A"/>
<path d="M718.077 80.0082L716.46 82.1427L716.864 123.17L713.226 142.617L721.311 143.566L725.354 104.435L724.141 84.5141L718.077 80.0082Z" fill="#3F3D56"/>
<path opacity="0.1" d="M718.077 80.0082L716.46 82.1427L716.864 123.17L713.226 142.617L721.311 143.566L725.354 104.435L724.141 84.5141L718.077 80.0082Z" fill="#6C63FF"/>
<path d="M733.24 66.4468C738.037 66.4468 741.925 61.8848 741.925 56.2572C741.925 50.6296 738.037 46.0676 733.24 46.0676C728.444 46.0676 724.555 50.6296 724.555 56.2572C724.555 61.8848 728.444 66.4468 733.24 66.4468Z" fill="#A0616A"/>
<path d="M728.261 62.371C728.261 62.371 730.809 77.8592 729.651 79.4896C728.493 81.1199 741.925 76.5006 741.925 76.5006C741.925 76.5006 737.525 65.9034 739.841 59.9255L728.261 62.371Z" fill="#A0616A"/>
<path d="M750.216 130.285C750.216 130.285 752.642 142.38 749.408 143.565C746.174 144.751 746.982 130.285 746.982 130.285H750.216Z" fill="#A0616A"/>
<path d="M731.519 142.498C731.519 142.498 728.082 166.688 728.285 170.245C728.487 173.803 728.285 174.277 728.285 174.277C728.285 174.277 724.848 184.712 723.838 190.64C722.827 196.569 720.603 204.158 720.603 204.158C720.603 204.158 717.976 211.036 720.199 211.036C722.423 211.036 725.455 210.087 725.455 210.087C725.447 207.348 726.231 204.686 727.678 202.537C730.104 198.941 737.381 182.103 737.381 179.969C737.381 177.834 738.594 171.668 738.594 171.668L743.243 145.344L731.519 142.498Z" fill="#A0616A"/>
<path d="M717.369 126.372C717.369 126.372 713.933 146.767 716.965 147.241C719.997 147.716 724.242 144.158 729.7 148.19C735.157 152.222 744.253 151.273 744.253 151.273C744.253 151.273 750.52 132.538 744.86 128.032C739.2 123.526 717.369 126.372 717.369 126.372Z" fill="#171054"/>
<path d="M721.21 208.19C722.1 207.735 723.077 207.572 724.04 207.716C724.961 207.876 725.899 207.622 726.668 207.004C726.668 207.004 725.05 213.882 725.253 216.49C725.455 219.099 724.646 230.245 720.401 229.059C716.156 227.874 714.944 224.316 716.561 218.15C718.178 211.984 717.774 204.87 717.774 204.87C717.774 204.87 720.724 201.295 721.27 201.778C721.816 202.261 721.21 208.19 721.21 208.19Z" fill="#2F2E41"/>
<path d="M734.753 216.965C734.753 216.965 732.732 211.747 730.306 216.49C727.88 221.233 727.678 222.419 727.678 222.419C727.678 222.419 720.806 229.771 725.657 230.482C730.508 231.194 734.349 230.245 734.349 229.059C734.349 227.874 736.774 228.111 736.976 227.162C737.179 226.214 736.572 217.439 736.572 217.439L734.753 216.965Z" fill="#2F2E41"/>
<path d="M739.301 70.2849C739.301 70.2849 730.811 72.1822 729.801 71.945C729.573 71.8978 729.343 71.8692 729.112 71.8593C727.135 71.7539 725.175 72.3242 723.469 73.5009C720.655 75.4192 716.46 78.8333 716.46 82.1426C716.46 87.1228 721.917 95.6604 721.917 95.6604C721.917 95.6604 716.864 116.056 717.268 117.953C717.673 119.85 714.236 126.253 716.46 128.388C718.683 130.522 739.907 128.388 743.748 130.522C747.589 132.656 745.769 102.064 745.769 102.064C745.769 102.064 756.078 74.3165 750.823 71.7078C749.122 70.8637 747.654 70.2183 746.447 69.7312C745.284 69.2617 744.053 69.0688 742.826 69.1639C741.599 69.2589 740.401 69.6401 739.301 70.2849Z" fill="#2D2880"/>
<path d="M747.184 71.945L751.822 72.8443C751.822 72.8443 753.855 75.2652 753.855 76.4509C753.855 77.6367 753.451 128.862 752.844 130.522C752.238 132.182 745.567 131.471 745.567 131.471L746.78 102.301L747.184 71.945Z" fill="#3F3D56"/>
<path d="M737.788 45.3494C736.563 43.4989 734.756 42.3268 732.74 42.3268H732.5C727.882 42.3268 724.138 47.2296 724.138 53.2775L725.686 53.2775L725.936 51.0458L726.302 53.2775H735.48L736.248 51.3895L736.056 53.2775H737.862C738.704 58.1865 737.494 63.0954 734.23 68.0043H737.306L738.843 64.2282L738.459 68.0043H744.322L745.475 59.3193C745.475 52.815 742.254 47.2994 737.788 45.3494Z" fill="#2F2E41"/>
<path d="M739.474 46.2639C741.997 46.2639 744.043 43.8637 744.043 40.9029C744.043 37.9421 741.997 35.5419 739.474 35.5419C736.95 35.5419 734.904 37.9421 734.904 40.9029C734.904 43.8637 736.95 46.2639 739.474 46.2639Z" fill="#2F2E41"/>
<path opacity="0.2" d="M622.391 228.044C628.964 228.044 634.292 226.049 634.292 223.588C634.292 221.127 628.964 219.132 622.391 219.132C615.819 219.132 610.49 221.127 610.49 223.588C610.49 226.049 615.819 228.044 622.391 228.044Z" fill="black"/>
<path d="M624.513 117.577H620.526V224.15H624.513V117.577Z" fill="#3F3D56"/>
<path d="M681.169 78.3308L681.17 78.2946L677.82 78.2735L674.471 78.2524L671.121 78.2312L667.772 78.2101L664.422 78.189L661.073 78.1679L657.723 78.1467L654.374 78.1256L651.025 78.1045L647.675 78.0833L644.326 78.0622L640.976 78.1582C639.849 78.255 638.73 78.4545 637.63 78.7548C637.627 78.7556 637.625 78.7556 637.623 78.7564C637.613 78.7587 637.604 78.7618 637.594 78.7648C637.378 78.824 637.163 78.8871 636.95 78.9541C636.936 78.958 636.921 78.9626 636.907 78.968C636.185 79.1956 635.474 79.4674 634.776 79.7822C634.606 79.8589 634.437 79.938 634.268 80.0195C633.263 80.5063 632.29 81.0813 631.358 81.7397C631.28 81.795 631.202 81.8511 631.124 81.9087L630.909 82.0662C629.705 82.9627 628.578 83.9954 627.546 85.1495C627.351 85.366 627.16 85.5869 626.973 85.8124C625.975 87.0113 625.079 88.3219 624.299 89.7253L624.157 93.6542L627.506 93.6754L627.524 89.7457L630.874 89.7668L630.856 93.6965L634.205 93.7176L634.223 89.7879L637.573 89.8091L637.555 93.7387L640.904 93.7599L640.922 89.8302L644.272 89.8513L644.254 93.781L647.603 93.8021L647.621 89.8724L650.971 89.8936L650.953 93.8233L654.302 93.8444L654.32 89.9147L657.669 89.9358L657.651 93.8655L661.001 93.8867L661.019 89.957L664.368 89.9781L664.35 93.9078L667.7 93.9289L667.718 89.9992L671.067 90.0204L671.049 93.9501L674.399 93.9712L674.417 90.0415L677.766 90.0626L677.748 93.9923L681.098 94.0134L681.116 90.0837L682.857 90.0947L682.875 86.165L682.893 82.2353L682.911 78.3418L681.169 78.3308Z" fill="#3F3D56"/>
<path d="M622.512 93.6438C622.049 94.9136 621.675 96.2255 621.393 97.5666L624.139 97.5839L624.157 93.6542L622.512 93.6438Z" fill="#3F3D56"/>
<path d="M627.506 93.6753L627.488 97.605L630.838 97.6262L630.856 93.6965L627.506 93.6753Z" fill="#3F3D56"/>
<path d="M634.205 93.7176L634.187 97.6473L637.537 97.6684L637.555 93.7387L634.205 93.7176Z" fill="#3F3D56"/>
<path d="M640.904 93.7599L640.886 97.6896L644.236 97.7107L644.254 93.781L640.904 93.7599Z" fill="#3F3D56"/>
<path d="M647.603 93.8021L647.585 97.7318L650.935 97.753L650.953 93.8233L647.603 93.8021Z" fill="#3F3D56"/>
<path d="M654.302 93.8444L654.284 97.7741L657.633 97.7952L657.651 93.8655L654.302 93.8444Z" fill="#3F3D56"/>
<path d="M661.001 93.8866L660.983 97.8163L664.332 97.8375L664.35 93.9078L661.001 93.8866Z" fill="#3F3D56"/>
<path d="M667.7 93.9289L667.682 97.8586L671.031 97.8797L671.049 93.95L667.7 93.9289Z" fill="#3F3D56"/>
<path d="M674.399 93.9712L674.381 97.9009L677.73 97.922L677.748 93.9923L674.399 93.9712Z" fill="#3F3D56"/>
<path d="M682.738 97.9536C682.797 97.212 682.828 96.4613 682.832 95.7016L682.839 94.0244L681.098 94.0134L681.08 97.9431L682.738 97.9536Z" fill="#3F3D56"/>
<path d="M624.139 97.5839L624.121 101.514L627.47 101.535L627.488 97.605L624.139 97.5839Z" fill="#3F3D56"/>
<path d="M630.838 97.6262L630.82 101.556L634.169 101.577L634.187 97.6473L630.838 97.6262Z" fill="#3F3D56"/>
<path d="M637.537 97.6684L637.519 101.598L640.868 101.619L640.886 97.6896L637.537 97.6684Z" fill="#3F3D56"/>
<path d="M644.236 97.7107L644.218 101.64L647.567 101.662L647.585 97.7318L644.236 97.7107Z" fill="#3F3D56"/>
<path d="M650.935 97.753L650.917 101.683L654.266 101.704L654.284 97.7741L650.935 97.753Z" fill="#3F3D56"/>
<path d="M657.633 97.7952L657.615 101.725L660.965 101.746L660.983 97.8163L657.633 97.7952Z" fill="#3F3D56"/>
<path d="M664.332 97.8375L664.314 101.767L667.664 101.788L667.682 97.8586L664.332 97.8375Z" fill="#3F3D56"/>
<path d="M671.031 97.8797L671.013 101.809L674.363 101.831L674.381 97.9009L671.031 97.8797Z" fill="#3F3D56"/>
<path d="M677.73 97.922L677.712 101.852L681.062 101.873L681.08 97.9431L677.73 97.922Z" fill="#3F3D56"/>
<path d="M620.772 101.492L620.754 105.422L624.103 105.443L624.121 101.514L620.772 101.492Z" fill="#3F3D56"/>
<path d="M627.47 101.535L627.452 105.464L630.802 105.486L630.82 101.556L627.47 101.535Z" fill="#3F3D56"/>
<path d="M634.169 101.577L634.151 105.507L637.501 105.528L637.519 101.598L634.169 101.577Z" fill="#3F3D56"/>
<path d="M640.868 101.619L640.85 105.549L644.2 105.57L644.218 101.64L640.868 101.619Z" fill="#3F3D56"/>
<path d="M647.567 101.662L647.549 105.591L650.899 105.612L650.917 101.683L647.567 101.662Z" fill="#3F3D56"/>
<path d="M654.266 101.704L654.248 105.633L657.597 105.655L657.615 101.725L654.266 101.704Z" fill="#3F3D56"/>
<path d="M660.965 101.746L660.947 105.676L664.296 105.697L664.314 101.767L660.965 101.746Z" fill="#3F3D56"/>
<path d="M667.664 101.788L667.646 105.718L670.995 105.739L671.013 101.809L667.664 101.788Z" fill="#3F3D56"/>
<path d="M674.363 101.831L674.345 105.76L677.694 105.781L677.712 101.852L674.363 101.831Z" fill="#3F3D56"/>
<path d="M682.163 101.88L681.062 101.873L681.044 105.734C681.504 104.487 681.879 103.198 682.163 101.88Z" fill="#3F3D56"/>
<path d="M624.103 105.443L624.085 109.373L627.434 109.394L627.452 105.464L624.103 105.443Z" fill="#3F3D56"/>
<path d="M630.802 105.486L630.784 109.415L634.133 109.436L634.151 105.507L630.802 105.486Z" fill="#3F3D56"/>
<path d="M637.501 105.528L637.483 109.458L640.832 109.479L640.85 105.549L637.501 105.528Z" fill="#3F3D56"/>
<path d="M644.2 105.57L644.182 109.5L647.531 109.521L647.549 105.591L644.2 105.57Z" fill="#3F3D56"/>
<path d="M650.899 105.612L650.881 109.542L654.23 109.563L654.248 105.633L650.899 105.612Z" fill="#3F3D56"/>
<path d="M657.597 105.655L657.579 109.584L660.929 109.605L660.947 105.676L657.597 105.655Z" fill="#3F3D56"/>
<path d="M664.296 105.697L664.278 109.627L667.628 109.648L667.646 105.718L664.296 105.697Z" fill="#3F3D56"/>
<path d="M670.995 105.739L670.977 109.669L674.327 109.69L674.345 105.76L670.995 105.739Z" fill="#3F3D56"/>
<path d="M679.199 109.721C679.902 108.479 680.51 107.168 681.018 105.802L677.694 105.781L677.676 109.711L679.199 109.721Z" fill="#3F3D56"/>
<path d="M620.736 109.352L620.718 113.282L624.067 113.303L624.085 109.373L620.736 109.352Z" fill="#3F3D56"/>
<path d="M627.434 109.394L627.416 113.324L630.766 113.345L630.784 109.415L627.434 109.394Z" fill="#3F3D56"/>
<path d="M634.133 109.436L634.115 113.366L637.465 113.387L637.483 109.458L634.133 109.436Z" fill="#3F3D56"/>
<path d="M640.832 109.479L640.814 113.408L644.164 113.429L644.182 109.5L640.832 109.479Z" fill="#3F3D56"/>
<path d="M647.531 109.521L647.513 113.451L650.863 113.472L650.881 109.542L647.531 109.521Z" fill="#3F3D56"/>
<path d="M654.23 109.563L654.212 113.493L657.561 113.514L657.579 109.584L654.23 109.563Z" fill="#3F3D56"/>
<path d="M660.93 109.605L660.912 113.535L664.261 113.556L664.279 109.626L660.93 109.605Z" fill="#3F3D56"/>
<path d="M667.628 109.648L667.61 113.577L670.959 113.599L670.977 109.669L667.628 109.648Z" fill="#3F3D56"/>
<path d="M674.309 113.62L676.476 113.633L677.665 112.114L677.676 109.711L674.327 109.69L674.309 113.62Z" fill="#3F3D56"/>
<path d="M624.067 113.303L624.05 116.997L620.7 116.976L620.7 117.211L620.683 120.905L620.682 120.932L624.032 120.953V120.926L624.049 117.232L627.398 117.253L627.417 113.324L624.067 113.303Z" fill="#3F3D56"/>
<path d="M630.766 113.345L630.748 117.275L634.097 117.296L634.115 113.366L630.766 113.345Z" fill="#3F3D56"/>
<path d="M637.465 113.387L637.447 117.317L640.796 117.338L640.814 113.408L637.465 113.387Z" fill="#3F3D56"/>
<path d="M644.164 113.429L644.146 117.359L647.495 117.38L647.513 113.451L644.164 113.429Z" fill="#3F3D56"/>
<path d="M650.862 113.472L650.844 117.401L654.194 117.423L654.212 113.493L650.862 113.472Z" fill="#3F3D56"/>
<path d="M657.561 113.514L657.543 117.444L660.893 117.465L660.911 113.535L657.561 113.514Z" fill="#3F3D56"/>
<path d="M664.261 113.556L664.243 117.485L667.593 117.507L667.611 113.577L664.261 113.556Z" fill="#3F3D56"/>
<path d="M670.941 117.528L672.231 117.536C672.947 117.032 673.637 116.48 674.298 115.882L674.309 113.62L670.959 113.599L670.941 117.528Z" fill="#3F3D56"/>
<path d="M627.398 117.254L627.381 120.974L630.731 120.995L630.748 117.275L627.398 117.254Z" fill="#3F3D56"/>
<path d="M634.097 117.296L634.08 121.016L637.43 121.038L637.447 117.317L634.097 117.296Z" fill="#3F3D56"/>
<path d="M640.796 117.338L640.779 121.059L644.129 121.08L644.146 117.359L640.796 117.338Z" fill="#3F3D56"/>
<path d="M647.495 117.38L647.478 121.101L650.827 121.122L650.844 117.401L647.495 117.38Z" fill="#3F3D56"/>
<path d="M654.194 117.423L654.177 121.143L657.526 121.164L657.543 117.444L654.194 117.423Z" fill="#3F3D56"/>
<path d="M660.876 121.185C661.644 121.19 662.413 121.148 663.177 121.059L664.227 120.907L664.242 117.486L660.893 117.465L660.876 121.185Z" fill="#3F3D56"/>
<path d="M667.58 119.999C668.736 119.571 669.859 119.03 670.937 118.381L670.941 117.528L667.592 117.507L667.58 119.999Z" fill="#3F3D56"/>
<path d="M634.151 105.507L634.133 109.436L637.483 109.458L637.501 105.528L634.151 105.507Z" fill="#6C63FF"/>
<path d="M654.284 97.7741L654.266 101.704L657.615 101.725L657.633 97.7952L654.284 97.7741Z" fill="#6C63FF"/>
<path d="M621.393 97.5666C621.123 98.8567 620.939 100.169 620.843 101.493L624.121 101.514L624.139 97.5839L621.393 97.5666Z" fill="#6C63FF"/>
<path d="M664.227 120.907C665.363 120.71 666.485 120.406 667.58 119.999L667.592 117.507L664.242 117.486L664.227 120.907Z" fill="#6C63FF"/>
<path d="M657.615 101.725L657.597 105.655L660.947 105.676L660.965 101.746L657.615 101.725Z" fill="#6C63FF"/>
<path d="M657.579 109.584L657.561 113.514L660.911 113.535L660.929 109.605L657.579 109.584Z" fill="#6C63FF"/>
<path d="M674.417 90.0415L674.399 93.9712L677.748 93.9923L677.766 90.0626L674.417 90.0415Z" fill="#6C63FF"/>
<path d="M681.116 90.0837L681.098 94.0134L682.839 94.0244L682.857 90.0947L681.116 90.0837Z" fill="#6C63FF"/>
<path d="M671.049 93.95L671.031 97.8797L674.381 97.9009L674.399 93.9712L671.049 93.95Z" fill="#6C63FF"/>
<path d="M677.748 93.9923L677.73 97.922L681.08 97.9431L681.098 94.0134L677.748 93.9923Z" fill="#6C63FF"/>
<path d="M674.381 97.9009L674.363 101.831L677.712 101.852L677.73 97.922L674.381 97.9009Z" fill="#6C63FF"/>
<path d="M682.163 101.88C682.442 100.591 682.634 99.2779 682.738 97.9536L681.08 97.9431L681.061 101.873L682.163 101.88Z" fill="#6C63FF"/>
<path d="M671.013 101.809L670.995 105.739L674.345 105.76L674.363 101.831L671.013 101.809Z" fill="#6C63FF"/>
<path d="M677.712 101.852L677.694 105.781L681.044 105.803L681.062 101.873L677.712 101.852Z" fill="#6C63FF"/>
<path d="M674.345 105.76L674.327 109.69L677.676 109.711L677.694 105.781L674.345 105.76Z" fill="#6C63FF"/>
<path d="M670.977 109.669L670.959 113.599L674.309 113.62L674.327 109.69L670.977 109.669Z" fill="#6C63FF"/>
<path d="M679.199 109.721L677.676 109.711L677.665 112.114C678.215 111.352 678.728 110.553 679.199 109.721Z" fill="#6C63FF"/>
<path d="M667.611 113.577L667.592 117.507L670.942 117.528L670.96 113.598L667.611 113.577Z" fill="#6C63FF"/>
<path d="M674.561 115.641C675.232 115.016 675.871 114.346 676.476 113.633L674.309 113.62L674.298 115.882C674.386 115.803 674.474 115.722 674.561 115.641Z" fill="#6C63FF"/>
<path d="M634.223 89.7879L634.205 93.7176L637.555 93.7387L637.573 89.8091L634.223 89.7879Z" fill="#6C63FF"/>
<path d="M640.922 89.8302L640.904 93.7599L644.254 93.781L644.272 89.8513L640.922 89.8302Z" fill="#6C63FF"/>
<path d="M647.621 89.8724L647.603 93.8021L650.953 93.8233L650.971 89.8936L647.621 89.8724Z" fill="#6C63FF"/>
<path d="M654.32 89.9147L654.302 93.8444L657.651 93.8655L657.669 89.9358L654.32 89.9147Z" fill="#6C63FF"/>
<path d="M661.019 89.957L661.001 93.8867L664.35 93.9078L664.368 89.9781L661.019 89.957Z" fill="#6C63FF"/>
<path d="M667.718 89.9992L667.7 93.9289L671.049 93.95L671.067 90.0203L667.718 89.9992Z" fill="#6C63FF"/>
<path d="M637.555 93.7387L637.537 97.6684L640.886 97.6896L640.904 93.7599L637.555 93.7387Z" fill="#6C63FF"/>
<path d="M644.254 93.781L644.236 97.7107L647.585 97.7318L647.603 93.8021L644.254 93.781Z" fill="#6C63FF"/>
<path d="M650.953 93.8233L650.935 97.753L654.284 97.7741L654.302 93.8444L650.953 93.8233Z" fill="#6C63FF"/>
<path d="M657.651 93.8655L657.633 97.7952L660.983 97.8163L661.001 93.8867L657.651 93.8655Z" fill="#6C63FF"/>
<path d="M664.35 93.9078L664.332 97.8375L667.682 97.8586L667.7 93.9289L664.35 93.9078Z" fill="#6C63FF"/>
<path d="M627.488 97.6051L627.47 101.535L630.82 101.556L630.838 97.6262L627.488 97.6051Z" fill="#6C63FF"/>
<path d="M640.886 97.6896L640.868 101.619L644.218 101.64L644.236 97.7107L640.886 97.6896Z" fill="#6C63FF"/>
<path d="M647.585 97.7318L647.567 101.662L650.917 101.683L650.935 97.753L647.585 97.7318Z" fill="#6C63FF"/>
<path d="M660.983 97.8163L660.965 101.746L664.314 101.767L664.332 97.8375L660.983 97.8163Z" fill="#6C63FF"/>
<path d="M667.682 97.8586L667.664 101.788L671.013 101.809L671.031 97.8797L667.682 97.8586Z" fill="#6C63FF"/>
<path d="M624.121 101.514L624.103 105.443L627.452 105.464L627.47 101.535L624.121 101.514Z" fill="#6C63FF"/>
<path d="M630.82 101.556L630.802 105.486L634.151 105.507L634.169 101.577L630.82 101.556Z" fill="#6C63FF"/>
<path d="M644.218 101.64L644.2 105.57L647.549 105.591L647.567 101.662L644.218 101.64Z" fill="#6C63FF"/>
<path d="M650.917 101.683L650.899 105.612L654.248 105.633L654.266 101.704L650.917 101.683Z" fill="#6C63FF"/>
<path d="M664.314 101.767L664.296 105.697L667.646 105.718L667.664 101.788L664.314 101.767Z" fill="#6C63FF"/>
<path d="M620.754 105.422L620.736 109.352L624.085 109.373L624.103 105.443L620.754 105.422Z" fill="#6C63FF"/>
<path d="M627.452 105.464L627.434 109.394L630.784 109.415L630.802 105.486L627.452 105.464Z" fill="#6C63FF"/>
<path d="M622.512 93.6438L624.157 93.6542L624.309 89.7254C623.625 90.9753 623.024 92.2853 622.512 93.6438Z" fill="#6C63FF"/>
<path d="M627.524 89.7457L627.506 93.6754L630.856 93.6965L630.874 89.7668L627.524 89.7457Z" fill="#6C63FF"/>
<path d="M624.157 93.6542L624.139 97.5839L627.488 97.6051L627.506 93.6754L624.157 93.6542Z" fill="#6C63FF"/>
<path d="M630.856 93.6965L630.838 97.6262L634.187 97.6473L634.205 93.7176L630.856 93.6965Z" fill="#6C63FF"/>
<path d="M634.187 97.6473L634.169 101.577L637.519 101.598L637.537 97.6684L634.187 97.6473Z" fill="#6C63FF"/>
<path d="M637.519 101.598L637.501 105.528L640.85 105.549L640.868 101.619L637.519 101.598Z" fill="#6C63FF"/>
<path d="M640.85 105.549L640.832 109.479L644.182 109.5L644.2 105.57L640.85 105.549Z" fill="#6C63FF"/>
<path d="M647.549 105.591L647.531 109.521L650.881 109.542L650.899 105.612L647.549 105.591Z" fill="#6C63FF"/>
<path d="M654.248 105.633L654.23 109.563L657.579 109.584L657.597 105.655L654.248 105.633Z" fill="#6C63FF"/>
<path d="M660.947 105.676L660.929 109.605L664.278 109.627L664.296 105.697L660.947 105.676Z" fill="#6C63FF"/>
<path d="M667.646 105.718L667.628 109.648L670.977 109.669L670.995 105.739L667.646 105.718Z" fill="#6C63FF"/>
<path d="M624.085 109.373L624.067 113.303L627.416 113.324L627.434 109.394L624.085 109.373Z" fill="#6C63FF"/>
<path d="M630.784 109.415L630.766 113.345L634.115 113.366L634.133 109.436L630.784 109.415Z" fill="#6C63FF"/>
<path d="M637.483 109.458L637.465 113.387L640.814 113.408L640.832 109.479L637.483 109.458Z" fill="#6C63FF"/>
<path d="M644.182 109.5L644.164 113.429L647.513 113.451L647.531 109.521L644.182 109.5Z" fill="#6C63FF"/>
<path d="M650.881 109.542L650.863 113.472L654.212 113.493L654.23 109.563L650.881 109.542Z" fill="#6C63FF"/>
<path d="M664.278 109.627L664.26 113.556L667.61 113.577L667.628 109.648L664.278 109.627Z" fill="#6C63FF"/>
<path d="M620.718 113.282L620.7 117.211L624.049 117.232L624.067 113.303L620.718 113.282Z" fill="#6C63FF"/>
<path d="M627.416 113.324L627.398 117.254L630.748 117.275L630.766 113.345L627.416 113.324Z" fill="#6C63FF"/>
<path d="M634.115 113.366L634.097 117.296L637.447 117.317L637.465 113.387L634.115 113.366Z" fill="#6C63FF"/>
<path d="M640.814 113.408L640.796 117.338L644.146 117.359L644.164 113.429L640.814 113.408Z" fill="#6C63FF"/>
<path d="M647.513 113.451L647.495 117.38L650.844 117.401L650.863 113.472L647.513 113.451Z" fill="#6C63FF"/>
<path d="M654.212 113.493L654.194 117.423L657.543 117.444L657.561 113.514L654.212 113.493Z" fill="#6C63FF"/>
<path d="M660.911 113.535L660.893 117.465L664.242 117.486L664.26 113.556L660.911 113.535Z" fill="#6C63FF"/>
<path d="M624.049 117.232L624.032 120.953L627.381 120.974L627.398 117.254L624.049 117.232Z" fill="#6C63FF"/>
<path d="M630.748 117.275L630.731 120.995L634.08 121.016L634.097 117.296L630.748 117.275Z" fill="#6C63FF"/>
<path d="M637.447 117.317L637.43 121.038L640.779 121.059L640.796 117.338L637.447 117.317Z" fill="#6C63FF"/>
<path d="M644.146 117.359L644.129 121.08L647.478 121.101L647.495 117.38L644.146 117.359Z" fill="#6C63FF"/>
<path d="M650.844 117.401L650.827 121.122L654.177 121.143L654.194 117.423L650.844 117.401Z" fill="#6C63FF"/>
<path d="M657.543 117.444L657.526 121.164L660.876 121.185L660.893 117.465L657.543 117.444Z" fill="#6C63FF"/>
<path d="M672.231 117.536L670.941 117.528L670.937 118.381C671.378 118.117 671.809 117.835 672.231 117.536Z" fill="#6C63FF"/>
<path d="M715.553 152.103L715.082 151.885L698.594 200.833C697.811 198.895 695.03 193.942 686.939 193.595C686.536 193.58 686.144 193.75 685.846 194.068C685.548 194.386 685.367 194.828 685.342 195.3L685.201 197.77C685.124 199.113 685.491 200.44 686.225 201.475C686.958 202.51 688.004 203.174 689.143 203.33C692.454 203.779 696.821 203.86 698.784 201.687L698.841 201.714L715.553 152.103Z" fill="#6C63FF"/>
</g>
<g clip-path="url(#clip1_8_622)">
<path d="M204.585 174.53V174.719C204.585 174.768 204.585 174.82 204.581 174.869C204.534 177.44 203.642 179.922 202.045 181.929C201.964 182.034 201.879 182.135 201.793 182.236C201.662 182.391 201.528 182.54 201.39 182.686C201.379 182.698 201.367 182.712 201.353 182.724L201.347 182.73C201.331 182.746 201.316 182.764 201.3 182.78C201.057 183.031 200.803 183.273 200.537 183.503C200.484 183.549 200.429 183.596 200.371 183.642C198.314 185.361 195.728 186.311 193.054 186.331C193.034 186.333 193.012 186.333 192.992 186.333H192.923C192.904 186.333 192.884 186.333 192.864 186.331C192.795 186.331 192.728 186.329 192.659 186.327C189.984 186.263 187.413 185.269 185.385 183.513C185.33 183.468 185.274 183.42 185.221 183.37C185.01 183.184 184.807 182.988 184.612 182.785C184.596 182.77 184.581 182.752 184.565 182.736L184.559 182.73C184.545 182.718 184.533 182.704 184.522 182.692C184.356 182.518 184.196 182.337 184.043 182.153C183.958 182.052 183.875 181.949 183.794 181.844C182.238 179.852 181.37 177.403 181.325 174.869C181.321 174.822 181.321 174.772 181.321 174.723V174.538C181.321 174.517 181.321 174.495 181.323 174.473C181.351 171.935 182.203 169.475 183.749 167.469C183.83 167.364 183.913 167.261 183.997 167.16C184.153 166.969 184.317 166.785 184.484 166.605C184.496 166.591 184.508 166.579 184.522 166.565C184.522 166.563 184.523 166.561 184.525 166.559C184.541 166.543 184.557 166.525 184.575 166.509C184.794 166.281 185.022 166.062 185.259 165.851C185.312 165.801 185.367 165.754 185.422 165.708C187.497 163.93 190.128 162.945 192.853 162.926C192.872 162.924 192.894 162.924 192.914 162.924H193.042C195.704 162.941 198.279 163.879 200.334 165.581C200.389 165.629 200.444 165.675 200.5 165.722C200.787 165.968 201.063 166.23 201.325 166.503C201.341 166.519 201.357 166.537 201.373 166.553L201.377 166.557C201.39 166.569 201.404 166.585 201.416 166.597C201.562 166.751 201.702 166.912 201.838 167.074C201.925 167.176 202.007 167.277 202.09 167.382C203.678 169.403 204.555 171.897 204.583 174.473C204.585 174.492 204.586 174.511 204.585 174.53Z" fill="#6C63FF"/>
<path d="M193.054 162.972H192.659V186.371H193.054V162.972Z" fill="white"/>
<path d="M204.585 174.473H181.228V174.869H204.585V174.473Z" fill="white"/>
<path d="M187.925 174.473C187.894 173.028 187.522 171.611 186.839 170.339C186.156 169.067 185.182 167.978 183.997 167.16C183.913 167.261 183.83 167.364 183.749 167.469C184.888 168.25 185.825 169.292 186.483 170.51C187.141 171.728 187.501 173.087 187.533 174.473C187.535 174.538 187.535 174.604 187.535 174.671C187.535 174.739 187.535 174.804 187.533 174.869C187.501 176.246 187.146 177.596 186.496 178.808C185.846 180.02 184.92 181.06 183.794 181.844C183.875 181.949 183.958 182.052 184.043 182.153C185.214 181.333 186.177 180.245 186.852 178.979C187.526 177.714 187.894 176.305 187.925 174.869C187.929 174.804 187.929 174.737 187.929 174.671C187.929 174.606 187.929 174.538 187.925 174.473Z" fill="white"/>
<path d="M198.18 174.869C198.178 174.804 198.178 174.739 198.178 174.671C198.178 174.604 198.178 174.538 198.18 174.473C198.212 173.061 198.585 171.678 199.266 170.443C199.947 169.207 200.916 168.157 202.09 167.382C202.007 167.277 201.925 167.176 201.838 167.074C200.62 167.887 199.615 168.985 198.91 170.273C198.204 171.561 197.819 173.002 197.788 174.473C197.784 174.538 197.784 174.606 197.784 174.671C197.784 174.737 197.784 174.804 197.788 174.869C197.819 176.331 198.199 177.763 198.896 179.045C199.593 180.327 200.587 181.421 201.793 182.236C201.879 182.135 201.964 182.034 202.045 181.929C200.884 181.152 199.926 180.104 199.253 178.875C198.58 177.646 198.212 176.272 198.18 174.869Z" fill="white"/>
<path d="M213.896 186.26H24V186.704H213.896V186.26Z" fill="#2F2E41"/>
<path d="M203.004 97.4594C203.042 118.609 194.976 138.96 180.483 154.28C180.384 154.385 180.284 154.49 180.183 154.595C172.535 162.617 163.354 169.002 153.192 173.364C143.029 177.727 132.095 179.978 121.047 179.982C109.998 179.986 99.0623 177.744 88.8966 173.389C78.7309 169.034 69.5449 162.657 61.8904 154.641C61.7898 154.536 61.6893 154.431 61.5907 154.326C47.1497 139.041 39.0752 118.773 39.0261 97.6849C38.977 76.5968 46.9571 56.2906 61.3267 40.9384C61.4232 40.8312 61.5237 40.7261 61.6242 40.621C69.2787 32.5291 78.487 26.0857 88.6907 21.6816C98.8943 17.2775 109.881 15.0044 120.984 15.0001C132.087 14.9958 143.075 17.2604 153.282 21.6567C163.489 26.0529 172.702 32.4892 180.363 40.5751C180.463 40.6802 180.564 40.7853 180.66 40.8923C195.029 56.1762 203.026 76.4216 203.004 97.4594Z" fill="#2D2880"/>
<path d="M203.004 97.2927H39.0259V97.6893H203.004V97.2927Z" fill="white"/>
<path d="M121.212 15.0001H120.818V179.982H121.212V15.0001Z" fill="white"/>
<path d="M85.1542 70.3027C81.6393 61.9394 76.544 54.3422 70.1511 47.9328C67.5069 45.2709 64.6555 42.8259 61.6242 40.621C61.5237 40.7261 61.4232 40.8312 61.3267 40.9384C78.839 53.6542 90.2604 74.3598 90.2693 97.7012C90.2781 120.943 78.9691 141.582 61.5907 154.326C61.6892 154.431 61.7898 154.536 61.8904 154.641C64.8369 152.476 67.6115 150.083 70.189 147.485C80.0251 137.573 86.7021 124.937 89.3676 111.19C92.0331 97.4421 90.5662 83.2074 85.1542 70.3027Z" fill="#818CCA"/>
<path d="M151.761 97.6775C151.752 74.3361 163.158 53.6217 180.66 40.8923C180.564 40.7852 180.463 40.6802 180.363 40.5751C171.408 47.0959 164.115 55.6569 159.08 65.5576C154.045 75.4584 151.411 86.4177 151.394 97.5392C151.376 108.661 153.976 119.628 158.98 129.545C163.984 139.462 171.25 148.046 180.183 154.595C180.284 154.49 180.384 154.385 180.483 154.28C163.097 141.55 151.77 120.92 151.761 97.6775Z" fill="#383759"/>
<path d="M101.053 154.684L100.507 165.673L106.241 166.772L107.88 156.332L101.053 154.684Z" fill="#9D616A"/>
<path d="M129.452 158.256L130.817 167.322H136.006L134.913 157.706L129.452 158.256Z" fill="#9D616A"/>
<path d="M102.145 133.529L101.053 146.167L99.9608 156.882C99.9608 156.882 104.057 155.233 107.88 157.706C107.88 157.706 110.337 157.156 109.791 146.442L112.249 135.177L102.145 133.529Z" fill="#EFEFEF"/>
<path d="M124.264 137.65C124.264 137.65 125.902 147.541 126.721 148.365C126.721 148.365 128.074 157.21 128.731 159.445C128.77 159.605 128.829 159.759 128.906 159.904C129.452 160.728 135.46 162.651 135.733 159.354C136.006 156.058 136.825 150.563 134.094 146.442L132.456 136.002L124.264 137.65Z" fill="#EFEFEF"/>
<path d="M140.784 136.414C140.511 139.436 125.493 138.886 122.762 138.886C121.899 138.886 120.79 138.752 120.239 137.252C119.294 134.688 118.775 130.944 118.6 129.479C118.529 130.837 117.907 134.122 116.35 136.227C115.403 137.513 113.835 137.257 112.112 136.963C109.251 136.474 103.563 134.694 102.009 135.04C99.5512 135.59 96.5939 135.644 96.5475 135.04C96.5263 134.71 96.5281 134.378 96.553 134.048C96.9134 128.367 102.145 112.965 102.145 111.825C102.145 110.451 104.603 104.682 104.603 104.682L129.725 101.659C129.725 101.659 139.676 128.666 141.044 135.315C141.161 135.889 140.806 136.175 140.784 136.414Z" fill="#171054"/>
<path d="M107.061 165.399L99.9608 164.025L100.644 175.427L106.241 179.41C106.241 179.41 105.695 168.421 107.061 165.399Z" fill="#EFEFEF"/>
<path d="M136.006 164.574C136.006 164.574 132.456 166.772 129.452 164.574L131.91 174.74L136.006 174.19C136.006 174.19 137.917 168.146 136.006 164.574Z" fill="#EFEFEF"/>
<path d="M136.825 173.091C136.825 173.091 131.09 173.366 131.09 173.915V182.982C131.09 183.806 132.183 184.905 131.91 185.454C131.637 186.004 133.548 187.378 137.917 186.553C142.286 185.729 140.648 182.982 140.648 182.982C140.648 182.982 136.279 175.289 136.825 173.091Z" fill="#2F2E41"/>
<path d="M99.8243 173.229C99.8243 173.229 106.378 173.366 106.378 173.915V182.982C106.378 183.806 105.286 184.905 105.559 185.454C105.832 186.004 103.92 187.378 99.5512 186.553C95.1822 185.729 96.8205 182.982 96.8205 182.982C96.8205 182.982 100.37 175.427 99.8243 173.229Z" fill="#2F2E41"/>
<path d="M141.194 136.551C140.921 139.573 125.083 139.848 122.352 139.848C121.489 139.848 120.79 138.752 120.239 137.252C123.169 136.667 135.771 134.279 141.044 135.315C141.144 135.719 141.195 136.134 141.194 136.551Z" fill="#6C63FF"/>
<path d="M116.35 136.227C115.403 137.513 114.108 138.356 112.385 138.062C109.524 137.573 103.563 136.342 102.009 136.688C99.5512 137.238 96.5939 135.644 96.5475 135.04C96.5263 134.71 96.5281 134.378 96.553 134.048C102.301 133.892 112.481 133.96 116.35 136.227Z" fill="#6C63FF"/>
<path d="M105.695 68.4161C105.695 68.4161 100.78 66.7677 96.411 71.713L95.5918 73.3614C95.5918 73.3614 89.3112 75.2846 87.3998 76.6583C87.3998 76.6583 81.6654 75.2846 74.5656 76.6583L67.4659 75.0099C67.4659 75.0099 53.8125 65.394 52.4472 71.4383C51.0819 77.4825 65.2814 79.6804 65.2814 79.6804L77.0232 82.9772C77.0232 82.9772 86.0344 85.1752 89.5843 83.5267C89.5843 83.5267 99.6878 82.9772 101.599 79.1309L105.695 81.0541V68.4161Z" fill="#9D616A"/>
<path d="M122.625 67.0425C122.625 67.0425 132.729 65.9435 136.552 71.1635L144.471 73.3614C144.471 73.3614 153.209 71.713 156.486 72.5372L163.585 70.6141C163.585 70.6141 170.412 59.6245 174.235 62.6467C178.058 65.6688 165.224 75.2846 165.224 75.2846L148.021 81.0541C148.021 81.0541 134.64 82.153 131.91 77.2078L128.906 84.0762L117.437 81.3288L122.625 67.0425Z" fill="#9D616A"/>
<path d="M113.068 65.6688C117.14 65.6688 120.441 62.3476 120.441 58.2508C120.441 54.154 117.14 50.8329 113.068 50.8329C108.996 50.8329 105.695 54.154 105.695 58.2508C105.695 62.3476 108.996 65.6688 113.068 65.6688Z" fill="#9D616A"/>
<path d="M109.245 62.6466V68.6909L111.976 78.3067L120.168 68.6909C120.168 68.6909 117.983 62.0972 117.983 60.9982C117.983 59.8993 109.245 62.6466 109.245 62.6466Z" fill="#9D616A"/>
<path d="M130.954 102.346C130.954 102.346 130.82 103.338 129.578 103.429C127.09 103.613 122.901 104.039 120.168 104.956C116.072 106.33 103.784 106.33 103.784 106.33L102.986 81.4442L103.374 79.543C103.101 77.3451 105.286 68.5535 105.286 68.5535L106.88 67.3694L108.374 67.0452L108.836 67.4546C108.836 71.1141 112.385 74.5977 112.385 74.5977C117.574 72.1251 119.758 66.6304 119.758 66.6304L121.296 66.4023L122.904 66.5836L124.359 66.7485L123.854 67.1798L123.581 67.7293C123.595 67.6963 123.565 67.7623 123.581 67.7293C119.605 76.216 124.406 80.0541 127.404 81.7409C128.647 82.4443 128.769 83.1146 128.769 83.1146C128.769 83.1146 129.892 82.7767 129.862 83.9388C129.772 87.7 129.092 96.1921 130.135 98.4999C131.5 101.522 130.954 102.346 130.954 102.346Z" fill="#EFEFEF"/>
<path d="M105.286 53.236C105.462 52.6264 105.67 52.0264 105.908 51.4383C106.22 50.7193 105.908 48.5621 106.22 48.5621H107.465L109.021 47.124L109.955 47.843L111.2 47.124L112.757 47.843L114.313 47.124L116.804 48.9216L117.426 48.5621L118.049 49.6407H118.36L119.605 51.4383H120.228V53.236H120.85V57.9099L120.031 61.1356L119.758 59.5528C119.758 59.5312 119.751 59.5102 119.738 59.4929C119.726 59.4756 119.707 59.463 119.687 59.4569C119.666 59.4508 119.644 59.4516 119.624 59.4592C119.604 59.4667 119.587 59.4806 119.575 59.4988L118.983 60.4266L118.602 58.9629C118.055 56.7706 116.77 54.8366 114.966 53.4896C112.663 51.8078 109.332 51.0069 105.908 55.7527L105.286 53.236Z" fill="#2F2E41"/>
<path d="M106.88 67.3694C106.361 70.5426 104.794 79.3177 102.986 81.4442L102.965 80.7793C102.691 78.5814 104.603 67.8667 104.603 67.8667L106.88 67.3694Z" fill="#6C63FF"/>
<path d="M121.296 66.4023C119.925 69.0068 115.998 75.7297 112.249 75.2846C108.631 74.856 108.33 69.4217 108.374 67.0452L109.245 66.8556C109.245 70.5151 112.522 73.6362 112.522 73.6362C117.71 71.1635 119.362 66.1853 119.362 66.1853L121.296 66.4023Z" fill="#6C63FF"/>
<path d="M130.271 82.153C130.271 82.153 130.241 82.8893 130.211 84.0514C129.451 84.0103 128.698 83.8925 127.961 83.6998C119.526 81.4607 121.992 69.9354 122.904 66.5836L124.359 66.7485H124.362C124.403 66.7869 124.447 66.8281 124.49 66.8694C120.515 75.356 125.05 79.4826 128.048 81.1694C128.753 81.5759 129.498 81.9057 130.271 82.153Z" fill="#6C63FF"/>
<path d="M131.637 103.308C131.637 103.308 130.82 103.338 129.578 103.429C128.954 101.128 128.457 98.7948 128.087 96.4394C127.726 93.9008 127.841 87.656 127.961 83.6998C127.994 82.664 128.024 81.7821 128.048 81.1695C128.752 81.5759 129.498 81.9057 130.271 82.153C130.271 82.153 130.241 82.8893 130.211 84.0514C130.121 87.8126 130.047 96.0548 131.09 98.3626C132.456 101.385 131.637 103.308 131.637 103.308Z" fill="#6C63FF"/>
<path d="M106.105 84.467C106.105 84.467 114.843 80.2607 123.308 84.467Z" fill="#6C63FF"/>
<path d="M104.263 106.414C104.263 106.414 106.825 106.216 113.132 106.811C119.438 107.406 129.884 103.44 129.884 103.44" fill="#CACACA"/>
<path d="M69.776 62.0968V62.2852C69.776 62.3347 69.776 62.3863 69.7721 62.4359C69.7247 65.0063 68.8328 67.4886 67.2355 69.4952C67.1547 69.6003 67.07 69.7014 66.9833 69.8026C66.8532 69.9572 66.7192 70.1059 66.5812 70.2527C66.5694 70.2646 66.5575 70.2785 66.5437 70.2904L66.5379 70.2963C66.5221 70.3122 66.5063 70.33 66.4906 70.3459C66.2481 70.5977 65.9939 70.839 65.7278 71.0697C65.6746 71.1153 65.6194 71.1629 65.5622 71.2085C63.5045 72.9277 60.919 73.8777 58.2443 73.8974C58.2246 73.8993 58.2029 73.8993 58.1832 73.8993H58.1142C58.0945 73.8993 58.0748 73.8993 58.0551 73.8974C57.9861 73.8974 57.9191 73.8954 57.8501 73.8934C55.1749 73.8297 52.6042 72.8354 50.5756 71.0796C50.5204 71.034 50.4652 70.9864 50.412 70.9368C50.2011 70.7504 49.9981 70.5541 49.803 70.3518C49.7872 70.336 49.7714 70.3181 49.7557 70.3023L49.7498 70.2963C49.736 70.2844 49.7241 70.2705 49.7123 70.2586C49.5468 70.0841 49.3871 69.9037 49.2334 69.7193C49.1486 69.6181 49.0659 69.515 48.9851 69.4099C47.4283 67.4182 46.5611 64.9692 46.5155 62.4359C46.5116 62.3883 46.5116 62.3387 46.5116 62.2891V62.1047C46.5116 62.0829 46.5116 62.0611 46.5135 62.0393C46.5415 59.5009 47.3935 57.0414 48.9397 55.0355C49.0205 54.9304 49.1033 54.8273 49.188 54.7261C49.3437 54.5358 49.5073 54.3514 49.6749 54.1709C49.6867 54.157 49.6985 54.1451 49.7123 54.1312C49.7123 54.1293 49.7143 54.1273 49.7162 54.1253C49.732 54.1094 49.7478 54.0916 49.7655 54.0757C49.9843 53.8477 50.2123 53.6282 50.4494 53.4174C50.5026 53.3678 50.5578 53.3202 50.613 53.2746C52.6875 51.4969 55.3184 50.5118 58.0433 50.4925C58.063 50.4905 58.0847 50.4905 58.1044 50.4905H58.2325C60.8944 50.5073 63.4695 51.4456 65.5248 53.1477C65.58 53.1953 65.6352 53.2409 65.6904 53.2885C65.9781 53.5344 66.254 53.7961 66.5162 54.0698C66.5319 54.0856 66.5477 54.1035 66.5635 54.1194L66.5674 54.1233C66.5812 54.1352 66.595 54.1511 66.6068 54.163C66.7527 54.3176 66.8926 54.4783 67.0286 54.6409C67.1153 54.742 67.1981 54.8431 67.2809 54.9482C68.8691 56.9691 69.746 59.4631 69.774 62.0393C69.7757 62.0584 69.7763 62.0776 69.776 62.0968Z" fill="#6C63FF"/>
<path d="M58.2443 50.5381H57.8501V73.937H58.2443V50.5381Z" fill="white"/>
<path d="M69.776 62.0393H46.4189V62.4359H69.776V62.0393Z" fill="white"/>
<path d="M53.116 62.0393C53.0851 60.5941 52.7127 59.1772 52.0297 57.9055C51.3467 56.6339 50.3726 55.544 49.1881 54.7261C49.1033 54.8273 49.0205 54.9304 48.9397 55.0355C50.0786 55.816 51.016 56.8586 51.6741 58.0767C52.3322 59.2948 52.6921 60.6532 52.7238 62.0393C52.7258 62.1047 52.7258 62.1702 52.7258 62.2376C52.7258 62.305 52.7258 62.3704 52.7238 62.4359C52.6919 63.8127 52.3364 65.1624 51.6866 66.3745C51.0368 67.5866 50.111 68.6268 48.985 69.4099C49.0658 69.515 49.1486 69.6181 49.2334 69.7193C50.4052 68.899 51.3678 67.8116 52.0425 66.5459C52.7172 65.2801 53.0851 63.8718 53.116 62.4359C53.12 62.3704 53.12 62.303 53.12 62.2376C53.12 62.1721 53.12 62.1047 53.116 62.0393Z" fill="white"/>
<path d="M63.3706 62.4359C63.3686 62.3704 63.3686 62.305 63.3686 62.2376C63.3686 62.1702 63.3686 62.1047 63.3706 62.0393C63.4032 60.6271 63.776 59.244 64.4571 58.0089C65.1382 56.7737 66.1072 55.7234 67.2809 54.9482C67.1981 54.8431 67.1153 54.742 67.0286 54.6409C65.8103 55.4538 64.8056 56.5512 64.1003 57.8396C63.395 59.1279 63.0101 60.5688 62.9784 62.0393C62.9745 62.1047 62.9745 62.1721 62.9745 62.2376C62.9745 62.303 62.9745 62.3704 62.9784 62.4359C63.0099 63.8969 63.3901 65.3289 64.0872 66.611C64.7842 67.8931 65.7775 68.9878 66.9833 69.8026C67.07 69.7014 67.1547 69.6003 67.2355 69.4952C66.0744 68.7181 65.1168 67.6706 64.444 66.4417C63.7711 65.2127 63.4029 63.8386 63.3706 62.4359Z" fill="white"/>
</g>
<g clip-path="url(#clip2_8_622)">
<path d="M470.825 277.656L485.831 255.406L470.856 280.049L470.887 282.553C469.792 282.561 468.707 282.543 467.633 282.498L468.377 250.315L468.356 250.067L468.384 250.019L468.455 246.978L452.022 223.189L468.436 244.702L468.494 245.345L469.056 221.029L454.862 196.365L469.097 216.758L468.948 166.382L468.948 166.214L468.953 166.379L469.895 206.082L482.832 189.955L469.938 209.502L470.22 231.252L482.124 210.025L470.264 234.45L470.421 246.544L487.733 216.975L470.474 250.763L470.825 277.656Z" fill="#E6E6E6"/>
<path d="M521.327 278.356L536.333 256.107L521.358 280.75L521.389 283.254C520.294 283.262 519.209 283.244 518.135 283.199L518.879 251.016L518.858 250.768L518.886 250.72L518.957 247.679L502.524 223.89L518.938 245.403L518.996 246.046L519.558 221.73L505.364 197.066L519.599 217.458L519.45 167.083L519.45 166.915L519.455 167.08L520.397 206.783L533.334 190.656L520.44 210.203L520.722 231.953L532.626 210.726L520.766 235.15L520.923 247.244L538.235 217.676L520.976 251.463L521.327 278.356Z" fill="#E6E6E6"/>
<path d="M369.515 101H279.717V222.105H369.515V101Z" fill="#2D2880"/>
<path d="M366.351 105.268H282.881V217.838H366.351V105.268Z" fill="#8589DE"/>
<path d="M355.379 125.012H294.12C293.624 125.011 293.148 124.814 292.797 124.464C292.447 124.114 292.25 123.64 292.25 123.145C292.25 122.65 292.447 122.176 292.797 121.826C293.148 121.476 293.624 121.279 294.12 121.278H355.379C355.625 121.278 355.869 121.326 356.097 121.419C356.324 121.513 356.531 121.65 356.705 121.824C356.879 121.997 357.017 122.203 357.111 122.43C357.206 122.657 357.254 122.9 357.254 123.145C357.254 123.39 357.206 123.633 357.111 123.86C357.017 124.087 356.879 124.293 356.705 124.466C356.531 124.639 356.324 124.777 356.097 124.871C355.869 124.964 355.625 125.012 355.379 125.012Z" fill="#E6E6E6"/>
<path d="M355.379 144.216H294.12C293.624 144.215 293.148 144.018 292.797 143.668C292.447 143.318 292.25 142.843 292.25 142.349C292.25 141.854 292.447 141.379 292.797 141.029C293.148 140.679 293.624 140.482 294.12 140.482H355.379C355.625 140.481 355.869 140.529 356.097 140.623C356.324 140.717 356.531 140.854 356.705 141.028C356.879 141.201 357.017 141.407 357.111 141.634C357.206 141.86 357.254 142.103 357.254 142.349C357.254 142.594 357.206 142.837 357.111 143.064C357.017 143.29 356.879 143.496 356.705 143.67C356.531 143.843 356.324 143.981 356.097 144.074C355.869 144.168 355.625 144.216 355.379 144.216Z" fill="#E6E6E6"/>
<path d="M355.379 163.42H294.12C293.624 163.419 293.148 163.222 292.797 162.872C292.447 162.522 292.25 162.047 292.25 161.553C292.25 161.058 292.447 160.583 292.797 160.233C293.148 159.883 293.624 159.686 294.12 159.686H355.379C355.625 159.685 355.869 159.733 356.097 159.827C356.324 159.921 356.531 160.058 356.705 160.231C356.879 160.405 357.017 160.611 357.111 160.837C357.206 161.064 357.254 161.307 357.254 161.553C357.254 161.798 357.206 162.041 357.111 162.268C357.017 162.494 356.879 162.7 356.705 162.874C356.531 163.047 356.324 163.184 356.097 163.278C355.869 163.372 355.625 163.42 355.379 163.42Z" fill="#E6E6E6"/>
<path d="M355.379 182.623H294.12C293.624 182.623 293.148 182.426 292.797 182.076C292.447 181.726 292.25 181.251 292.25 180.756C292.25 180.262 292.447 179.787 292.797 179.437C293.148 179.087 293.624 178.89 294.12 178.889H355.379C355.625 178.889 355.869 178.937 356.097 179.031C356.324 179.124 356.531 179.262 356.705 179.435C356.879 179.609 357.017 179.815 357.111 180.041C357.206 180.268 357.254 180.511 357.254 180.756C357.254 181.002 357.206 181.245 357.111 181.471C357.017 181.698 356.879 181.904 356.705 182.077C356.531 182.251 356.324 182.388 356.097 182.482C355.869 182.576 355.625 182.624 355.379 182.623Z" fill="#E6E6E6"/>
<path d="M355.379 201.827H294.12C293.624 201.827 293.148 201.63 292.797 201.279C292.447 200.929 292.25 200.455 292.25 199.96C292.25 199.465 292.447 198.991 292.797 198.641C293.148 198.291 293.624 198.094 294.12 198.093H355.379C355.625 198.093 355.869 198.141 356.097 198.235C356.324 198.328 356.531 198.466 356.705 198.639C356.879 198.813 357.017 199.018 357.111 199.245C357.206 199.472 357.254 199.715 357.254 199.96C357.254 200.206 357.206 200.449 357.111 200.675C357.017 200.902 356.879 201.108 356.705 201.281C356.531 201.455 356.324 201.592 356.097 201.686C355.869 201.779 355.625 201.828 355.379 201.827Z" fill="#E6E6E6"/>
<path d="M344.679 125.012H293.852C293.606 125.012 293.362 124.964 293.135 124.871C292.907 124.777 292.701 124.639 292.527 124.466C292.352 124.293 292.214 124.087 292.12 123.86C292.026 123.633 291.977 123.39 291.977 123.145C291.977 122.9 292.026 122.657 292.12 122.43C292.214 122.203 292.352 121.997 292.527 121.824C292.701 121.65 292.907 121.513 293.135 121.419C293.362 121.326 293.606 121.278 293.852 121.278H344.679C345.175 121.279 345.651 121.476 346.001 121.826C346.352 122.176 346.549 122.65 346.549 123.145C346.549 123.64 346.352 124.114 346.001 124.464C345.651 124.814 345.175 125.011 344.679 125.012Z" fill="#2D2880"/>
<path d="M328.896 144.216H293.852C293.356 144.216 292.879 144.019 292.528 143.669C292.177 143.319 291.98 142.844 291.98 142.349C291.98 141.854 292.177 141.379 292.528 141.029C292.879 140.678 293.356 140.482 293.852 140.482H328.896C329.142 140.481 329.386 140.529 329.613 140.623C329.841 140.717 330.047 140.854 330.222 141.028C330.396 141.201 330.534 141.407 330.628 141.634C330.722 141.86 330.771 142.103 330.771 142.349C330.771 142.594 330.722 142.837 330.628 143.064C330.534 143.29 330.396 143.496 330.222 143.67C330.047 143.843 329.841 143.981 329.613 144.074C329.386 144.168 329.142 144.216 328.896 144.216Z" fill="#2D2880"/>
<path d="M309.635 163.42H293.852C293.606 163.42 293.362 163.372 293.135 163.278C292.907 163.184 292.701 163.047 292.527 162.874C292.352 162.7 292.214 162.494 292.12 162.268C292.026 162.041 291.977 161.798 291.977 161.553C291.977 161.307 292.026 161.064 292.12 160.837C292.214 160.611 292.352 160.405 292.527 160.231C292.701 160.058 292.907 159.921 293.135 159.827C293.362 159.733 293.606 159.685 293.852 159.686H309.635C310.131 159.686 310.607 159.883 310.958 160.233C311.308 160.583 311.505 161.058 311.505 161.553C311.505 162.047 311.308 162.522 310.958 162.872C310.607 163.222 310.131 163.419 309.635 163.42Z" fill="#2D2880"/>
<path d="M349.494 182.623H293.852C293.356 182.623 292.879 182.427 292.528 182.077C292.177 181.726 291.98 181.252 291.98 180.756C291.98 180.261 292.177 179.786 292.528 179.436C292.879 179.086 293.356 178.889 293.852 178.889H349.494C349.991 178.889 350.467 179.086 350.818 179.436C351.169 179.786 351.367 180.261 351.367 180.756C351.367 181.252 351.169 181.726 350.818 182.077C350.467 182.427 349.991 182.623 349.494 182.623Z" fill="#2D2880"/>
<path d="M337.189 201.827H293.852C293.606 201.828 293.362 201.779 293.135 201.686C292.907 201.592 292.701 201.455 292.527 201.281C292.352 201.108 292.214 200.902 292.12 200.675C292.026 200.449 291.977 200.206 291.977 199.96C291.977 199.715 292.026 199.472 292.12 199.245C292.214 199.018 292.352 198.813 292.527 198.639C292.701 198.466 292.907 198.328 293.135 198.235C293.362 198.141 293.606 198.093 293.852 198.093H337.189C337.435 198.093 337.678 198.141 337.906 198.235C338.133 198.328 338.34 198.466 338.514 198.639C338.688 198.813 338.827 199.018 338.921 199.245C339.015 199.472 339.064 199.715 339.064 199.96C339.064 200.206 339.015 200.449 338.921 200.675C338.827 200.902 338.688 201.108 338.514 201.281C338.34 201.455 338.133 201.592 337.906 201.686C337.678 201.779 337.435 201.828 337.189 201.827Z" fill="#2D2880"/>
<path d="M536.83 282.555H250V283.199H536.83V282.555Z" fill="#433D8B"/>
<path d="M413.437 188.247C413.437 188.247 411.407 173.402 408.023 177.451C404.64 181.499 408.023 187.572 408.023 187.572L410.73 190.946L413.437 188.922V188.247Z" fill="#9F616A"/>
<path d="M421.558 192.97C421.558 192.97 414.791 185.548 413.437 186.897C412.084 188.247 408.023 188.922 408.7 191.621C409.377 194.32 423.589 203.091 423.589 203.091L421.558 192.97Z" fill="#6C63FF"/>
<path opacity="0.1" d="M421.558 192.97C421.558 192.97 414.791 185.548 413.437 186.897C412.084 188.247 408.023 188.922 408.7 191.621C409.377 194.32 423.589 203.091 423.589 203.091L421.558 192.97Z" fill="black"/>
<path d="M460.133 192.295V197.693C460.133 197.693 460.81 209.839 456.749 209.164C452.689 208.49 454.719 198.368 454.719 198.368L455.396 192.295L460.133 192.295Z" fill="#9F616A"/>
<path d="M458.103 231.431C458.103 231.431 464.194 240.878 466.224 241.553C468.254 242.227 479.082 248.3 480.436 254.373L489.91 266.518L485.173 272.591C485.173 272.591 463.517 249.65 457.426 247.625C451.335 245.601 445.245 235.48 445.245 235.48L458.103 231.431Z" fill="#9F616A"/>
<path d="M410.054 215.912C410.054 215.912 397.195 217.936 399.226 226.033C401.256 234.13 420.882 250.999 420.882 250.999L421.558 255.048L429.003 256.397L432.386 253.023L431.71 250.999C431.71 250.999 423.589 243.577 422.912 240.878C422.235 238.179 414.791 227.383 411.407 226.708L416.144 224.009L410.054 215.912Z" fill="#9F616A"/>
<path d="M487.88 266.518C487.88 266.518 485.173 262.47 489.233 263.145C493.294 263.819 496.001 264.494 496.001 267.193C496.001 269.892 492.617 288.785 488.557 287.436C484.496 286.086 487.88 280.014 487.88 280.014C487.88 280.014 485.85 274.616 484.496 273.941C483.143 273.266 483.143 269.892 484.496 269.892C485.85 269.892 488.557 267.868 487.88 266.518Z" fill="#2F2E41"/>
<path d="M430.356 251.674C430.356 251.674 430.356 248.3 433.063 251.674C435.77 255.048 437.124 257.747 434.417 259.771C431.71 261.795 422.235 266.518 422.235 266.518C422.235 266.518 412.084 268.543 413.437 263.819C413.437 263.819 420.205 260.446 420.205 257.747C420.205 255.048 420.205 250.324 422.235 251.674C424.265 253.023 430.356 253.698 430.356 251.674Z" fill="#2F2E41"/>
<path d="M443.214 201.067C443.214 201.067 452.689 202.417 452.012 215.912C452.012 215.912 464.194 228.057 460.81 232.106C457.426 236.154 449.982 243.577 447.275 241.553C444.568 239.528 436.447 224.009 436.447 224.009C436.447 224.009 417.498 230.756 414.114 227.383C410.73 224.009 407.347 215.912 407.347 215.912L424.265 207.14L443.214 201.067Z" fill="#171054"/>
<path d="M416.821 162.606C421.306 162.606 424.942 158.981 424.942 154.509C424.942 150.037 421.306 146.412 416.821 146.412C412.336 146.412 408.7 150.037 408.7 154.509C408.7 158.981 412.336 162.606 416.821 162.606Z" fill="#9F616A"/>
<path d="M422.912 155.184C422.912 155.184 427.649 162.606 429.003 163.281C430.356 163.956 419.528 170.703 419.528 170.703C419.528 170.703 419.528 161.931 416.144 159.907L422.912 155.184Z" fill="#9F616A"/>
<path d="M423.589 162.606C423.589 162.606 434.417 159.232 436.447 164.63C438.477 170.029 443.214 180.15 442.538 186.897C441.861 193.645 440.507 192.295 442.538 194.32C444.568 196.344 445.921 194.994 445.245 197.693C444.568 200.392 443.891 200.392 444.568 201.742C445.245 203.091 436.447 207.815 429.003 208.49L421.558 209.164C421.558 209.164 421.558 197.019 420.205 194.32C418.851 191.621 416.144 186.223 416.144 184.198V178.842C416.144 175.277 417.077 171.774 418.851 168.679C418.851 168.679 422.912 162.606 423.589 162.606Z" fill="#6C63FF"/>
<path d="M431.71 165.305C431.71 165.305 456.749 167.329 459.456 174.077C462.163 180.825 463.517 194.32 460.81 194.32C458.103 194.32 454.719 195.669 454.042 194.32C453.366 192.97 450.659 179.475 449.982 179.475C449.305 179.475 429.003 177.451 429.003 177.451C429.003 177.451 420.205 166.655 431.71 165.305Z" fill="#6C63FF"/>
<path d="M416.495 152.502C416.495 152.502 414.34 148.768 411.646 152.011C408.952 155.254 404.57 149.294 405.243 148.022C405.915 146.751 408.291 148.08 412.362 146.753C416.434 145.426 424.276 142.722 425.59 151.541C426.903 160.359 423.775 159.435 423.775 159.435C423.775 159.435 422.341 151.62 421.045 153.865L419.749 156.11L418.625 156.385L416.495 152.502Z" fill="#2F2E41"/>
</g>
<g clip-path="url(#clip3_8_622)">
<path d="M34 522.548C34 522.766 34.1738 522.941 34.3903 522.941H273.61C273.826 522.941 274 522.766 274 522.548C274 522.33 273.826 522.155 273.61 522.155H34.3903C34.1738 522.155 34 522.33 34 522.548Z" fill="#192167"/>
<path d="M179.485 360.415L180.797 368.006L166.693 370.316L169.973 359.755L179.485 360.415Z" fill="#A0616A"/>
<path d="M215.459 365.435C218.299 366.715 218.982 371.398 216.978 375.89C216.203 377.695 215.006 379.289 213.494 380.536L210.63 388.225C208.751 397.393 204.477 407.045 198.586 406.296C190.251 405.237 187.623 395.046 187.623 395.046L198.842 390.631L203.85 380.919L205.556 376.955C205.474 374.989 205.861 373.032 206.688 371.25C208.689 366.755 212.615 364.154 215.459 365.435Z" fill="#A0616A"/>
<path d="M119.976 512.938L112.199 507.153L112.262 507.028L155.596 420.16L155.678 420.147L190.572 414.187L197.841 430.473L216.846 457.358C218.155 459.21 218.841 461.391 218.824 463.665L218.516 511.555L206.724 511.895L206.707 511.743L202.594 473.024C202.296 470.202 200.839 467.592 198.602 465.863L175.405 447.933L119.973 512.941L119.976 512.938Z" fill="#171054"/>
<path d="M113.39 507.764C113.39 507.764 109.454 508.424 108.142 510.734C106.83 513.044 102.893 517.994 102.893 517.994C102.893 517.994 99.9412 523.604 106.83 522.944C113.718 522.284 116.342 519.314 116.342 519.314L119.294 511.064L113.39 507.764Z" fill="#2F2E41"/>
<path d="M212.779 507.764C212.779 507.764 216.715 508.424 218.027 510.734C219.339 513.044 223.276 517.994 223.276 517.994C223.276 517.994 226.228 523.604 219.339 522.944C212.451 522.284 209.827 519.314 209.827 519.314L206.875 511.064L212.779 507.764Z" fill="#2F2E41"/>
<path d="M160.132 369.986L183.421 365.366L196.542 369.656L192.934 418.827L155.704 420.312L160.132 369.986Z" fill="#6C63FF"/>
<path d="M194.207 368.557L199.278 376.266L200.455 395.271L185.39 396.423L185.796 371.797L194.207 368.557Z" fill="#6C63FF"/>
<path d="M208.147 387.054L202.053 384.618L194.302 399.063L201.38 402.613L208.147 387.054Z" fill="#A0616A"/>
<path d="M212.398 374.761C211.975 374.761 211.552 374.688 211.145 374.543C210.168 374.193 209.377 373.441 208.971 372.481L204.346 361.551C202.604 357.432 200.603 353.376 198.399 349.492L197.434 347.789C196.768 346.76 181.033 322.399 180.286 320.495C179.721 319.059 181.407 316.119 181.48 315.993L181.499 315.967C181.535 315.924 185.311 311.786 189.854 315.63C194.315 319.402 201.82 344.404 202.138 345.466L202.341 345.981C204.191 350.687 206.534 355.218 209.299 359.445L215.515 368.949C216.092 369.834 216.272 370.929 216.01 371.953C215.748 372.976 215.062 373.843 214.127 374.335C213.589 374.619 212.995 374.761 212.398 374.761Z" fill="#3F3D56"/>
<path d="M170.924 378.239L178.249 378.652L192.317 363.719L197.815 357.145C198.297 355.238 199.225 353.475 200.521 352.004C203.719 348.275 208.22 346.912 210.578 348.958C212.936 351.004 212.257 355.683 209.059 359.412C207.803 360.92 206.202 362.102 204.398 362.861L203.043 364.659L187.515 386.618C184.714 390.581 179.761 392.373 175.09 391.113L165.587 388.549L170.924 378.236V378.239Z" fill="#A0616A"/>
<path d="M166.814 392.954L155.514 385.651C151.922 383.331 150.541 378.784 152.23 374.84C153.257 372.444 155.271 370.649 157.757 369.916C160.241 369.18 162.904 369.593 165.056 371.052L176.153 378.566L166.814 392.954Z" fill="#6C63FF"/>
<path d="M172.275 363.207C178.67 363.207 183.854 357.992 183.854 351.558C183.854 345.124 178.67 339.909 172.275 339.909C165.881 339.909 160.696 345.124 160.696 351.558C160.696 357.992 165.881 363.207 172.275 363.207Z" fill="#A0616A"/>
<path d="M179.892 361.613L178.892 359.937C178.892 359.937 183.271 356.967 179.653 355.244C176.035 353.522 175.464 349.307 175.464 349.307C175.464 349.307 164.895 346.245 165.466 343.945C166.037 341.645 164.419 340.018 167.083 339.061C169.75 338.104 181.647 339.061 182.982 341.836C184.314 344.615 185.649 352.274 184.983 353.33C184.317 354.386 179.892 361.617 179.892 361.617V361.613Z" fill="#2F2E41"/>
<path d="M176.891 348.443L166.132 341.262C166.132 341.262 152.234 336.955 157.469 345.189L161.897 346.1C161.897 346.1 173.939 348.925 176.891 348.443Z" fill="#6C63FF"/>
<path d="M173.653 346.816L184.888 355.34C184.888 355.34 191.455 343.559 181.171 337.718C170.888 331.876 164.37 341.024 164.37 341.024L167.083 343.945L173.653 346.816Z" fill="#6C63FF"/>
<path d="M92.9315 327.58C92.9315 331.137 95.7984 334.025 99.3377 334.025C101.07 334.025 102.641 333.332 103.792 332.206C104.996 331.035 105.741 329.395 105.741 327.58C105.741 324.022 102.874 321.135 99.3377 321.135C98.229 321.135 97.1891 321.419 96.2805 321.914C96.1264 321.999 95.9755 322.092 95.8279 322.191C94.4436 323.102 93.4366 324.537 93.0791 326.217C93.0332 326.408 93.0004 326.603 92.9807 326.801C92.9479 327.055 92.9315 327.316 92.9315 327.58Z" fill="#6C63FF"/>
<path d="M92.9807 326.801C93.0824 326.913 93.1873 327.035 93.3021 327.174C93.6892 327.642 93.8434 327.897 94.0599 328.25C94.2468 328.557 94.483 328.939 94.9455 329.586C95.9 330.919 96.3789 331.589 97.1235 332.197C97.8583 332.794 98.7735 333.54 100.148 333.635C100.243 333.642 100.338 333.642 100.43 333.642C102.093 333.642 103.307 332.635 103.769 332.183C104.98 330.995 105.232 329.553 105.285 328.989C105.327 328.533 105.386 326.936 104.346 325.501C103.428 324.234 102.159 323.781 100.929 323.339C100.125 323.052 99.5148 322.95 98.9735 322.857C98.2322 322.732 97.5959 322.623 96.6217 322.108C96.4872 322.036 96.3757 321.973 96.2805 321.914C96.1264 321.999 95.9755 322.092 95.8279 322.191C95.8508 322.204 95.8771 322.22 95.9033 322.237C96.0312 322.313 96.1887 322.405 96.4052 322.521C97.445 323.072 98.1502 323.194 98.8948 323.319C99.4426 323.412 100.01 323.507 100.774 323.781C101.988 324.217 103.136 324.626 103.969 325.778C104.914 327.081 104.858 328.53 104.822 328.943C104.773 329.458 104.543 330.768 103.444 331.847C103.002 332.279 101.801 333.279 100.181 333.167C98.9506 333.081 98.101 332.388 97.4155 331.834C96.7201 331.266 96.2543 330.613 95.326 329.316C94.8701 328.679 94.6404 328.302 94.4568 328.002C94.2403 327.649 94.0697 327.369 93.663 326.877C93.4432 326.61 93.2497 326.395 93.0791 326.217C93.0332 326.408 93.0004 326.603 92.9807 326.801Z" fill="#E6E6E6"/>
</g>
<g clip-path="url(#clip4_8_622)">
<path d="M354.878 456.969C354.704 456.969 354.563 456.828 354.563 456.654V367.646C354.563 345.247 372.717 327.025 395.03 327.025H463.356C463.53 327.025 463.671 327.167 463.671 327.341C463.671 327.516 463.53 336.185 463.356 336.185L395.03 327.657C373.064 327.657 355.193 345.596 355.193 367.646V456.654C355.193 456.828 355.052 456.969 354.878 456.969Z" fill="#3F3D56"/>
<path d="M463.595 304C463.769 304 463.91 304.141 463.91 304.316V393.324C463.91 415.722 445.757 433.944 423.443 433.944H355.117C354.943 433.944 354.802 433.803 354.802 433.628C354.802 433.454 354.943 433.312 355.117 433.312H423.443C445.409 433.312 463.281 415.373 463.281 393.324V304.316C463.281 304.141 463.421 304 463.595 304Z" fill="#3F3D56"/>
<path d="M431.904 388.43C431.904 387.065 432.445 385.73 433.462 384.735L447.795 370.72C448.169 369.292 448.884 367.956 449.863 366.854C451.047 365.487 452.5 364.495 453.955 364.062C455.434 363.621 456.742 363.808 457.637 364.589C459.462 366.182 458.945 369.791 456.484 372.633C455.535 373.759 454.318 374.655 452.961 375.226L439.95 388.689L447.113 399.585C448.5 401.208 448.807 403.456 447.904 405.433C447.031 407.344 445.205 408.535 443.14 408.54C440.93 408.545 438.974 407.218 438.155 405.158L432.273 390.349C432.025 389.725 431.904 389.074 431.904 388.43Z" fill="#FFB6B6"/>
<path d="M443.929 375.668C450.185 375.668 455.257 370.577 455.257 364.297C455.257 358.017 450.185 352.926 443.929 352.926C437.672 352.926 432.601 358.017 432.601 364.297C432.601 370.577 437.672 375.668 443.929 375.668Z" fill="#3F3D56"/>
<path d="M449.829 394.728L441.397 401.18L452.094 408.555L457.462 397.005L449.829 394.728Z" fill="#FFB6B6"/>
<path d="M454.428 400.279C459.357 400.279 463.354 396.268 463.354 391.319C463.354 386.371 459.357 382.359 454.428 382.359C449.498 382.359 445.502 386.371 445.502 391.319C445.502 396.268 449.498 400.279 454.428 400.279Z" fill="#FFB6B6"/>
<path d="M455.122 401.36C455.122 401.36 457.133 394.896 455.833 393.675C454.534 392.453 454.575 393.716 454.575 393.716L456.224 387.488C456.224 387.488 455.438 383.869 450.235 383.371C450.235 383.371 452.083 379.852 454.77 380.432C457.456 381.013 457.626 381.677 458.768 381.453C459.909 381.23 462.274 383.309 462.274 383.309C462.274 383.309 463.486 382.316 463.348 383.541C463.211 384.765 464.499 386.767 464.499 386.767C464.499 386.767 465.232 386.308 465.03 387.593C464.828 388.878 465.776 389.553 465.776 389.553C465.776 389.553 464.521 390.367 464.924 391.009C465.326 391.65 466.936 392.155 466.328 392.808C465.719 393.46 466.176 394.97 464.116 396.563C462.057 398.155 455.122 401.36 455.122 401.36Z" fill="#2F2E41"/>
<path d="M460.41 518.15L460.335 518.072L439.264 496.097C437.225 493.97 436.237 491.067 436.555 488.132L437.654 477.979L448.326 479.926L448.734 486.327L466.657 515.51L460.41 518.15Z" fill="#FFB6B6"/>
<path d="M462.97 534C462.631 534 462.295 533.913 461.988 533.742C461.247 533.328 460.837 532.485 460.969 531.643L461.702 526.988L457.92 518.762L458.917 515.758L464.628 515.44L466.531 513.529L468.663 513.901C469.938 514.124 471 514.919 471.576 516.082C472.151 517.246 472.141 518.575 471.547 519.73L464.778 532.896C464.524 533.39 464.091 533.751 463.561 533.911C463.366 533.971 463.168 534 462.97 534Z" fill="#2F2E41"/>
<path d="M452.267 456.686L448.177 482.586L428.353 492.062L425.206 466.793L452.267 456.686Z" fill="#171054"/>
<path d="M440.901 510.57L440.826 510.492L419.755 488.516C417.715 486.39 416.728 483.486 417.046 480.551L418.145 470.398L428.816 472.346L429.224 478.747L447.148 507.929L440.901 510.57Z" fill="#FFB6B6"/>
<path d="M443.461 526.419C443.121 526.419 442.785 526.332 442.479 526.162C441.737 525.748 441.328 524.904 441.46 524.063L442.192 519.407L438.41 511.181L439.408 508.177L445.118 507.859L447.022 505.948L449.153 506.321C450.429 506.543 451.49 507.338 452.066 508.502C452.642 509.666 452.632 510.995 452.038 512.149L445.268 525.315C445.014 525.809 444.582 526.17 444.052 526.331C443.857 526.39 443.658 526.419 443.461 526.419Z" fill="#2F2E41"/>
<path d="M429.718 448.01L427.503 454.056L417.559 470.358C417.267 470.837 417.22 471.409 417.43 471.93C417.64 472.45 418.072 472.828 418.613 472.967L440.559 478.616L450.719 464.295C453.617 460.21 455.116 455.209 454.947 450.198L429.718 448.01Z" fill="#171054"/>
<path d="M452.368 454.159H427.185L427.199 453.988L430.378 415.303C430.795 410.233 433.407 405.64 437.544 402.703L437.588 402.672L454.802 403.312L451.064 438.179L456.034 448.222C456.669 449.505 456.599 450.998 455.847 452.215C455.096 453.432 453.795 454.159 452.368 454.159Z" fill="#6C63FF"/>
<path d="M445.481 410.454C444.044 410.455 442.642 409.869 441.606 408.771L430.688 397.193C429.252 395.671 428.874 393.45 429.726 391.536L437.884 373.195C437.705 371.729 437.878 370.223 438.383 368.835C438.98 367.126 439.964 365.666 441.156 364.724C442.369 363.765 443.653 363.453 444.771 363.847C447.054 364.65 447.902 368.195 446.662 371.749C446.195 373.147 445.394 374.432 444.343 375.465L437.21 392.802L447.878 400.27C449.764 401.263 450.877 403.237 450.766 405.411C450.658 407.51 449.4 409.294 447.483 410.064C446.83 410.327 446.152 410.454 445.481 410.454Z" fill="#FFB6B6"/>
<path d="M366.606 376.232C369.363 379.546 370.433 383.93 371.169 388.184C371.438 389.739 371.673 391.3 371.875 392.865C372.627 398.708 372.88 404.807 370.847 410.334C370.332 411.734 369.81 413.619 371.039 414.459C372.015 415.126 373.443 414.433 373.974 413.375C374.505 412.316 374.4 411.063 374.281 409.883C372.988 411.278 373.392 413.86 375.048 414.79C376.705 415.72 379.108 414.713 379.614 412.876C379.878 414.836 381.793 416.422 383.76 416.311C385.726 416.199 387.451 414.406 387.493 412.429C386.473 413.516 386.978 415.486 388.243 416.27C389.509 417.055 391.196 416.835 392.494 416.105C393.792 415.376 394.786 414.216 395.751 413.08C394.479 413.869 394.181 415.866 395.167 416.995C396.153 418.123 398.165 418.087 399.11 416.923C399.889 415.964 399.885 414.564 399.505 413.387C399.125 412.21 398.425 411.167 397.898 410.048C395.486 404.926 396.907 398.85 398.9 393.549C400.893 388.247 403.464 382.916 403.249 377.254" fill="white"/>
<path d="M366.439 376.399C368.461 378.852 369.562 381.89 370.283 384.954C371.064 388.274 371.551 391.693 371.895 395.085C372.244 398.517 372.359 402.011 371.84 405.433C371.59 407.083 371.186 408.701 370.619 410.271C370.228 411.353 369.757 412.714 370.24 413.842C370.809 415.172 372.404 415.192 373.426 414.393C374.789 413.328 374.671 411.429 374.517 409.883C374.499 409.696 374.263 409.549 374.114 409.716C373.051 410.905 373.021 412.795 373.937 414.084C374.907 415.451 376.708 415.698 378.147 414.951C378.954 414.531 379.582 413.818 379.842 412.939H379.386C379.702 415.027 381.747 416.73 383.869 416.54C385.946 416.354 387.652 414.51 387.729 412.429C387.736 412.229 387.462 412.109 387.326 412.261C386.64 413.032 386.565 414.113 386.948 415.048C387.371 416.082 388.285 416.756 389.375 416.941C392.18 417.416 394.274 415.182 395.918 413.247C396.082 413.055 395.871 412.719 395.632 412.875C394.581 413.56 394.118 414.923 394.448 416.127C394.795 417.393 396.026 418.138 397.303 418.049C398.739 417.949 399.759 416.891 399.951 415.478C400.185 413.765 399.311 412.24 398.538 410.787C394.86 403.88 398.105 396.257 400.691 389.592C402.221 385.648 403.631 381.544 403.485 377.253C403.475 376.949 403.003 376.948 403.013 377.253C403.255 384.379 399.275 390.618 397.418 397.279C396.537 400.439 396.045 403.812 396.682 407.067C396.999 408.687 397.057 410.389 397.83 411.834C398.559 413.197 399.93 414.595 399.295 416.15C398.705 417.595 396.73 418.06 395.544 417.037C394.413 416.061 394.655 414.076 395.87 413.284L395.584 412.912C394.15 414.6 393 414.379 390.593 414.361C389.557 414.353 388.018 416.072 387.51 415.137C387.078 414.343 387.033 413.3 387.66 412.596L387.257 412.429C387.189 414.278 385.62 415.962 383.76 416.074C381.863 416.187 380.122 414.669 379.842 412.813C379.805 412.569 379.447 412.607 379.386 412.813C378.885 414.509 376.675 415.468 375.126 414.561C373.615 413.676 373.292 411.343 374.448 410.051L374.045 409.883C374.187 411.308 374.367 413.186 373.016 414.111C372.504 414.462 371.812 414.636 371.245 414.31C370.692 413.992 371.391 413.068 371.398 412.465C371.414 411.11 371.217 410.112 371.586 408.832C372.026 407.303 372.31 405.732 372.476 404.15C372.815 400.921 372.654 397.658 372.299 394.438C371.946 391.242 371.485 388.026 370.753 384.892C370.013 381.721 368.863 378.601 366.773 376.064C366.579 375.829 366.247 376.166 366.439 376.399Z" fill="#3F3D56"/>
<path d="M384.929 380.273C375.318 380.273 365.105 378.668 365.105 375.693C365.105 372.719 375.318 371.113 384.929 371.113C394.539 371.113 404.753 372.719 404.753 375.693C404.753 378.668 394.539 380.273 384.929 380.273ZM384.929 371.745C373.617 371.745 365.734 373.826 365.734 375.693C365.734 377.561 373.617 379.642 384.929 379.642C396.24 379.642 404.123 377.561 404.123 375.693C404.123 373.826 396.24 371.745 384.929 371.745Z" fill="#3F3D56"/>
<path d="M362.927 384.71C362.828 384.71 362.729 384.705 362.63 384.693L356.517 383.986C355.226 383.836 354.228 382.74 354.197 381.435L354.001 373.265C353.983 372.515 354.286 371.791 354.833 371.279C355.379 370.766 356.12 370.513 356.864 370.582L366.035 371.438C367.07 371.535 367.951 372.237 368.28 373.226L369.753 377.664C370.094 378.69 369.764 379.841 368.932 380.527L364.597 384.11C364.127 384.499 363.531 384.71 362.927 384.71Z" fill="#3F3D56"/>
</g>
<g clip-path="url(#clip5_8_622)">
<path d="M731.139 505.02C731.139 505.02 731.316 501.334 734.936 501.763Z" fill="#3F3D56"/>
<path d="M730.117 501.512C731.117 501.512 731.928 500.704 731.928 499.708C731.928 498.711 731.117 497.903 730.117 497.903C729.116 497.903 728.305 498.711 728.305 499.708C728.305 500.704 729.116 501.512 730.117 501.512Z" fill="#6C63FF"/>
<path d="M730.333 502.747H729.822V506.313H730.333V502.747Z" fill="#3F3D56"/>
<path d="M608.146 396.666C608.146 397.569 608.116 398.464 608.058 399.351C607.728 404.469 606.43 409.479 604.232 414.117C604.215 414.157 604.195 414.194 604.178 414.23C604.075 414.445 603.97 414.66 603.862 414.873C603.209 416.184 602.483 417.459 601.69 418.692C598.065 424.351 593.096 429.034 587.223 432.326C581.35 435.619 574.753 437.419 568.016 437.569L568.422 460.837L573.719 458.059L574.665 459.85L568.462 463.104L569.22 506.318L569.229 506.895L565.133 507.804L565.141 507.224L566.431 437.572C561.008 437.494 555.654 436.345 550.681 434.189C545.708 432.034 541.214 428.915 537.46 425.016C537.202 424.75 536.946 424.475 536.696 424.204C536.685 424.192 536.676 424.181 536.668 424.172C533.54 420.775 531.011 416.876 529.187 412.64C529.227 412.686 529.269 412.728 529.309 412.773C525.185 403.168 524.906 392.355 528.527 382.551C532.149 372.746 539.397 364.693 548.787 360.041C548.929 359.97 549.074 359.902 549.216 359.831C558.505 355.375 569.135 354.557 579 357.54C588.866 360.524 597.246 367.09 602.479 375.939C602.729 376.357 602.971 376.785 603.204 377.215C606.455 383.186 608.154 389.873 608.146 396.666Z" fill="#2D2880"/>
<path d="M602.617 414.253C632.348 414.253 656.451 390.243 656.451 360.626C656.451 331.009 632.348 307 602.617 307C572.885 307 548.783 331.009 548.783 360.626C548.783 390.243 572.885 414.253 602.617 414.253Z" fill="#6C63FF"/>
<path opacity="0.2" d="M562.868 324.808C551.179 352.043 563.868 383.56 591.209 395.203C601.582 399.62 613.085 400.68 624.096 398.233C635.106 395.786 645.067 389.955 652.571 381.565C640.884 408.8 609.245 421.442 581.904 409.8C554.563 398.158 541.873 366.642 553.559 339.406C555.849 334.071 558.992 329.141 562.868 324.808Z" fill="black"/>
<path d="M605.53 510.019L600.031 508.483L600.042 507.894L601.69 418.692L601.772 414.244L601.775 414.114L602.062 398.531L602.479 375.941V375.939L602.763 360.626H602.914L603.204 377.215L603.581 398.805L603.851 414.126V414.239L603.863 414.87V414.873L604.385 444.736L604.439 447.704L605.518 509.425L605.53 510.019Z" fill="#3F3D56"/>
<path d="M611.327 441.095L602.428 445.762L603.668 448.108L612.567 443.441L611.327 441.095Z" fill="#3F3D56"/>
<path d="M601.562 520.815H576.178V521.38H601.562V520.815Z" fill="#CBCBCB"/>
<path d="M648.142 530.434H622.758V531H648.142V530.434Z" fill="#CBCBCB"/>
<path d="M720.568 523.078H695.185V523.644H720.568V523.078Z" fill="#CBCBCB"/>
<path d="M708.974 500.054V483.595C708.974 483.595 715.413 495.264 708.974 500.054Z" fill="#F1F1F1"/>
<path d="M709.372 500.051L697.2 488.921C697.2 488.921 710.184 492.087 709.372 500.051Z" fill="#F1F1F1"/>
<path d="M583.151 504.015V487.556C583.151 487.556 589.591 499.225 583.151 504.015Z" fill="#F1F1F1"/>
<path d="M583.549 504.012L571.378 492.882C571.378 492.882 584.361 496.048 583.549 504.012Z" fill="#F1F1F1"/>
<path d="M626.891 515.898V495.431C626.891 495.431 634.898 509.941 626.891 515.898Z" fill="#F1F1F1"/>
<path d="M627.386 515.895L612.25 502.053C612.25 502.053 628.396 505.99 627.386 515.895Z" fill="#F1F1F1"/>
<path d="M757 513.394L756.844 513.94L709.176 500.416L673.267 508.302L627.343 516.116L627.28 516.099L605.53 510.019L600.031 508.483L583.237 503.786L569.229 506.895L565.133 507.804L556.229 509.781L556.107 509.23L565.141 507.224L569.22 506.318L583.254 503.203L583.322 503.22L600.042 507.894L605.518 509.425L627.371 515.536L673.156 507.747L709.193 499.833L709.264 499.85L757 513.394Z" fill="#CBCBCB"/>
<path d="M671.719 341.358L675.353 338.463C672.53 338.152 671.37 339.686 670.895 340.9C668.69 339.988 666.289 341.184 666.289 341.184L673.56 343.813C673.193 342.837 672.555 341.985 671.719 341.358Z" fill="#3F3D56"/>
<path d="M538.228 340.226L541.862 337.331C539.039 337.021 537.879 338.555 537.404 339.768C535.198 338.856 532.797 340.052 532.797 340.052L540.068 342.681C539.702 341.705 539.063 340.854 538.228 340.226Z" fill="#3F3D56"/>
<path d="M663.767 395.398L667.401 392.502C664.577 392.192 663.417 393.726 662.943 394.94C660.737 394.027 658.336 395.223 658.336 395.223L665.607 397.853C665.24 396.877 664.602 396.025 663.767 395.398Z" fill="#3F3D56"/>
<path d="M639.086 519.927L641.864 520.955L647.165 510.772L643.066 509.255L639.086 519.927Z" fill="#FFB7B7"/>
<path d="M638.714 518.761L644.184 520.785C645.109 521.128 645.859 521.822 646.27 522.715C646.681 523.608 646.719 524.627 646.375 525.548L646.333 525.661L637.377 522.346L638.714 518.761Z" fill="#2F2E41"/>
<path d="M666.42 522.8L669.382 522.799L670.792 511.415L666.419 511.415L666.42 522.8Z" fill="#FFB7B7"/>
<path d="M665.905 521.836L671.741 521.836C672.727 521.836 673.673 522.226 674.37 522.921C675.068 523.616 675.459 524.558 675.459 525.54V525.66L665.906 525.661L665.905 521.836Z" fill="#2F2E41"/>
<path d="M652.854 443.843L653.821 441.917L662.038 446.01L661.796 447.695L663.367 449.741C663.367 449.741 666.026 451.186 665.542 456.001L665.059 460.575L664.455 466.473L668.684 481.039L670.859 500.299L672.43 515.827L664.817 515.466L657.808 490.187L645.483 517.392L637.024 515.225L648.625 488.261L650.075 476.946C650.075 476.946 649.108 470.927 653.7 466.834L652.975 464.668V461.998L650.558 449.26L652.854 443.843Z" fill="#171054"/>
<path opacity="0.2" d="M652.628 471.37L652.355 471.447L657.672 490.226L657.945 490.149L652.628 471.37Z" fill="black"/>
<path d="M653.096 467.677H664.938V466.473H653.096V467.677Z" fill="#3F3D56"/>
<path d="M664.938 468.399C665.205 468.399 665.422 467.86 665.422 467.196C665.422 466.531 665.205 465.992 664.938 465.992C664.671 465.992 664.455 466.531 664.455 467.196C664.455 467.86 664.671 468.399 664.938 468.399Z" fill="#3F3D56"/>
<path d="M665.25 438.176C666.957 435.066 665.81 431.167 662.688 429.467C659.566 427.767 655.652 428.91 653.945 432.02C652.238 435.13 653.386 439.029 656.508 440.729C659.629 442.429 663.544 441.286 665.25 438.176Z" fill="#FFB7B7"/>
<path d="M649.74 432.807C652.887 432.807 655.439 430.266 655.439 427.13C655.439 423.995 652.887 421.453 649.74 421.453C646.592 421.453 644.04 423.995 644.04 427.13C644.04 430.266 646.592 432.807 649.74 432.807Z" fill="#2F2E41"/>
<path d="M642.507 426.522C642.282 427.274 642.217 428.065 642.314 428.844C642.411 429.622 642.67 430.373 643.073 431.047C643.476 431.721 644.015 432.305 644.656 432.761C645.297 433.218 646.026 433.537 646.797 433.698C647.568 433.859 648.365 433.86 649.136 433.699C649.907 433.539 650.636 433.221 651.278 432.765C651.92 432.31 652.459 431.727 652.863 431.053C653.267 430.379 653.527 429.629 653.625 428.85C653.216 430.216 652.308 431.379 651.078 432.108C649.849 432.837 648.39 433.079 646.99 432.786C645.59 432.493 644.352 431.686 643.521 430.525C642.691 429.365 642.329 427.936 642.507 426.522Z" fill="#2F2E41"/>
<path d="M665.022 433.317C665.19 434.784 664.866 436.266 664.103 437.531C663.339 438.797 662.177 439.777 660.798 440.318C659.419 440.86 657.898 440.933 656.473 440.527C655.048 440.121 653.797 439.257 652.914 438.071C652.031 436.884 651.565 435.441 651.59 433.964C651.614 432.487 652.126 431.06 653.048 429.903C653.969 428.746 655.248 427.923 656.686 427.564C658.124 427.204 659.641 427.327 661.001 427.913C662.127 427.009 663.522 427.289 664.657 428.243C665.94 429.322 666.32 430.063 667.315 431.838C666.337 431.974 666.001 433.18 665.022 433.317Z" fill="#2F2E41"/>
<path d="M641.342 452.615C641.414 454.517 641.557 458.261 641.557 458.452C641.557 458.653 644.406 464.529 645.637 467.058V467.059C645.724 467.238 645.803 467.399 645.872 467.542C645.968 467.738 646.117 467.903 646.304 468.017C646.49 468.131 646.705 468.189 646.924 468.185L652.303 468.089C652.598 468.084 652.881 467.966 653.091 467.758C653.301 467.551 653.422 467.27 653.429 466.976L654.029 443.404C654.031 443.326 654.018 443.249 653.989 443.176C653.961 443.104 653.918 443.038 653.863 442.982C653.809 442.927 653.744 442.882 653.672 442.852C653.6 442.822 653.523 442.806 653.445 442.806H646.508C646.215 442.806 645.928 442.889 645.68 443.044C645.432 443.199 645.233 443.421 645.105 443.683L641.776 450.544C641.464 451.189 641.315 451.9 641.342 452.615Z" fill="#6C63FF"/>
<path d="M653.523 465.358C654.903 464.525 656.143 463.481 657.198 462.264C659.649 459.519 661.139 456.055 661.446 452.394C661.719 449.261 661.095 446.932 659.591 445.472C657.679 443.617 655.077 443.886 654.967 443.899L654.85 443.912L653.087 445.398L653.586 445.985L655.164 444.656C655.647 444.632 657.618 444.626 659.058 446.03C660.384 447.321 660.928 449.44 660.676 452.327C660.385 455.813 658.969 459.112 656.641 461.731C655.636 462.888 654.459 463.884 653.15 464.685L653.523 465.358Z" fill="#6C63FF"/>
<path d="M643.514 456.403L643.462 456.654L652.86 458.577L652.912 458.326L643.514 456.403Z" fill="#3F3D56"/>
<path d="M649.708 442.801L649.098 457.697L649.355 457.708L649.966 442.811L649.708 442.801Z" fill="#3F3D56"/>
<path d="M641.342 452.615C641.414 454.517 641.557 458.261 641.557 458.452C641.557 458.653 644.406 464.529 645.637 467.058L643.343 453.789C643.254 453.278 643.031 452.8 642.696 452.404C642.361 452.008 641.926 451.707 641.436 451.533C641.359 451.888 641.327 452.252 641.342 452.615Z" fill="#3F3D56"/>
<path d="M655.437 480.424C655.234 480.163 655.091 479.862 655.017 479.54C654.944 479.218 654.942 478.884 655.013 478.561C655.083 478.239 655.223 477.936 655.424 477.673C655.625 477.41 655.881 477.195 656.174 477.041L655.708 471.903L658.773 470.86L659.329 478.125C659.555 478.633 659.586 479.205 659.417 479.735C659.247 480.264 658.888 480.713 658.408 480.996C657.929 481.28 657.361 481.378 656.814 481.273C656.266 481.167 655.776 480.865 655.437 480.424Z" fill="#FFB7B7"/>
<path d="M653.431 449.415C653.371 448.635 653.574 447.857 654.007 447.204C654.44 446.551 655.079 446.061 655.823 445.81C656.479 445.594 657.187 445.595 657.843 445.812C658.545 446.05 659.153 446.502 659.583 447.103C660.013 447.705 660.242 448.426 660.238 449.164L660.468 475.256L655.037 475.453L653.431 449.415Z" fill="#CBCBCB"/>
</g>
<defs>
<clipPath id="clip0_8_622">
<rect width="204.59" height="207.355" fill="white" transform="translate(552 35.5419)"/>
</clipPath>
<clipPath id="clip1_8_622">
<rect width="189.896" height="171.81" fill="white" transform="translate(24 15)"/>
</clipPath>
<clipPath id="clip2_8_622">
<rect width="288.235" height="186.505" fill="white" transform="translate(250 101)"/>
</clipPath>
<clipPath id="clip3_8_622">
<rect width="240" height="209" fill="white" transform="translate(34 314)"/>
</clipPath>
<clipPath id="clip4_8_622">
<rect width="118" height="230" fill="white" transform="translate(354 304)"/>
</clipPath>
<clipPath id="clip5_8_622">
<rect width="231" height="224" fill="white" transform="translate(526 307)"/>
</clipPath>
</defs>
</svg>
