<svg width="790" height="477" viewBox="0 0 790 477" fill="none" xmlns="http://www.w3.org/2000/svg">
<rect x="0.514221" width="788.972" height="477" fill="#0D0740"/>
<g clip-path="url(#clip0_4_361)">
<path d="M565.653 194.338L565.21 194.239C570.152 172.452 582.572 152.668 600.181 138.531C613.494 127.859 629.328 120.722 646.192 117.791C663.056 114.86 680.395 116.232 696.576 121.778C712.758 127.324 727.249 136.861 738.686 149.491C750.123 162.121 758.129 177.429 761.951 193.973L761.508 194.073C751.047 148.539 710.79 116.738 663.611 116.738C617.05 116.738 575.853 149.373 565.653 194.338Z" fill="#3F3D56"/>
<path d="M663.454 209.111C719.95 209.111 765.749 203.492 765.749 196.561C765.749 189.63 719.95 184.011 663.454 184.011C606.958 184.011 561.159 189.63 561.159 196.561C561.159 203.492 606.958 209.111 663.454 209.111Z" fill="#2D2880"/>
<path d="M687.508 184.964C687.508 185.18 687.493 185.396 687.461 185.61C687.394 186.08 687.251 186.536 687.037 186.96C686.807 187.418 686.501 187.833 686.13 188.188C686.088 188.229 686.045 188.269 686 188.308C685.277 188.954 684.362 189.349 683.393 189.434C683.257 189.447 683.118 189.454 682.979 189.454C681.882 189.454 680.822 189.06 679.996 188.344C679.171 187.628 678.635 186.64 678.49 185.562C678.463 185.364 678.45 185.164 678.45 184.964C678.45 184.711 678.471 184.458 678.514 184.209C678.595 183.737 678.752 183.28 678.979 182.858C679.083 182.662 679.202 182.475 679.336 182.298C679.756 181.732 680.305 181.272 680.938 180.955C681.571 180.638 682.27 180.474 682.979 180.474C683.134 180.474 683.288 180.482 683.441 180.497C683.912 180.544 684.372 180.665 684.804 180.854C685.204 181.029 685.577 181.26 685.91 181.541C685.998 181.615 686.082 181.692 686.165 181.773C686.502 182.103 686.784 182.483 687.002 182.9C687.225 183.325 687.377 183.783 687.452 184.256C687.49 184.49 687.508 184.727 687.508 184.964Z" fill="#F2F2F2"/>
<path d="M684.793 182.889L684.786 184.242L686.151 184.249L686.158 182.896L684.793 182.889Z" fill="#CCCCCC"/>
<path d="M687.508 184.964C687.508 185.18 687.493 185.396 687.461 185.61L686.144 185.602L686.151 184.249L687.452 184.256C687.49 184.49 687.508 184.727 687.508 184.964Z" fill="#CCCCCC"/>
<path d="M687.037 186.96C686.807 187.418 686.501 187.833 686.13 188.188L686.136 186.956L687.037 186.96Z" fill="#CCCCCC"/>
<path d="M680.708 181.079L680.705 181.513L680.086 181.51C680.281 181.349 680.489 181.205 680.708 181.079Z" fill="#CCCCCC"/>
<path d="M683.441 180.497L683.435 181.528L682.07 181.521L682.075 180.564C682.373 180.504 682.676 180.474 682.979 180.474C683.134 180.474 683.288 180.482 683.441 180.497Z" fill="#CCCCCC"/>
<path d="M685.91 181.541L684.801 181.535L684.804 180.854C685.204 181.029 685.577 181.26 685.91 181.541Z" fill="#CCCCCC"/>
<path d="M679.336 182.298L679.332 182.86L678.979 182.858C679.083 182.662 679.202 182.475 679.336 182.298Z" fill="#CCCCCC"/>
<path d="M680.705 181.513L680.698 182.867L682.063 182.874L682.07 181.521L680.705 181.513Z" fill="#CCCCCC"/>
<path d="M683.436 181.528L683.428 182.881L684.793 182.889L684.801 181.535L683.436 181.528Z" fill="#CCCCCC"/>
<path d="M687.002 182.9L686.159 182.896L686.165 181.773C686.502 182.103 686.784 182.483 687.002 182.9Z" fill="#CCCCCC"/>
<path d="M679.333 182.859L679.325 184.213L680.691 184.22L680.698 182.867L679.333 182.859Z" fill="#CCCCCC"/>
<path d="M682.064 182.874L682.057 184.227L683.422 184.234L683.429 182.881L682.064 182.874Z" fill="#CCCCCC"/>
<path d="M680.691 184.22L680.683 185.573L682.048 185.581L682.056 184.227L680.691 184.22Z" fill="#CCCCCC"/>
<path d="M683.422 184.234L683.415 185.588L684.78 185.595L684.787 184.242L683.422 184.234Z" fill="#CCCCCC"/>
<path d="M679.326 184.213L679.318 185.566L678.49 185.562C678.463 185.363 678.45 185.164 678.45 184.964C678.45 184.711 678.471 184.458 678.514 184.209L679.326 184.213Z" fill="#CCCCCC"/>
<path d="M679.318 185.566L679.311 186.919L680.676 186.927L680.683 185.573L679.318 185.566Z" fill="#CCCCCC"/>
<path d="M682.048 185.581L682.041 186.934L683.406 186.941L683.413 185.588L682.048 185.581Z" fill="#CCCCCC"/>
<path d="M684.779 185.595L684.771 186.948L686.136 186.956L686.144 185.602L684.779 185.595Z" fill="#CCCCCC"/>
<path d="M679.311 186.919L679.307 187.592C679.151 187.379 679.015 187.154 678.9 186.917L679.311 186.919Z" fill="#CCCCCC"/>
<path d="M680.676 186.927L680.669 188.28L682.034 188.287L682.041 186.934L680.676 186.927Z" fill="#CCCCCC"/>
<path d="M683.407 186.941L683.4 188.294L684.765 188.301L684.772 186.948L683.407 186.941Z" fill="#CCCCCC"/>
<path d="M680.669 188.28L680.665 188.824C680.399 188.667 680.15 188.483 679.922 188.275L680.669 188.28Z" fill="#CCCCCC"/>
<path d="M683.399 188.295L683.393 189.435C683.257 189.447 683.118 189.454 682.979 189.454C682.66 189.454 682.341 189.421 682.028 189.354L682.034 188.287L683.399 188.295Z" fill="#CCCCCC"/>
<path d="M686 188.308C685.633 188.635 685.214 188.901 684.76 189.094L684.764 188.301L686 188.308Z" fill="#CCCCCC"/>
<path d="M728.347 126.685L733.805 147.725C733.805 147.725 734.007 162.553 735.22 168.364C736.433 174.175 740.475 188.202 740.475 188.202L745.327 189.003L744.316 169.366C744.316 169.366 744.316 157.544 743.305 154.939C742.295 152.334 740.273 125.684 740.273 125.684L728.347 126.685Z" fill="#A0616A"/>
<path opacity="0.1" d="M728.347 126.685L733.805 147.725C733.805 147.725 734.007 162.553 735.22 168.364C736.433 174.175 740.475 188.202 740.475 188.202L745.327 189.003L744.316 169.366C744.316 169.366 744.316 157.544 743.305 154.939C742.295 152.334 740.273 125.684 740.273 125.684L728.347 126.685Z" fill="black"/>
<path d="M743.479 38.4994C736.741 38.4994 731.279 44.5084 731.279 51.9209V61.3385H734.201L735.892 57.8492L735.469 61.3385H754.25L755.787 58.1664L755.403 61.3385H757.517V53.944C757.517 45.4142 751.232 38.4994 743.479 38.4994Z" fill="#2F2E41"/>
<path d="M723.193 123.379C723.193 123.379 720.767 133.598 724.001 134.6C727.236 135.602 726.427 123.379 726.427 123.379H723.193Z" fill="#A0616A"/>
<path d="M727.236 71.481L725.618 73.2845L726.023 107.95L722.384 124.381L730.47 125.183L734.512 92.12L733.3 75.2881L727.236 71.481Z" fill="#3F3D56"/>
<path opacity="0.1" d="M727.236 71.481L725.618 73.2845L726.023 107.95L722.384 124.381L730.47 125.183L734.512 92.12L733.3 75.2881L727.236 71.481Z" fill="#6C63FF"/>
<path d="M742.399 60.0225C747.196 60.0225 751.084 56.1679 751.084 51.413C751.084 46.6581 747.196 42.8034 742.399 42.8034C737.603 42.8034 733.714 46.6581 733.714 51.413C733.714 56.1679 737.603 60.0225 742.399 60.0225Z" fill="#A0616A"/>
<path d="M737.42 56.5787C737.42 56.5787 739.967 69.6652 738.809 71.0428C737.651 72.4203 751.084 68.5173 751.084 68.5173C751.084 68.5173 746.684 59.5634 749 54.5124L737.42 56.5787Z" fill="#A0616A"/>
<path d="M759.375 113.961C759.375 113.961 761.801 124.181 758.567 125.183C755.332 126.184 756.141 113.961 756.141 113.961H759.375Z" fill="#A0616A"/>
<path d="M740.678 124.281C740.678 124.281 737.241 144.72 737.443 147.725C737.646 150.731 737.443 151.132 737.443 151.132C737.443 151.132 734.007 159.948 732.996 164.958C731.986 169.967 729.762 176.379 729.762 176.379C729.762 176.379 727.134 182.19 729.358 182.19C731.581 182.19 734.613 181.389 734.613 181.389C734.606 179.074 735.389 176.826 736.837 175.01C739.263 171.971 746.539 157.744 746.539 155.941C746.539 154.137 747.752 148.927 747.752 148.927L752.401 126.685L740.678 124.281Z" fill="#A0616A"/>
<path d="M726.528 110.655C726.528 110.655 723.092 127.888 726.124 128.288C729.156 128.689 733.401 125.684 738.858 129.09C744.316 132.496 753.412 131.695 753.412 131.695C753.412 131.695 759.678 115.865 754.019 112.058C748.359 108.251 726.528 110.655 726.528 110.655Z" fill="#171054"/>
<path d="M730.369 179.786C731.258 179.402 732.236 179.263 733.199 179.385C734.12 179.52 735.058 179.306 735.826 178.784C735.826 178.784 734.209 184.595 734.411 186.799C734.613 189.003 733.805 198.421 729.56 197.419C725.315 196.417 724.102 193.412 725.72 188.202C727.337 182.992 726.932 176.981 726.932 176.981C726.932 176.981 729.882 173.96 730.429 174.368C730.975 174.776 730.369 179.786 730.369 179.786Z" fill="#2F2E41"/>
<path d="M743.912 187.2C743.912 187.2 741.89 182.792 739.465 186.799C737.039 190.807 736.837 191.809 736.837 191.809C736.837 191.809 729.964 198.02 734.816 198.621C739.667 199.223 743.507 198.421 743.507 197.419C743.507 196.417 745.933 196.618 746.135 195.816C746.337 195.015 745.731 187.601 745.731 187.601L743.912 187.2Z" fill="#2F2E41"/>
<path d="M748.46 63.2655C748.46 63.2655 739.97 64.8685 738.959 64.6681C738.732 64.6283 738.502 64.6041 738.27 64.5957C736.294 64.5066 734.334 64.9885 732.628 65.9827C729.813 67.6036 725.618 70.4883 725.618 73.2844C725.618 77.4924 731.076 84.706 731.076 84.706C731.076 84.706 726.023 101.939 726.427 103.542C726.831 105.145 723.395 110.555 725.618 112.358C727.842 114.162 749.066 112.358 752.907 114.162C756.747 115.965 754.928 90.1163 754.928 90.1163C754.928 90.1163 765.237 66.6719 759.982 64.4677C758.281 63.7545 756.813 63.2091 755.606 62.7976C754.443 62.4009 753.212 62.2379 751.985 62.3183C750.758 62.3986 749.56 62.7206 748.46 63.2655Z" fill="#2D2880"/>
<path d="M756.343 64.6681L760.981 65.4279C760.981 65.4279 763.014 67.4734 763.014 68.4753C763.014 69.4772 762.609 112.759 762.003 114.162C761.396 115.564 754.726 114.963 754.726 114.963L755.939 90.3166L756.343 64.6681Z" fill="#3F3D56"/>
<path d="M746.947 42.1966C745.722 40.6331 743.915 39.6428 741.898 39.6428H741.659C737.041 39.6428 733.297 43.7853 733.297 48.8953L734.844 48.8954L735.094 47.0097L735.461 48.8954H744.638L745.407 47.3001L745.215 48.8954H747.02C747.863 53.0431 746.652 57.1908 743.389 61.3385H746.464L748.002 58.148L747.618 61.3385H753.481L754.634 54.0002C754.634 48.5045 751.413 43.8443 746.947 42.1966Z" fill="#2F2E41"/>
<path d="M748.632 42.9693C751.156 42.9693 753.202 40.9413 753.202 38.4396C753.202 35.938 751.156 33.9099 748.632 33.9099C746.109 33.9099 744.063 35.938 744.063 38.4396C744.063 40.9413 746.109 42.9693 748.632 42.9693Z" fill="#2F2E41"/>
<path opacity="0.2" d="M631.55 196.561C638.122 196.561 643.451 194.875 643.451 192.796C643.451 190.717 638.122 189.031 631.55 189.031C624.977 189.031 619.649 190.717 619.649 192.796C619.649 194.875 624.977 196.561 631.55 196.561Z" fill="black"/>
<path d="M633.672 103.224H629.685V193.271H633.672V103.224Z" fill="#3F3D56"/>
<path d="M690.328 70.0637L690.328 70.0331L686.979 70.0153L683.629 69.9974L680.28 69.9796L676.931 69.9617L673.581 69.9439L670.232 69.926L666.882 69.9082L663.533 69.8903L660.183 69.8724L656.834 69.8546L653.484 69.8367L650.134 69.9178C649.008 69.9996 647.889 70.1682 646.788 70.422C646.786 70.4226 646.784 70.4226 646.782 70.4233C646.772 70.4252 646.763 70.4278 646.753 70.4304C646.537 70.4804 646.322 70.5337 646.109 70.5904C646.095 70.5936 646.08 70.5975 646.066 70.6021C645.344 70.7944 644.632 71.024 643.934 71.29C643.765 71.3548 643.595 71.4217 643.427 71.4905C642.421 71.9018 641.449 72.3877 640.517 72.944C640.438 72.9907 640.36 73.0381 640.282 73.0868L640.068 73.2198C638.864 73.9773 637.737 74.8499 636.704 75.825C636.51 76.0079 636.319 76.1946 636.132 76.3851C635.134 77.3981 634.238 78.5055 633.458 79.6913L633.316 83.011L636.665 83.0288L636.683 79.7085L640.033 79.7263L640.015 83.0467L643.364 83.0645L643.382 79.7442L646.732 79.762L646.714 83.0824L650.063 83.1002L650.081 79.7799L653.43 79.7977L653.412 83.1181L656.762 83.1359L656.78 79.8156L660.129 79.8335L660.111 83.1538L663.461 83.1716L663.479 79.8513L666.828 79.8692L666.81 83.1895L670.16 83.2073L670.178 79.887L673.527 79.9049L673.509 83.2252L676.859 83.2431L676.877 79.9227L680.226 79.9406L680.208 83.2609L683.557 83.2788L683.575 79.9584L686.925 79.9763L686.907 83.2966L690.256 83.3144L690.274 79.9941L692.016 80.0034L692.034 76.6831L692.052 73.3627L692.07 70.073L690.328 70.0637Z" fill="#3F3D56"/>
<path d="M631.671 83.0022C631.207 84.075 630.833 85.1835 630.552 86.3166L633.298 86.3313L633.316 83.011L631.671 83.0022Z" fill="#3F3D56"/>
<path d="M636.665 83.0288L636.647 86.3491L639.997 86.367L640.015 83.0467L636.665 83.0288Z" fill="#3F3D56"/>
<path d="M643.364 83.0645L643.346 86.3848L646.696 86.4027L646.714 83.0824L643.364 83.0645Z" fill="#3F3D56"/>
<path d="M650.063 83.1002L650.045 86.4205L653.394 86.4384L653.412 83.1181L650.063 83.1002Z" fill="#3F3D56"/>
<path d="M656.762 83.1359L656.744 86.4563L660.093 86.4741L660.111 83.1538L656.762 83.1359Z" fill="#3F3D56"/>
<path d="M663.461 83.1716L663.443 86.492L666.792 86.5098L666.81 83.1895L663.461 83.1716Z" fill="#3F3D56"/>
<path d="M670.16 83.2073L670.142 86.5277L673.491 86.5455L673.509 83.2252L670.16 83.2073Z" fill="#3F3D56"/>
<path d="M676.858 83.2431L676.84 86.5634L680.19 86.5812L680.208 83.2609L676.858 83.2431Z" fill="#3F3D56"/>
<path d="M683.557 83.2788L683.539 86.5991L686.889 86.6169L686.907 83.2966L683.557 83.2788Z" fill="#3F3D56"/>
<path d="M691.897 86.6436C691.955 86.0171 691.986 85.3828 691.99 84.7409L691.998 83.3238L690.256 83.3145L690.238 86.6348L691.897 86.6436Z" fill="#3F3D56"/>
<path d="M633.298 86.3313L633.28 89.6516L636.629 89.6695L636.647 86.3491L633.298 86.3313Z" fill="#3F3D56"/>
<path d="M639.997 86.367L639.979 89.6873L643.328 89.7052L643.346 86.3848L639.997 86.367Z" fill="#3F3D56"/>
<path d="M646.696 86.4027L646.678 89.723L650.027 89.7409L650.045 86.4206L646.696 86.4027Z" fill="#3F3D56"/>
<path d="M653.394 86.4384L653.376 89.7587L656.726 89.7766L656.744 86.4562L653.394 86.4384Z" fill="#3F3D56"/>
<path d="M660.093 86.4741L660.075 89.7944L663.425 89.8123L663.443 86.492L660.093 86.4741Z" fill="#3F3D56"/>
<path d="M666.792 86.5098L666.774 89.8301L670.124 89.848L670.142 86.5277L666.792 86.5098Z" fill="#3F3D56"/>
<path d="M673.491 86.5455L673.473 89.8659L676.822 89.8837L676.841 86.5634L673.491 86.5455Z" fill="#3F3D56"/>
<path d="M680.19 86.5812L680.172 89.9016L683.521 89.9194L683.539 86.5991L680.19 86.5812Z" fill="#3F3D56"/>
<path d="M686.889 86.6169L686.871 89.9373L690.22 89.9551L690.238 86.6348L686.889 86.6169Z" fill="#3F3D56"/>
<path d="M629.93 89.6338L629.912 92.9541L633.262 92.9719L633.28 89.6516L629.93 89.6338Z" fill="#3F3D56"/>
<path d="M636.629 89.6695L636.611 92.9898L639.961 93.0076L639.979 89.6873L636.629 89.6695Z" fill="#3F3D56"/>
<path d="M643.328 89.7052L643.31 93.0255L646.66 93.0434L646.678 89.723L643.328 89.7052Z" fill="#3F3D56"/>
<path d="M650.027 89.7409L650.009 93.0612L653.358 93.0791L653.376 89.7587L650.027 89.7409Z" fill="#3F3D56"/>
<path d="M656.726 89.7766L656.708 93.0969L660.057 93.1148L660.075 89.7944L656.726 89.7766Z" fill="#3F3D56"/>
<path d="M663.425 89.8123L663.407 93.1326L666.756 93.1505L666.774 89.8301L663.425 89.8123Z" fill="#3F3D56"/>
<path d="M670.124 89.848L670.106 93.1683L673.455 93.1862L673.473 89.8659L670.124 89.848Z" fill="#3F3D56"/>
<path d="M676.822 89.8837L676.804 93.204L680.154 93.2219L680.172 89.9016L676.822 89.8837Z" fill="#3F3D56"/>
<path d="M683.521 89.9194L683.503 93.2397L686.853 93.2576L686.871 89.9373L683.521 89.9194Z" fill="#3F3D56"/>
<path d="M691.322 89.961L690.22 89.9551L690.203 93.2177C690.663 92.1635 691.037 91.0745 691.322 89.961Z" fill="#3F3D56"/>
<path d="M633.262 92.9719L633.244 96.2923L636.593 96.3101L636.611 92.9898L633.262 92.9719Z" fill="#3F3D56"/>
<path d="M639.961 93.0077L639.943 96.328L643.292 96.3458L643.31 93.0255L639.961 93.0077Z" fill="#3F3D56"/>
<path d="M646.66 93.0434L646.642 96.3637L649.991 96.3815L650.009 93.0612L646.66 93.0434Z" fill="#3F3D56"/>
<path d="M653.358 93.079L653.34 96.3994L656.69 96.4172L656.708 93.0969L653.358 93.079Z" fill="#3F3D56"/>
<path d="M660.057 93.1148L660.039 96.4351L663.389 96.453L663.407 93.1326L660.057 93.1148Z" fill="#3F3D56"/>
<path d="M666.756 93.1505L666.738 96.4708L670.088 96.4887L670.106 93.1683L666.756 93.1505Z" fill="#3F3D56"/>
<path d="M673.455 93.1862L673.437 96.5065L676.786 96.5244L676.804 93.204L673.455 93.1862Z" fill="#3F3D56"/>
<path d="M680.154 93.2219L680.136 96.5422L683.485 96.5601L683.503 93.2398L680.154 93.2219Z" fill="#3F3D56"/>
<path d="M688.357 96.586C689.06 95.5373 689.669 94.4295 690.177 93.2753L686.853 93.2576L686.835 96.5779L688.357 96.586Z" fill="#3F3D56"/>
<path d="M629.894 96.2744L629.876 99.5948L633.226 99.6126L633.244 96.2923L629.894 96.2744Z" fill="#3F3D56"/>
<path d="M636.593 96.3101L636.575 99.6305L639.925 99.6483L639.943 96.328L636.593 96.3101Z" fill="#3F3D56"/>
<path d="M643.292 96.3458L643.274 99.6662L646.623 99.684L646.642 96.3637L643.292 96.3458Z" fill="#3F3D56"/>
<path d="M649.991 96.3815L649.973 99.7019L653.322 99.7197L653.34 96.3994L649.991 96.3815Z" fill="#3F3D56"/>
<path d="M656.69 96.4173L656.672 99.7376L660.021 99.7554L660.039 96.4351L656.69 96.4173Z" fill="#3F3D56"/>
<path d="M663.389 96.453L663.371 99.7733L666.72 99.7911L666.738 96.4708L663.389 96.453Z" fill="#3F3D56"/>
<path d="M670.088 96.4883L670.07 99.8086L673.42 99.8265L673.438 96.5061L670.088 96.4883Z" fill="#3F3D56"/>
<path d="M676.786 96.5244L676.768 99.8447L680.118 99.8626L680.136 96.5422L676.786 96.5244Z" fill="#3F3D56"/>
<path d="M683.467 99.8805L685.634 99.8919L686.824 98.6079L686.835 96.578L683.485 96.56L683.467 99.8805Z" fill="#3F3D56"/>
<path d="M633.226 99.6127L633.209 102.734L629.859 102.716L629.858 102.915L629.841 106.036L629.841 106.059L633.191 106.077V106.054L633.208 102.933L636.557 102.951L636.575 99.6304L633.226 99.6127Z" fill="#3F3D56"/>
<path d="M639.925 99.6483L639.907 102.969L643.256 102.986L643.274 99.6662L639.925 99.6483Z" fill="#3F3D56"/>
<path d="M646.623 99.684L646.605 103.004L649.955 103.022L649.973 99.7019L646.623 99.684Z" fill="#3F3D56"/>
<path d="M653.322 99.7197L653.304 103.04L656.654 103.058L656.672 99.7376L653.322 99.7197Z" fill="#3F3D56"/>
<path d="M660.021 99.7554L660.003 103.076L663.353 103.094L663.371 99.7733L660.021 99.7554Z" fill="#3F3D56"/>
<path d="M666.72 99.7911L666.702 103.111L670.052 103.129L670.07 99.809L666.72 99.7911Z" fill="#3F3D56"/>
<path d="M673.42 99.8264L673.402 103.147L676.751 103.165L676.769 99.8443L673.42 99.8264Z" fill="#3F3D56"/>
<path d="M680.1 103.183L681.39 103.19C682.106 102.764 682.796 102.297 683.457 101.792L683.467 99.8804L680.118 99.8626L680.1 103.183Z" fill="#3F3D56"/>
<path d="M636.557 102.951L636.54 106.094L639.89 106.112L639.907 102.969L636.557 102.951Z" fill="#3F3D56"/>
<path d="M643.256 102.986L643.239 106.13L646.588 106.148L646.606 103.004L643.256 102.986Z" fill="#3F3D56"/>
<path d="M649.955 103.022L649.938 106.166L653.287 106.184L653.304 103.04L649.955 103.022Z" fill="#3F3D56"/>
<path d="M656.654 103.058L656.637 106.202L659.986 106.219L660.003 103.076L656.654 103.058Z" fill="#3F3D56"/>
<path d="M663.353 103.094L663.336 106.237L666.685 106.255L666.702 103.111L663.353 103.094Z" fill="#3F3D56"/>
<path d="M670.035 106.273C670.803 106.277 671.571 106.242 672.336 106.166L673.385 106.038L673.401 103.147L670.052 103.129L670.035 106.273Z" fill="#3F3D56"/>
<path d="M676.739 105.271C677.895 104.909 679.018 104.452 680.096 103.903L680.1 103.183L676.75 103.165L676.739 105.271Z" fill="#3F3D56"/>
<path d="M643.31 93.0255L643.292 96.3458L646.642 96.3637L646.66 93.0434L643.31 93.0255Z" fill="#6C63FF"/>
<path d="M663.443 86.492L663.425 89.8123L666.774 89.8301L666.792 86.5098L663.443 86.492Z" fill="#6C63FF"/>
<path d="M630.552 86.3167C630.282 87.4067 630.098 88.5158 630.001 89.6341L633.28 89.6516L633.298 86.3313L630.552 86.3167Z" fill="#6C63FF"/>
<path d="M673.385 106.038C674.522 105.871 675.643 105.614 676.739 105.271L676.75 103.165L673.401 103.147L673.385 106.038Z" fill="#6C63FF"/>
<path d="M666.774 89.8301L666.756 93.1505L670.106 93.1683L670.124 89.848L666.774 89.8301Z" fill="#6C63FF"/>
<path d="M666.738 96.4708L666.72 99.7911L670.07 99.809L670.088 96.4887L666.738 96.4708Z" fill="#6C63FF"/>
<path d="M683.575 79.9584L683.557 83.2787L686.907 83.2966L686.925 79.9763L683.575 79.9584Z" fill="#6C63FF"/>
<path d="M690.274 79.9941L690.256 83.3145L691.998 83.3237L692.016 80.0034L690.274 79.9941Z" fill="#6C63FF"/>
<path d="M680.208 83.2609L680.19 86.5812L683.539 86.5991L683.557 83.2788L680.208 83.2609Z" fill="#6C63FF"/>
<path d="M686.907 83.2966L686.889 86.6169L690.238 86.6348L690.256 83.3145L686.907 83.2966Z" fill="#6C63FF"/>
<path d="M683.539 86.5991L683.521 89.9194L686.871 89.9373L686.889 86.6169L683.539 86.5991Z" fill="#6C63FF"/>
<path d="M691.322 89.961C691.601 88.8717 691.793 87.7626 691.897 86.6436L690.238 86.6348L690.22 89.9551L691.322 89.961Z" fill="#6C63FF"/>
<path d="M680.172 89.9016L680.154 93.2219L683.503 93.2397L683.521 89.9194L680.172 89.9016Z" fill="#6C63FF"/>
<path d="M686.871 89.9373L686.853 93.2576L690.202 93.2755L690.22 89.9551L686.871 89.9373Z" fill="#6C63FF"/>
<path d="M683.503 93.2397L683.485 96.5601L686.835 96.5779L686.853 93.2576L683.503 93.2397Z" fill="#6C63FF"/>
<path d="M680.136 96.5422L680.118 99.8626L683.467 99.8804L683.485 96.5601L680.136 96.5422Z" fill="#6C63FF"/>
<path d="M688.357 96.5861L686.835 96.5779L686.824 98.608C687.374 97.9641 687.886 97.289 688.357 96.5861Z" fill="#6C63FF"/>
<path d="M676.769 99.8443L676.751 103.165L680.101 103.182L680.119 99.8621L676.769 99.8443Z" fill="#6C63FF"/>
<path d="M683.72 101.588C684.391 101.06 685.03 100.494 685.634 99.892L683.467 99.8804L683.457 101.792C683.545 101.725 683.633 101.657 683.72 101.588Z" fill="#6C63FF"/>
<path d="M643.382 79.7442L643.364 83.0645L646.714 83.0824L646.732 79.762L643.382 79.7442Z" fill="#6C63FF"/>
<path d="M650.081 79.7799L650.063 83.1002L653.412 83.1181L653.43 79.7977L650.081 79.7799Z" fill="#6C63FF"/>
<path d="M656.78 79.8156L656.762 83.1359L660.111 83.1538L660.129 79.8335L656.78 79.8156Z" fill="#6C63FF"/>
<path d="M663.479 79.8513L663.461 83.1716L666.81 83.1895L666.828 79.8692L663.479 79.8513Z" fill="#6C63FF"/>
<path d="M670.178 79.887L670.16 83.2074L673.509 83.2252L673.527 79.9049L670.178 79.887Z" fill="#6C63FF"/>
<path d="M676.877 79.9227L676.859 83.243L680.208 83.2609L680.226 79.9406L676.877 79.9227Z" fill="#6C63FF"/>
<path d="M646.714 83.0824L646.696 86.4027L650.045 86.4206L650.063 83.1002L646.714 83.0824Z" fill="#6C63FF"/>
<path d="M653.412 83.1181L653.394 86.4384L656.744 86.4563L656.762 83.1359L653.412 83.1181Z" fill="#6C63FF"/>
<path d="M660.111 83.1538L660.093 86.4741L663.443 86.492L663.461 83.1716L660.111 83.1538Z" fill="#6C63FF"/>
<path d="M666.81 83.1895L666.792 86.5098L670.142 86.5277L670.16 83.2073L666.81 83.1895Z" fill="#6C63FF"/>
<path d="M673.509 83.2252L673.491 86.5455L676.841 86.5634L676.859 83.243L673.509 83.2252Z" fill="#6C63FF"/>
<path d="M636.647 86.3491L636.629 89.6695L639.979 89.6873L639.997 86.367L636.647 86.3491Z" fill="#6C63FF"/>
<path d="M650.045 86.4206L650.027 89.7409L653.376 89.7587L653.394 86.4384L650.045 86.4206Z" fill="#6C63FF"/>
<path d="M656.744 86.4563L656.726 89.7766L660.075 89.7944L660.093 86.4741L656.744 86.4563Z" fill="#6C63FF"/>
<path d="M670.142 86.5277L670.124 89.848L673.473 89.8659L673.491 86.5455L670.142 86.5277Z" fill="#6C63FF"/>
<path d="M676.841 86.5634L676.823 89.8837L680.172 89.9016L680.19 86.5812L676.841 86.5634Z" fill="#6C63FF"/>
<path d="M633.28 89.6516L633.262 92.9719L636.611 92.9898L636.629 89.6695L633.28 89.6516Z" fill="#6C63FF"/>
<path d="M639.979 89.6873L639.961 93.0076L643.31 93.0255L643.328 89.7052L639.979 89.6873Z" fill="#6C63FF"/>
<path d="M653.376 89.7587L653.358 93.0791L656.708 93.0969L656.726 89.7766L653.376 89.7587Z" fill="#6C63FF"/>
<path d="M660.075 89.7944L660.057 93.1148L663.407 93.1326L663.425 89.8123L660.075 89.7944Z" fill="#6C63FF"/>
<path d="M673.473 89.8659L673.455 93.1862L676.804 93.204L676.823 89.8837L673.473 89.8659Z" fill="#6C63FF"/>
<path d="M629.912 92.9541L629.894 96.2744L633.244 96.2923L633.262 92.9719L629.912 92.9541Z" fill="#6C63FF"/>
<path d="M636.611 92.9898L636.593 96.3101L639.943 96.328L639.961 93.0076L636.611 92.9898Z" fill="#6C63FF"/>
<path d="M631.671 83.0022L633.316 83.0109L633.468 79.6913C632.784 80.7474 632.183 81.8543 631.671 83.0022Z" fill="#6C63FF"/>
<path d="M636.683 79.7085L636.665 83.0288L640.015 83.0467L640.033 79.7263L636.683 79.7085Z" fill="#6C63FF"/>
<path d="M633.316 83.0109L633.298 86.3313L636.647 86.3491L636.665 83.0288L633.316 83.0109Z" fill="#6C63FF"/>
<path d="M640.015 83.0467L639.997 86.367L643.346 86.3848L643.364 83.0645L640.015 83.0467Z" fill="#6C63FF"/>
<path d="M643.346 86.3848L643.328 89.7052L646.678 89.723L646.696 86.4027L643.346 86.3848Z" fill="#6C63FF"/>
<path d="M646.678 89.723L646.66 93.0434L650.009 93.0612L650.027 89.7409L646.678 89.723Z" fill="#6C63FF"/>
<path d="M650.009 93.0612L649.991 96.3816L653.34 96.3994L653.358 93.0791L650.009 93.0612Z" fill="#6C63FF"/>
<path d="M656.708 93.0969L656.69 96.4173L660.039 96.4351L660.057 93.1148L656.708 93.0969Z" fill="#6C63FF"/>
<path d="M663.407 93.1326L663.389 96.453L666.738 96.4708L666.756 93.1505L663.407 93.1326Z" fill="#6C63FF"/>
<path d="M670.106 93.1683L670.088 96.4887L673.437 96.5065L673.455 93.1862L670.106 93.1683Z" fill="#6C63FF"/>
<path d="M676.804 93.204L676.786 96.5244L680.136 96.5422L680.154 93.2219L676.804 93.204Z" fill="#6C63FF"/>
<path d="M633.244 96.2923L633.226 99.6126L636.575 99.6305L636.593 96.3101L633.244 96.2923Z" fill="#6C63FF"/>
<path d="M639.943 96.328L639.925 99.6483L643.274 99.6662L643.292 96.3458L639.943 96.328Z" fill="#6C63FF"/>
<path d="M646.642 96.3637L646.624 99.684L649.973 99.7019L649.991 96.3816L646.642 96.3637Z" fill="#6C63FF"/>
<path d="M653.34 96.3994L653.322 99.7197L656.672 99.7376L656.69 96.4173L653.34 96.3994Z" fill="#6C63FF"/>
<path d="M660.039 96.4351L660.021 99.7554L663.371 99.7733L663.389 96.453L660.039 96.4351Z" fill="#6C63FF"/>
<path d="M673.437 96.5065L673.419 99.8269L676.768 99.8447L676.786 96.5244L673.437 96.5065Z" fill="#6C63FF"/>
<path d="M629.876 99.5948L629.858 102.915L633.208 102.933L633.226 99.6126L629.876 99.5948Z" fill="#6C63FF"/>
<path d="M636.575 99.6305L636.557 102.951L639.907 102.969L639.925 99.6483L636.575 99.6305Z" fill="#6C63FF"/>
<path d="M643.274 99.6662L643.256 102.987L646.605 103.004L646.623 99.684L643.274 99.6662Z" fill="#6C63FF"/>
<path d="M649.973 99.7019L649.955 103.022L653.304 103.04L653.322 99.7197L649.973 99.7019Z" fill="#6C63FF"/>
<path d="M656.672 99.7376L656.654 103.058L660.003 103.076L660.021 99.7554L656.672 99.7376Z" fill="#6C63FF"/>
<path d="M663.371 99.7733L663.353 103.094L666.702 103.111L666.72 99.7911L663.371 99.7733Z" fill="#6C63FF"/>
<path d="M670.07 99.809L670.052 103.129L673.401 103.147L673.419 99.8269L670.07 99.809Z" fill="#6C63FF"/>
<path d="M633.208 102.933L633.191 106.077L636.54 106.094L636.557 102.951L633.208 102.933Z" fill="#6C63FF"/>
<path d="M639.907 102.969L639.89 106.112L643.239 106.13L643.256 102.987L639.907 102.969Z" fill="#6C63FF"/>
<path d="M646.605 103.004L646.588 106.148L649.938 106.166L649.955 103.022L646.605 103.004Z" fill="#6C63FF"/>
<path d="M653.304 103.04L653.287 106.184L656.637 106.202L656.654 103.058L653.304 103.04Z" fill="#6C63FF"/>
<path d="M660.003 103.076L659.986 106.219L663.336 106.237L663.353 103.094L660.003 103.076Z" fill="#6C63FF"/>
<path d="M666.702 103.111L666.685 106.255L670.035 106.273L670.052 103.129L666.702 103.111Z" fill="#6C63FF"/>
<path d="M681.39 103.19L680.1 103.183L680.096 103.903C680.537 103.68 680.968 103.442 681.39 103.19Z" fill="#6C63FF"/>
<path d="M724.712 132.396L724.241 132.212L707.753 173.569C706.97 171.932 704.189 167.747 696.098 167.454C695.695 167.442 695.303 167.585 695.005 167.854C694.707 168.123 694.526 168.496 694.501 168.894L694.36 170.981C694.283 172.117 694.649 173.238 695.383 174.112C696.117 174.987 697.162 175.548 698.302 175.68C701.612 176.059 705.979 176.127 707.942 174.291L708 174.314L724.712 132.396Z" fill="#6C63FF"/>
</g>
<g clip-path="url(#clip1_4_361)">
<path d="M192.403 179.876V180.065C192.403 180.114 192.403 180.166 192.399 180.215C192.352 182.786 191.46 185.268 189.862 187.275C189.781 187.38 189.697 187.481 189.61 187.582C189.48 187.737 189.346 187.886 189.208 188.032C189.196 188.044 189.184 188.058 189.171 188.07L189.165 188.076C189.149 188.092 189.133 188.11 189.117 188.125C188.875 188.377 188.621 188.619 188.355 188.849C188.301 188.895 188.246 188.942 188.189 188.988C186.131 190.707 183.546 191.657 180.871 191.677C180.851 191.679 180.83 191.679 180.81 191.679H180.741C180.721 191.679 180.702 191.679 180.682 191.677C180.613 191.677 180.546 191.675 180.477 191.673C177.802 191.609 175.231 190.615 173.202 188.859C173.147 188.814 173.092 188.766 173.039 188.716C172.828 188.53 172.625 188.334 172.43 188.131C172.414 188.116 172.398 188.098 172.382 188.082L172.377 188.076C172.363 188.064 172.351 188.05 172.339 188.038C172.174 187.864 172.014 187.683 171.86 187.499C171.775 187.398 171.693 187.295 171.612 187.19C170.055 185.198 169.188 182.749 169.142 180.215C169.138 180.168 169.138 180.118 169.138 180.069V179.884C169.138 179.862 169.138 179.841 169.14 179.819C169.168 177.281 170.02 174.821 171.566 172.815C171.647 172.71 171.73 172.607 171.815 172.506C171.971 172.315 172.134 172.131 172.302 171.95C172.313 171.937 172.325 171.925 172.339 171.911C172.339 171.909 172.341 171.907 172.343 171.905C172.359 171.889 172.375 171.871 172.392 171.855C172.611 171.627 172.839 171.408 173.076 171.197C173.129 171.147 173.185 171.1 173.24 171.054C175.314 169.276 177.945 168.291 180.67 168.272C180.69 168.27 180.711 168.27 180.731 168.27H180.859C183.521 168.287 186.096 169.225 188.152 170.927C188.207 170.975 188.262 171.02 188.317 171.068C188.605 171.314 188.881 171.576 189.143 171.849C189.159 171.865 189.174 171.883 189.19 171.899L189.194 171.903C189.208 171.915 189.222 171.931 189.234 171.943C189.379 172.097 189.519 172.258 189.655 172.42C189.742 172.522 189.825 172.623 189.908 172.728C191.496 174.749 192.373 177.243 192.401 179.819C192.402 179.838 192.403 179.857 192.403 179.876Z" fill="#6C63FF"/>
<path d="M180.871 168.318H180.477V191.717H180.871V168.318Z" fill="white"/>
<path d="M192.403 179.819H169.046V180.215H192.403V179.819Z" fill="white"/>
<path d="M175.743 179.819C175.712 178.374 175.339 176.957 174.656 175.685C173.973 174.413 172.999 173.324 171.815 172.506C171.73 172.607 171.647 172.71 171.566 172.815C172.705 173.596 173.643 174.638 174.301 175.856C174.959 177.074 175.319 178.433 175.351 179.819C175.353 179.884 175.353 179.95 175.353 180.017C175.353 180.085 175.353 180.15 175.351 180.215C175.319 181.592 174.963 182.942 174.313 184.154C173.664 185.366 172.738 186.406 171.612 187.19C171.693 187.295 171.775 187.398 171.86 187.499C173.032 186.679 173.995 185.591 174.669 184.325C175.344 183.06 175.712 181.651 175.743 180.215C175.747 180.15 175.747 180.083 175.747 180.017C175.747 179.952 175.747 179.884 175.743 179.819Z" fill="white"/>
<path d="M185.997 180.215C185.995 180.15 185.995 180.085 185.995 180.017C185.995 179.95 185.995 179.884 185.997 179.819C186.03 178.407 186.403 177.024 187.084 175.788C187.765 174.553 188.734 173.503 189.908 172.728C189.825 172.623 189.742 172.522 189.655 172.42C188.437 173.233 187.432 174.331 186.727 175.619C186.022 176.907 185.637 178.348 185.605 179.819C185.601 179.884 185.601 179.952 185.601 180.017C185.601 180.083 185.601 180.15 185.605 180.215C185.637 181.676 186.017 183.108 186.714 184.391C187.411 185.673 188.404 186.767 189.61 187.582C189.697 187.481 189.781 187.38 189.862 187.275C188.701 186.498 187.744 185.45 187.071 184.221C186.398 182.992 186.03 181.618 185.997 180.215Z" fill="white"/>
<path d="M201.713 191.606H11.8175V192.05H201.713V191.606Z" fill="#2F2E41"/>
<path d="M190.822 102.805C190.859 123.955 182.793 144.306 168.3 159.626C168.202 159.731 168.101 159.836 168.001 159.941C160.353 167.963 151.171 174.348 141.009 178.71C130.847 183.073 119.913 185.324 108.864 185.328C97.8154 185.332 86.8798 183.09 76.7141 178.735C66.5485 174.38 57.3625 168.003 49.7079 159.987C49.6074 159.882 49.5068 159.777 49.4082 159.672C34.9673 144.387 26.8928 124.119 26.8437 103.031C26.7946 81.9428 34.7746 61.6365 49.1442 46.2843C49.2408 46.1772 49.3412 46.0721 49.4417 45.9669C57.0962 37.8751 66.3045 31.4317 76.5082 27.0276C86.7118 22.6235 97.6983 20.3503 108.801 20.346C119.904 20.3418 130.892 22.6064 141.099 27.0027C151.306 31.3989 160.52 37.8352 168.18 45.9211C168.281 46.0262 168.381 46.1312 168.478 46.2383C182.847 61.5222 190.843 81.7675 190.822 102.805Z" fill="#2D2880"/>
<path d="M190.822 102.639H26.8434V103.035H190.822V102.639Z" fill="white"/>
<path d="M109.03 20.346H108.636V185.328H109.03V20.346Z" fill="white"/>
<path d="M72.9717 75.6486C69.4569 67.2853 64.3616 59.6881 57.9686 53.2788C55.3244 50.6169 52.473 48.1718 49.4417 45.9669C49.3412 46.0721 49.2408 46.1772 49.1442 46.2843C66.6565 59.0002 78.0779 79.7058 78.0868 103.047C78.0957 126.289 66.7866 146.928 49.4082 159.672C49.5068 159.777 49.6073 159.882 49.7079 159.987C52.6545 157.822 55.4291 155.429 58.0066 152.831C67.8426 142.919 74.5196 130.283 77.1851 116.535C79.8507 102.788 78.3838 88.5534 72.9717 75.6486Z" fill="#818CCA"/>
<path d="M139.579 103.023C139.57 79.6821 150.975 58.9677 168.478 46.2383C168.381 46.1312 168.281 46.0262 168.18 45.9211C159.226 52.4419 151.933 61.0028 146.898 70.9036C141.863 80.8043 139.229 91.7637 139.211 102.885C139.194 114.007 141.793 124.974 146.797 134.891C151.801 144.808 159.067 153.392 168.001 159.941C168.101 159.836 168.202 159.731 168.3 159.626C150.914 146.896 139.588 126.266 139.579 103.023Z" fill="#383759"/>
<path d="M88.8707 160.03L88.3245 171.019L94.0588 172.118L95.6973 161.678L88.8707 160.03Z" fill="#9D616A"/>
<path d="M117.269 163.601L118.635 172.668H123.823L122.731 163.052L117.269 163.601Z" fill="#9D616A"/>
<path d="M89.9629 138.875L88.8706 151.513L87.7784 162.228C87.7784 162.228 91.8744 160.579 95.6973 163.052C95.6973 163.052 98.1549 162.502 97.6088 151.788L100.066 140.523L89.9629 138.875Z" fill="#EFEFEF"/>
<path d="M112.081 142.996C112.081 142.996 113.72 152.887 114.539 153.711C114.539 153.711 115.891 162.555 116.548 164.791C116.588 164.951 116.646 165.105 116.723 165.25C117.27 166.074 123.277 167.997 123.55 164.7C123.823 161.403 124.642 155.909 121.912 151.788L120.273 141.348L112.081 142.996Z" fill="#EFEFEF"/>
<path d="M128.602 141.76C128.329 144.782 113.31 144.232 110.579 144.232C109.717 144.232 108.608 144.098 108.056 142.598C107.111 140.034 106.593 136.29 106.418 134.825C106.347 136.183 105.724 139.468 104.168 141.573C103.22 142.859 101.653 142.603 99.9298 142.309C97.0681 141.82 91.3801 140.04 89.8264 140.386C87.3688 140.935 84.4114 140.99 84.365 140.386C84.3438 140.056 84.3456 139.724 84.3705 139.394C84.7309 133.713 89.9629 118.311 89.9629 117.171C89.9629 115.797 92.4205 110.027 92.4205 110.027L117.543 107.005C117.543 107.005 127.493 134.012 128.861 140.661C128.979 141.235 128.624 141.521 128.602 141.76Z" fill="#171054"/>
<path d="M94.8781 170.745L87.7784 169.371L88.461 180.772L94.0589 184.756C94.0589 184.756 93.5128 173.767 94.8781 170.745Z" fill="#EFEFEF"/>
<path d="M123.823 169.92C123.823 169.92 120.273 172.118 117.27 169.92L119.727 180.086L123.823 179.536C123.823 179.536 125.735 173.492 123.823 169.92Z" fill="#EFEFEF"/>
<path d="M124.642 178.437C124.642 178.437 118.908 178.712 118.908 179.261V188.328C118.908 189.152 120 190.251 119.727 190.8C119.454 191.35 121.366 192.724 125.735 191.899C130.104 191.075 128.465 188.328 128.465 188.328C128.465 188.328 124.096 180.635 124.642 178.437Z" fill="#2F2E41"/>
<path d="M87.6418 178.575C87.6418 178.575 94.1954 178.712 94.1954 179.261V188.328C94.1954 189.152 93.1032 190.251 93.3762 190.8C93.6493 191.35 91.7378 192.724 87.3688 191.899C82.9997 191.075 84.6381 188.328 84.6381 188.328C84.6381 188.328 88.188 180.772 87.6418 178.575Z" fill="#2F2E41"/>
<path d="M129.011 141.897C128.738 144.919 112.901 145.194 110.17 145.194C109.307 145.194 108.608 144.098 108.056 142.598C110.986 142.012 123.588 139.625 128.861 140.661C128.962 141.065 129.012 141.48 129.011 141.897Z" fill="#6C63FF"/>
<path d="M104.168 141.573C103.22 142.859 101.926 143.702 100.203 143.408C97.3412 142.919 91.3801 141.688 89.8264 142.034C87.3688 142.584 84.4114 140.99 84.365 140.386C84.3438 140.056 84.3456 139.724 84.3705 139.394C90.1185 139.238 100.299 139.306 104.168 141.573Z" fill="#6C63FF"/>
<path d="M93.5128 73.7621C93.5128 73.7621 88.5976 72.1137 84.2285 77.059L83.4093 78.7074C83.4093 78.7074 77.1288 80.6306 75.2173 82.0043C75.2173 82.0043 69.4829 80.6306 62.3832 82.0043L55.2834 80.3558C55.2834 80.3558 41.6301 70.74 40.2647 76.7842C38.8994 82.8285 53.0989 85.0264 53.0989 85.0264L64.8408 88.3232C64.8408 88.3232 73.852 90.5211 77.4018 88.8727C77.4018 88.8727 87.5053 88.3232 89.4168 84.4769L93.5128 86.4V73.7621Z" fill="#9D616A"/>
<path d="M110.443 72.3884C110.443 72.3884 120.546 71.2895 124.369 76.5095L132.288 78.7074C132.288 78.7074 141.026 77.059 144.303 77.8832L151.403 75.96C151.403 75.96 158.23 64.9705 162.053 67.9926C165.875 71.0147 153.041 80.6306 153.041 80.6306L135.838 86.4001C135.838 86.4001 122.458 87.499 119.727 82.5537L116.723 89.4222L105.255 86.6748L110.443 72.3884Z" fill="#9D616A"/>
<path d="M100.886 71.0147C104.957 71.0147 108.258 67.6936 108.258 63.5968C108.258 59.5 104.957 56.1789 100.886 56.1789C96.8137 56.1789 93.5128 59.5 93.5128 63.5968C93.5128 67.6936 96.8137 71.0147 100.886 71.0147Z" fill="#9D616A"/>
<path d="M97.0627 67.9926V74.0369L99.7933 83.6527L107.985 74.0369C107.985 74.0369 105.801 67.4431 105.801 66.3442C105.801 65.2452 97.0627 67.9926 97.0627 67.9926Z" fill="#9D616A"/>
<path d="M118.771 107.692C118.771 107.692 118.638 108.684 117.395 108.775C114.908 108.959 110.719 109.385 107.985 110.302C103.889 111.676 91.6013 111.676 91.6013 111.676L90.804 86.7902L91.1917 84.889C90.9186 82.6911 93.1032 73.8995 93.1032 73.8995L94.6978 72.7154L96.1916 72.3912L96.653 72.8005C96.653 76.46 100.203 79.9437 100.203 79.9437C105.391 77.4711 107.576 71.9763 107.576 71.9763L109.113 71.7483L110.721 71.9296L112.177 72.0944L111.672 72.5258L111.399 73.0753C111.412 73.0423 111.382 73.1082 111.399 73.0753C107.423 81.5619 112.223 85.4 115.222 87.0869C116.464 87.7902 116.587 88.4606 116.587 88.4606C116.587 88.4606 117.709 88.1227 117.679 89.2848C117.589 93.046 116.909 101.538 117.952 103.846C119.318 106.868 118.771 107.692 118.771 107.692Z" fill="#EFEFEF"/>
<path d="M93.1031 58.582C93.2799 57.9724 93.4877 57.3724 93.7257 56.7843C94.037 56.0652 93.7257 53.9081 94.037 53.9081H95.2822L96.8387 52.4699L97.7726 53.189L99.0178 52.4699L100.574 53.189L102.131 52.4699L104.621 54.2676L105.244 53.9081L105.866 54.9867H106.178L107.423 56.7843H108.045V58.582H108.668V63.2559L107.849 66.4816L107.576 64.8988C107.576 64.8772 107.569 64.8562 107.556 64.8389C107.543 64.8216 107.525 64.809 107.504 64.8029C107.484 64.7968 107.462 64.7976 107.442 64.8052C107.422 64.8127 107.404 64.8266 107.393 64.8448L106.8 65.7726L106.42 64.3089C105.873 62.1166 104.588 60.1826 102.784 58.8355C100.48 57.1537 97.15 56.3529 93.7257 61.0987L93.1031 58.582Z" fill="#2F2E41"/>
<path d="M94.6978 72.7153C94.179 75.8886 92.6117 84.6637 90.804 86.7901L90.7821 86.1253C90.509 83.9274 92.4205 73.2126 92.4205 73.2126L94.6978 72.7153Z" fill="#6C63FF"/>
<path d="M109.113 71.7483C107.742 74.3528 103.816 81.0756 100.066 80.6305C96.4482 80.202 96.1478 74.7676 96.1916 72.3912L97.0626 72.2016C97.0626 75.8611 100.339 78.9821 100.339 78.9821C105.528 76.5095 107.18 71.5312 107.18 71.5312L109.113 71.7483Z" fill="#6C63FF"/>
<path d="M118.089 87.499C118.089 87.499 118.059 88.2353 118.029 89.3974C117.269 89.3563 116.515 89.2385 115.779 89.0458C107.344 86.8066 109.809 75.2814 110.721 71.9296L112.177 72.0944H112.18C112.221 72.1329 112.264 72.1741 112.308 72.2153C108.332 80.702 112.868 84.8285 115.866 86.5154C116.57 86.9219 117.315 87.2516 118.089 87.499Z" fill="#6C63FF"/>
<path d="M119.454 108.654C119.454 108.654 118.638 108.684 117.395 108.775C116.772 106.474 116.274 104.141 115.904 101.785C115.544 99.2468 115.659 93.002 115.779 89.0458C115.811 88.01 115.841 87.1281 115.866 86.5154C116.57 86.9219 117.315 87.2516 118.089 87.499C118.089 87.499 118.059 88.2353 118.029 89.3974C117.939 93.1586 117.865 101.401 118.908 103.709C120.273 106.731 119.454 108.654 119.454 108.654Z" fill="#6C63FF"/>
<path d="M93.9224 89.8129C93.9224 89.8129 102.66 85.6067 111.126 89.8129Z" fill="#6C63FF"/>
<path d="M92.0801 111.76C92.0801 111.76 94.6422 111.562 100.949 112.157C107.256 112.752 117.702 108.786 117.702 108.786" fill="#CACACA"/>
<path d="M57.5935 67.4427V67.6311C57.5935 67.6807 57.5935 67.7323 57.5896 67.7818C57.5423 70.3522 56.6503 72.8345 55.0531 74.8412C54.9723 74.9463 54.8875 75.0474 54.8008 75.1485C54.6707 75.3032 54.5367 75.4519 54.3987 75.5986C54.3869 75.6105 54.3751 75.6244 54.3613 75.6363L54.3554 75.6423C54.3396 75.6581 54.3238 75.676 54.3081 75.6918C54.0656 75.9437 53.8114 76.1849 53.5453 76.4156C53.4921 76.4612 53.4369 76.5088 53.3798 76.5544C51.322 78.2736 48.7365 79.2237 46.0618 79.2433C46.0421 79.2453 46.0205 79.2453 46.0007 79.2453H45.9318C45.912 79.2453 45.8923 79.2453 45.8727 79.2433C45.8037 79.2433 45.7366 79.2413 45.6677 79.2394C42.9924 79.1757 40.4218 78.1813 38.3931 76.4255C38.3379 76.3799 38.2827 76.3323 38.2295 76.2828C38.0186 76.0964 37.8156 75.9001 37.6205 75.6978C37.6048 75.6819 37.589 75.6641 37.5732 75.6482L37.5673 75.6423C37.5535 75.6304 37.5417 75.6165 37.5298 75.6046C37.3643 75.4301 37.2047 75.2496 37.0509 75.0652C36.9662 74.9641 36.8834 74.861 36.8026 74.7559C35.2459 72.7642 34.3787 70.3152 34.333 67.7818C34.3291 67.7342 34.3291 67.6847 34.3291 67.6351V67.4507C34.3291 67.4289 34.3291 67.4071 34.3311 67.3852C34.359 64.8469 35.211 62.3874 36.7572 60.3814C36.838 60.2763 36.9208 60.1732 37.0056 60.0721C37.1613 59.8817 37.3248 59.6973 37.4924 59.5169C37.5042 59.503 37.516 59.4911 37.5298 59.4772C37.5298 59.4752 37.5318 59.4732 37.5338 59.4713C37.5495 59.4554 37.5653 59.4376 37.583 59.4217C37.8018 59.1936 38.0298 58.9742 38.2669 58.7633C38.3202 58.7138 38.3753 58.6662 38.4305 58.6206C40.505 56.8428 43.1359 55.8577 45.8608 55.8385C45.8805 55.8365 45.9022 55.8365 45.9219 55.8365H46.05C48.712 55.8533 51.287 56.7916 53.3423 58.4937C53.3975 58.5413 53.4527 58.5869 53.5079 58.6345C53.7956 58.8803 54.0716 59.1421 54.3337 59.4157C54.3495 59.4316 54.3652 59.4494 54.381 59.4653L54.3849 59.4693C54.3987 59.4812 54.4125 59.497 54.4244 59.5089C54.5702 59.6636 54.7101 59.8242 54.8462 59.9868C54.9329 60.088 55.0156 60.1891 55.0984 60.2942C56.6867 62.3151 57.5635 64.8091 57.5916 67.3852C57.5932 67.4044 57.5939 67.4236 57.5935 67.4427Z" fill="#6C63FF"/>
<path d="M46.0618 55.8841H45.6677V79.283H46.0618V55.8841Z" fill="white"/>
<path d="M57.5935 67.3852H34.2365V67.7818H57.5935V67.3852Z" fill="white"/>
<path d="M40.9336 67.3852C40.9026 65.9401 40.5303 64.5231 39.8472 63.2515C39.1642 61.9798 38.1902 60.89 37.0056 60.0721C36.9208 60.1732 36.8381 60.2763 36.7573 60.3814C37.8961 61.162 38.8335 62.2046 39.4917 63.4226C40.1498 64.6407 40.5096 65.9992 40.5414 67.3852C40.5433 67.4507 40.5433 67.5161 40.5433 67.5835C40.5433 67.651 40.5433 67.7164 40.5414 67.7818C40.5094 69.1587 40.154 70.5083 39.5042 71.7205C38.8543 72.9326 37.9286 73.9728 36.8026 74.7559C36.8834 74.861 36.9661 74.9641 37.0509 75.0652C38.2228 74.2449 39.1853 73.1576 39.86 71.8918C40.5348 70.6261 40.9026 69.2178 40.9336 67.7818C40.9375 67.7164 40.9375 67.649 40.9375 67.5835C40.9375 67.5181 40.9375 67.4507 40.9336 67.3852Z" fill="white"/>
<path d="M51.1881 67.7818C51.1862 67.7164 51.1862 67.651 51.1862 67.5835C51.1862 67.5161 51.1862 67.4507 51.1881 67.3852C51.2207 65.9731 51.5935 64.59 52.2747 63.3548C52.9558 62.1197 53.9248 61.0694 55.0984 60.2942C55.0156 60.1891 54.9328 60.088 54.8461 59.9868C53.6278 60.7997 52.6231 61.8972 51.9178 63.1855C51.2126 64.4738 50.8276 65.9148 50.7959 67.3852C50.792 67.4507 50.792 67.5181 50.792 67.5835C50.792 67.649 50.792 67.7164 50.7959 67.7818C50.8274 69.2429 51.2077 70.6749 51.9047 71.957C52.6017 73.2391 53.595 74.3337 54.8008 75.1485C54.8875 75.0474 54.9723 74.9463 55.0531 74.8412C53.892 74.0641 52.9343 73.0166 52.2615 71.7876C51.5887 70.5587 51.2205 69.1845 51.1881 67.7818Z" fill="white"/>
</g>
<g clip-path="url(#clip2_4_361)">
<path d="M444.015 242.215L459.021 219.965L444.045 244.609L444.077 247.112C442.981 247.121 441.896 247.102 440.822 247.058L441.566 214.875L441.546 214.626L441.573 214.578L441.645 211.537L425.211 187.748L441.625 209.261L441.684 209.904L442.246 185.588L428.052 160.924L442.286 181.317L442.138 130.941L442.138 130.774L442.143 130.939L443.085 170.641L456.021 154.514L443.127 174.062L443.41 195.811L455.314 174.584L443.453 199.009L443.611 211.103L460.922 181.534L443.663 215.322L444.015 242.215Z" fill="#E6E6E6"/>
<path d="M494.517 242.916L509.523 220.666L494.547 245.309L494.579 247.813C493.483 247.821 492.398 247.803 491.324 247.758L492.068 215.575L492.048 215.327L492.075 215.279L492.147 212.238L475.713 188.449L492.127 209.962L492.186 210.605L492.748 186.289L478.554 161.625L492.788 182.018L492.64 131.642L492.64 131.475L492.645 131.639L493.587 171.342L506.523 155.215L493.629 174.762L493.912 196.512L505.816 175.285L493.955 199.71L494.113 211.804L511.424 182.235L494.165 216.023L494.517 242.916Z" fill="#E6E6E6"/>
<path d="M342.704 65.5592H252.906V186.664H342.704V65.5592Z" fill="#2D2880"/>
<path d="M339.54 69.8268H256.07V182.397H339.54V69.8268Z" fill="#8589DE"/>
<path d="M328.569 89.5712H267.309C266.813 89.5706 266.338 89.3736 265.987 89.0235C265.636 88.6735 265.439 88.1989 265.439 87.7042C265.439 87.2095 265.636 86.7349 265.987 86.3849C266.338 86.0348 266.813 85.8378 267.309 85.8372H328.569C328.815 85.8368 329.059 85.8849 329.286 85.9786C329.514 86.0723 329.72 86.2097 329.894 86.3831C330.069 86.5565 330.207 86.7625 330.301 86.9891C330.395 87.2158 330.444 87.4588 330.444 87.7042C330.444 87.9496 330.395 88.1926 330.301 88.4192C330.207 88.6459 330.069 88.8519 329.894 89.0253C329.72 89.1987 329.514 89.3361 329.286 89.4298C329.059 89.5235 328.815 89.5716 328.569 89.5712Z" fill="#E6E6E6"/>
<path d="M328.569 108.775H267.309C266.813 108.774 266.338 108.577 265.987 108.227C265.636 107.877 265.439 107.403 265.439 106.908C265.439 106.413 265.636 105.939 265.987 105.589C266.338 105.239 266.813 105.042 267.309 105.041H328.569C328.815 105.041 329.059 105.089 329.286 105.182C329.514 105.276 329.72 105.414 329.894 105.587C330.069 105.76 330.207 105.966 330.301 106.193C330.395 106.42 330.444 106.663 330.444 106.908C330.444 107.153 330.395 107.396 330.301 107.623C330.207 107.85 330.069 108.056 329.894 108.229C329.72 108.402 329.514 108.54 329.286 108.634C329.059 108.727 328.815 108.775 328.569 108.775Z" fill="#E6E6E6"/>
<path d="M328.569 127.979H267.309C266.813 127.978 266.338 127.781 265.987 127.431C265.636 127.081 265.439 126.607 265.439 126.112C265.439 125.617 265.636 125.143 265.987 124.792C266.338 124.442 266.813 124.245 267.309 124.245H328.569C328.815 124.244 329.059 124.292 329.286 124.386C329.514 124.48 329.72 124.617 329.894 124.791C330.069 124.964 330.207 125.17 330.301 125.397C330.395 125.623 330.444 125.866 330.444 126.112C330.444 126.357 330.395 126.6 330.301 126.827C330.207 127.054 330.069 127.259 329.894 127.433C329.72 127.606 329.514 127.744 329.286 127.837C329.059 127.931 328.815 127.979 328.569 127.979Z" fill="#E6E6E6"/>
<path d="M328.569 147.183H267.309C266.813 147.182 266.338 146.985 265.987 146.635C265.636 146.285 265.439 145.81 265.439 145.316C265.439 144.821 265.636 144.346 265.987 143.996C266.338 143.646 266.813 143.449 267.309 143.449H328.569C328.815 143.448 329.059 143.496 329.286 143.59C329.514 143.684 329.72 143.821 329.894 143.995C330.069 144.168 330.207 144.374 330.301 144.601C330.395 144.827 330.444 145.07 330.444 145.316C330.444 145.561 330.395 145.804 330.301 146.031C330.207 146.257 330.069 146.463 329.894 146.637C329.72 146.81 329.514 146.948 329.286 147.041C329.059 147.135 328.815 147.183 328.569 147.183Z" fill="#E6E6E6"/>
<path d="M328.569 166.386H267.309C266.813 166.386 266.338 166.189 265.987 165.839C265.636 165.489 265.439 165.014 265.439 164.519C265.439 164.025 265.636 163.55 265.987 163.2C266.338 162.85 266.813 162.653 267.309 162.652H328.569C328.815 162.652 329.059 162.7 329.286 162.794C329.514 162.887 329.72 163.025 329.894 163.198C330.069 163.372 330.207 163.578 330.301 163.804C330.395 164.031 330.444 164.274 330.444 164.519C330.444 164.765 330.395 165.008 330.301 165.234C330.207 165.461 330.069 165.667 329.894 165.84C329.72 166.014 329.514 166.151 329.286 166.245C329.059 166.339 328.815 166.387 328.569 166.386Z" fill="#E6E6E6"/>
<path d="M317.868 89.5712H267.042C266.796 89.5716 266.552 89.5235 266.325 89.4298C266.097 89.3361 265.89 89.1987 265.716 89.0253C265.542 88.8519 265.404 88.6459 265.31 88.4192C265.215 88.1926 265.167 87.9496 265.167 87.7042C265.167 87.4588 265.215 87.2158 265.31 86.9891C265.404 86.7625 265.542 86.5565 265.716 86.3831C265.89 86.2097 266.097 86.0723 266.325 85.9786C266.552 85.8849 266.796 85.8368 267.042 85.8372H317.868C318.365 85.8378 318.84 86.0348 319.191 86.3849C319.542 86.7349 319.739 87.2095 319.739 87.7042C319.739 88.1989 319.542 88.6735 319.191 89.0235C318.84 89.3736 318.365 89.5706 317.868 89.5712Z" fill="#2D2880"/>
<path d="M302.085 108.775H267.042C266.545 108.775 266.069 108.578 265.718 108.228C265.367 107.878 265.169 107.403 265.169 106.908C265.169 106.413 265.367 105.938 265.718 105.588C266.069 105.238 266.545 105.041 267.042 105.041H302.085C302.332 105.041 302.575 105.089 302.803 105.182C303.03 105.276 303.237 105.414 303.411 105.587C303.585 105.76 303.723 105.966 303.818 106.193C303.912 106.42 303.96 106.663 303.96 106.908C303.96 107.153 303.912 107.396 303.818 107.623C303.723 107.85 303.585 108.056 303.411 108.229C303.237 108.402 303.03 108.54 302.803 108.634C302.575 108.727 302.332 108.775 302.085 108.775Z" fill="#2D2880"/>
<path d="M282.825 127.979H267.042C266.796 127.979 266.552 127.931 266.325 127.837C266.097 127.744 265.89 127.606 265.716 127.433C265.542 127.259 265.404 127.054 265.31 126.827C265.215 126.6 265.167 126.357 265.167 126.112C265.167 125.866 265.215 125.623 265.31 125.397C265.404 125.17 265.542 124.964 265.716 124.791C265.89 124.617 266.097 124.48 266.325 124.386C266.552 124.292 266.796 124.244 267.042 124.245H282.825C283.321 124.245 283.797 124.442 284.147 124.792C284.498 125.143 284.695 125.617 284.695 126.112C284.695 126.607 284.498 127.081 284.147 127.431C283.797 127.781 283.321 127.978 282.825 127.979Z" fill="#2D2880"/>
<path d="M322.684 147.183H267.042C266.545 147.183 266.069 146.986 265.718 146.636C265.367 146.286 265.169 145.811 265.169 145.316C265.169 144.82 265.367 144.346 265.718 143.995C266.069 143.645 266.545 143.449 267.042 143.449H322.684C323.18 143.449 323.656 143.645 324.008 143.995C324.359 144.346 324.556 144.82 324.556 145.316C324.556 145.811 324.359 146.286 324.008 146.636C323.656 146.986 323.18 147.183 322.684 147.183Z" fill="#2D2880"/>
<path d="M310.378 166.386H267.042C266.796 166.387 266.552 166.339 266.325 166.245C266.097 166.151 265.89 166.014 265.716 165.84C265.542 165.667 265.404 165.461 265.31 165.234C265.215 165.008 265.167 164.765 265.167 164.519C265.167 164.274 265.215 164.031 265.31 163.804C265.404 163.578 265.542 163.372 265.716 163.198C265.89 163.025 266.097 162.887 266.325 162.794C266.552 162.7 266.796 162.652 267.042 162.652H310.378C310.624 162.652 310.868 162.7 311.096 162.794C311.323 162.887 311.53 163.025 311.704 163.198C311.878 163.372 312.016 163.578 312.11 163.804C312.205 164.031 312.253 164.274 312.253 164.519C312.253 164.765 312.205 165.008 312.11 165.234C312.016 165.461 311.878 165.667 311.704 165.84C311.53 166.014 311.323 166.151 311.096 166.245C310.868 166.339 310.624 166.387 310.378 166.386Z" fill="#2D2880"/>
<path d="M510.019 247.114H223.19V247.758H510.019V247.114Z" fill="#433D8B"/>
<path d="M386.627 152.806C386.627 152.806 384.597 137.962 381.213 142.01C377.829 146.059 381.213 152.131 381.213 152.131L383.92 155.505L386.627 153.481V152.806Z" fill="#9F616A"/>
<path d="M394.748 157.529C394.748 157.529 387.98 150.107 386.627 151.457C385.273 152.806 381.213 153.481 381.89 156.18C382.566 158.879 396.778 167.651 396.778 167.651L394.748 157.529Z" fill="#6C63FF"/>
<path opacity="0.1" d="M394.748 157.529C394.748 157.529 387.98 150.107 386.627 151.457C385.273 152.806 381.213 153.481 381.89 156.18C382.566 158.879 396.778 167.651 396.778 167.651L394.748 157.529Z" fill="black"/>
<path d="M433.323 156.855V162.253C433.323 162.253 433.999 174.398 429.939 173.724C425.878 173.049 427.909 162.927 427.909 162.927L428.585 156.855L433.323 156.855Z" fill="#9F616A"/>
<path d="M431.292 195.99C431.292 195.99 437.383 205.437 439.413 206.112C441.444 206.786 452.272 212.859 453.625 218.932L463.1 231.078L458.362 237.15C458.362 237.15 436.706 214.209 430.616 212.185C424.525 210.16 418.434 200.039 418.434 200.039L431.292 195.99Z" fill="#9F616A"/>
<path d="M383.243 180.471C383.243 180.471 370.385 182.495 372.415 190.592C374.445 198.689 394.071 215.558 394.071 215.558L394.748 219.607L402.192 220.956L405.576 217.583L404.899 215.558C404.899 215.558 396.778 208.136 396.101 205.437C395.425 202.738 387.98 191.942 384.597 191.267L389.334 188.568L383.243 180.471Z" fill="#9F616A"/>
<path d="M461.069 231.078C461.069 231.078 458.362 227.029 462.423 227.704C466.483 228.379 469.19 229.053 469.19 231.752C469.19 234.451 465.807 253.345 461.746 251.995C457.686 250.646 461.069 244.573 461.069 244.573C461.069 244.573 459.039 239.175 457.686 238.5C456.332 237.825 456.332 234.451 457.686 234.451C459.039 234.451 461.746 232.427 461.069 231.078Z" fill="#2F2E41"/>
<path d="M403.546 216.233C403.546 216.233 403.546 212.859 406.253 216.233C408.96 219.607 410.313 222.306 407.606 224.33C404.899 226.354 395.425 231.078 395.425 231.078C395.425 231.078 385.273 233.102 386.627 228.379C386.627 228.379 393.394 225.005 393.394 222.306C393.394 219.607 393.394 214.884 395.425 216.233C397.455 217.583 403.546 218.257 403.546 216.233Z" fill="#2F2E41"/>
<path d="M416.404 165.626C416.404 165.626 425.878 166.976 425.202 180.471C425.202 180.471 437.383 192.617 433.999 196.665C430.616 200.714 423.171 208.136 420.464 206.112C417.757 204.087 409.636 188.568 409.636 188.568C409.636 188.568 390.687 195.316 387.304 191.942C383.92 188.568 380.536 180.471 380.536 180.471L397.455 171.699L416.404 165.626Z" fill="#171054"/>
<path d="M390.011 127.165C394.496 127.165 398.132 123.54 398.132 119.068C398.132 114.597 394.496 110.971 390.011 110.971C385.526 110.971 381.89 114.597 381.89 119.068C381.89 123.54 385.526 127.165 390.011 127.165Z" fill="#9F616A"/>
<path d="M396.101 119.743C396.101 119.743 400.839 127.165 402.192 127.84C403.546 128.515 392.718 135.262 392.718 135.262C392.718 135.262 392.718 126.491 389.334 124.466L396.101 119.743Z" fill="#9F616A"/>
<path d="M396.778 127.165C396.778 127.165 407.606 123.792 409.636 129.19C411.667 134.588 416.404 144.709 415.727 151.457C415.05 158.204 413.697 156.855 415.727 158.879C417.757 160.903 419.111 159.554 418.434 162.253C417.757 164.952 417.081 164.952 417.757 166.301C418.434 167.651 409.636 172.374 402.192 173.049L394.748 173.724C394.748 173.724 394.748 161.578 393.394 158.879C392.041 156.18 389.334 150.782 389.334 148.758V143.402C389.334 139.837 390.267 136.333 392.041 133.238C392.041 133.238 396.101 127.165 396.778 127.165Z" fill="#6C63FF"/>
<path d="M404.899 129.864C404.899 129.864 429.939 131.889 432.646 138.636C435.353 145.384 436.706 158.879 433.999 158.879C431.292 158.879 427.909 160.228 427.232 158.879C426.555 157.529 423.848 144.034 423.171 144.034C422.495 144.034 402.192 142.01 402.192 142.01C402.192 142.01 393.394 131.214 404.899 129.864Z" fill="#6C63FF"/>
<path d="M389.684 117.061C389.684 117.061 387.529 113.327 384.835 116.57C382.142 119.814 377.759 113.853 378.432 112.582C379.105 111.31 381.481 112.639 385.552 111.312C389.623 109.985 397.466 107.281 398.779 116.1C400.093 124.918 396.965 123.994 396.965 123.994C396.965 123.994 395.531 116.18 394.235 118.424L392.939 120.669L391.815 120.945L389.684 117.061Z" fill="#2F2E41"/>
</g>
<g clip-path="url(#clip3_4_361)">
<path d="M703.047 411.941C703.047 411.941 703.19 408.965 706.112 409.311Z" fill="#3F3D56"/>
<path d="M702.221 409.109C703.029 409.109 703.684 408.457 703.684 407.652C703.684 406.848 703.029 406.195 702.221 406.195C701.413 406.195 700.759 406.848 700.759 407.652C700.759 408.457 701.413 409.109 702.221 409.109Z" fill="#6C63FF"/>
<path d="M702.396 410.106H701.983V412.985H702.396V410.106Z" fill="#3F3D56"/>
<path d="M603.744 324.459C603.744 325.187 603.721 325.91 603.673 326.626C603.408 330.759 602.359 334.804 600.585 338.548C600.571 338.58 600.555 338.61 600.541 338.64C600.458 338.813 600.373 338.987 600.286 339.158C599.758 340.217 599.173 341.247 598.532 342.242C595.605 346.811 591.594 350.592 586.852 353.25C582.11 355.908 576.784 357.362 571.344 357.483L571.672 376.269L575.949 374.026L576.713 375.472L571.704 378.099L572.317 412.99L572.324 413.455L569.017 414.189L569.024 413.72L570.065 357.485C565.686 357.423 561.364 356.494 557.349 354.754C553.333 353.014 549.705 350.496 546.675 347.347C546.466 347.133 546.26 346.911 546.058 346.692C546.049 346.683 546.042 346.674 546.035 346.667C543.51 343.924 541.468 340.776 539.995 337.356C540.027 337.392 540.061 337.427 540.093 337.463C536.764 329.708 536.538 320.978 539.462 313.062C542.386 305.146 548.238 298.644 555.82 294.888C555.934 294.831 556.051 294.776 556.166 294.719C563.665 291.121 572.248 290.46 580.213 292.869C588.178 295.278 594.944 300.58 599.17 307.724C599.371 308.062 599.566 308.407 599.754 308.754C602.379 313.575 603.751 318.974 603.744 324.459Z" fill="#2D2880"/>
<path d="M599.281 338.658C623.285 338.658 642.745 319.273 642.745 295.361C642.745 271.449 623.285 252.064 599.281 252.064C575.276 252.064 555.816 271.449 555.816 295.361C555.816 319.273 575.276 338.658 599.281 338.658Z" fill="#6C63FF"/>
<path opacity="0.2" d="M567.188 266.442C557.751 288.431 567.996 313.877 590.07 323.277C598.445 326.844 607.733 327.699 616.622 325.724C625.512 323.748 633.554 319.04 639.612 312.266C630.177 334.256 604.632 344.462 582.558 335.063C560.483 325.664 550.237 300.218 559.673 278.228C561.521 273.92 564.059 269.94 567.188 266.442Z" fill="black"/>
<path d="M601.632 415.977L597.193 414.737L597.202 414.262L598.532 342.242L598.599 338.651L598.601 338.546L598.833 325.964L599.17 307.726V307.724L599.399 295.361H599.52L599.754 308.754L600.059 326.185L600.277 338.555V338.646L600.286 339.156V339.158L600.708 363.269L600.752 365.665L601.623 415.498L601.632 415.977Z" fill="#3F3D56"/>
<path d="M606.313 360.329L599.128 364.098L600.129 365.992L607.314 362.224L606.313 360.329Z" fill="#3F3D56"/>
<path d="M598.429 424.694H577.935V425.15H598.429V424.694Z" fill="#CBCBCB"/>
<path d="M636.037 432.46H615.542V432.917H636.037V432.46Z" fill="#CBCBCB"/>
<path d="M694.512 426.521H674.018V426.978H694.512V426.521Z" fill="#CBCBCB"/>
<path d="M685.152 407.932V394.643C685.152 394.643 690.35 404.064 685.152 407.932Z" fill="#F1F1F1"/>
<path d="M685.473 407.93L675.646 398.943C675.646 398.943 686.128 401.499 685.473 407.93Z" fill="#F1F1F1"/>
<path d="M583.565 411.13V397.841C583.565 397.841 588.763 407.262 583.565 411.13Z" fill="#F1F1F1"/>
<path d="M583.886 411.128L574.059 402.141C574.059 402.141 584.541 404.697 583.886 411.128Z" fill="#F1F1F1"/>
<path d="M618.879 420.724V404.199C618.879 404.199 625.344 415.915 618.879 420.724Z" fill="#F1F1F1"/>
<path d="M619.279 420.721L607.058 409.546C607.058 409.546 620.094 412.725 619.279 420.721Z" fill="#F1F1F1"/>
<path d="M723.927 418.703L723.8 419.143L685.314 408.224L656.322 414.591L619.244 420.9L619.193 420.886L601.632 415.977L597.193 414.737L583.633 410.945L572.324 413.456L569.017 414.189L561.828 415.786L561.729 415.34L569.024 413.72L572.317 412.99L583.647 410.474L583.702 410.488L597.202 414.262L601.623 415.498L619.267 420.432L656.233 414.143L685.328 407.754L685.385 407.768L723.927 418.703Z" fill="#CBCBCB"/>
<path d="M655.073 279.804L658.007 277.466C655.727 277.216 654.791 278.454 654.407 279.434C652.627 278.698 650.688 279.663 650.688 279.663L656.559 281.786C656.263 280.998 655.747 280.311 655.073 279.804Z" fill="#3F3D56"/>
<path d="M547.294 278.89L550.228 276.553C547.949 276.302 547.012 277.54 546.629 278.521C544.848 277.784 542.91 278.749 542.91 278.749L548.78 280.872C548.484 280.084 547.969 279.397 547.294 278.89Z" fill="#3F3D56"/>
<path d="M648.652 323.434L651.586 321.097C649.306 320.846 648.37 322.085 647.987 323.065C646.206 322.328 644.267 323.294 644.267 323.294L650.138 325.416C649.842 324.629 649.326 323.941 648.652 323.434Z" fill="#3F3D56"/>
<path d="M628.725 423.977L630.968 424.807L635.248 416.585L631.939 415.36L628.725 423.977Z" fill="#FFB7B7"/>
<path d="M628.425 423.035L632.841 424.67C633.588 424.946 634.194 425.507 634.525 426.228C634.857 426.949 634.887 427.772 634.61 428.515L634.576 428.606L627.346 425.93L628.425 423.035Z" fill="#2F2E41"/>
<path d="M650.794 426.296L653.186 426.296L654.324 417.104L650.793 417.105L650.794 426.296Z" fill="#FFB7B7"/>
<path d="M650.378 425.518L655.09 425.518C655.886 425.518 656.65 425.833 657.213 426.394C657.776 426.955 658.092 427.716 658.092 428.509V428.606L650.379 428.606L650.378 425.518Z" fill="#2F2E41"/>
<path d="M639.841 362.548L640.622 360.993L647.256 364.297L647.061 365.658L648.329 367.31C648.329 367.31 650.476 368.477 650.085 372.364L649.695 376.057L649.207 380.82L652.622 392.579L654.378 408.13L655.647 420.667L649.5 420.375L643.841 399.966L633.89 421.93L627.06 420.181L636.426 398.411L637.597 389.275C637.597 389.275 636.817 384.416 640.524 381.111L639.939 379.362V377.206L637.987 366.922L639.841 362.548Z" fill="#171054"/>
<path opacity="0.2" d="M639.659 384.773L639.438 384.835L643.731 399.997L643.952 399.935L639.659 384.773Z" fill="black"/>
<path d="M640.036 381.791H649.598V380.82H640.036V381.791Z" fill="#3F3D56"/>
<path d="M649.598 382.375C649.813 382.375 649.988 381.939 649.988 381.403C649.988 380.866 649.813 380.431 649.598 380.431C649.382 380.431 649.207 380.866 649.207 381.403C649.207 381.939 649.382 382.375 649.598 382.375Z" fill="#3F3D56"/>
<path d="M649.85 357.973C651.228 355.462 650.301 352.314 647.781 350.942C645.26 349.569 642.1 350.492 640.722 353.003C639.344 355.514 640.27 358.662 642.791 360.034C645.312 361.407 648.472 360.484 649.85 357.973Z" fill="#FFB7B7"/>
<path d="M637.327 353.638C639.868 353.638 641.928 351.586 641.928 349.055C641.928 346.523 639.868 344.471 637.327 344.471C634.785 344.471 632.725 346.523 632.725 349.055C632.725 351.586 634.785 353.638 637.327 353.638Z" fill="#2F2E41"/>
<path d="M631.487 348.564C631.306 349.171 631.253 349.809 631.331 350.438C631.41 351.067 631.619 351.673 631.944 352.217C632.27 352.761 632.705 353.233 633.222 353.601C633.74 353.969 634.329 354.227 634.951 354.357C635.574 354.488 636.216 354.488 636.839 354.358C637.462 354.229 638.051 353.972 638.569 353.604C639.087 353.236 639.522 352.766 639.849 352.222C640.175 351.678 640.384 351.072 640.463 350.443C640.134 351.546 639.4 352.485 638.407 353.074C637.415 353.662 636.237 353.858 635.106 353.621C633.976 353.384 632.977 352.733 632.306 351.796C631.636 350.859 631.343 349.705 631.487 348.564Z" fill="#2F2E41"/>
<path d="M649.666 354.049C649.801 355.234 649.54 356.43 648.923 357.452C648.306 358.474 647.369 359.265 646.255 359.703C645.141 360.14 643.914 360.199 642.763 359.871C641.612 359.543 640.602 358.846 639.889 357.888C639.177 356.93 638.801 355.764 638.82 354.572C638.84 353.38 639.254 352.227 639.998 351.293C640.741 350.359 641.774 349.695 642.935 349.405C644.096 349.114 645.32 349.213 646.419 349.686C647.328 348.956 648.455 349.183 649.37 349.953C650.406 350.824 650.714 351.423 651.517 352.855C650.727 352.966 650.456 353.939 649.666 354.049Z" fill="#2F2E41"/>
<path d="M630.547 369.631C630.605 371.166 630.72 374.189 630.72 374.343C630.72 374.506 633.02 379.25 634.014 381.292V381.293C634.085 381.437 634.148 381.567 634.204 381.682C634.281 381.84 634.402 381.974 634.553 382.066C634.703 382.158 634.877 382.205 635.054 382.202L639.396 382.124C639.635 382.12 639.863 382.024 640.032 381.857C640.202 381.689 640.3 381.463 640.306 381.225L640.79 362.194C640.792 362.131 640.781 362.068 640.758 362.01C640.735 361.952 640.7 361.898 640.656 361.853C640.612 361.808 640.56 361.773 640.502 361.748C640.443 361.724 640.381 361.711 640.318 361.711H634.718C634.481 361.711 634.249 361.778 634.049 361.903C633.849 362.028 633.688 362.207 633.585 362.419L630.897 367.959C630.645 368.479 630.525 369.053 630.547 369.631Z" fill="#6C63FF"/>
<path d="M640.381 379.919C641.496 379.247 642.497 378.404 643.348 377.421C645.327 375.205 646.531 372.408 646.778 369.452C646.999 366.923 646.495 365.042 645.281 363.864C643.737 362.365 641.636 362.583 641.547 362.593L641.453 362.604L640.029 363.804L640.432 364.278L641.706 363.204C642.096 363.185 643.688 363.181 644.85 364.314C645.921 365.356 646.36 367.067 646.157 369.398C645.921 372.213 644.778 374.876 642.899 376.99C642.088 377.925 641.137 378.729 640.08 379.375L640.381 379.919Z" fill="#6C63FF"/>
<path d="M632.3 372.689L632.258 372.892L639.846 374.444L639.888 374.241L632.3 372.689Z" fill="#3F3D56"/>
<path d="M637.301 361.707L636.809 373.734L637.016 373.742L637.509 361.715L637.301 361.707Z" fill="#3F3D56"/>
<path d="M630.547 369.631C630.605 371.166 630.72 374.189 630.72 374.343C630.72 374.506 633.02 379.25 634.014 381.292L632.162 370.578C632.09 370.166 631.91 369.78 631.639 369.46C631.369 369.14 631.018 368.898 630.623 368.757C630.56 369.044 630.535 369.338 630.547 369.631Z" fill="#3F3D56"/>
<path d="M641.927 392.083C641.763 391.873 641.647 391.629 641.588 391.369C641.529 391.109 641.527 390.84 641.584 390.579C641.641 390.319 641.754 390.074 641.916 389.862C642.078 389.65 642.285 389.476 642.522 389.352L642.145 385.204L644.62 384.361L645.069 390.226C645.252 390.637 645.277 391.099 645.14 391.527C645.003 391.954 644.713 392.316 644.326 392.545C643.938 392.774 643.48 392.853 643.038 392.768C642.596 392.683 642.2 392.439 641.927 392.083Z" fill="#FFB7B7"/>
<path d="M640.307 367.047C640.259 366.417 640.422 365.789 640.772 365.262C641.121 364.735 641.637 364.339 642.238 364.136C642.768 363.962 643.34 363.963 643.869 364.138C644.436 364.33 644.927 364.695 645.274 365.18C645.621 365.666 645.806 366.248 645.803 366.844L645.989 387.911L641.603 388.069L640.307 367.047Z" fill="#CBCBCB"/>
</g>
<g clip-path="url(#clip4_4_361)">
<path d="M98.8531 432.575C98.8531 432.74 98.9849 432.872 99.1491 432.872H280.541C280.705 432.872 280.837 432.74 280.837 432.575C280.837 432.41 280.705 432.277 280.541 432.277H99.1491C98.9849 432.277 98.8531 432.41 98.8531 432.575Z" fill="#192167"/>
<path d="M209.169 309.815L210.164 315.562L199.469 317.311L201.956 309.315L209.169 309.815Z" fill="#A0616A"/>
<path d="M236.447 313.615C238.601 314.585 239.118 318.13 237.598 321.531C237.011 322.898 236.104 324.105 234.957 325.049L232.786 330.871C231.36 337.812 228.12 345.121 223.653 344.554C217.332 343.752 215.34 336.036 215.34 336.036L223.847 332.692L227.645 325.339L228.938 322.338C228.876 320.849 229.169 319.367 229.796 318.018C231.313 314.615 234.29 312.646 236.447 313.615Z" fill="#A0616A"/>
<path d="M164.046 425.299L158.149 420.918L158.196 420.823L191.055 355.051L191.117 355.041L217.576 350.528L223.088 362.859L237.499 383.216C238.491 384.618 239.011 386.269 238.999 387.991L238.765 424.252L229.823 424.509L229.811 424.394L226.692 395.077C226.466 392.941 225.361 390.964 223.665 389.655L206.075 376.08L164.043 425.301L164.046 425.299Z" fill="#171054"/>
<path d="M159.052 421.381C159.052 421.381 156.067 421.88 155.072 423.629C154.077 425.379 151.092 429.127 151.092 429.127C151.092 429.127 148.854 433.374 154.077 432.875C159.3 432.375 161.29 430.126 161.29 430.126L163.529 423.879L159.052 421.381Z" fill="#2F2E41"/>
<path d="M234.415 421.381C234.415 421.381 237.399 421.88 238.394 423.629C239.389 425.379 242.374 429.127 242.374 429.127C242.374 429.127 244.612 433.374 239.389 432.875C234.166 432.375 232.176 430.126 232.176 430.126L229.938 423.879L234.415 421.381Z" fill="#2F2E41"/>
<path d="M194.495 317.061L212.154 313.563L222.103 316.811L219.367 354.041L191.137 355.166L194.495 317.061Z" fill="#6C63FF"/>
<path d="M220.332 315.979L224.177 321.816L225.07 336.206L213.646 337.078L213.955 318.433L220.332 315.979Z" fill="#6C63FF"/>
<path d="M230.903 329.984L226.282 328.14L220.404 339.077L225.772 341.765L230.903 329.984Z" fill="#A0616A"/>
<path d="M234.126 320.676C233.805 320.676 233.485 320.621 233.176 320.511C232.435 320.247 231.836 319.677 231.527 318.95L228.02 310.674C226.699 307.556 225.182 304.485 223.511 301.544L222.779 300.255C222.275 299.475 210.343 281.03 209.776 279.588C209.348 278.501 210.627 276.275 210.682 276.18L210.697 276.16C210.724 276.127 213.587 272.994 217.031 275.905C220.414 278.761 226.105 297.691 226.346 298.496L226.5 298.885C227.903 302.448 229.679 305.879 231.776 309.08L236.489 316.276C236.927 316.946 237.064 317.775 236.865 318.55C236.666 319.325 236.146 319.982 235.437 320.354C235.029 320.569 234.579 320.676 234.126 320.676Z" fill="#3F3D56"/>
<path d="M202.678 323.31L208.232 323.622L218.899 312.316L223.068 307.338C223.434 305.894 224.138 304.56 225.12 303.445C227.545 300.622 230.958 299.59 232.746 301.139C234.534 302.688 234.019 306.231 231.594 309.055C230.642 310.197 229.428 311.091 228.06 311.666L227.033 313.028L215.258 329.654C213.134 332.655 209.378 334.012 205.836 333.057L198.631 331.116L202.678 323.307V323.31Z" fill="#A0616A"/>
<path d="M199.561 334.452L190.993 328.922C188.269 327.165 187.222 323.722 188.503 320.736C189.281 318.922 190.809 317.563 192.694 317.008C194.577 316.451 196.596 316.763 198.228 317.868L206.642 323.557L199.561 334.452Z" fill="#6C63FF"/>
<path d="M203.702 311.928C208.551 311.928 212.482 307.979 212.482 303.108C212.482 298.237 208.551 294.288 203.702 294.288C198.853 294.288 194.922 298.237 194.922 303.108C194.922 307.979 198.853 311.928 203.702 311.928Z" fill="#A0616A"/>
<path d="M209.478 310.722L208.719 309.452C208.719 309.452 212.04 307.203 209.296 305.899C206.553 304.595 206.12 301.404 206.12 301.404C206.12 301.404 198.106 299.085 198.539 297.344C198.972 295.602 197.745 294.37 199.765 293.646C201.787 292.921 210.808 293.646 211.821 295.747C212.831 297.851 213.843 303.65 213.338 304.45C212.833 305.249 209.478 310.724 209.478 310.724V310.722Z" fill="#2F2E41"/>
<path d="M207.202 300.749L199.044 295.312C199.044 295.312 188.505 292.051 192.475 298.286L195.833 298.975C195.833 298.975 204.963 301.114 207.202 300.749Z" fill="#6C63FF"/>
<path d="M204.747 299.518L213.266 305.972C213.266 305.972 218.245 297.051 210.448 292.629C202.65 288.206 197.708 295.132 197.708 295.132L199.765 297.344L204.747 299.518Z" fill="#6C63FF"/>
<path d="M143.539 284.953C143.539 287.646 145.713 289.833 148.396 289.833C149.71 289.833 150.901 289.308 151.774 288.456C152.687 287.569 153.251 286.327 153.251 284.953C153.251 282.259 151.078 280.073 148.396 280.073C147.556 280.073 146.767 280.288 146.078 280.662C145.961 280.727 145.847 280.797 145.735 280.872C144.685 281.562 143.922 282.649 143.651 283.921C143.616 284.066 143.591 284.213 143.576 284.363C143.551 284.555 143.539 284.753 143.539 284.953Z" fill="#6C63FF"/>
<path d="M143.576 284.363C143.653 284.448 143.733 284.54 143.82 284.645C144.113 285 144.23 285.193 144.394 285.46C144.536 285.692 144.715 285.982 145.066 286.472C145.79 287.481 146.153 287.989 146.717 288.448C147.275 288.901 147.968 289.465 149.011 289.538C149.083 289.543 149.155 289.543 149.225 289.543C150.486 289.543 151.406 288.781 151.757 288.438C152.674 287.539 152.866 286.447 152.906 286.02C152.938 285.675 152.983 284.465 152.194 283.379C151.498 282.419 150.535 282.077 149.603 281.742C148.993 281.525 148.531 281.447 148.12 281.377C147.558 281.282 147.076 281.2 146.337 280.81C146.235 280.755 146.15 280.707 146.078 280.662C145.961 280.727 145.847 280.797 145.735 280.872C145.752 280.882 145.772 280.895 145.792 280.907C145.889 280.965 146.009 281.035 146.173 281.122C146.961 281.539 147.496 281.632 148.061 281.727C148.476 281.797 148.906 281.869 149.486 282.077C150.406 282.407 151.277 282.716 151.908 283.588C152.625 284.575 152.582 285.672 152.555 285.985C152.518 286.374 152.344 287.366 151.51 288.183C151.175 288.511 150.264 289.268 149.036 289.183C148.103 289.118 147.459 288.593 146.939 288.173C146.411 287.744 146.058 287.249 145.354 286.267C145.009 285.785 144.835 285.5 144.695 285.273C144.531 285.005 144.402 284.793 144.093 284.42C143.927 284.218 143.78 284.056 143.651 283.921C143.616 284.066 143.591 284.213 143.576 284.363Z" fill="#E6E6E6"/>
</g>
<g clip-path="url(#clip5_4_361)">
<path d="M360.557 391.978C360.439 391.978 360.343 391.882 360.343 391.764V331.399C360.343 316.209 372.689 303.85 387.865 303.85H434.334C434.453 303.85 434.548 303.946 434.548 304.065C434.548 304.183 434.453 310.063 434.334 310.063L387.865 304.279C372.925 304.279 360.771 316.445 360.771 331.399V391.764C360.771 391.882 360.675 391.978 360.557 391.978Z" fill="#3F3D56"/>
<path d="M434.497 288.235C434.615 288.235 434.711 288.33 434.711 288.449V348.814C434.711 364.004 422.365 376.363 407.189 376.363H360.719C360.601 376.363 360.505 376.267 360.505 376.148C360.505 376.03 360.601 375.934 360.719 375.934H407.189C422.129 375.934 434.283 363.768 434.283 348.814V288.449C434.283 288.33 434.379 288.235 434.497 288.235Z" fill="#3F3D56"/>
<path d="M412.944 345.495C412.944 344.569 413.312 343.664 414.003 342.989L423.751 333.484C424.006 332.515 424.492 331.609 425.158 330.862C425.963 329.935 426.951 329.263 427.94 328.969C428.947 328.67 429.836 328.797 430.445 329.326C431.686 330.406 431.334 332.854 429.66 334.781C429.015 335.545 428.187 336.153 427.265 336.54L418.416 345.671L423.287 353.06C424.231 354.161 424.44 355.685 423.825 357.027C423.231 358.323 421.99 359.13 420.585 359.134C419.082 359.137 417.752 358.237 417.195 356.84L413.194 346.797C413.025 346.373 412.944 345.932 412.944 345.495Z" fill="#FFB6B6"/>
<path d="M421.121 336.84C425.376 336.84 428.826 333.387 428.826 329.128C428.826 324.869 425.376 321.416 421.121 321.416C416.866 321.416 413.417 324.869 413.417 329.128C413.417 333.387 416.866 336.84 421.121 336.84Z" fill="#3F3D56"/>
<path d="M425.134 349.766L419.4 354.142L426.675 359.144L430.326 351.311L425.134 349.766Z" fill="#FFB6B6"/>
<path d="M428.262 353.531C431.615 353.531 434.333 350.81 434.333 347.454C434.333 344.098 431.615 341.378 428.262 341.378C424.909 341.378 422.191 344.098 422.191 347.454C422.191 350.81 424.909 353.531 428.262 353.531Z" fill="#FFB6B6"/>
<path d="M428.734 354.264C428.734 354.264 430.102 349.88 429.218 349.052C428.334 348.223 428.362 349.08 428.362 349.08L429.484 344.856C429.484 344.856 428.949 342.402 425.41 342.064C425.41 342.064 426.667 339.677 428.495 340.071C430.322 340.465 430.438 340.915 431.214 340.763C431.99 340.612 433.599 342.022 433.599 342.022C433.599 342.022 434.423 341.349 434.329 342.179C434.236 343.01 435.111 344.367 435.111 344.367C435.111 344.367 435.61 344.056 435.473 344.927C435.335 345.798 435.98 346.256 435.98 346.256C435.98 346.256 435.127 346.808 435.401 347.244C435.674 347.679 436.769 348.021 436.355 348.464C435.942 348.906 436.252 349.93 434.852 351.01C433.451 352.091 428.734 354.264 428.734 354.264Z" fill="#2F2E41"/>
<path d="M432.331 433.471L432.28 433.418L417.949 418.515C416.562 417.072 415.891 415.103 416.107 413.113L416.854 406.227L424.112 407.548L424.389 411.889L436.58 431.68L432.331 433.471Z" fill="#FFB6B6"/>
<path d="M434.072 444.22C433.841 444.22 433.613 444.161 433.404 444.046C432.9 443.765 432.621 443.193 432.711 442.622L433.209 439.465L430.637 433.886L431.315 431.849L435.199 431.633L436.494 430.337L437.944 430.589C438.811 430.74 439.533 431.28 439.925 432.069C440.316 432.858 440.309 433.759 439.905 434.542L435.301 443.471C435.128 443.807 434.835 444.051 434.474 444.16C434.341 444.201 434.206 444.22 434.072 444.22Z" fill="#2F2E41"/>
<path d="M426.793 391.786L424.011 409.352L410.528 415.778L408.388 398.641L426.793 391.786Z" fill="#171054"/>
<path d="M419.062 428.33L419.011 428.277L404.681 413.374C403.293 411.931 402.622 409.962 402.838 407.972L403.586 401.086L410.843 402.406L411.121 406.748L423.311 426.539L419.062 428.33Z" fill="#FFB6B6"/>
<path d="M420.804 439.079C420.572 439.079 420.344 439.02 420.136 438.905C419.631 438.624 419.353 438.052 419.442 437.481L419.941 434.323L417.368 428.745L418.047 426.707L421.931 426.492L423.225 425.196L424.675 425.448C425.542 425.599 426.264 426.138 426.656 426.927C427.047 427.717 427.041 428.618 426.637 429.401L422.033 438.33C421.86 438.665 421.566 438.91 421.205 439.019C421.073 439.059 420.938 439.079 420.804 439.079Z" fill="#2F2E41"/>
<path d="M411.456 385.902L409.95 390.002L403.187 401.058C402.989 401.383 402.957 401.772 403.1 402.124C403.243 402.477 403.536 402.734 403.904 402.828L418.83 406.659L425.74 396.947C427.711 394.176 428.73 390.784 428.615 387.386L411.456 385.902Z" fill="#171054"/>
<path d="M426.861 390.072H409.734L409.743 389.956L411.906 363.72C412.189 360.282 413.966 357.167 416.779 355.175L416.809 355.154L428.516 355.588L425.975 379.235L429.355 386.046C429.786 386.916 429.739 387.928 429.227 388.754C428.716 389.579 427.832 390.072 426.861 390.072Z" fill="#6C63FF"/>
<path d="M422.177 360.432C421.2 360.432 420.247 360.035 419.542 359.29L412.116 351.438C411.14 350.406 410.883 348.9 411.462 347.601L417.011 335.163C416.889 334.168 417.006 333.147 417.35 332.206C417.756 331.047 418.425 330.056 419.236 329.417C420.061 328.767 420.934 328.556 421.695 328.823C423.247 329.367 423.824 331.771 422.98 334.182C422.663 335.13 422.118 336.001 421.404 336.702L416.552 348.46L423.807 353.525C425.09 354.198 425.847 355.537 425.772 357.011C425.698 358.435 424.843 359.645 423.539 360.167C423.095 360.345 422.634 360.432 422.177 360.432Z" fill="#FFB6B6"/>
<path d="M368.533 337.222C370.408 339.47 371.136 342.443 371.637 345.328C371.819 346.383 371.979 347.441 372.116 348.503C372.628 352.466 372.8 356.602 371.417 360.35C371.067 361.299 370.712 362.578 371.548 363.148C372.212 363.6 373.183 363.13 373.544 362.413C373.906 361.695 373.834 360.844 373.753 360.045C372.874 360.99 373.148 362.741 374.275 363.372C375.402 364.003 377.036 363.32 377.38 362.074C377.56 363.403 378.862 364.479 380.2 364.404C381.537 364.328 382.71 363.112 382.739 361.771C382.045 362.508 382.388 363.844 383.249 364.376C384.11 364.909 385.257 364.759 386.14 364.264C387.023 363.77 387.699 362.983 388.355 362.212C387.49 362.747 387.287 364.102 387.958 364.867C388.629 365.633 389.997 365.608 390.64 364.819C391.169 364.168 391.167 363.219 390.908 362.421C390.65 361.622 390.174 360.915 389.816 360.157C388.175 356.682 389.141 352.562 390.497 348.966C391.852 345.371 393.601 341.755 393.455 337.915" fill="white"/>
<path d="M368.42 337.336C369.795 338.999 370.544 341.059 371.034 343.138C371.565 345.39 371.897 347.708 372.131 350.008C372.367 352.336 372.446 354.706 372.093 357.026C371.923 358.146 371.648 359.243 371.263 360.307C370.997 361.041 370.676 361.964 371.005 362.729C371.392 363.631 372.476 363.645 373.172 363.103C374.098 362.381 374.018 361.093 373.914 360.045C373.901 359.918 373.741 359.818 373.64 359.931C372.917 360.738 372.896 362.019 373.519 362.894C374.179 363.821 375.404 363.988 376.382 363.481C376.932 363.197 377.358 362.713 377.535 362.117H377.225C377.44 363.533 378.831 364.688 380.274 364.559C381.687 364.433 382.847 363.182 382.899 361.771C382.904 361.636 382.718 361.554 382.625 361.657C382.158 362.18 382.108 362.913 382.368 363.547C382.656 364.248 383.278 364.706 384.019 364.831C385.926 365.153 387.351 363.638 388.469 362.326C388.58 362.195 388.437 361.968 388.274 362.074C387.56 362.538 387.244 363.463 387.469 364.279C387.705 365.138 388.542 365.643 389.411 365.582C390.387 365.514 391.081 364.797 391.212 363.839C391.371 362.677 390.777 361.643 390.251 360.658C387.749 355.973 389.956 350.804 391.715 346.283C392.756 343.608 393.714 340.825 393.615 337.915C393.608 337.709 393.287 337.708 393.294 337.915C393.459 342.748 390.752 346.979 389.489 351.496C388.89 353.64 388.555 355.927 388.988 358.135C389.204 359.233 389.244 360.388 389.769 361.367C390.265 362.292 391.197 363.24 390.766 364.295C390.364 365.275 389.021 365.59 388.215 364.896C387.445 364.235 387.61 362.888 388.436 362.351L388.242 362.099C387.266 363.243 386.484 363.094 384.847 363.081C384.142 363.076 383.096 364.242 382.75 363.607C382.457 363.069 382.426 362.362 382.852 361.885L382.578 361.771C382.532 363.025 381.465 364.167 380.2 364.243C378.91 364.32 377.725 363.29 377.535 362.032C377.51 361.866 377.267 361.892 377.225 362.032C376.884 363.181 375.381 363.832 374.328 363.217C373.3 362.617 373.081 361.035 373.867 360.158L373.593 360.045C373.689 361.011 373.812 362.284 372.893 362.912C372.545 363.15 372.074 363.268 371.688 363.047C371.312 362.831 371.788 362.204 371.792 361.796C371.803 360.876 371.669 360.2 371.92 359.332C372.22 358.295 372.413 357.229 372.526 356.156C372.756 353.966 372.647 351.754 372.405 349.57C372.165 347.402 371.851 345.221 371.354 343.096C370.85 340.945 370.068 338.829 368.647 337.108C368.515 336.949 368.289 337.177 368.42 337.336Z" fill="#3F3D56"/>
<path d="M380.995 339.963C374.459 339.963 367.512 338.874 367.512 336.857C367.512 334.839 374.459 333.751 380.995 333.751C387.531 333.751 394.477 334.839 394.477 336.857C394.477 338.874 387.531 339.963 380.995 339.963ZM380.995 334.179C373.302 334.179 367.94 335.59 367.94 336.857C367.94 338.123 373.302 339.535 380.995 339.535C388.688 339.535 394.049 338.123 394.049 336.857C394.049 335.59 388.688 334.179 380.995 334.179Z" fill="#3F3D56"/>
<path d="M366.031 342.972C365.964 342.972 365.896 342.969 365.829 342.961L361.672 342.481C360.793 342.38 360.115 341.636 360.094 340.751L359.96 335.21C359.948 334.701 360.154 334.21 360.526 333.863C360.898 333.515 361.402 333.344 361.908 333.39L368.145 333.971C368.849 334.037 369.448 334.513 369.672 335.184L370.674 338.193C370.905 338.889 370.681 339.67 370.115 340.135L367.167 342.565C366.847 342.829 366.442 342.972 366.031 342.972Z" fill="#3F3D56"/>
</g>
<defs>
<clipPath id="clip0_4_361">
<rect width="204.59" height="175.201" fill="white" transform="translate(561.159 33.9099)"/>
</clipPath>
<clipPath id="clip1_4_361">
<rect width="189.896" height="171.81" fill="white" transform="translate(11.8175 20.346)"/>
</clipPath>
<clipPath id="clip2_4_361">
<rect width="288.235" height="186.505" fill="white" transform="translate(223.19 65.5592)"/>
</clipPath>
<clipPath id="clip3_4_361">
<rect width="186.505" height="180.853" fill="white" transform="translate(537.422 252.064)"/>
</clipPath>
<clipPath id="clip4_4_361">
<rect width="181.983" height="158.246" fill="white" transform="translate(98.8531 274.671)"/>
</clipPath>
<clipPath id="clip5_4_361">
<rect width="80.2536" height="155.986" fill="white" transform="translate(359.96 288.235)"/>
</clipPath>
</defs>
</svg>
