<svg width="698" height="422" viewBox="0 0 698 422" fill="none" xmlns="http://www.w3.org/2000/svg">
<rect width="698" height="422" fill="#0D0740"/>
<g clip-path="url(#clip0_4_361)">
<path d="M499.976 171.93L499.584 171.842C503.956 152.568 514.944 135.065 530.523 122.558C542.301 113.116 556.309 106.802 571.229 104.209C586.148 101.616 601.488 102.83 615.803 107.736C630.119 112.643 642.94 121.08 653.058 132.254C663.176 143.428 670.259 156.97 673.64 171.607L673.248 171.695C663.993 131.412 628.378 103.277 586.639 103.277C545.447 103.277 509 132.15 499.976 171.93Z" fill="#3F3D56"/>
<path d="M586.5 185C636.482 185 677 180.029 677 173.897C677 167.765 636.482 162.794 586.5 162.794C536.518 162.794 496 167.765 496 173.897C496 180.029 536.518 185 586.5 185Z" fill="#2D2880"/>
<path d="M607.781 163.637C607.781 163.828 607.767 164.019 607.739 164.208C607.68 164.624 607.553 165.027 607.364 165.403C607.161 165.808 606.889 166.175 606.562 166.489C606.525 166.525 606.486 166.561 606.447 166.595C605.807 167.166 604.997 167.516 604.14 167.592C604.02 167.603 603.897 167.609 603.774 167.609C602.804 167.609 601.866 167.261 601.135 166.627C600.405 165.994 599.931 165.119 599.802 164.166C599.779 163.99 599.767 163.814 599.767 163.637C599.767 163.413 599.786 163.19 599.824 162.969C599.895 162.551 600.034 162.147 600.235 161.774C600.327 161.6 600.433 161.435 600.551 161.278C600.923 160.777 601.408 160.37 601.968 160.09C602.528 159.81 603.147 159.664 603.774 159.665C603.911 159.665 604.047 159.671 604.183 159.685C604.599 159.727 605.006 159.833 605.389 160.001C605.743 160.156 606.072 160.36 606.367 160.609C606.445 160.674 606.519 160.742 606.592 160.814C606.891 161.105 607.14 161.442 607.333 161.811C607.531 162.187 607.665 162.592 607.731 163.011C607.764 163.218 607.781 163.427 607.781 163.637Z" fill="#F2F2F2"/>
<path d="M605.379 161.801L605.372 162.998L606.58 163.004L606.587 161.807L605.379 161.801Z" fill="#CCCCCC"/>
<path d="M607.781 163.637C607.781 163.828 607.767 164.019 607.739 164.208L606.574 164.202L606.58 163.004L607.731 163.011C607.764 163.218 607.781 163.427 607.781 163.637Z" fill="#CCCCCC"/>
<path d="M607.364 165.403C607.161 165.808 606.89 166.175 606.562 166.489L606.567 165.399L607.364 165.403Z" fill="#CCCCCC"/>
<path d="M601.765 160.2L601.762 160.584L601.214 160.581C601.387 160.439 601.571 160.311 601.765 160.2Z" fill="#CCCCCC"/>
<path d="M604.183 159.685L604.178 160.597L602.97 160.591L602.974 159.744C603.237 159.691 603.505 159.665 603.774 159.665C603.911 159.665 604.047 159.671 604.183 159.685Z" fill="#CCCCCC"/>
<path d="M606.367 160.609L605.386 160.603L605.389 160.001C605.743 160.156 606.072 160.36 606.367 160.609Z" fill="#CCCCCC"/>
<path d="M600.551 161.278L600.548 161.775L600.235 161.774C600.327 161.6 600.433 161.435 600.551 161.278Z" fill="#CCCCCC"/>
<path d="M601.762 160.584L601.756 161.781L602.964 161.788L602.97 160.591L601.762 160.584Z" fill="#CCCCCC"/>
<path d="M604.178 160.597L604.171 161.794L605.379 161.801L605.385 160.604L604.178 160.597Z" fill="#CCCCCC"/>
<path d="M607.333 161.811L606.587 161.807L606.592 160.814C606.891 161.105 607.14 161.442 607.333 161.811Z" fill="#CCCCCC"/>
<path d="M600.548 161.775L600.542 162.972L601.749 162.979L601.756 161.781L600.548 161.775Z" fill="#CCCCCC"/>
<path d="M602.965 161.788L602.958 162.985L604.166 162.991L604.172 161.794L602.965 161.788Z" fill="#CCCCCC"/>
<path d="M601.749 162.979L601.743 164.176L602.951 164.182L602.957 162.985L601.749 162.979Z" fill="#CCCCCC"/>
<path d="M604.166 162.991L604.159 164.189L605.367 164.195L605.374 162.998L604.166 162.991Z" fill="#CCCCCC"/>
<path d="M600.542 162.973L600.535 164.169L599.802 164.166C599.779 163.99 599.767 163.814 599.767 163.637C599.767 163.413 599.786 163.19 599.824 162.969L600.542 162.973Z" fill="#CCCCCC"/>
<path d="M600.535 164.17L600.529 165.367L601.736 165.373L601.743 164.176L600.535 164.17Z" fill="#CCCCCC"/>
<path d="M602.951 164.182L602.944 165.38L604.152 165.386L604.158 164.189L602.951 164.182Z" fill="#CCCCCC"/>
<path d="M605.366 164.195L605.359 165.392L606.567 165.399L606.574 164.202L605.366 164.195Z" fill="#CCCCCC"/>
<path d="M600.529 165.367L600.526 165.962C600.388 165.774 600.267 165.574 600.165 165.365L600.529 165.367Z" fill="#CCCCCC"/>
<path d="M601.736 165.373L601.73 166.57L602.938 166.577L602.944 165.38L601.736 165.373Z" fill="#CCCCCC"/>
<path d="M604.153 165.386L604.146 166.583L605.354 166.59L605.361 165.392L604.153 165.386Z" fill="#CCCCCC"/>
<path d="M601.73 166.57L601.727 167.052C601.492 166.913 601.271 166.75 601.069 166.567L601.73 166.57Z" fill="#CCCCCC"/>
<path d="M604.145 166.583L604.14 167.592C604.02 167.603 603.897 167.609 603.774 167.609C603.491 167.609 603.209 167.58 602.933 167.521L602.938 166.577L604.145 166.583Z" fill="#CCCCCC"/>
<path d="M606.447 166.595C606.122 166.885 605.751 167.12 605.349 167.29L605.353 166.589L606.447 166.595Z" fill="#CCCCCC"/>
<path d="M643.911 112.078L648.739 130.692C648.739 130.692 648.918 143.81 649.991 148.951C651.064 154.092 654.641 166.501 654.641 166.501L658.933 167.21L658.038 149.838C658.038 149.838 658.038 139.378 657.144 137.074C656.25 134.769 654.462 111.192 654.462 111.192L643.911 112.078Z" fill="#A0616A"/>
<path opacity="0.1" d="M643.911 112.078L648.739 130.692C648.739 130.692 648.918 143.81 649.991 148.951C651.064 154.092 654.641 166.501 654.641 166.501L658.933 167.21L658.038 149.838C658.038 149.838 658.038 139.378 657.144 137.074C656.25 134.769 654.462 111.192 654.462 111.192L643.911 112.078Z" fill="black"/>
<path d="M657.298 34.0603C651.337 34.0603 646.504 39.3764 646.504 45.9342V54.2659H649.089L650.586 51.179L650.212 54.2659H666.827L668.187 51.4596L667.847 54.2659H669.718V47.724C669.718 40.1778 664.157 34.0603 657.298 34.0603Z" fill="#2F2E41"/>
<path d="M639.351 109.153C639.351 109.153 637.205 118.194 640.066 119.08C642.927 119.967 642.212 109.153 642.212 109.153H639.351Z" fill="#A0616A"/>
<path d="M642.928 63.239L641.497 64.8345L641.855 95.503L638.636 110.039L645.789 110.749L649.365 81.4982L648.292 66.6071L642.928 63.239Z" fill="#3F3D56"/>
<path opacity="0.1" d="M642.928 63.239L641.497 64.8345L641.855 95.503L638.636 110.039L645.789 110.749L649.365 81.4982L648.292 66.6071L642.928 63.239Z" fill="#6C63FF"/>
<path d="M656.343 53.1017C660.586 53.1017 664.026 49.6915 664.026 45.4849C664.026 41.2782 660.586 37.868 656.343 37.868C652.099 37.868 648.659 41.2782 648.659 45.4849C648.659 49.6915 652.099 53.1017 656.343 53.1017Z" fill="#A0616A"/>
<path d="M651.937 50.055C651.937 50.055 654.191 61.6326 653.167 62.8513C652.142 64.07 664.026 60.617 664.026 60.617C664.026 60.617 660.133 52.6955 662.182 48.2269L651.937 50.055Z" fill="#A0616A"/>
<path d="M671.361 100.821C671.361 100.821 673.507 109.862 670.646 110.749C667.785 111.635 668.5 100.821 668.5 100.821H671.361Z" fill="#A0616A"/>
<path d="M654.82 109.951C654.82 109.951 651.779 128.033 651.958 130.692C652.137 133.351 651.958 133.706 651.958 133.706C651.958 133.706 648.918 141.506 648.024 145.938C647.13 150.369 645.163 156.042 645.163 156.042C645.163 156.042 642.838 161.183 644.805 161.183C646.772 161.183 649.455 160.474 649.455 160.474C649.448 158.426 650.141 156.437 651.422 154.83C653.568 152.142 660.006 139.556 660.006 137.96C660.006 136.365 661.079 131.756 661.079 131.756L665.192 112.078L654.82 109.951Z" fill="#A0616A"/>
<path d="M642.302 97.8961C642.302 97.8961 639.261 113.142 641.944 113.496C644.626 113.851 648.382 111.192 653.21 114.205C658.038 117.219 666.086 116.51 666.086 116.51C666.086 116.51 671.629 102.505 666.622 99.1371C661.615 95.7688 642.302 97.8961 642.302 97.8961Z" fill="#171054"/>
<path d="M645.699 159.056C646.486 158.716 647.351 158.594 648.203 158.701C649.018 158.821 649.848 158.631 650.528 158.169C650.528 158.169 649.097 163.31 649.276 165.26C649.455 167.21 648.739 175.542 644.984 174.656C641.229 173.77 640.156 171.11 641.586 166.501C643.017 161.892 642.659 156.574 642.659 156.574C642.659 156.574 645.269 153.902 645.752 154.263C646.236 154.624 645.699 159.056 645.699 159.056Z" fill="#2F2E41"/>
<path d="M657.681 165.615C657.681 165.615 655.893 161.715 653.747 165.26C651.601 168.806 651.422 169.692 651.422 169.692C651.422 169.692 645.342 175.188 649.634 175.72C653.925 176.251 657.323 175.542 657.323 174.656C657.323 173.77 659.469 173.947 659.648 173.238C659.827 172.529 659.29 165.97 659.29 165.97L657.681 165.615Z" fill="#2F2E41"/>
<path d="M661.704 55.9707C661.704 55.9707 654.194 57.3889 653.3 57.2116C653.098 57.1764 652.894 57.155 652.69 57.1476C650.941 57.0688 649.207 57.4951 647.698 58.3747C645.208 59.8087 641.497 62.3607 641.497 64.8344C641.497 68.5572 646.325 74.9391 646.325 74.9391C646.325 74.9391 641.854 90.1847 642.212 91.6029C642.57 93.0211 639.53 97.8075 641.497 99.403C643.464 100.998 662.241 99.403 665.639 100.998C669.036 102.594 667.427 79.7255 667.427 79.7255C667.427 79.7255 676.547 58.9844 671.898 57.0344C670.393 56.4034 669.095 55.9209 668.026 55.5568C666.998 55.2058 665.909 55.0617 664.823 55.1327C663.738 55.2038 662.678 55.4887 661.704 55.9707Z" fill="#2D2880"/>
<path d="M668.679 57.2116L672.782 57.8839C672.782 57.8839 674.58 59.6935 674.58 60.5799C674.58 61.4662 674.222 99.7575 673.686 100.998C673.15 102.239 667.248 101.708 667.248 101.708L668.321 79.9028L668.679 57.2116Z" fill="#3F3D56"/>
<path d="M660.366 37.3312C659.282 35.9479 657.684 35.0718 655.9 35.0718H655.688C651.602 35.0718 648.29 38.7367 648.29 43.2575L649.659 43.2575L649.88 41.5893L650.204 43.2575H658.324L659.004 41.8462L658.834 43.2575H660.431C661.176 46.927 660.105 50.5965 657.218 54.2659H659.939L661.3 51.4433L660.96 54.2659H666.146L667.167 47.7738C667.167 42.9118 664.317 38.7889 660.366 37.3312Z" fill="#2F2E41"/>
<path d="M661.857 38.0148C664.09 38.0148 665.9 36.2206 665.9 34.0074C665.9 31.7942 664.09 30 661.857 30C659.625 30 657.815 31.7942 657.815 34.0074C657.815 36.2206 659.625 38.0148 661.857 38.0148Z" fill="#2F2E41"/>
<path opacity="0.2" d="M558.275 173.897C564.089 173.897 568.803 172.406 568.803 170.566C568.803 168.726 564.089 167.235 558.275 167.235C552.46 167.235 547.746 168.726 547.746 170.566C547.746 172.406 552.46 173.897 558.275 173.897Z" fill="black"/>
<path d="M560.152 91.3221H556.625V170.986H560.152V91.3221Z" fill="#3F3D56"/>
<path d="M610.276 61.9851L610.276 61.958L607.313 61.9422L604.349 61.9265L601.386 61.9107L598.423 61.8949L595.46 61.8791L592.496 61.8633L589.533 61.8475L586.57 61.8317L583.607 61.8159L580.643 61.8001L577.68 61.7843L574.716 61.856C573.719 61.9284 572.73 62.0775 571.756 62.3021C571.754 62.3026 571.753 62.3026 571.751 62.3032C571.742 62.3049 571.734 62.3072 571.725 62.3095C571.534 62.3537 571.344 62.4009 571.155 62.451C571.142 62.4539 571.129 62.4573 571.117 62.4614C570.478 62.6315 569.849 62.8347 569.231 63.07C569.081 63.1274 568.931 63.1865 568.782 63.2474C567.893 63.6113 567.032 64.0411 566.208 64.5332C566.138 64.5746 566.069 64.6165 566 64.6596L565.811 64.7773C564.745 65.4474 563.748 66.2194 562.835 67.0821C562.663 67.2439 562.494 67.4091 562.328 67.5776C561.445 68.4738 560.653 69.4535 559.963 70.5026L559.837 73.4395L562.8 73.4553L562.816 70.5178L565.779 70.5336L565.763 73.4711L568.727 73.4869L568.743 70.5494L571.706 70.5652L571.69 73.5027L574.653 73.5185L574.669 70.581L577.632 70.5968L577.616 73.5342L580.58 73.55L580.596 70.6126L583.559 70.6283L583.543 73.5658L586.506 73.5816L586.522 70.6441L589.485 70.6599L589.469 73.5974L592.433 73.6132L592.449 70.6757L595.412 70.6915L595.396 73.629L598.359 73.6448L598.375 70.7073L601.338 70.7231L601.322 73.6606L604.286 73.6764L604.302 70.7389L607.265 70.7547L607.249 73.6922L610.212 73.708L610.228 70.7705L611.769 70.7787L611.785 67.8412L611.801 64.9037L611.817 61.9933L610.276 61.9851Z" fill="#3F3D56"/>
<path d="M558.381 73.4317C557.972 74.3808 557.641 75.3615 557.392 76.364L559.821 76.3769L559.837 73.4395L558.381 73.4317Z" fill="#3F3D56"/>
<path d="M562.8 73.4553L562.784 76.3927L565.748 76.4085L565.764 73.4711L562.8 73.4553Z" fill="#3F3D56"/>
<path d="M568.727 73.4868L568.711 76.4243L571.674 76.4401L571.69 73.5026L568.727 73.4868Z" fill="#3F3D56"/>
<path d="M574.653 73.5184L574.637 76.4559L577.601 76.4717L577.616 73.5342L574.653 73.5184Z" fill="#3F3D56"/>
<path d="M580.58 73.55L580.564 76.4875L583.527 76.5033L583.543 73.5658L580.58 73.55Z" fill="#3F3D56"/>
<path d="M586.506 73.5816L586.49 76.5191L589.453 76.5349L589.469 73.5974L586.506 73.5816Z" fill="#3F3D56"/>
<path d="M592.433 73.6132L592.417 76.5507L595.38 76.5665L595.396 73.629L592.433 73.6132Z" fill="#3F3D56"/>
<path d="M598.359 73.6448L598.343 76.5823L601.306 76.5981L601.322 73.6606L598.359 73.6448Z" fill="#3F3D56"/>
<path d="M604.286 73.6764L604.27 76.6139L607.233 76.6297L607.249 73.6922L604.286 73.6764Z" fill="#3F3D56"/>
<path d="M611.664 76.6533C611.715 76.0989 611.743 75.5378 611.746 74.9699L611.753 73.7162L610.212 73.708L610.196 76.6455L611.664 76.6533Z" fill="#3F3D56"/>
<path d="M559.821 76.3769L559.805 79.3144L562.768 79.3302L562.784 76.3927L559.821 76.3769Z" fill="#3F3D56"/>
<path d="M565.748 76.4085L565.732 79.346L568.695 79.3618L568.711 76.4243L565.748 76.4085Z" fill="#3F3D56"/>
<path d="M571.674 76.4401L571.658 79.3776L574.621 79.3934L574.637 76.4559L571.674 76.4401Z" fill="#3F3D56"/>
<path d="M577.601 76.4717L577.585 79.4092L580.548 79.425L580.564 76.4875L577.601 76.4717Z" fill="#3F3D56"/>
<path d="M583.527 76.5033L583.511 79.4408L586.474 79.4566L586.49 76.5191L583.527 76.5033Z" fill="#3F3D56"/>
<path d="M589.453 76.5349L589.438 79.4724L592.401 79.4882L592.417 76.5507L589.453 76.5349Z" fill="#3F3D56"/>
<path d="M595.38 76.5665L595.364 79.504L598.327 79.5198L598.343 76.5823L595.38 76.5665Z" fill="#3F3D56"/>
<path d="M601.306 76.5981L601.29 79.5356L604.254 79.5513L604.27 76.6139L601.306 76.5981Z" fill="#3F3D56"/>
<path d="M607.233 76.6297L607.217 79.5672L610.18 79.5829L610.196 76.6455L607.233 76.6297Z" fill="#3F3D56"/>
<path d="M556.842 79.2986L556.826 82.2361L559.789 82.2519L559.805 79.3144L556.842 79.2986Z" fill="#3F3D56"/>
<path d="M562.768 79.3302L562.752 82.2677L565.716 82.2835L565.732 79.346L562.768 79.3302Z" fill="#3F3D56"/>
<path d="M568.695 79.3618L568.679 82.2993L571.642 82.3151L571.658 79.3776L568.695 79.3618Z" fill="#3F3D56"/>
<path d="M574.621 79.3934L574.605 82.3309L577.569 82.3467L577.585 79.4092L574.621 79.3934Z" fill="#3F3D56"/>
<path d="M580.548 79.425L580.532 82.3625L583.495 82.3783L583.511 79.4408L580.548 79.425Z" fill="#3F3D56"/>
<path d="M586.474 79.4566L586.458 82.3941L589.422 82.4099L589.438 79.4724L586.474 79.4566Z" fill="#3F3D56"/>
<path d="M592.401 79.4882L592.385 82.4257L595.348 82.4415L595.364 79.504L592.401 79.4882Z" fill="#3F3D56"/>
<path d="M598.327 79.5198L598.311 82.4572L601.275 82.473L601.29 79.5356L598.327 79.5198Z" fill="#3F3D56"/>
<path d="M604.254 79.5514L604.238 82.4888L607.201 82.5046L607.217 79.5672L604.254 79.5514Z" fill="#3F3D56"/>
<path d="M611.155 79.5881L610.18 79.5829L610.165 82.4693C610.572 81.5367 610.903 80.5732 611.155 79.5881Z" fill="#3F3D56"/>
<path d="M559.789 82.2519L559.773 85.1894L562.737 85.2052L562.752 82.2677L559.789 82.2519Z" fill="#3F3D56"/>
<path d="M565.716 82.2835L565.7 85.221L568.663 85.2368L568.679 82.2993L565.716 82.2835Z" fill="#3F3D56"/>
<path d="M571.642 82.3151L571.626 85.2526L574.589 85.2684L574.605 82.3309L571.642 82.3151Z" fill="#3F3D56"/>
<path d="M577.569 82.3467L577.553 85.2842L580.516 85.3L580.532 82.3625L577.569 82.3467Z" fill="#3F3D56"/>
<path d="M583.495 82.3783L583.479 85.3158L586.442 85.3316L586.458 82.3941L583.495 82.3783Z" fill="#3F3D56"/>
<path d="M589.422 82.4099L589.406 85.3474L592.369 85.3631L592.385 82.4257L589.422 82.4099Z" fill="#3F3D56"/>
<path d="M595.348 82.4415L595.332 85.3789L598.295 85.3947L598.311 82.4572L595.348 82.4415Z" fill="#3F3D56"/>
<path d="M601.275 82.4731L601.259 85.4105L604.222 85.4263L604.238 82.4888L601.275 82.4731Z" fill="#3F3D56"/>
<path d="M608.532 85.4493C609.154 84.5215 609.693 83.5414 610.142 82.5203L607.201 82.5046L607.185 85.4421L608.532 85.4493Z" fill="#3F3D56"/>
<path d="M556.81 85.1736L556.794 88.1111L559.757 88.1269L559.773 85.1894L556.81 85.1736Z" fill="#3F3D56"/>
<path d="M562.737 85.2052L562.721 88.1427L565.684 88.1585L565.7 85.221L562.737 85.2052Z" fill="#3F3D56"/>
<path d="M568.663 85.2368L568.647 88.1743L571.61 88.1901L571.626 85.2526L568.663 85.2368Z" fill="#3F3D56"/>
<path d="M574.589 85.2684L574.574 88.2059L577.537 88.2217L577.553 85.2842L574.589 85.2684Z" fill="#3F3D56"/>
<path d="M580.516 85.3L580.5 88.2374L583.463 88.2532L583.479 85.3158L580.516 85.3Z" fill="#3F3D56"/>
<path d="M586.442 85.3316L586.426 88.269L589.39 88.2848L589.406 85.3474L586.442 85.3316Z" fill="#3F3D56"/>
<path d="M592.37 85.3628L592.354 88.3003L595.317 88.3161L595.333 85.3786L592.37 85.3628Z" fill="#3F3D56"/>
<path d="M598.295 85.3947L598.279 88.3322L601.243 88.348L601.259 85.4105L598.295 85.3947Z" fill="#3F3D56"/>
<path d="M604.206 88.3639L606.123 88.374L607.175 87.238L607.185 85.4421L604.222 85.4263L604.206 88.3639Z" fill="#3F3D56"/>
<path d="M559.757 88.1269L559.742 90.8881L556.779 90.8724L556.778 91.0485L556.763 93.8098L556.763 93.8298L559.726 93.8457V93.8255L559.741 91.0644L562.705 91.0801L562.721 88.1426L559.757 88.1269Z" fill="#3F3D56"/>
<path d="M565.684 88.1585L565.668 91.096L568.631 91.1117L568.647 88.1743L565.684 88.1585Z" fill="#3F3D56"/>
<path d="M571.61 88.1901L571.594 91.1275L574.558 91.1433L574.574 88.2058L571.61 88.1901Z" fill="#3F3D56"/>
<path d="M577.537 88.2216L577.521 91.1591L580.484 91.1749L580.5 88.2374L577.537 88.2216Z" fill="#3F3D56"/>
<path d="M583.463 88.2532L583.447 91.1907L586.411 91.2065L586.426 88.269L583.463 88.2532Z" fill="#3F3D56"/>
<path d="M589.39 88.2848L589.374 91.2223L592.337 91.2381L592.353 88.3006L589.39 88.2848Z" fill="#3F3D56"/>
<path d="M595.317 88.316L595.301 91.2535L598.264 91.2694L598.28 88.3319L595.317 88.316Z" fill="#3F3D56"/>
<path d="M601.227 91.2855L602.368 91.2916C603.001 90.9146 603.612 90.5018 604.197 90.0552L604.206 88.3638L601.243 88.348L601.227 91.2855Z" fill="#3F3D56"/>
<path d="M562.705 91.0802L562.69 93.8614L565.653 93.8772L565.668 91.096L562.705 91.0802Z" fill="#3F3D56"/>
<path d="M568.631 91.1117L568.616 93.893L571.579 93.9088L571.594 91.1275L568.631 91.1117Z" fill="#3F3D56"/>
<path d="M574.558 91.1433L574.543 93.9245L577.506 93.9403L577.521 91.1591L574.558 91.1433Z" fill="#3F3D56"/>
<path d="M580.484 91.1749L580.469 93.9561L583.432 93.9719L583.447 91.1907L580.484 91.1749Z" fill="#3F3D56"/>
<path d="M586.411 91.2065L586.395 93.9877L589.359 94.0035L589.374 91.2223L586.411 91.2065Z" fill="#3F3D56"/>
<path d="M592.322 94.0193C593.002 94.023 593.682 93.9915 594.358 93.925L595.286 93.8113L595.3 91.2539L592.337 91.2381L592.322 94.0193Z" fill="#3F3D56"/>
<path d="M598.253 93.1327C599.276 92.8126 600.269 92.4079 601.223 91.9229L601.227 91.2855L598.264 91.2697L598.253 93.1327Z" fill="#3F3D56"/>
<path d="M568.679 82.2993L568.663 85.2368L571.626 85.2526L571.642 82.3151L568.679 82.2993Z" fill="#6C63FF"/>
<path d="M586.49 76.5191L586.474 79.4566L589.438 79.4724L589.453 76.5349L586.49 76.5191Z" fill="#6C63FF"/>
<path d="M557.392 76.364C557.153 77.3284 556.99 78.3096 556.905 79.299L559.805 79.3144L559.821 76.3769L557.392 76.364Z" fill="#6C63FF"/>
<path d="M595.286 93.8113C596.292 93.6635 597.284 93.4366 598.253 93.1327L598.264 91.2697L595.3 91.2539L595.286 93.8113Z" fill="#6C63FF"/>
<path d="M589.438 79.4724L589.422 82.4099L592.385 82.4257L592.401 79.4882L589.438 79.4724Z" fill="#6C63FF"/>
<path d="M589.406 85.3473L589.39 88.2848L592.353 88.3006L592.369 85.3631L589.406 85.3473Z" fill="#6C63FF"/>
<path d="M604.302 70.7389L604.286 73.6764L607.249 73.6922L607.265 70.7547L604.302 70.7389Z" fill="#6C63FF"/>
<path d="M610.228 70.7705L610.212 73.708L611.753 73.7162L611.769 70.7787L610.228 70.7705Z" fill="#6C63FF"/>
<path d="M601.322 73.6606L601.306 76.5981L604.27 76.6139L604.286 73.6764L601.322 73.6606Z" fill="#6C63FF"/>
<path d="M607.249 73.6922L607.233 76.6297L610.196 76.6455L610.212 73.708L607.249 73.6922Z" fill="#6C63FF"/>
<path d="M604.27 76.6139L604.254 79.5514L607.217 79.5672L607.233 76.6297L604.27 76.6139Z" fill="#6C63FF"/>
<path d="M611.155 79.5881C611.401 78.6245 611.571 77.6432 611.664 76.6533L610.196 76.6455L610.18 79.5829L611.155 79.5881Z" fill="#6C63FF"/>
<path d="M601.291 79.5356L601.275 82.4731L604.238 82.4888L604.254 79.5514L601.291 79.5356Z" fill="#6C63FF"/>
<path d="M607.217 79.5672L607.201 82.5046L610.164 82.5204L610.18 79.583L607.217 79.5672Z" fill="#6C63FF"/>
<path d="M604.238 82.4888L604.222 85.4263L607.185 85.4421L607.201 82.5046L604.238 82.4888Z" fill="#6C63FF"/>
<path d="M601.259 85.4105L601.243 88.348L604.206 88.3638L604.222 85.4263L601.259 85.4105Z" fill="#6C63FF"/>
<path d="M608.532 85.4493L607.185 85.4421L607.175 87.2381C607.662 86.6685 608.115 86.0712 608.532 85.4493Z" fill="#6C63FF"/>
<path d="M598.28 88.3318L598.264 91.2693L601.227 91.2851L601.243 88.3476L598.28 88.3318Z" fill="#6C63FF"/>
<path d="M604.429 89.8749C605.023 89.4078 605.589 88.9066 606.123 88.374L604.206 88.3638L604.197 90.0552C604.275 89.9957 604.353 89.9356 604.429 89.8749Z" fill="#6C63FF"/>
<path d="M568.743 70.5494L568.727 73.4868L571.69 73.5026L571.706 70.5652L568.743 70.5494Z" fill="#6C63FF"/>
<path d="M574.669 70.5809L574.653 73.5184L577.616 73.5342L577.632 70.5967L574.669 70.5809Z" fill="#6C63FF"/>
<path d="M580.596 70.6125L580.58 73.55L583.543 73.5658L583.559 70.6283L580.596 70.6125Z" fill="#6C63FF"/>
<path d="M586.522 70.6441L586.506 73.5816L589.469 73.5974L589.485 70.6599L586.522 70.6441Z" fill="#6C63FF"/>
<path d="M592.449 70.6757L592.433 73.6132L595.396 73.629L595.412 70.6915L592.449 70.6757Z" fill="#6C63FF"/>
<path d="M598.375 70.7073L598.359 73.6448L601.322 73.6606L601.338 70.7231L598.375 70.7073Z" fill="#6C63FF"/>
<path d="M571.69 73.5026L571.674 76.4401L574.637 76.4559L574.653 73.5184L571.69 73.5026Z" fill="#6C63FF"/>
<path d="M577.616 73.5342L577.601 76.4717L580.564 76.4875L580.58 73.55L577.616 73.5342Z" fill="#6C63FF"/>
<path d="M583.543 73.5658L583.527 76.5033L586.49 76.5191L586.506 73.5816L583.543 73.5658Z" fill="#6C63FF"/>
<path d="M589.469 73.5974L589.453 76.5349L592.417 76.5507L592.433 73.6132L589.469 73.5974Z" fill="#6C63FF"/>
<path d="M595.396 73.629L595.38 76.5665L598.343 76.5823L598.359 73.6448L595.396 73.629Z" fill="#6C63FF"/>
<path d="M562.784 76.3927L562.768 79.3302L565.732 79.346L565.748 76.4085L562.784 76.3927Z" fill="#6C63FF"/>
<path d="M574.637 76.4559L574.621 79.3934L577.585 79.4092L577.601 76.4717L574.637 76.4559Z" fill="#6C63FF"/>
<path d="M580.564 76.4875L580.548 79.425L583.511 79.4408L583.527 76.5033L580.564 76.4875Z" fill="#6C63FF"/>
<path d="M592.417 76.5507L592.401 79.4882L595.364 79.504L595.38 76.5665L592.417 76.5507Z" fill="#6C63FF"/>
<path d="M598.343 76.5823L598.327 79.5198L601.29 79.5356L601.306 76.5981L598.343 76.5823Z" fill="#6C63FF"/>
<path d="M559.805 79.3144L559.789 82.2519L562.752 82.2677L562.768 79.3302L559.805 79.3144Z" fill="#6C63FF"/>
<path d="M565.732 79.346L565.716 82.2835L568.679 82.2993L568.695 79.3618L565.732 79.346Z" fill="#6C63FF"/>
<path d="M577.585 79.4092L577.569 82.3467L580.532 82.3625L580.548 79.425L577.585 79.4092Z" fill="#6C63FF"/>
<path d="M583.511 79.4408L583.495 82.3783L586.458 82.3941L586.474 79.4566L583.511 79.4408Z" fill="#6C63FF"/>
<path d="M595.364 79.504L595.348 82.4415L598.311 82.4572L598.327 79.5198L595.364 79.504Z" fill="#6C63FF"/>
<path d="M556.826 82.2361L556.81 85.1736L559.773 85.1894L559.789 82.2519L556.826 82.2361Z" fill="#6C63FF"/>
<path d="M562.752 82.2677L562.737 85.2052L565.7 85.221L565.716 82.2835L562.752 82.2677Z" fill="#6C63FF"/>
<path d="M558.381 73.4317L559.837 73.4394L559.971 70.5026C559.366 71.4369 558.835 72.4162 558.381 73.4317Z" fill="#6C63FF"/>
<path d="M562.816 70.5178L562.8 73.4553L565.764 73.4711L565.779 70.5336L562.816 70.5178Z" fill="#6C63FF"/>
<path d="M559.837 73.4395L559.821 76.377L562.784 76.3927L562.8 73.4553L559.837 73.4395Z" fill="#6C63FF"/>
<path d="M565.763 73.4711L565.748 76.4085L568.711 76.4243L568.727 73.4868L565.763 73.4711Z" fill="#6C63FF"/>
<path d="M568.711 76.4243L568.695 79.3618L571.658 79.3776L571.674 76.4401L568.711 76.4243Z" fill="#6C63FF"/>
<path d="M571.658 79.3776L571.642 82.3151L574.605 82.3309L574.621 79.3934L571.658 79.3776Z" fill="#6C63FF"/>
<path d="M574.605 82.3309L574.589 85.2684L577.553 85.2842L577.569 82.3467L574.605 82.3309Z" fill="#6C63FF"/>
<path d="M580.532 82.3625L580.516 85.3L583.479 85.3158L583.495 82.3783L580.532 82.3625Z" fill="#6C63FF"/>
<path d="M586.458 82.3941L586.442 85.3316L589.406 85.3474L589.422 82.4099L586.458 82.3941Z" fill="#6C63FF"/>
<path d="M592.385 82.4257L592.369 85.3631L595.332 85.3789L595.348 82.4415L592.385 82.4257Z" fill="#6C63FF"/>
<path d="M598.311 82.4573L598.295 85.3947L601.259 85.4105L601.275 82.4731L598.311 82.4573Z" fill="#6C63FF"/>
<path d="M559.773 85.1894L559.757 88.1269L562.721 88.1427L562.737 85.2052L559.773 85.1894Z" fill="#6C63FF"/>
<path d="M565.7 85.221L565.684 88.1585L568.647 88.1743L568.663 85.2368L565.7 85.221Z" fill="#6C63FF"/>
<path d="M571.626 85.2526L571.61 88.1901L574.574 88.2059L574.589 85.2684L571.626 85.2526Z" fill="#6C63FF"/>
<path d="M577.553 85.2842L577.537 88.2217L580.5 88.2375L580.516 85.3L577.553 85.2842Z" fill="#6C63FF"/>
<path d="M583.479 85.3158L583.463 88.2533L586.426 88.269L586.442 85.3316L583.479 85.3158Z" fill="#6C63FF"/>
<path d="M595.332 85.3789L595.316 88.3164L598.279 88.3322L598.295 85.3947L595.332 85.3789Z" fill="#6C63FF"/>
<path d="M556.794 88.1111L556.778 91.0486L559.741 91.0644L559.757 88.1269L556.794 88.1111Z" fill="#6C63FF"/>
<path d="M562.721 88.1427L562.705 91.0802L565.668 91.096L565.684 88.1585L562.721 88.1427Z" fill="#6C63FF"/>
<path d="M568.647 88.1743L568.631 91.1118L571.594 91.1276L571.61 88.1901L568.647 88.1743Z" fill="#6C63FF"/>
<path d="M574.574 88.2059L574.558 91.1433L577.521 91.1591L577.537 88.2217L574.574 88.2059Z" fill="#6C63FF"/>
<path d="M580.5 88.2375L580.484 91.1749L583.447 91.1907L583.463 88.2533L580.5 88.2375Z" fill="#6C63FF"/>
<path d="M586.426 88.269L586.411 91.2065L589.374 91.2223L589.39 88.2848L586.426 88.269Z" fill="#6C63FF"/>
<path d="M592.353 88.3006L592.337 91.2381L595.3 91.2539L595.316 88.3164L592.353 88.3006Z" fill="#6C63FF"/>
<path d="M559.741 91.0644L559.726 93.8456L562.69 93.8614L562.705 91.0802L559.741 91.0644Z" fill="#6C63FF"/>
<path d="M565.668 91.096L565.653 93.8772L568.616 93.893L568.631 91.1118L565.668 91.096Z" fill="#6C63FF"/>
<path d="M571.594 91.1275L571.579 93.9088L574.543 93.9245L574.558 91.1433L571.594 91.1275Z" fill="#6C63FF"/>
<path d="M577.521 91.1591L577.506 93.9403L580.469 93.9561L580.484 91.1749L577.521 91.1591Z" fill="#6C63FF"/>
<path d="M583.447 91.1907L583.432 93.9719L586.395 93.9877L586.411 91.2065L583.447 91.1907Z" fill="#6C63FF"/>
<path d="M589.374 91.2223L589.359 94.0035L592.322 94.0193L592.337 91.2381L589.374 91.2223Z" fill="#6C63FF"/>
<path d="M602.368 91.2916L601.227 91.2855L601.223 91.9229C601.613 91.7253 601.995 91.5148 602.368 91.2916Z" fill="#6C63FF"/>
<path d="M640.695 117.13L640.278 116.967L625.691 153.556C624.999 152.107 622.538 148.405 615.38 148.146C615.024 148.135 614.677 148.262 614.413 148.5C614.15 148.738 613.99 149.068 613.967 149.42L613.843 151.267C613.775 152.271 614.099 153.263 614.748 154.036C615.397 154.81 616.322 155.307 617.33 155.423C620.259 155.759 624.122 155.819 625.859 154.195L625.91 154.215L640.695 117.13Z" fill="#6C63FF"/>
</g>
<g clip-path="url(#clip1_4_361)">
<path d="M169.763 159.136V159.303C169.763 159.346 169.763 159.392 169.76 159.436C169.718 161.71 168.929 163.906 167.515 165.681C167.444 165.774 167.369 165.864 167.292 165.953C167.177 166.09 167.059 166.222 166.937 166.351C166.926 166.362 166.916 166.374 166.903 166.385L166.898 166.39C166.884 166.404 166.87 166.42 166.856 166.434C166.642 166.657 166.417 166.87 166.182 167.074C166.135 167.115 166.086 167.157 166.035 167.197C164.215 168.718 161.927 169.558 159.561 169.576C159.544 169.578 159.524 169.578 159.507 169.578H159.446C159.428 169.578 159.411 169.578 159.394 169.576C159.333 169.576 159.273 169.574 159.212 169.572C156.846 169.516 154.571 168.636 152.776 167.083C152.728 167.043 152.679 167 152.632 166.957C152.445 166.792 152.266 166.618 152.093 166.439C152.079 166.425 152.065 166.409 152.051 166.395L152.046 166.39C152.034 166.379 152.023 166.367 152.013 166.357C151.866 166.202 151.725 166.043 151.589 165.879C151.514 165.79 151.441 165.699 151.369 165.606C149.992 163.844 149.225 161.677 149.185 159.436C149.181 159.394 149.181 159.35 149.181 159.306V159.143C149.181 159.124 149.181 159.104 149.183 159.085C149.208 156.839 149.961 154.663 151.329 152.889C151.401 152.796 151.474 152.705 151.549 152.615C151.687 152.447 151.831 152.284 151.98 152.124C151.99 152.112 152.001 152.101 152.013 152.089C152.013 152.087 152.014 152.085 152.016 152.084C152.03 152.07 152.044 152.054 152.06 152.04C152.253 151.838 152.455 151.644 152.665 151.457C152.712 151.413 152.761 151.371 152.81 151.331C154.645 149.758 156.972 148.887 159.383 148.87C159.401 148.868 159.42 148.868 159.437 148.868H159.551C161.906 148.883 164.184 149.713 166.002 151.219C166.051 151.261 166.1 151.301 166.148 151.343C166.403 151.561 166.647 151.792 166.879 152.034C166.893 152.048 166.907 152.064 166.921 152.078L166.924 152.082C166.937 152.092 166.949 152.106 166.959 152.117C167.088 152.254 167.212 152.396 167.332 152.54C167.409 152.629 167.482 152.719 167.556 152.812C168.961 154.599 169.736 156.806 169.761 159.085C169.763 159.102 169.763 159.119 169.763 159.136Z" fill="#6C63FF"/>
<path d="M159.561 148.91H159.212V169.611H159.561V148.91Z" fill="white"/>
<path d="M169.763 159.085H149.099V159.436H169.763V159.085Z" fill="white"/>
<path d="M155.024 159.085C154.997 157.807 154.667 156.553 154.063 155.428C153.459 154.303 152.597 153.339 151.549 152.615C151.474 152.705 151.401 152.796 151.329 152.889C152.337 153.579 153.166 154.502 153.748 155.579C154.331 156.657 154.649 157.859 154.677 159.085C154.679 159.143 154.679 159.201 154.679 159.26C154.679 159.32 154.679 159.378 154.677 159.436C154.649 160.654 154.334 161.848 153.759 162.92C153.185 163.993 152.366 164.913 151.369 165.606C151.441 165.699 151.514 165.79 151.589 165.879C152.626 165.154 153.477 164.192 154.074 163.072C154.671 161.952 154.997 160.706 155.024 159.436C155.028 159.378 155.028 159.318 155.028 159.26C155.028 159.203 155.028 159.143 155.024 159.085Z" fill="white"/>
<path d="M164.096 159.436C164.094 159.378 164.094 159.32 164.094 159.26C164.094 159.201 164.094 159.143 164.096 159.085C164.125 157.836 164.455 156.612 165.057 155.519C165.66 154.427 166.517 153.497 167.556 152.812C167.482 152.719 167.409 152.629 167.332 152.54C166.255 153.259 165.366 154.23 164.742 155.37C164.118 156.509 163.777 157.784 163.749 159.085C163.746 159.143 163.746 159.203 163.746 159.26C163.746 159.318 163.746 159.378 163.749 159.436C163.777 160.728 164.113 161.995 164.73 163.13C165.347 164.264 166.226 165.232 167.292 165.953C167.369 165.864 167.444 165.774 167.515 165.681C166.488 164.994 165.641 164.067 165.046 162.98C164.451 161.893 164.125 160.677 164.096 159.436Z" fill="white"/>
<path d="M178 169.513H10V169.906H178V169.513Z" fill="#2F2E41"/>
<path d="M168.364 90.9515C168.398 109.663 161.262 127.667 148.44 141.22C148.353 141.313 148.264 141.406 148.175 141.499C141.408 148.597 133.286 154.245 124.295 158.104C115.305 161.964 105.632 163.955 95.8567 163.959C86.082 163.963 76.4073 161.979 67.4138 158.126C58.4202 154.273 50.2934 148.632 43.5215 141.54C43.4325 141.447 43.3435 141.354 43.2563 141.261C30.4805 127.739 23.337 109.808 23.2936 91.151C23.2501 72.4944 30.3101 54.5296 43.0228 40.9476C43.1082 40.8528 43.1971 40.7598 43.286 40.6668C50.0579 33.5079 58.2044 27.8075 67.2316 23.9112C76.2587 20.0149 85.9783 18.0039 95.8011 18.0001C105.624 17.9963 115.345 19.9998 124.375 23.8891C133.405 27.7785 141.556 33.4726 148.333 40.6262C148.422 40.7192 148.511 40.8121 148.597 40.9068C161.309 54.4284 168.384 72.3394 168.364 90.9515Z" fill="#2D2880"/>
<path d="M168.364 90.8041H23.2934V91.1549H168.364V90.8041Z" fill="white"/>
<path d="M96.0033 18.0001H95.6545V163.959H96.0033V18.0001Z" fill="white"/>
<path d="M64.1029 66.9261C60.9933 59.5271 56.4855 52.8059 50.8297 47.1355C48.4903 44.7806 45.9677 42.6174 43.286 40.6668C43.1971 40.7598 43.1082 40.8528 43.0228 40.9476C58.5158 52.1973 68.6203 70.5154 68.6281 91.1654C68.636 111.728 58.6309 129.987 43.2563 141.261C43.3435 141.354 43.4325 141.447 43.5214 141.54C46.1283 139.624 48.583 137.508 50.8633 135.209C59.5652 126.44 65.4723 115.261 67.8305 103.098C70.1886 90.9362 68.8909 78.3428 64.1029 66.9261Z" fill="#818CCA"/>
<path d="M123.03 91.1444C123.022 70.4944 133.112 52.1685 148.597 40.9068C148.511 40.8121 148.422 40.7192 148.333 40.6262C140.411 46.3952 133.959 53.969 129.505 62.7281C125.05 71.4873 122.72 81.183 122.705 91.0221C122.689 100.861 124.989 110.564 129.416 119.338C133.843 128.111 140.271 135.705 148.175 141.499C148.264 141.406 148.353 141.313 148.44 141.22C133.058 129.958 123.038 111.707 123.03 91.1444Z" fill="#383759"/>
<path d="M78.1686 141.578L77.6854 151.3L82.7586 152.272L84.208 143.036L78.1686 141.578Z" fill="#9D616A"/>
<path d="M103.293 144.738L104.501 152.758H109.091L108.125 144.251L103.293 144.738Z" fill="#9D616A"/>
<path d="M79.1349 122.862L78.1686 134.043L77.2022 143.522C77.2022 143.522 80.826 142.064 84.2081 144.251C84.2081 144.251 86.3823 143.765 85.8992 134.286L88.0734 124.32L79.1349 122.862Z" fill="#EFEFEF"/>
<path d="M98.703 126.508C98.703 126.508 100.152 135.258 100.877 135.987C100.877 135.987 102.074 143.812 102.655 145.79C102.69 145.931 102.742 146.068 102.81 146.196C103.293 146.925 108.608 148.626 108.849 145.71C109.091 142.793 109.816 137.932 107.4 134.286L105.95 125.05L98.703 126.508Z" fill="#EFEFEF"/>
<path d="M113.319 125.414C113.077 128.088 99.7901 127.602 97.3743 127.602C96.6108 127.602 95.6301 127.483 95.142 126.156C94.3061 123.888 93.8471 120.575 93.6925 119.279C93.6297 120.48 93.0789 123.387 91.7019 125.249C90.8636 126.386 89.477 126.16 87.9526 125.9C85.4208 125.468 80.3887 123.893 79.0141 124.199C76.8399 124.685 74.2235 124.734 74.1825 124.199C74.1637 123.907 74.1653 123.614 74.1873 123.322C74.5062 118.295 79.1349 104.669 79.1349 103.66C79.1349 102.445 81.3091 97.3409 81.3091 97.3409L103.535 94.6672C103.535 94.6672 112.338 118.56 113.548 124.442C113.652 124.95 113.338 125.203 113.319 125.414Z" fill="#171054"/>
<path d="M83.4834 151.057L77.2023 149.842L77.8062 159.929L82.7586 163.453C82.7586 163.453 82.2755 153.731 83.4834 151.057Z" fill="#EFEFEF"/>
<path d="M109.091 150.328C109.091 150.328 105.95 152.272 103.293 150.328L105.467 159.321L109.091 158.835C109.091 158.835 110.782 153.488 109.091 150.328Z" fill="#EFEFEF"/>
<path d="M109.816 157.863C109.816 157.863 104.742 158.106 104.742 158.592V166.613C104.742 167.342 105.709 168.314 105.467 168.8C105.226 169.286 106.917 170.502 110.782 169.773C114.647 169.043 113.198 166.613 113.198 166.613C113.198 166.613 109.333 159.807 109.816 157.863Z" fill="#2F2E41"/>
<path d="M77.0815 157.984C77.0815 157.984 82.8794 158.106 82.8794 158.592V166.613C82.8794 167.342 81.9131 168.314 82.1547 168.8C82.3962 169.286 80.7052 170.502 76.8399 169.773C72.9746 169.043 74.4241 166.613 74.4241 166.613C74.4241 166.613 77.5646 159.929 77.0815 157.984Z" fill="#2F2E41"/>
<path d="M113.681 125.536C113.439 128.209 99.4277 128.453 97.0119 128.453C96.2485 128.453 95.6301 127.483 95.142 126.156C97.7343 125.638 108.883 123.526 113.548 124.442C113.637 124.8 113.682 125.167 113.681 125.536Z" fill="#6C63FF"/>
<path d="M91.7019 125.249C90.8636 126.386 89.7186 127.133 88.1942 126.873C85.6624 126.44 80.3887 125.351 79.0141 125.657C76.8399 126.143 74.2235 124.734 74.1825 124.199C74.1637 123.907 74.1653 123.614 74.1873 123.321C79.2725 123.183 88.2788 123.244 91.7019 125.249Z" fill="#6C63FF"/>
<path d="M82.2754 65.257C82.2754 65.257 77.927 63.7987 74.0617 68.1738L73.337 69.6321C73.337 69.6321 67.7806 71.3335 66.0895 72.5489C66.0895 72.5489 61.0163 71.3336 54.7352 72.5489L48.4541 71.0905C48.4541 71.0905 36.375 62.5834 35.1671 67.9307C33.9592 73.278 46.5214 75.2225 46.5214 75.2225L56.9094 78.1392C56.9094 78.1392 64.8816 80.0837 68.0222 78.6253C68.0222 78.6253 76.9607 78.1392 78.6517 74.7364L82.2754 76.4378V65.257Z" fill="#9D616A"/>
<path d="M97.2535 64.0417C97.2535 64.0417 106.192 63.0695 109.574 67.6876L116.58 69.6321C116.58 69.6321 124.311 68.1738 127.21 68.9029L133.491 67.2015C133.491 67.2015 139.53 57.4791 142.912 60.1528C146.294 62.8264 134.94 71.3335 134.94 71.3335L119.721 76.4378C119.721 76.4378 107.883 77.41 105.467 73.0349L102.81 79.1114L92.6634 76.6808L97.2535 64.0417Z" fill="#9D616A"/>
<path d="M88.7981 62.8264C92.4005 62.8264 95.3208 59.8883 95.3208 56.2638C95.3208 52.6394 92.4005 49.7012 88.7981 49.7012C85.1958 49.7012 82.2755 52.6394 82.2755 56.2638C82.2755 59.8883 85.1958 62.8264 88.7981 62.8264Z" fill="#9D616A"/>
<path d="M85.416 60.1528V65.5001L87.8318 74.0072L95.0793 65.5001C95.0793 65.5001 93.1466 59.6667 93.1466 58.6944C93.1466 57.7222 85.416 60.1528 85.416 60.1528Z" fill="#9D616A"/>
<path d="M104.622 95.2749C104.622 95.2749 104.503 96.1523 103.404 96.2325C101.203 96.3954 97.4974 96.7721 95.0792 97.5839C91.4555 98.7992 80.5844 98.7992 80.5844 98.7992L79.879 76.7829L80.222 75.101C79.9804 73.1565 81.9131 65.3786 81.9131 65.3786L83.3239 64.331L84.6454 64.0442L85.0536 64.4063C85.0536 67.6439 88.1942 70.7259 88.1942 70.7259C92.7842 68.5383 94.7169 63.6772 94.7169 63.6772L96.077 63.4754L97.4999 63.6358L98.7875 63.7817L98.3406 64.1633L98.099 64.6494C98.1111 64.6202 98.0845 64.6786 98.099 64.6494C94.5816 72.1575 98.8286 75.5531 101.481 77.0454C102.58 77.6677 102.689 78.2607 102.689 78.2607C102.689 78.2607 103.682 77.9618 103.655 78.9899C103.576 82.3174 102.974 89.8304 103.897 91.8721C105.105 94.5457 104.622 95.2749 104.622 95.2749Z" fill="#EFEFEF"/>
<path d="M81.9131 51.8272C82.0694 51.2879 82.2533 50.7571 82.4639 50.2369C82.7393 49.6007 82.4639 47.6922 82.7393 47.6922H83.8409L85.2179 46.4199L86.0441 47.0561L87.1457 46.4199L88.5227 47.0561L89.8997 46.4199L92.103 48.0103L92.6538 47.6922L93.2046 48.6465H93.48L94.5816 50.2369H95.1324V51.8272H95.6832V55.9622L94.9585 58.816L94.7169 57.4157C94.7169 57.3966 94.7107 57.378 94.6993 57.3627C94.688 57.3474 94.672 57.3362 94.6538 57.3309C94.6355 57.3255 94.6161 57.3262 94.5983 57.3329C94.5805 57.3395 94.5653 57.3518 94.5551 57.3679L94.0308 58.1888L93.6944 56.8938C93.2102 54.9543 92.0735 53.2433 90.4775 52.0516C88.4394 50.5637 85.4933 49.8552 82.4639 54.0538L81.9131 51.8272Z" fill="#2F2E41"/>
<path d="M83.3239 64.331C82.8649 67.1383 81.4783 74.9016 79.879 76.7829L79.8597 76.1947C79.6181 74.2502 81.3091 64.7709 81.3091 64.7709L83.3239 64.331Z" fill="#6C63FF"/>
<path d="M96.077 63.4754C94.8642 65.7796 91.3903 71.7273 88.0734 71.3335C84.8725 70.9544 84.6067 66.1466 84.6454 64.0442L85.416 63.8765C85.416 67.114 88.315 69.8752 88.315 69.8752C92.905 67.6876 94.3665 63.2834 94.3665 63.2834L96.077 63.4754Z" fill="#6C63FF"/>
<path d="M104.018 77.41C104.018 77.41 103.991 78.0614 103.965 79.0895C103.292 79.0531 102.626 78.9489 101.974 78.7784C94.5115 76.7975 96.6931 66.6012 97.4999 63.6358L98.7875 63.7817H98.7899C98.8261 63.8157 98.8648 63.8521 98.9035 63.8886C95.3861 71.3967 99.3987 75.0475 102.051 76.5398C102.674 76.8995 103.333 77.1912 104.018 77.41Z" fill="#6C63FF"/>
<path d="M105.226 96.1256C105.226 96.1256 104.503 96.1523 103.404 96.2325C102.853 94.1971 102.412 92.1329 102.085 90.0491C101.766 87.8032 101.868 82.2785 101.974 78.7785C102.003 77.8621 102.03 77.0819 102.051 76.5399C102.674 76.8995 103.333 77.1912 104.018 77.41C104.018 77.41 103.991 78.0614 103.965 79.0895C103.885 82.417 103.82 89.7088 104.743 91.7505C105.95 94.4242 105.226 96.1256 105.226 96.1256Z" fill="#6C63FF"/>
<path d="M82.6378 79.4572C82.6378 79.4572 90.3684 75.7359 97.8574 79.4572Z" fill="#6C63FF"/>
<path d="M81.0079 98.8739C81.0079 98.8739 83.2747 98.6985 88.8543 99.2248C94.434 99.7511 103.675 96.2424 103.675 96.2424" fill="#CACACA"/>
<path d="M50.4979 59.6663V59.833C50.4979 59.8769 50.4979 59.9225 50.4944 59.9663C50.4525 62.2404 49.6634 64.4364 48.2503 66.2117C48.1788 66.3047 48.1038 66.3941 48.0271 66.4836C47.912 66.6204 47.7935 66.752 47.6714 66.8818C47.661 66.8924 47.6505 66.9046 47.6383 66.9152L47.6331 66.9204C47.6191 66.9345 47.6051 66.9503 47.5912 66.9643C47.3767 67.1871 47.1518 67.4005 46.9164 67.6046C46.8693 67.645 46.8205 67.6871 46.7699 67.7274C44.9495 69.2484 42.6621 70.0889 40.2958 70.1063C40.2784 70.108 40.2592 70.108 40.2417 70.108H40.1807C40.1633 70.108 40.1459 70.108 40.1284 70.1063C40.0674 70.1063 40.0081 70.1045 39.9471 70.1028C37.5803 70.0464 35.3061 69.1667 33.5113 67.6134C33.4625 67.573 33.4137 67.5309 33.3666 67.4871C33.18 67.3222 33.0004 67.1485 32.8278 66.9696C32.8139 66.9555 32.7999 66.9397 32.7859 66.9257L32.7807 66.9204C32.7685 66.9099 32.758 66.8976 32.7476 66.8871C32.6011 66.7327 32.4599 66.5731 32.3239 66.4099C32.2489 66.3205 32.1757 66.2292 32.1042 66.1363C30.727 64.3742 29.9598 62.2076 29.9194 59.9663C29.9159 59.9242 29.9159 59.8804 29.9159 59.8365V59.6734C29.9159 59.6541 29.9159 59.6348 29.9176 59.6155C29.9423 57.3698 30.6961 55.1939 32.0641 53.4192C32.1355 53.3263 32.2088 53.235 32.2838 53.1456C32.4215 52.9771 32.5662 52.814 32.7144 52.6544C32.7249 52.6421 32.7354 52.6315 32.7476 52.6193C32.7476 52.6175 32.7493 52.6158 32.751 52.614C32.765 52.6 32.7789 52.5842 32.7946 52.5701C32.9882 52.3684 33.1899 52.1743 33.3997 51.9877C33.4468 51.9439 33.4956 51.9018 33.5444 51.8614C35.3797 50.2886 37.7072 49.4171 40.118 49.4001C40.1354 49.3983 40.1546 49.3983 40.172 49.3983H40.2853C42.6403 49.4132 44.9185 50.2433 46.7368 51.7491C46.7856 51.7912 46.8345 51.8316 46.8833 51.8737C47.1379 52.0912 47.382 52.3228 47.6139 52.5649C47.6278 52.5789 47.6418 52.5947 47.6557 52.6087L47.6592 52.6122C47.6714 52.6228 47.6836 52.6368 47.6941 52.6473C47.8231 52.7842 47.9469 52.9263 48.0672 53.0701C48.144 53.1596 48.2172 53.2491 48.2904 53.342C49.6955 55.1299 50.4713 57.3363 50.4961 59.6155C50.4976 59.6324 50.4981 59.6494 50.4979 59.6663Z" fill="#6C63FF"/>
<path d="M40.2958 49.4404H39.9471V70.1413H40.2958V49.4404Z" fill="white"/>
<path d="M50.4978 59.6155H29.8339V59.9663H50.4978V59.6155Z" fill="white"/>
<path d="M35.7588 59.6155C35.7315 58.337 35.402 57.0834 34.7977 55.9583C34.1935 54.8333 33.3317 53.8691 32.2838 53.1456C32.2088 53.235 32.1355 53.3262 32.0641 53.4192C33.0716 54.1098 33.9009 55.0321 34.4832 56.1098C35.0654 57.1874 35.3838 58.3892 35.4118 59.6155C35.4136 59.6734 35.4136 59.7312 35.4136 59.7909C35.4136 59.8505 35.4136 59.9084 35.4118 59.9663C35.3836 61.1844 35.0691 62.3785 34.4942 63.4508C33.9193 64.5232 33.1003 65.4434 32.1041 66.1362C32.1756 66.2292 32.2489 66.3204 32.3238 66.4099C33.3606 65.6842 34.2121 64.7222 34.8091 63.6024C35.406 62.4826 35.7314 61.2367 35.7588 59.9663C35.7623 59.9084 35.7623 59.8488 35.7623 59.7909C35.7623 59.733 35.7623 59.6734 35.7588 59.6155Z" fill="white"/>
<path d="M44.831 59.9663C44.8293 59.9084 44.8293 59.8505 44.8293 59.7909C44.8293 59.7312 44.8293 59.6733 44.831 59.6155C44.8598 58.3661 45.1897 57.1425 45.7922 56.0498C46.3948 54.957 47.2521 54.0278 48.2904 53.342C48.2171 53.2491 48.1439 53.1596 48.0672 53.0701C46.9894 53.7893 46.1005 54.7602 45.4766 55.9C44.8526 57.0398 44.5121 58.3145 44.484 59.6155C44.4805 59.6733 44.4805 59.733 44.4805 59.7909C44.4805 59.8488 44.4805 59.9084 44.484 59.9663C44.5119 61.2589 44.8483 62.5258 45.4649 63.6601C46.0816 64.7943 46.9604 65.7628 48.0271 66.4836C48.1038 66.3941 48.1788 66.3047 48.2503 66.2117C47.2231 65.5242 46.3759 64.5975 45.7806 63.5102C45.1853 62.423 44.8596 61.2073 44.831 59.9663Z" fill="white"/>
</g>
<g clip-path="url(#clip2_4_361)">
<path d="M392.363 214.287L405.639 194.602L392.39 216.404L392.418 218.619C391.449 218.627 390.489 218.61 389.539 218.571L390.197 190.099L390.179 189.879L390.203 189.837L390.266 187.146L375.728 166.1L390.249 185.133L390.301 185.701L390.798 164.189L378.241 142.369L390.834 160.41L390.702 115.843L390.703 115.695L390.707 115.841L391.541 150.966L402.985 136.698L391.578 153.992L391.828 173.233L402.359 154.454L391.867 176.062L392.006 186.762L407.321 160.602L392.052 190.494L392.363 214.287Z" fill="#E6E6E6"/>
<path d="M437.042 214.907L450.318 195.222L437.069 217.024L437.097 219.239C436.128 219.247 435.168 219.231 434.218 219.191L434.876 190.719L434.858 190.499L434.882 190.457L434.945 187.766L420.407 166.72L434.928 185.753L434.98 186.321L435.477 164.809L422.92 142.989L435.513 161.03L435.381 116.463L435.382 116.315L435.386 116.461L436.219 151.586L447.664 137.318L436.257 154.612L436.507 173.853L447.038 155.074L436.545 176.682L436.684 187.382L452 161.222L436.731 191.114L437.042 214.907Z" fill="#E6E6E6"/>
<path d="M302.734 58H223.29V165.141H302.734V58Z" fill="#2D2880"/>
<path d="M299.935 61.7755H226.09V161.366H299.935V61.7755Z" fill="#8589DE"/>
<path d="M290.229 79.2433H236.033C235.594 79.2427 235.173 79.0685 234.863 78.7588C234.552 78.4491 234.378 78.0292 234.378 77.5915C234.378 77.1539 234.552 76.734 234.863 76.4243C235.173 76.1146 235.594 75.9404 236.033 75.9398H290.229C290.446 75.9395 290.662 75.982 290.863 76.0649C291.064 76.1478 291.247 76.2694 291.401 76.4228C291.555 76.5762 291.678 76.7584 291.761 76.9589C291.844 77.1595 291.887 77.3745 291.887 77.5915C291.887 77.8086 291.844 78.0236 291.761 78.2242C291.678 78.4247 291.555 78.6069 291.401 78.7603C291.247 78.9137 291.064 79.0353 290.863 79.1182C290.662 79.2011 290.446 79.2436 290.229 79.2433Z" fill="#E6E6E6"/>
<path d="M290.229 96.2328H236.033C235.594 96.2323 235.173 96.058 234.863 95.7483C234.552 95.4386 234.378 95.0188 234.378 94.5811C234.378 94.1434 234.552 93.7236 234.863 93.4139C235.173 93.1042 235.594 92.9299 236.033 92.9293H290.229C290.446 92.929 290.662 92.9715 290.863 93.0544C291.064 93.1373 291.247 93.2589 291.401 93.4123C291.555 93.5657 291.678 93.7479 291.761 93.9485C291.844 94.149 291.887 94.364 291.887 94.5811C291.887 94.7982 291.844 95.0131 291.761 95.2137C291.678 95.4142 291.555 95.5964 291.401 95.7498C291.247 95.9032 291.064 96.0248 290.863 96.1077C290.662 96.1906 290.446 96.2331 290.229 96.2328Z" fill="#E6E6E6"/>
<path d="M290.229 113.222H236.033C235.594 113.222 235.173 113.048 234.863 112.738C234.552 112.428 234.378 112.008 234.378 111.571C234.378 111.133 234.552 110.713 234.863 110.403C235.173 110.094 235.594 109.919 236.033 109.919H290.229C290.446 109.919 290.662 109.961 290.863 110.044C291.064 110.127 291.247 110.248 291.401 110.402C291.555 110.555 291.678 110.737 291.761 110.938C291.844 111.139 291.887 111.354 291.887 111.571C291.887 111.788 291.844 112.003 291.761 112.203C291.678 112.404 291.555 112.586 291.401 112.739C291.247 112.893 291.064 113.014 290.863 113.097C290.662 113.18 290.446 113.223 290.229 113.222Z" fill="#E6E6E6"/>
<path d="M290.229 130.212H236.033C235.594 130.211 235.173 130.037 234.863 129.727C234.552 129.418 234.378 128.998 234.378 128.56C234.378 128.122 234.552 127.703 234.863 127.393C235.173 127.083 235.594 126.909 236.033 126.908H290.229C290.446 126.908 290.662 126.951 290.863 127.033C291.064 127.116 291.247 127.238 291.401 127.391C291.555 127.545 291.678 127.727 291.761 127.928C291.844 128.128 291.887 128.343 291.887 128.56C291.887 128.777 291.844 128.992 291.761 129.193C291.678 129.393 291.555 129.575 291.401 129.729C291.247 129.882 291.064 130.004 290.863 130.087C290.662 130.17 290.446 130.212 290.229 130.212Z" fill="#E6E6E6"/>
<path d="M290.229 147.201H236.033C235.594 147.201 235.173 147.027 234.863 146.717C234.552 146.407 234.378 145.987 234.378 145.55C234.378 145.112 234.552 144.692 234.863 144.382C235.173 144.073 235.594 143.898 236.033 143.898H290.229C290.446 143.898 290.662 143.94 290.863 144.023C291.064 144.106 291.247 144.228 291.401 144.381C291.555 144.534 291.678 144.717 291.761 144.917C291.844 145.118 291.887 145.333 291.887 145.55C291.887 145.767 291.844 145.982 291.761 146.182C291.678 146.383 291.555 146.565 291.401 146.718C291.247 146.872 291.064 146.993 290.863 147.076C290.662 147.159 290.446 147.202 290.229 147.201Z" fill="#E6E6E6"/>
<path d="M280.762 79.2433H235.796C235.578 79.2436 235.363 79.2011 235.161 79.1182C234.96 79.0353 234.777 78.9137 234.623 78.7603C234.469 78.6069 234.347 78.4247 234.263 78.2242C234.18 78.0236 234.137 77.8086 234.137 77.5915C234.137 77.3745 234.18 77.1595 234.263 76.9589C234.347 76.7584 234.469 76.5762 234.623 76.4228C234.777 76.2694 234.96 76.1478 235.161 76.0649C235.363 75.982 235.578 75.9395 235.796 75.9398H280.762C281.201 75.9404 281.622 76.1146 281.932 76.4243C282.242 76.734 282.416 77.1539 282.416 77.5915C282.416 78.0292 282.242 78.4491 281.932 78.7588C281.622 79.0685 281.201 79.2427 280.762 79.2433Z" fill="#2D2880"/>
<path d="M266.799 96.2328H235.796C235.357 96.2328 234.935 96.0588 234.625 95.749C234.314 95.4393 234.139 95.0191 234.139 94.5811C234.139 94.143 234.314 93.7229 234.625 93.4131C234.935 93.1033 235.357 92.9293 235.796 92.9293H266.799C267.017 92.929 267.232 92.9715 267.433 93.0544C267.635 93.1373 267.818 93.2589 267.972 93.4123C268.126 93.5657 268.248 93.7479 268.331 93.9485C268.415 94.149 268.458 94.364 268.458 94.5811C268.458 94.7982 268.415 95.0131 268.331 95.2137C268.248 95.4142 268.126 95.5964 267.972 95.7498C267.818 95.9032 267.635 96.0248 267.433 96.1077C267.232 96.1906 267.017 96.2331 266.799 96.2328Z" fill="#2D2880"/>
<path d="M249.759 113.222H235.796C235.578 113.223 235.363 113.18 235.161 113.097C234.96 113.014 234.777 112.893 234.623 112.739C234.469 112.586 234.347 112.404 234.263 112.203C234.18 112.003 234.137 111.788 234.137 111.571C234.137 111.354 234.18 111.139 234.263 110.938C234.347 110.737 234.469 110.555 234.623 110.402C234.777 110.248 234.96 110.127 235.161 110.044C235.363 109.961 235.578 109.919 235.796 109.919H249.759C250.198 109.919 250.619 110.094 250.929 110.403C251.239 110.713 251.414 111.133 251.414 111.571C251.414 112.008 251.239 112.428 250.929 112.738C250.619 113.048 250.198 113.222 249.759 113.222Z" fill="#2D2880"/>
<path d="M285.022 130.212H235.796C235.357 130.212 234.935 130.038 234.625 129.728C234.314 129.418 234.139 128.998 234.139 128.56C234.139 128.122 234.314 127.702 234.625 127.392C234.935 127.082 235.357 126.908 235.796 126.908H285.022C285.461 126.908 285.883 127.082 286.193 127.392C286.504 127.702 286.679 128.122 286.679 128.56C286.679 128.998 286.504 129.418 286.193 129.728C285.883 130.038 285.461 130.212 285.022 130.212Z" fill="#2D2880"/>
<path d="M274.135 147.201H235.796C235.578 147.202 235.363 147.159 235.161 147.076C234.96 146.993 234.777 146.872 234.623 146.718C234.469 146.565 234.347 146.383 234.263 146.182C234.18 145.982 234.137 145.767 234.137 145.55C234.137 145.333 234.18 145.118 234.263 144.917C234.347 144.717 234.469 144.534 234.623 144.381C234.777 144.228 234.96 144.106 235.161 144.023C235.363 143.94 235.578 143.898 235.796 143.898H274.135C274.353 143.898 274.569 143.94 274.77 144.023C274.971 144.106 275.154 144.228 275.308 144.381C275.462 144.534 275.585 144.717 275.668 144.917C275.751 145.118 275.794 145.333 275.794 145.55C275.794 145.767 275.751 145.982 275.668 146.182C275.585 146.383 275.462 146.565 275.308 146.718C275.154 146.872 274.971 146.993 274.77 147.076C274.569 147.159 274.353 147.202 274.135 147.201Z" fill="#2D2880"/>
<path d="M450.757 218.621H197V219.191H450.757V218.621Z" fill="#433D8B"/>
<path d="M341.592 135.187C341.592 135.187 339.796 122.054 336.803 125.636C333.809 129.217 336.803 134.59 336.803 134.59L339.197 137.575L341.592 135.784V135.187Z" fill="#9F616A"/>
<path d="M348.777 139.366C348.777 139.366 342.79 132.799 341.592 133.993C340.395 135.187 336.803 135.784 337.401 138.172C338 140.56 350.573 148.32 350.573 148.32L348.777 139.366Z" fill="#6C63FF"/>
<path opacity="0.1" d="M348.777 139.366C348.777 139.366 342.79 132.799 341.592 133.993C340.395 135.187 336.803 135.784 337.401 138.172C338 140.56 350.573 148.32 350.573 148.32L348.777 139.366Z" fill="black"/>
<path d="M382.904 138.769V143.544C382.904 143.544 383.503 154.289 379.91 153.693C376.318 153.096 378.114 144.141 378.114 144.141L378.713 138.769L382.904 138.769Z" fill="#9F616A"/>
<path d="M381.108 173.392C381.108 173.392 386.496 181.749 388.292 182.346C390.088 182.943 399.668 188.316 400.865 193.688L409.247 204.434L405.056 209.806C405.056 209.806 385.897 189.51 380.509 187.719C375.121 185.928 369.732 176.974 369.732 176.974L381.108 173.392Z" fill="#9F616A"/>
<path d="M338.599 159.662C338.599 159.662 327.223 161.453 329.019 168.616C330.815 175.78 348.178 190.704 348.178 190.704L348.777 194.285L355.363 195.479L358.356 192.494L357.758 190.704C357.758 190.704 350.573 184.137 349.974 181.749C349.376 179.362 342.79 169.81 339.796 169.213L343.987 166.825L338.599 159.662Z" fill="#9F616A"/>
<path d="M407.451 204.434C407.451 204.434 405.056 200.852 408.649 201.449C412.241 202.046 414.636 202.643 414.636 205.03C414.636 207.418 411.642 224.133 408.05 222.939C404.458 221.745 407.451 216.373 407.451 216.373C407.451 216.373 405.655 211.597 404.458 211C403.26 210.403 403.26 207.418 404.458 207.418C405.655 207.418 408.05 205.627 407.451 204.434Z" fill="#2F2E41"/>
<path d="M356.56 191.301C356.56 191.301 356.56 188.316 358.955 191.301C361.35 194.285 362.547 196.673 360.153 198.464C357.758 200.255 349.376 204.434 349.376 204.434C349.376 204.434 340.395 206.224 341.592 202.046C341.592 202.046 347.58 199.061 347.58 196.673C347.58 194.285 347.58 190.107 349.376 191.301C351.172 192.494 356.56 193.091 356.56 191.301Z" fill="#2F2E41"/>
<path d="M367.936 146.529C367.936 146.529 376.318 147.723 375.719 159.662C375.719 159.662 386.496 170.407 383.503 173.989C380.509 177.571 373.923 184.137 371.528 182.346C369.133 180.555 361.949 166.825 361.949 166.825C361.949 166.825 345.185 172.795 342.191 169.81C339.197 166.825 336.204 159.662 336.204 159.662L351.172 151.902L367.936 146.529Z" fill="#171054"/>
<path d="M344.586 112.503C348.554 112.503 351.771 109.296 351.771 105.339C351.771 101.383 348.554 98.1759 344.586 98.1759C340.618 98.1759 337.401 101.383 337.401 105.339C337.401 109.296 340.618 112.503 344.586 112.503Z" fill="#9F616A"/>
<path d="M349.974 105.936C349.974 105.936 354.165 112.503 355.363 113.1C356.56 113.697 346.981 119.666 346.981 119.666C346.981 119.666 346.981 111.906 343.987 110.115L349.974 105.936Z" fill="#9F616A"/>
<path d="M350.573 112.503C350.573 112.503 360.153 109.518 361.949 114.294C363.745 119.069 367.936 128.024 367.337 133.993C366.738 139.963 365.541 138.769 367.337 140.56C369.133 142.35 370.331 141.157 369.732 143.544C369.133 145.932 368.535 145.932 369.133 147.126C369.732 148.32 361.949 152.499 355.363 153.096L348.777 153.693C348.777 153.693 348.777 142.947 347.58 140.56C346.382 138.172 343.987 133.396 343.987 131.605V126.867C343.987 123.713 344.813 120.614 346.382 117.875C346.382 117.875 349.974 112.503 350.573 112.503Z" fill="#6C63FF"/>
<path d="M357.758 114.891C357.758 114.891 379.91 116.681 382.305 122.651C384.7 128.62 385.897 140.56 383.503 140.56C381.108 140.56 378.114 141.753 377.515 140.56C376.917 139.366 374.522 127.427 373.923 127.427C373.324 127.427 355.363 125.636 355.363 125.636C355.363 125.636 347.58 116.084 357.758 114.891Z" fill="#6C63FF"/>
<path d="M344.297 103.563C344.297 103.563 342.391 100.26 340.007 103.129C337.624 105.999 333.747 100.726 334.342 99.6005C334.938 98.4753 337.039 99.6511 340.641 98.4771C344.243 97.3031 351.181 94.9115 352.343 102.713C353.506 110.515 350.738 109.697 350.738 109.697C350.738 109.697 349.469 102.784 348.323 104.769L347.176 106.755L346.182 106.999L344.297 103.563Z" fill="#2F2E41"/>
</g>
<g clip-path="url(#clip3_4_361)">
<path d="M621.528 364.443C621.528 364.443 621.654 361.81 624.24 362.116Z" fill="#3F3D56"/>
<path d="M620.797 361.937C621.512 361.937 622.092 361.36 622.092 360.648C622.092 359.936 621.512 359.359 620.797 359.359C620.083 359.359 619.503 359.936 619.503 360.648C619.503 361.36 620.083 361.937 620.797 361.937Z" fill="#6C63FF"/>
<path d="M620.952 362.819H620.587V365.366H620.952V362.819Z" fill="#3F3D56"/>
<path d="M533.675 287.047C533.675 287.692 533.654 288.331 533.612 288.965C533.377 292.621 532.45 296.2 530.88 299.512C530.868 299.541 530.853 299.567 530.841 299.593C530.768 299.747 530.693 299.9 530.616 300.052C530.149 300.989 529.631 301.9 529.064 302.78C526.475 306.822 522.926 310.167 518.731 312.519C514.536 314.871 509.824 316.157 505.011 316.264L505.301 332.884L509.085 330.899L509.761 332.178L505.33 334.503L505.871 365.37L505.877 365.782L502.952 366.431L502.958 366.017L503.879 316.266C500.006 316.21 496.182 315.389 492.629 313.849C489.077 312.31 485.867 310.082 483.186 307.297C483.001 307.107 482.819 306.911 482.64 306.717C482.632 306.709 482.626 306.701 482.62 306.695C480.386 304.268 478.579 301.483 477.276 298.457C477.305 298.49 477.335 298.52 477.363 298.552C474.418 291.691 474.218 283.968 476.805 276.965C479.392 269.962 484.569 264.209 491.277 260.886C491.378 260.836 491.482 260.787 491.583 260.737C498.218 257.553 505.811 256.969 512.857 259.1C519.904 261.231 525.89 265.922 529.628 272.242C529.807 272.541 529.979 272.846 530.145 273.153C532.468 277.419 533.681 282.195 533.675 287.047Z" fill="#2D2880"/>
<path d="M529.726 299.609C550.963 299.609 568.179 282.46 568.179 261.305C568.179 240.15 550.963 223 529.726 223C508.489 223 491.273 240.15 491.273 261.305C491.273 282.46 508.489 299.609 529.726 299.609Z" fill="#6C63FF"/>
<path opacity="0.2" d="M501.334 235.72C492.985 255.174 502.049 277.686 521.578 286.002C528.987 289.157 537.204 289.914 545.068 288.166C552.933 286.419 560.048 282.254 565.408 276.26C557.06 295.715 534.461 304.744 514.932 296.429C495.402 288.113 486.338 265.601 494.685 246.147C496.321 242.336 498.566 238.815 501.334 235.72Z" fill="black"/>
<path d="M531.807 368.014L527.879 366.916L527.887 366.496L529.064 302.78L529.123 299.603L529.125 299.51L529.33 288.379L529.628 272.244V272.242L529.831 261.305H529.938L530.145 273.153L530.415 288.575L530.608 299.518V299.599L530.616 300.05V300.052L530.989 321.383L531.028 323.503L531.799 367.589L531.807 368.014Z" fill="#3F3D56"/>
<path d="M535.948 318.782L529.591 322.116L530.477 323.792L536.833 320.458L535.948 318.782Z" fill="#3F3D56"/>
<path d="M528.973 375.725H510.842V376.129H528.973V375.725Z" fill="#CBCBCB"/>
<path d="M562.244 382.596H544.113V383H562.244V382.596Z" fill="#CBCBCB"/>
<path d="M613.977 377.341H595.846V377.746H613.977V377.341Z" fill="#CBCBCB"/>
<path d="M605.696 360.896V349.139C605.696 349.139 610.295 357.474 605.696 360.896Z" fill="#F1F1F1"/>
<path d="M605.98 360.894L597.286 352.943C597.286 352.943 606.56 355.205 605.98 360.894Z" fill="#F1F1F1"/>
<path d="M515.822 363.725V351.969C515.822 351.969 520.422 360.303 515.822 363.725Z" fill="#F1F1F1"/>
<path d="M516.107 363.723L507.413 355.773C507.413 355.773 516.687 358.034 516.107 363.723Z" fill="#F1F1F1"/>
<path d="M547.065 372.213V357.594C547.065 357.594 552.785 367.958 547.065 372.213Z" fill="#F1F1F1"/>
<path d="M547.418 372.21L536.607 362.324C536.607 362.324 548.14 365.136 547.418 372.21Z" fill="#F1F1F1"/>
<path d="M640 370.425L639.889 370.815L605.84 361.155L580.191 366.787L547.388 372.369L547.343 372.357L531.807 368.014L527.879 366.916L515.883 363.561L505.878 365.782L502.952 366.431L496.592 367.844L496.505 367.45L502.958 366.017L505.871 365.37L515.896 363.145L515.944 363.157L527.887 366.496L531.799 367.589L547.408 371.954L580.111 366.391L605.852 360.738L605.903 360.75L640 370.425Z" fill="#CBCBCB"/>
<path d="M579.085 247.541L581.681 245.473C579.664 245.252 578.836 246.347 578.497 247.214C576.921 246.563 575.206 247.417 575.206 247.417L580.4 249.295C580.138 248.598 579.682 247.99 579.085 247.541Z" fill="#3F3D56"/>
<path d="M483.734 246.733L486.33 244.665C484.313 244.443 483.485 245.539 483.146 246.406C481.57 245.754 479.855 246.608 479.855 246.608L485.049 248.487C484.787 247.789 484.331 247.181 483.734 246.733Z" fill="#3F3D56"/>
<path d="M573.405 286.141L576 284.073C573.984 283.851 573.155 284.947 572.816 285.814C571.241 285.162 569.526 286.016 569.526 286.016L574.719 287.895C574.457 287.198 574.001 286.589 573.405 286.141Z" fill="#3F3D56"/>
<path d="M555.776 375.09L557.76 375.825L561.547 368.551L558.619 367.468L555.776 375.09Z" fill="#FFB7B7"/>
<path d="M555.51 374.258L559.417 375.704C560.078 375.948 560.614 376.444 560.907 377.082C561.201 377.72 561.228 378.448 560.982 379.106L560.952 379.186L554.555 376.819L555.51 374.258Z" fill="#2F2E41"/>
<path d="M575.3 377.143L577.416 377.142L578.423 369.011L575.299 369.011L575.3 377.143Z" fill="#FFB7B7"/>
<path d="M574.932 376.454L579.1 376.454C579.805 376.454 580.481 376.733 580.979 377.229C581.477 377.725 581.757 378.398 581.757 379.1V379.186L574.933 379.186L574.932 376.454Z" fill="#2F2E41"/>
<path d="M565.61 320.745L566.301 319.369L572.17 322.293L571.997 323.496L573.119 324.958C573.119 324.958 575.018 325.99 574.673 329.429L574.328 332.696L573.896 336.91L576.917 347.313L578.471 361.071L579.593 372.162L574.155 371.904L569.149 353.848L560.345 373.28L554.303 371.732L562.589 352.472L563.625 344.39C563.625 344.39 562.934 340.091 566.214 337.167L565.696 335.62V333.713L563.97 324.614L565.61 320.745Z" fill="#171054"/>
<path opacity="0.2" d="M565.449 340.407L565.253 340.462L569.051 353.875L569.247 353.821L565.449 340.407Z" fill="black"/>
<path d="M565.783 337.769H574.242V336.91H565.783V337.769Z" fill="#3F3D56"/>
<path d="M574.242 338.285C574.432 338.285 574.587 337.9 574.587 337.425C574.587 336.951 574.432 336.566 574.242 336.566C574.051 336.566 573.896 336.951 573.896 337.425C573.896 337.9 574.051 338.285 574.242 338.285Z" fill="#3F3D56"/>
<path d="M574.465 316.697C575.684 314.476 574.864 311.691 572.634 310.477C570.404 309.262 567.608 310.079 566.389 312.3C565.17 314.521 565.99 317.307 568.22 318.521C570.45 319.735 573.246 318.919 574.465 316.697Z" fill="#FFB7B7"/>
<path d="M563.385 312.862C565.634 312.862 567.456 311.047 567.456 308.807C567.456 306.568 565.634 304.752 563.385 304.752C561.137 304.752 559.315 306.568 559.315 308.807C559.315 311.047 561.137 312.862 563.385 312.862Z" fill="#2F2E41"/>
<path d="M558.219 308.373C558.059 308.91 558.012 309.475 558.081 310.031C558.151 310.587 558.336 311.123 558.624 311.605C558.911 312.087 559.297 312.504 559.754 312.829C560.212 313.155 560.733 313.383 561.284 313.499C561.835 313.614 562.403 313.614 562.954 313.5C563.505 313.385 564.026 313.158 564.484 312.832C564.943 312.507 565.328 312.09 565.617 311.609C565.905 311.128 566.09 310.592 566.161 310.036C565.869 311.011 565.22 311.842 564.342 312.363C563.464 312.884 562.421 313.056 561.421 312.847C560.421 312.638 559.537 312.061 558.944 311.232C558.351 310.404 558.092 309.383 558.219 308.373Z" fill="#2F2E41"/>
<path d="M574.302 313.226C574.421 314.274 574.19 315.333 573.645 316.237C573.099 317.141 572.27 317.841 571.284 318.227C570.299 318.614 569.213 318.667 568.195 318.376C567.177 318.086 566.283 317.469 565.653 316.622C565.022 315.774 564.69 314.743 564.707 313.689C564.724 312.634 565.09 311.614 565.748 310.788C566.406 309.961 567.32 309.374 568.347 309.117C569.374 308.86 570.458 308.948 571.43 309.366C572.234 308.72 573.23 308.921 574.041 309.602C574.957 310.373 575.229 310.902 575.939 312.17C575.241 312.267 575 313.128 574.302 313.226Z" fill="#2F2E41"/>
<path d="M557.387 327.011C557.439 328.37 557.541 331.043 557.541 331.18C557.541 331.324 559.576 335.521 560.455 337.327V337.328C560.517 337.455 560.573 337.571 560.623 337.673C560.691 337.813 560.798 337.931 560.931 338.012C561.064 338.094 561.218 338.135 561.374 338.132L565.216 338.064C565.427 338.06 565.629 337.975 565.779 337.827C565.929 337.679 566.016 337.479 566.021 337.269L566.449 320.431C566.451 320.376 566.441 320.321 566.421 320.269C566.4 320.217 566.37 320.17 566.331 320.13C566.292 320.09 566.246 320.059 566.194 320.037C566.143 320.016 566.088 320.004 566.032 320.004H561.077C560.868 320.005 560.663 320.063 560.486 320.174C560.309 320.285 560.166 320.443 560.075 320.631L557.697 325.532C557.474 325.992 557.368 326.5 557.387 327.011Z" fill="#6C63FF"/>
<path d="M566.088 336.113C567.074 335.518 567.96 334.772 568.713 333.903C570.463 331.942 571.528 329.468 571.747 326.853C571.942 324.615 571.497 322.952 570.422 321.909C569.057 320.583 567.198 320.776 567.119 320.785L567.036 320.794L565.777 321.856L566.133 322.275L567.26 321.325C567.605 321.308 569.013 321.305 570.042 322.307C570.989 323.229 571.377 324.743 571.197 326.805C570.989 329.295 569.978 331.651 568.315 333.522C567.597 334.349 566.756 335.06 565.822 335.632L566.088 336.113Z" fill="#6C63FF"/>
<path d="M558.939 329.716L558.902 329.896L565.614 331.269L565.651 331.09L558.939 329.716Z" fill="#3F3D56"/>
<path d="M563.363 320.001L562.927 330.641L563.111 330.649L563.547 320.008L563.363 320.001Z" fill="#3F3D56"/>
<path d="M557.387 327.011C557.439 328.37 557.541 331.043 557.541 331.18C557.541 331.324 559.576 335.521 560.455 337.327L558.816 327.849C558.753 327.485 558.593 327.143 558.354 326.86C558.115 326.577 557.804 326.362 557.454 326.238C557.399 326.492 557.377 326.752 557.387 327.011Z" fill="#3F3D56"/>
<path d="M567.455 346.874C567.31 346.688 567.208 346.472 567.155 346.243C567.103 346.013 567.102 345.774 567.152 345.544C567.202 345.313 567.302 345.097 567.446 344.909C567.589 344.722 567.772 344.568 567.982 344.458L567.648 340.788L569.838 340.043L570.235 345.232C570.397 345.595 570.419 346.004 570.298 346.382C570.176 346.76 569.92 347.081 569.577 347.283C569.235 347.486 568.829 347.556 568.438 347.481C568.047 347.405 567.697 347.19 567.455 346.874Z" fill="#FFB7B7"/>
<path d="M566.022 324.725C565.979 324.168 566.124 323.612 566.433 323.146C566.743 322.68 567.199 322.329 567.731 322.15C568.199 321.996 568.705 321.996 569.174 322.151C569.675 322.321 570.109 322.644 570.417 323.074C570.724 323.503 570.887 324.018 570.884 324.546L571.049 343.183L567.169 343.323L566.022 324.725Z" fill="#CBCBCB"/>
</g>
<g clip-path="url(#clip4_4_361)">
<path d="M87 382.697C87 382.843 87.1166 382.96 87.2619 382.96H247.738C247.883 382.96 248 382.843 248 382.697C248 382.551 247.883 382.434 247.738 382.434H87.2619C87.1166 382.434 87 382.551 87 382.697Z" fill="#192167"/>
<path d="M184.596 274.092L185.477 279.176L176.015 280.723L178.215 273.65L184.596 274.092Z" fill="#A0616A"/>
<path d="M208.729 277.454C210.634 278.312 211.092 281.448 209.747 284.457C209.228 285.666 208.425 286.734 207.411 287.57L205.49 292.72C204.229 298.861 201.362 305.327 197.41 304.825C191.818 304.116 190.056 297.289 190.056 297.289L197.581 294.332L200.941 287.826L202.086 285.171C202.03 283.854 202.29 282.543 202.845 281.349C204.187 278.338 206.821 276.596 208.729 277.454Z" fill="#A0616A"/>
<path d="M144.676 376.26L139.459 372.385L139.5 372.301L168.571 314.112L168.626 314.103L192.034 310.111L196.91 321.02L209.659 339.029C210.537 340.27 210.997 341.731 210.986 343.254L210.779 375.334L202.869 375.561L202.858 375.46L200.098 349.523C199.898 347.633 198.921 345.884 197.421 344.726L181.859 332.716L144.674 376.262L144.676 376.26Z" fill="#171054"/>
<path d="M140.257 372.794C140.257 372.794 137.617 373.236 136.737 374.783C135.856 376.331 133.216 379.647 133.216 379.647C133.216 379.647 131.236 383.405 135.856 382.962C140.477 382.52 142.238 380.531 142.238 380.531L144.218 375.004L140.257 372.794Z" fill="#2F2E41"/>
<path d="M206.931 372.794C206.931 372.794 209.571 373.236 210.452 374.783C211.332 376.331 213.972 379.647 213.972 379.647C213.972 379.647 215.953 383.405 211.332 382.962C206.711 382.52 204.95 380.531 204.95 380.531L202.97 375.004L206.931 372.794Z" fill="#2F2E41"/>
<path d="M171.614 280.502L187.237 277.408L196.039 280.281L193.618 313.219L168.643 314.214L171.614 280.502Z" fill="#6C63FF"/>
<path d="M194.472 279.545L197.874 284.709L198.664 297.44L188.557 298.211L188.83 281.716L194.472 279.545Z" fill="#6C63FF"/>
<path d="M203.824 291.935L199.735 290.304L194.536 299.98L199.284 302.358L203.824 291.935Z" fill="#A0616A"/>
<path d="M206.676 283.701C206.392 283.701 206.108 283.652 205.835 283.555C205.179 283.321 204.649 282.817 204.376 282.174L201.274 274.852C200.105 272.093 198.763 269.377 197.284 266.775L196.637 265.634C196.191 264.944 185.635 248.626 185.133 247.35C184.755 246.389 185.886 244.419 185.934 244.335L185.947 244.318C185.972 244.289 188.504 241.517 191.552 244.092C194.545 246.619 199.579 263.366 199.793 264.078L199.929 264.423C201.17 267.575 202.741 270.61 204.596 273.442L208.766 279.808C209.153 280.401 209.274 281.135 209.098 281.82C208.922 282.505 208.462 283.087 207.835 283.416C207.474 283.606 207.076 283.701 206.676 283.701Z" fill="#3F3D56"/>
<path d="M178.853 286.031L183.767 286.307L193.204 276.304L196.892 271.901C197.216 270.623 197.839 269.443 198.708 268.457C200.853 265.959 203.872 265.046 205.454 266.417C207.037 267.787 206.581 270.922 204.436 273.42C203.593 274.43 202.519 275.221 201.309 275.73L200.4 276.934L189.983 291.644C188.104 294.299 184.781 295.499 181.648 294.654L175.273 292.937L178.853 286.029V286.031Z" fill="#A0616A"/>
<path d="M176.096 295.888L168.516 290.996C166.106 289.442 165.18 286.396 166.313 283.754C167.002 282.149 168.353 280.947 170.021 280.456C171.686 279.963 173.473 280.239 174.917 281.216L182.361 286.25L176.096 295.888Z" fill="#6C63FF"/>
<path d="M179.76 275.962C184.05 275.962 187.527 272.468 187.527 268.159C187.527 263.849 184.05 260.355 179.76 260.355C175.47 260.355 171.992 263.849 171.992 268.159C171.992 272.468 175.47 275.962 179.76 275.962Z" fill="#A0616A"/>
<path d="M184.869 274.894L184.198 273.771C184.198 273.771 187.136 271.782 184.709 270.628C182.281 269.474 181.899 266.651 181.899 266.651C181.899 266.651 174.809 264.6 175.192 263.059C175.575 261.518 174.49 260.428 176.276 259.787C178.065 259.146 186.046 259.787 186.942 261.646C187.835 263.507 188.731 268.638 188.284 269.346C187.838 270.053 184.869 274.896 184.869 274.896V274.894Z" fill="#2F2E41"/>
<path d="M182.856 266.072L175.638 261.262C175.638 261.262 166.315 258.377 169.827 263.892L172.798 264.502C172.798 264.502 180.875 266.394 182.856 266.072Z" fill="#6C63FF"/>
<path d="M180.684 264.982L188.22 270.692C188.22 270.692 192.626 262.8 185.727 258.887C178.829 254.975 174.457 261.102 174.457 261.102L176.276 263.059L180.684 264.982Z" fill="#6C63FF"/>
<path d="M126.533 252.097C126.533 254.48 128.456 256.414 130.831 256.414C131.993 256.414 133.047 255.95 133.819 255.196C134.626 254.411 135.126 253.312 135.126 252.097C135.126 249.714 133.203 247.779 130.831 247.779C130.087 247.779 129.389 247.969 128.78 248.301C128.676 248.358 128.575 248.42 128.476 248.487C127.548 249.097 126.872 250.058 126.632 251.184C126.601 251.312 126.579 251.442 126.566 251.575C126.544 251.745 126.533 251.92 126.533 252.097Z" fill="#6C63FF"/>
<path d="M126.566 251.575C126.634 251.65 126.705 251.732 126.782 251.825C127.042 252.139 127.145 252.309 127.29 252.545C127.416 252.751 127.574 253.007 127.884 253.441C128.525 254.334 128.846 254.782 129.345 255.189C129.838 255.589 130.452 256.089 131.374 256.153C131.438 256.157 131.502 256.157 131.563 256.157C132.679 256.157 133.493 255.483 133.803 255.18C134.615 254.384 134.785 253.418 134.82 253.04C134.849 252.735 134.888 251.665 134.191 250.704C133.575 249.855 132.723 249.552 131.898 249.256C131.359 249.064 130.949 248.995 130.586 248.933C130.089 248.849 129.662 248.776 129.009 248.431C128.918 248.383 128.844 248.341 128.78 248.301C128.676 248.358 128.575 248.42 128.476 248.487C128.492 248.495 128.509 248.507 128.527 248.518C128.613 248.568 128.718 248.63 128.863 248.708C129.561 249.077 130.034 249.159 130.534 249.243C130.901 249.305 131.282 249.369 131.794 249.552C132.609 249.844 133.379 250.118 133.938 250.89C134.571 251.763 134.534 252.733 134.51 253.009C134.477 253.354 134.323 254.232 133.586 254.955C133.289 255.244 132.483 255.914 131.396 255.839C130.571 255.782 130.001 255.317 129.541 254.946C129.075 254.566 128.762 254.128 128.14 253.259C127.834 252.833 127.68 252.581 127.556 252.379C127.411 252.143 127.297 251.955 127.024 251.626C126.876 251.447 126.747 251.303 126.632 251.184C126.601 251.312 126.579 251.442 126.566 251.575Z" fill="#E6E6E6"/>
</g>
<g clip-path="url(#clip5_4_361)">
<path d="M318.528 346.782C318.424 346.782 318.339 346.697 318.339 346.592V293.187C318.339 279.748 329.262 268.815 342.688 268.815H383.799C383.904 268.815 383.988 268.9 383.988 269.005C383.988 269.109 383.904 274.311 383.799 274.311L342.688 269.194C329.471 269.194 318.718 279.958 318.718 293.187V346.592C318.718 346.697 318.633 346.782 318.528 346.782Z" fill="#3F3D56"/>
<path d="M383.943 255C384.048 255 384.132 255.085 384.132 255.19V308.594C384.132 322.033 373.209 332.966 359.783 332.966H318.672C318.568 332.966 318.483 332.882 318.483 332.777C318.483 332.672 318.568 332.587 318.672 332.587H359.783C373.001 332.587 383.754 321.824 383.754 308.594V255.19C383.754 255.085 383.838 255 383.943 255Z" fill="#3F3D56"/>
<path d="M364.875 305.658C364.875 304.839 365.2 304.038 365.812 303.441L374.436 295.032C374.661 294.175 375.091 293.373 375.681 292.712C376.393 291.892 377.267 291.297 378.142 291.037C379.033 290.773 379.819 290.885 380.358 291.353C381.456 292.309 381.145 294.474 379.664 296.18C379.093 296.855 378.361 297.393 377.545 297.735L369.716 305.813L374.026 312.351C374.86 313.325 375.045 314.673 374.501 315.86C373.976 317.007 372.878 317.721 371.635 317.724C370.305 317.727 369.128 316.931 368.636 315.695L365.096 306.81C364.947 306.435 364.875 306.044 364.875 305.658Z" fill="#FFB6B6"/>
<path d="M372.11 298.001C375.874 298.001 378.926 294.946 378.926 291.178C378.926 287.41 375.874 284.356 372.11 284.356C368.345 284.356 365.294 287.41 365.294 291.178C365.294 294.946 368.345 298.001 372.11 298.001Z" fill="#3F3D56"/>
<path d="M375.66 309.437L370.586 313.308L377.023 317.733L380.252 310.803L375.66 309.437Z" fill="#FFB6B6"/>
<path d="M378.427 312.767C381.393 312.767 383.798 310.361 383.798 307.391C383.798 304.422 381.393 302.015 378.427 302.015C375.461 302.015 373.056 304.422 373.056 307.391C373.056 310.361 375.461 312.767 378.427 312.767Z" fill="#FFB6B6"/>
<path d="M378.845 313.416C378.845 313.416 380.055 309.538 379.273 308.805C378.491 308.072 378.516 308.83 378.516 308.83L379.507 305.093C379.507 305.093 379.035 302.921 375.904 302.623C375.904 302.623 377.016 300.511 378.633 300.859C380.249 301.208 380.351 301.606 381.038 301.472C381.725 301.338 383.148 302.585 383.148 302.585C383.148 302.585 383.877 301.99 383.794 302.725C383.712 303.459 384.486 304.66 384.486 304.66C384.486 304.66 384.927 304.385 384.806 305.156C384.685 305.927 385.255 306.332 385.255 306.332C385.255 306.332 384.5 306.82 384.742 307.205C384.985 307.59 385.953 307.893 385.587 308.285C385.221 308.676 385.496 309.582 384.256 310.538C383.017 311.493 378.845 313.416 378.845 313.416Z" fill="#2F2E41"/>
<path d="M382.026 383.49L381.981 383.443L369.303 370.258C368.076 368.982 367.482 367.24 367.673 365.479L368.334 359.387L374.755 360.556L375.001 364.396L385.785 381.906L382.026 383.49Z" fill="#FFB6B6"/>
<path d="M383.567 393C383.362 393 383.16 392.948 382.976 392.845C382.53 392.597 382.283 392.091 382.363 391.586L382.804 388.793L380.528 383.857L381.128 382.055L384.564 381.864L385.709 380.717L386.992 380.941C387.759 381.074 388.398 381.551 388.745 382.249C389.091 382.948 389.085 383.745 388.728 384.438L384.654 392.337C384.501 392.634 384.241 392.85 383.922 392.947C383.805 392.982 383.686 393 383.567 393Z" fill="#2F2E41"/>
<path d="M377.127 346.612L374.666 362.152L362.738 367.837L360.844 352.676L377.127 346.612Z" fill="#171054"/>
<path d="M370.288 378.942L370.243 378.895L357.564 365.71C356.337 364.434 355.743 362.692 355.934 360.931L356.596 354.839L363.017 356.007L363.262 359.848L374.047 377.358L370.288 378.942Z" fill="#FFB6B6"/>
<path d="M371.828 388.452C371.624 388.452 371.422 388.399 371.237 388.297C370.791 388.049 370.545 387.543 370.624 387.038L371.065 384.244L368.789 379.309L369.389 377.506L372.825 377.315L373.971 376.169L375.253 376.392C376.021 376.526 376.659 377.003 377.006 377.701C377.352 378.399 377.346 379.197 376.989 379.89L372.916 387.789C372.763 388.086 372.503 388.302 372.184 388.398C372.066 388.434 371.947 388.452 371.828 388.452Z" fill="#2F2E41"/>
<path d="M363.559 341.406L362.227 345.033L356.243 354.815C356.067 355.102 356.039 355.446 356.166 355.758C356.292 356.07 356.552 356.297 356.877 356.38L370.082 359.77L376.195 351.177C377.939 348.726 378.841 345.725 378.739 342.719L363.559 341.406Z" fill="#171054"/>
<path d="M377.188 345.095H362.035L362.043 344.993L363.956 321.782C364.207 318.74 365.779 315.984 368.268 314.222L368.294 314.203L378.652 314.587L376.403 335.507L379.394 341.533C379.775 342.303 379.733 343.199 379.281 343.929C378.829 344.659 378.046 345.095 377.188 345.095Z" fill="#6C63FF"/>
<path d="M373.044 318.873C372.179 318.873 371.336 318.522 370.712 317.863L364.143 310.916C363.279 310.002 363.052 308.67 363.564 307.521L368.473 296.517C368.365 295.637 368.469 294.734 368.773 293.901C369.132 292.876 369.724 291.999 370.441 291.434C371.171 290.859 371.944 290.672 372.617 290.908C373.99 291.39 374.501 293.517 373.754 295.65C373.474 296.488 372.991 297.259 372.359 297.879L368.067 308.281L374.486 312.762C375.621 313.358 376.291 314.542 376.223 315.846C376.159 317.106 375.402 318.176 374.248 318.639C373.856 318.796 373.447 318.873 373.044 318.873Z" fill="#FFB6B6"/>
<path d="M325.585 298.339C327.244 300.327 327.888 302.958 328.33 305.51C328.492 306.443 328.634 307.38 328.755 308.319C329.208 311.825 329.36 315.484 328.137 318.8C327.827 319.64 327.513 320.771 328.252 321.275C328.839 321.676 329.699 321.26 330.018 320.625C330.338 319.99 330.274 319.238 330.203 318.53C329.425 319.367 329.668 320.916 330.665 321.474C331.661 322.032 333.107 321.428 333.412 320.326C333.57 321.501 334.723 322.453 335.906 322.386C337.089 322.319 338.127 321.243 338.153 320.057C337.539 320.71 337.842 321.891 338.604 322.362C339.365 322.833 340.381 322.701 341.162 322.263C341.943 321.826 342.541 321.13 343.121 320.448C342.356 320.921 342.176 322.12 342.77 322.797C343.363 323.474 344.574 323.452 345.142 322.754C345.611 322.178 345.609 321.338 345.38 320.632C345.151 319.926 344.73 319.3 344.413 318.629C342.962 315.555 343.817 311.91 345.016 308.729C346.215 305.548 347.762 302.349 347.633 298.952" fill="white"/>
<path d="M325.484 298.44C326.701 299.911 327.364 301.734 327.797 303.572C328.267 305.565 328.561 307.616 328.768 309.651C328.977 311.71 329.047 313.807 328.735 315.86C328.584 316.85 328.341 317.821 328 318.762C327.764 319.412 327.481 320.228 327.771 320.905C328.114 321.703 329.073 321.715 329.688 321.236C330.508 320.597 330.438 319.458 330.345 318.53C330.334 318.418 330.192 318.33 330.103 318.429C329.463 319.143 329.445 320.277 329.996 321.051C330.58 321.871 331.663 322.019 332.529 321.57C333.015 321.319 333.392 320.891 333.549 320.364H333.275C333.465 321.616 334.695 322.638 335.972 322.524C337.222 322.412 338.248 321.306 338.295 320.057C338.299 319.938 338.134 319.865 338.052 319.957C337.639 320.419 337.594 321.068 337.825 321.629C338.079 322.249 338.629 322.654 339.285 322.764C340.973 323.05 342.233 321.709 343.222 320.548C343.32 320.433 343.194 320.232 343.05 320.325C342.417 320.736 342.139 321.554 342.337 322.276C342.546 323.036 343.287 323.483 344.055 323.429C344.919 323.369 345.533 322.735 345.649 321.887C345.789 320.859 345.264 319.944 344.798 319.072C342.585 314.928 344.537 310.354 346.094 306.355C347.015 303.989 347.862 301.526 347.775 298.952C347.769 298.77 347.485 298.769 347.491 298.952C347.636 303.227 345.242 306.971 344.124 310.967C343.594 312.864 343.298 314.887 343.681 316.84C343.872 317.812 343.907 318.834 344.372 319.7C344.811 320.518 345.636 321.357 345.254 322.29C344.899 323.157 343.71 323.436 342.997 322.822C342.316 322.237 342.462 321.045 343.193 320.571L343.021 320.347C342.158 321.36 341.466 321.228 340.018 321.216C339.394 321.212 338.468 322.243 338.163 321.682C337.903 321.206 337.876 320.58 338.253 320.158L338.011 320.057C337.969 321.167 337.025 322.177 335.906 322.244C334.765 322.312 333.717 321.401 333.549 320.288C333.527 320.142 333.311 320.164 333.275 320.288C332.973 321.305 331.643 321.881 330.711 321.336C329.802 320.806 329.608 319.406 330.304 318.63L330.061 318.53C330.146 319.385 330.255 320.511 329.442 321.066C329.134 321.277 328.718 321.382 328.376 321.186C328.044 320.995 328.464 320.441 328.468 320.079C328.478 319.266 328.36 318.667 328.581 317.899C328.846 316.982 329.017 316.039 329.117 315.09C329.321 313.153 329.224 311.195 329.01 309.263C328.798 307.345 328.52 305.416 328.08 303.535C327.635 301.632 326.943 299.76 325.685 298.239C325.569 298.097 325.369 298.3 325.484 298.44Z" fill="#3F3D56"/>
<path d="M336.61 300.764C330.827 300.764 324.682 299.801 324.682 298.016C324.682 296.231 330.827 295.268 336.61 295.268C342.392 295.268 348.538 296.231 348.538 298.016C348.538 299.801 342.392 300.764 336.61 300.764ZM336.61 295.647C329.803 295.647 325.06 296.896 325.06 298.016C325.06 299.136 329.803 300.385 336.61 300.385C343.416 300.385 348.159 299.136 348.159 298.016C348.159 296.896 343.416 295.647 336.61 295.647Z" fill="#3F3D56"/>
<path d="M323.371 303.426C323.312 303.426 323.252 303.423 323.193 303.416L319.515 302.992C318.738 302.902 318.137 302.244 318.119 301.461L318 296.559C317.99 296.109 318.172 295.675 318.501 295.367C318.83 295.06 319.276 294.908 319.723 294.949L325.242 295.463C325.864 295.521 326.394 295.942 326.592 296.536L327.479 299.198C327.684 299.814 327.485 300.504 326.985 300.916L324.376 303.066C324.093 303.299 323.735 303.426 323.371 303.426Z" fill="#3F3D56"/>
</g>
<defs>
<clipPath id="clip0_4_361">
<rect width="181" height="155" fill="white" transform="translate(496 30)"/>
</clipPath>
<clipPath id="clip1_4_361">
<rect width="168" height="152" fill="white" transform="translate(10 18)"/>
</clipPath>
<clipPath id="clip2_4_361">
<rect width="255" height="165" fill="white" transform="translate(197 58)"/>
</clipPath>
<clipPath id="clip3_4_361">
<rect width="165" height="160" fill="white" transform="translate(475 223)"/>
</clipPath>
<clipPath id="clip4_4_361">
<rect width="161" height="140" fill="white" transform="translate(87 243)"/>
</clipPath>
<clipPath id="clip5_4_361">
<rect width="71" height="138" fill="white" transform="translate(318 255)"/>
</clipPath>
</defs>
</svg>
