<svg xmlns="http://www.w3.org/2000/svg" version="1.1" xmlns:xlink="http://www.w3.org/1999/xlink" xmlns:svgjs="http://svgjs.dev/svgjs" viewBox="0 0 800 800"><defs><linearGradient x1="50%" y1="0%" x2="50%" y2="100%" id="ccchaos-grad"><stop stop-color="hsl(237, 35%, 67%)" stop-opacity="1" offset="0%"></stop><stop stop-color="hsl(237, 64%, 21%)" stop-opacity="1" offset="100%"></stop></linearGradient></defs><g stroke-width="2" stroke="url(#ccchaos-grad)" fill="none" stroke-linecap="round"><path d="M377.74 65.61Q385.97 73.24 394.46 81.01 403.21 88.81 412.23 96.55 421.55 104.1 431.16 111.37 441.06 118.24 451.26 124.64 461.75 130.5 472.52 135.78 483.55 140.45 494.84 144.53 506.35 148.04 518.06 151.03 529.96 153.59 541.99 155.82 554.14 157.82 566.37 159.73 578.63 161.68 590.89 163.81 603.11 166.26 615.25 169.13 627.27 172.54 639.12 176.58 650.77 181.3 662.18 186.74 673.31 192.91 684.13 199.77 694.61 207.28 704.72 215.34 714.44 223.85 723.74 232.67 722.27 242.94 719.19 253.22 714.65 263.49 708.84 273.77 702.02 284.04 694.49 294.32 686.59 304.59 678.66 314.87 671.05 325.14 664.11 335.42 658.13 345.69 653.38 355.97 650.08 366.24 648.36 376.52 648.31 386.79 649.92 397.07 653.12 407.34 657.78 417.62 663.69 427.89 670.58 438.17 678.15 448.44 686.07 458.72 693.99 468.99 701.55 479.27 708.43 489.54 714.31 499.82 718.94 510.1 722.12 520.37 723.7 530.65 723.61 540.92 714.42 555.8 695.18 559.65 683.13 559.49 670.9 560.14 658.52 561.79 646.04 564.61 633.5 568.71 620.95 574.13 608.42 580.9 595.97 588.96 583.62 598.2 571.41 608.47 559.39 619.57 547.58 631.26 536 643.28 524.69 655.34 513.66 667.17 502.93 678.47 492.51 689 482.41 698.52 472.64 706.83 463.19 713.8 454.05 719.33 445.23 723.4 428.6 726.7 412.76 726.46 398.02 722.5 383.77 717.98 373.67 706.05 363.81 694.97 354.22 684.96 344.88 676.23 335.78 668.91 326.93 663.06 309.99 656.45 293.65 653.79 278.1 655.85 262.89 659.24 248.02 662.01 233.21 662.79 218.27 658.22 203.13 649.71 195.41 643.08 187.58 635.18 179.62 626.14 171.53 616.12 163.31 605.33 154.94 594.03 146.44 582.46 137.8 570.89 129.02 559.58 120.12 548.79 120.75 538.68 121.07 528.56 121.09 518.44 120.79 508.32 120.2 498.2 119.32 488.08 118.22 477.97 116.92 467.85 115.5 457.73 114.01 447.61 112.52 437.5 111.09 427.38 109.8 417.26 108.69 407.14 107.81 397.02 107.21 386.91 106.9 376.79 106.91 366.67 107.24 356.55 107.86 346.43 108.75 336.32 109.88 326.2 111.18 316.08 112.61 305.96 114.11 295.85 115.59 285.73 117.01 275.61 118.29 265.49 119.39 255.38 120.24 245.26 125.68 229.25 139.89 221.89 149.14 220.45 158.27 218.89 167.28 217.06 176.15 214.84 184.87 212.1 193.44 208.76 201.84 204.76 210.09 200.07 218.18 194.68 226.12 188.61 233.91 181.93 241.56 174.7 249.09 167.03 256.5 159.03 263.82 150.82 271.06 142.54 278.25 134.31 285.4 126.26 292.54 118.51 299.7 111.15 306.9 104.26 314.17 97.91 321.53 92.13 329.01 86.93 336.64 82.29 344.43 78.18 352.42 74.54 360.62 71.3 373.4 66.98 377.74 65.61" stroke-dasharray="5 4" transform="rotate(0, 400, 400)" opacity="0.28"></path><path d="M377.64 78.15Q386.15 85.57 394.91 93.13 403.92 100.73 413.2 108.28 422.75 115.66 432.55 122.78 442.61 129.54 452.92 135.87 463.46 141.71 474.23 147 485.2 151.72 496.35 155.86 507.66 159.44 519.11 162.51 530.66 165.12 542.29 167.35 553.96 169.31 565.65 171.1 577.3 172.84 588.9 174.66 600.4 176.68 611.77 179.02 622.97 181.79 633.97 185.08 644.75 188.98 655.26 193.53 665.48 198.76 675.39 204.68 684.95 211.26 694.16 218.46 703 226.2 711.45 234.38 709.14 244.17 705.43 253.96 700.48 263.75 694.49 273.54 687.7 283.33 680.39 293.12 672.86 302.91 665.42 312.7 658.37 322.49 652 332.28 646.56 342.07 642.29 351.86 639.36 361.65 637.89 371.44 637.93 381.23 639.48 391.02 642.49 400.81 646.82 410.6 652.31 420.39 658.73 430.18 665.81 439.97 673.26 449.76 680.79 459.55 688.08 469.34 694.83 479.13 700.77 488.92 705.66 498.71 709.3 508.5 711.54 518.29 712.28 528.08 705.02 542.49 687.6 547.16 676.4 547.96 664.98 549.7 653.38 552.51 641.63 556.48 629.78 561.67 617.85 568.08 605.9 575.67 593.95 584.35 582.05 594 570.22 604.44 558.5 615.48 546.92 626.88 535.51 638.4 524.3 649.8 513.31 660.82 502.56 671.23 492.06 680.81 481.83 689.38 471.88 696.79 462.21 702.92 452.84 707.73 443.75 711.21 426.55 713.84 410.15 713.33 394.93 709.61 380.32 705.44 371.15 694.04 362.22 683.4 353.53 673.73 345.07 665.21 336.84 657.96 328.8 652.05 313.38 644.91 298.42 641.48 284.03 642.74 269.86 645.56 255.82 648.5 241.73 650.05 227.39 647.28 212.78 641.08 205.3 635.83 197.69 629.36 189.96 621.74 182.09 613.07 174.09 603.52 165.95 593.26 157.67 582.52 149.26 571.5 140.73 560.45 132.08 549.6 132.55 539.78 132.71 529.97 132.56 520.16 132.1 510.34 131.34 500.53 130.33 490.72 129.1 480.9 127.7 471.09 126.19 461.28 124.64 451.46 123.09 441.65 121.63 431.84 120.3 422.02 119.16 412.21 118.26 402.4 117.64 392.58 117.32 382.77 117.31 372.96 117.62 363.14 118.22 353.33 119.11 343.52 120.23 333.7 121.55 323.89 123.01 314.08 124.55 304.27 126.11 294.45 127.63 284.64 129.03 274.83 130.27 265.01 131.3 255.2 136.89 239.83 150.82 232.97 159.84 231.53 168.76 229.83 177.56 227.74 186.23 225.16 194.77 222.02 203.17 218.25 211.42 213.82 219.51 208.73 227.45 202.99 235.23 196.65 242.87 189.77 250.35 182.45 257.7 174.77 264.92 166.85 272.02 158.8 279.02 150.76 285.93 142.83 292.78 135.13 299.57 127.75 306.34 120.78 313.1 114.29 319.88 108.32 333.64 98.3 347.67 89.87 370.01 80.87 377.64 78.15" stroke-dasharray="4 5" transform="rotate(4.04, 400, 400)" opacity="0.70"></path><path d="M379.03 90.7Q387.77 97.9 396.75 105.24 405.96 112.63 415.4 119.97 425.06 127.17 434.95 134.13 445.04 140.78 455.32 147.04 465.79 152.83 476.42 158.12 487.18 162.88 498.07 167.09 509.05 170.75 520.1 173.91 531.19 176.59 542.3 178.87 553.39 180.83 564.43 182.56 575.39 184.17 586.25 185.76 596.97 187.45 607.52 189.35 617.88 191.57 628.01 194.2 637.9 197.34 647.52 201.04 656.85 205.36 665.87 210.33 674.56 215.94 682.92 222.19 693.25 237.38 691.36 255.05 686.13 264.37 680.05 273.69 673.38 283.01 666.35 292.33 659.23 301.65 652.29 310.97 645.79 320.29 639.98 329.61 635.07 338.93 631.26 348.25 628.67 357.57 627.42 366.89 627.55 376.21 629.05 385.53 631.86 394.85 635.89 404.17 640.97 413.49 646.93 422.81 653.52 432.13 660.51 441.45 667.63 450.77 674.62 460.08 681.2 469.4 687.14 478.72 692.2 488.04 696.2 497.36 698.99 506.68 700.46 516 695.01 530.12 679.37 535.93 669.02 537.81 658.43 540.69 647.63 544.63 636.66 549.67 625.54 555.83 614.31 563.05 603.01 571.28 591.65 580.39 580.29 590.24 568.94 600.66 557.64 611.46 546.41 622.43 535.29 633.35 524.31 643.99 513.48 654.16 502.82 663.65 492.36 672.3 482.12 679.94 472.11 686.48 462.33 691.83 452.8 695.97 443.53 698.91 425.87 700.94 408.96 700.22 393.25 696.73 378.18 692.9 369.94 682.02 361.91 671.83 354.1 662.51 346.48 654.22 339.04 647.06 331.76 641.12 317.7 633.52 303.97 629.38 290.59 629.82 277.3 631.99 263.97 634.9 250.5 636.95 236.66 635.67 222.51 631.51 215.23 627.54 207.83 622.43 200.3 616.21 192.64 608.94 184.84 600.73 176.92 591.7 168.86 582.01 160.68 571.84 152.39 561.39 143.99 550.86 144.28 541.35 144.25 531.84 143.92 522.33 143.29 512.83 142.38 503.32 141.24 493.81 139.89 484.3 138.4 474.79 136.82 465.28 135.21 455.78 133.62 446.27 132.13 436.76 130.78 427.25 129.63 417.74 128.72 408.23 128.08 398.73 127.74 389.22 127.71 379.71 128 370.2 128.58 360.69 129.44 351.18 130.56 341.67 131.87 332.17 133.34 322.66 134.92 313.15 136.53 303.64 138.12 294.13 139.63 284.62 141.01 275.11 142.19 265.61 147.94 250.75 161.59 244.07 170.37 242.46 179.07 240.47 187.66 238 196.14 235 204.5 231.4 212.74 227.18 220.83 222.33 228.78 216.87 236.58 210.83 244.23 204.27 251.73 197.27 259.08 189.9 266.29 182.27 273.36 174.49 280.29 166.67 287.11 158.91 293.81 151.32 300.42 143.99 306.95 137.01 313.42 130.44 326.23 119.03 339.02 109.18 352.01 101.78 365.25 95.61 375.54 91.88 379.03 90.7" stroke-dasharray="9 6" transform="rotate(8.08, 400, 400)" opacity="0.17"></path><path d="M381.82 103.25Q390.72 110.24 399.82 117.35 409.12 124.51 418.61 131.64 428.27 138.65 438.11 145.45 448.1 151.97 458.22 158.13 468.47 163.88 478.82 169.16 489.25 173.95 499.74 178.22 510.27 181.97 520.81 185.23 531.33 188.01 541.81 190.37 552.23 192.38 562.56 194.11 572.77 195.64 582.83 197.08 592.74 198.53 602.45 200.09 611.95 201.85 621.21 203.92 630.23 206.39 638.97 209.32 647.44 212.79 655.61 216.83 663.47 221.48 671.02 226.74 679.93 240.26 677.02 256.78 671.62 265.65 665.57 274.51 659.08 283.38 652.38 292.25 645.71 301.12 639.29 309.99 633.34 318.86 628.07 327.72 623.66 336.59 620.27 345.46 618.02 354.33 616.97 363.2 617.17 372.06 618.61 380.93 621.24 389.8 624.97 398.67 629.67 407.54 635.17 416.4 641.3 425.27 647.82 434.14 654.53 443.01 661.19 451.88 667.56 460.74 673.42 469.61 678.58 478.48 682.86 487.35 686.1 496.22 688.19 505.08 684.4 519.02 670.47 526.17 660.96 529.18 651.2 533.16 641.23 538.14 631.05 544.12 620.71 551.07 610.23 558.92 599.63 567.58 588.94 576.91 578.19 586.77 567.41 596.99 556.62 607.41 545.86 617.81 535.14 628.03 524.5 637.86 513.95 647.14 503.52 655.71 493.23 663.43 483.09 670.18 473.13 675.9 463.36 680.52 453.79 684.05 444.42 686.49 435.28 687.91 426.36 688.4 409.3 686.87 392.92 683.9 385.1 682.07 377.5 680.34 370.14 669.98 362.96 660.24 355.95 651.28 349.09 643.23 335.82 630.81 322.86 621.72 310.24 617.92 297.69 616.8 285.12 618.69 272.42 621.33 259.38 623.32 246.06 623.85 232.19 620.54 217.95 614.35 210.6 609.48 203.13 603.6 195.53 596.77 187.81 589.07 179.96 580.61 172.01 571.52 163.95 561.95 155.79 552.08 155.88 542.89 155.66 533.69 155.15 524.49 154.35 515.3 153.29 506.1 152.02 496.9 150.58 487.71 149 478.51 147.36 469.31 145.71 460.12 144.1 450.92 142.59 441.72 141.23 432.53 140.07 423.33 139.15 414.13 138.51 404.94 138.15 395.74 138.1 386.54 138.36 377.35 138.92 368.15 139.75 358.95 140.84 349.76 142.14 340.56 143.6 331.36 145.19 322.17 146.83 312.97 148.49 303.77 150.08 294.57 151.58 285.38 152.91 276.18 158.8 261.75 172.16 254.96 180.7 253.02 189.16 250.63 197.54 247.72 205.83 244.24 214.01 240.18 222.08 235.52 230.02 230.28 237.83 224.5 245.5 218.22 253.03 211.51 260.41 204.44 267.65 197.11 274.75 189.6 281.7 182.02 288.51 174.46 295.19 167.02 301.75 159.8 308.19 152.87 320.73 140.38 333.04 129.27 345.13 120.59 357.18 113.32 375.61 105.58 381.82 103.25" stroke-dasharray="0 5" transform="rotate(12.12, 400, 400)" opacity="0.40"></path><path d="M385.83 115.8Q403.88 129.43 422.55 143.28 441.73 156.71 461.31 169.15 481.15 180.1 501.11 189.23 521 196.42 540.65 201.79 559.89 205.65 578.56 208.56 596.49 211.16 613.54 214.19 629.62 218.34 644.63 224.22 658.53 232.23 671.31 242.51 662.48 259.39 651.07 276.27 638.52 293.14 626.41 310.02 616.26 326.89 609.34 343.77 606.53 360.65 608.17 377.52 614.07 394.4 623.47 411.27 635.21 428.15 647.8 445.02 659.65 461.9 669.29 478.78 675.5 495.65 677.5 512.53 660.89 518.06 643.27 527.12 624.75 539.74 605.49 555.55 585.67 573.77 565.46 593.32 545.06 612.95 524.64 631.37 504.4 647.4 484.5 660.13 465.07 669.02 446.24 673.98 428.1 675.38 410.72 674.02 394.12 671.04 378.32 667.8 365.34 648.65 352.85 632.26 340.73 619.46 328.84 610.65 317.05 605.77 305.22 604.3 293.24 605.33 281.01 607.67 268.42 610.01 255.41 611.07 241.94 609.73 227.97 605.18 213.51 597 198.58 585.2 183.22 570.21 167.48 552.83 166.94 535.09 165.28 517.34 162.71 499.59 159.54 481.84 156.17 464.09 153.03 446.34 150.52 428.59 148.94 410.85 148.5 393.1 149.26 375.35 151.11 357.6 153.82 339.85 157.06 322.1 160.41 304.35 163.46 286.6 165.82 268.85 182.52 265.39 199.03 260.14 215.27 252.78 231.15 243.21 246.6 231.6 261.55 218.36 275.97 204.08 289.83 189.43 303.14 175.11 315.91 161.77 328.21 149.9 340.1 139.8 351.69 131.58 363.08 125.08 380.12 117.89 385.83 115.8" stroke-dasharray="7 3" transform="rotate(16.16, 400, 400)" opacity="0.23"></path><path d="M390.78 128.34Q408.63 141.5 426.9 154.87 445.5 167.91 464.29 180.08 483.14 190.92 501.92 200.1 520.48 207.48 538.66 213.09 556.33 217.16 573.35 220.11 589.61 222.48 605.02 224.92 619.49 228.07 632.99 232.53 645.5 238.75 657.04 247.04 647.78 263.1 636.6 279.16 624.78 295.22 613.67 311.28 604.55 327.33 598.46 343.39 596.1 359.45 597.73 375.51 603.19 391.57 611.83 407.63 622.66 423.68 634.46 439.74 645.85 455.8 655.54 471.86 662.42 487.92 665.7 503.97 650.64 511.61 634.61 522.48 617.7 536.38 600.03 552.77 581.73 570.82 562.94 589.52 543.82 607.77 524.54 624.47 505.24 638.7 486.08 649.77 467.2 657.33 448.73 661.39 430.75 662.35 413.37 660.95 396.64 658.19 380.59 655.25 368.95 637.07 357.62 621.31 346.48 608.73 335.41 599.73 324.29 594.3 313.01 592.07 301.48 592.34 289.62 594.14 277.36 596.38 264.66 597.91 251.49 597.72 237.84 594.96 223.73 589.11 209.19 579.95 194.26 567.64 179.01 552.66 178.06 535.59 176.07 518.52 173.28 501.44 169.98 484.37 166.58 467.3 163.45 450.23 160.95 433.15 159.38 416.08 158.91 399.01 159.59 381.93 161.35 364.86 163.98 347.79 167.19 330.71 170.6 313.64 173.83 296.57 176.51 279.49 192.63 275.14 208.63 268.88 224.41 260.56 239.91 250.24 255.03 238.19 269.73 224.88 283.94 210.86 297.63 196.76 310.79 183.2 323.42 170.72 335.54 159.7 347.2 150.39 358.46 142.83 369.41 136.86 385.46 130.26 390.78 128.34" stroke-dasharray="9 2" transform="rotate(20.200000000000003, 400, 400)" opacity="0.33"></path><path d="M396.35 140.88Q413.73 153.56 431.34 166.44 449.1 179.06 466.87 190.93 484.54 201.63 501.99 210.84 519.09 218.39 535.73 224.25 551.8 228.58 567.19 231.68 581.84 233.99 595.67 236.06 608.65 238.44 620.76 241.72 632.01 246.37 642.43 252.76 632.99 268.04 622.19 283.33 611.17 298.61 601.07 313.89 592.94 329.17 587.62 344.45 585.67 359.74 587.3 375.02 592.33 390.3 600.23 405.58 610.2 420.87 621.18 436.15 632.04 451.43 641.65 466.71 649 481.99 653.33 497.27 639.73 506.8 625.23 519.11 609.89 533.84 593.79 550.37 577.04 567.88 559.73 585.47 542.01 602.18 523.99 617.13 505.81 629.61 487.61 639.12 469.5 645.45 451.62 648.71 434.06 649.3 416.91 647.89 400.26 645.35 384.15 642.71 373.61 625.47 363.21 610.37 352.84 598.07 342.4 588.94 331.78 583.03 320.92 580.1 309.73 579.6 298.16 580.78 286.16 582.73 273.73 584.49 260.84 585.11 247.5 583.8 233.74 579.96 219.6 573.24 205.11 563.58 190.35 551.2 189 534.84 186.72 518.48 183.73 502.12 180.35 485.76 176.94 469.4 173.84 453.04 171.38 436.68 169.82 420.31 169.31 403.95 169.92 387.59 171.57 371.23 174.1 354.87 177.24 338.51 180.67 322.15 184.02 305.79 186.96 289.43 202.49 284.03 217.94 276.74 233.24 267.55 248.32 256.63 263.09 244.33 277.5 231.1 291.49 217.49 305.01 204.06 318.04 191.32 330.56 179.73 342.58 169.58 354.11 161.05 365.18 154.13 375.87 148.68 391.29 142.64 396.35 140.88" stroke-dasharray="2 1" transform="rotate(24.24, 400, 400)" opacity="0.15"></path><path d="M402.16 153.43Q418.8 165.6 435.52 177.98 452.21 190.16 468.78 201.7 485.12 212.22 501.13 221.42 516.72 229.11 531.79 235.23 546.26 239.85 560.08 243.19 573.19 245.59 585.55 247.48 597.15 249.35 608 251.71 618.12 255.04 627.55 259.74 618.15 274.28 607.88 288.83 597.72 303.37 588.61 317.91 581.43 332.45 576.83 347 575.26 361.54 576.86 376.08 581.48 390.62 588.69 405.17 597.81 419.71 607.97 434.25 618.24 448.79 627.63 463.33 635.27 477.87 640.45 492.42 628.2 503.48 615.14 516.8 601.3 531.9 586.74 548.16 571.52 564.81 555.73 581.06 539.46 596.12 522.81 609.32 505.89 620.12 488.81 628.18 471.68 633.41 454.61 635.97 437.7 636.24 421.04 634.84 404.71 632.53 388.78 630.17 379.09 613.87 369.38 599.45 359.58 587.47 349.58 578.28 339.33 571.97 328.76 568.4 317.82 567.16 306.48 567.66 294.72 569.18 282.53 570.92 269.91 572.04 256.89 571.83 243.49 569.65 229.76 565.09 215.74 557.92 201.49 548.16 199.76 532.55 197.21 516.94 194.07 501.33 190.64 485.72 187.25 470.12 184.2 454.51 181.8 438.9 180.25 423.29 179.72 407.68 180.24 392.06 181.78 376.45 184.18 360.84 187.22 345.23 190.61 329.62 194.04 314.01 197.18 298.4 212.09 291.92 226.96 283.66 241.73 273.74 256.34 262.42 270.72 250.05 284.81 237.09 298.54 224.03 311.87 211.36 324.77 199.5 337.2 188.81 349.14 179.53 360.61 171.76 371.6 165.48 382.16 160.52 397.25 155.03 402.16 153.43" stroke-dasharray="8 9" transform="rotate(28.28, 400, 400)" opacity="0.16"></path><path d="M407.83 165.97Q423.5 177.62 439.11 189.49 454.57 201.2 469.8 212.38 484.7 222.68 499.22 231.84 513.26 239.63 526.78 245.99 539.72 250.92 552.04 254.56 563.71 257.17 574.72 259.06 585.08 260.66 594.8 262.39 603.62 273.25 593.69 295.64 584.42 309.47 576.3 323.3 570.02 337.13 566.09 350.96 564.86 364.79 566.42 378.63 570.66 392.46 577.2 406.29 585.49 420.12 594.85 433.95 604.46 447.78 613.54 461.62 621.3 475.45 627.09 489.28 616.09 501.45 604.37 515.3 591.96 530.33 578.87 545.93 565.15 561.44 550.87 576.19 536.07 589.56 520.85 601.04 505.29 610.24 489.47 616.97 473.48 621.21 457.42 623.16 441.38 623.18 425.43 621.82 409.67 619.73 394.15 617.62 385.07 602.26 375.85 588.53 366.43 576.92 356.74 567.75 346.73 561.13 336.37 556.98 325.63 555.03 314.48 554.83 302.93 555.82 290.98 557.33 278.65 558.68 265.95 559.2 252.94 558.32 239.64 555.57 226.11 550.63 212.39 543.37 210.32 528.55 207.55 513.73 204.3 498.91 200.86 484.09 197.51 469.27 194.54 454.44 192.2 439.62 190.69 424.8 190.13 409.98 190.57 395.16 191.98 380.34 194.23 365.52 197.13 350.7 200.45 335.88 203.89 321.06 207.17 306.23 221.42 298.72 235.67 289.63 249.88 279.18 263.98 267.65 277.91 255.42 291.62 242.9 305.05 230.52 318.15 218.69 330.87 207.76 343.19 197.99 355.07 189.57 366.5 182.55 377.48 176.87 388.01 172.4 402.97 167.42 407.83 165.97" stroke-dasharray="3 5" transform="rotate(32.32, 400, 400)" opacity="0.23"></path><path d="M412.98 178.53Q427.49 189.64 441.84 200.97 455.94 212.2 469.73 222.98 483.16 233.03 496.17 242.09 508.7 249.95 520.73 256.51 532.21 261.75 543.14 265.74 553.49 268.64 563.29 270.7 581.02 273.71 597.34 277.37 588.56 290.51 579.66 303.65 571.31 316.8 564.14 329.94 558.7 343.08 555.39 356.22 554.46 369.36 555.99 382.5 559.85 395.64 565.76 408.79 573.27 421.93 581.81 435.07 590.74 448.21 599.4 461.35 607.11 474.5 613.32 487.64 603.45 500.43 592.98 514.33 581.89 528.86 570.19 543.48 557.92 557.63 545.09 570.77 531.77 582.44 518 592.26 503.85 599.98 489.38 605.49 474.66 608.86 459.76 610.29 444.77 610.12 429.75 608.81 414.78 606.93 399.92 605.07 391.23 590.64 382.32 577.61 373.14 566.41 363.64 557.33 353.8 550.48 343.59 545.84 333.01 543.23 322.05 542.34 310.71 542.71 299.01 543.83 286.99 545.15 274.65 546.09 262.05 546.13 249.22 544.81 236.2 541.76 223.05 536.76 220.68 522.77 217.73 508.77 214.42 494.77 211 480.77 207.73 466.77 204.86 452.78 202.6 438.78 201.13 424.78 200.54 410.78 200.9 396.79 202.16 382.79 204.25 368.79 206.99 354.79 210.18 340.8 213.58 326.8 216.94 312.8 230.49 304.39 244.08 294.69 257.68 283.93 271.21 272.43 284.64 260.53 297.91 248.61 310.97 237.03 323.78 226.11 336.28 216.13 348.44 207.29 360.22 199.71 371.61 193.41 382.58 188.33 393.13 184.31 408.12 179.83 412.98 178.53" stroke-dasharray="9 10" transform="rotate(36.36, 400, 400)" opacity="0.81"></path><path d="M417.25 191.07Q430.47 201.64 443.45 212.42 456.13 223.13 468.47 233.49 480.42 243.25 491.96 252.16 503.05 260.04 513.67 266.76 523.8 272.29 533.46 276.63 542.63 279.89 551.34 282.23 570.6 292.67 565.8 312.69 558.38 325.15 552.13 337.61 547.48 350.08 544.73 362.54 544.07 375 545.55 387.47 549.06 399.93 554.37 412.39 561.12 424.86 568.87 437.32 577.1 449.78 585.25 462.25 592.78 474.71 599.19 487.18 590.36 500.08 581.01 513.59 571.14 527.26 560.74 540.63 549.82 553.27 538.4 564.75 526.51 574.74 514.18 582.99 501.45 589.35 488.37 593.79 474.99 596.4 461.38 597.38 447.58 597.06 433.66 595.83 419.67 594.15 405.69 592.53 397.23 579.01 388.49 566.71 379.44 555.97 370.07 547.03 360.34 540.04 350.27 535 339.84 531.8 329.07 530.22 317.98 529.94 306.57 530.56 294.88 531.64 282.95 532.7 270.8 533.3 258.47 533.01 246.01 531.46 233.45 528.38 230.83 515.23 227.76 502.09 224.43 488.94 221.08 475.8 217.92 462.65 215.16 449.51 213 436.36 211.56 423.22 210.96 410.08 211.23 396.93 212.35 383.79 214.25 370.64 216.8 357.5 219.83 344.35 223.13 331.21 226.5 318.07 239.32 308.97 252.21 298.9 265.14 288.09 278.05 276.84 290.92 265.47 303.68 254.29 316.3 243.59 328.74 233.63 340.94 224.62 352.88 216.71 364.51 209.95 375.81 204.35 386.74 199.82 397.3 196.24 412.36 192.24 417.25 191.07" stroke-dasharray="6 7" transform="rotate(40.400000000000006, 400, 400)" opacity="0.55"></path><path d="M420.38 203.61Q432.22 213.62 443.78 223.83 455.03 234.01 465.93 243.92 476.46 253.34 486.61 262.05 496.34 269.89 505.67 276.73 514.59 282.5 523.1 287.18 538.82 293.16 553.52 296.87 559.89 304.31 552.15 322.49 545.64 334.28 540.27 346.06 536.35 357.85 534.12 369.64 533.69 381.42 535.11 393.21 538.29 405 543.03 416.78 549.07 428.57 556.04 440.36 563.54 452.15 571.12 463.93 578.34 475.72 584.78 487.51 576.87 500.05 568.55 512.76 559.78 525.27 550.57 537.2 540.91 548.23 530.81 558.05 520.28 566.44 509.33 573.23 498.01 578.36 486.33 581.85 474.33 583.81 462.06 584.44 449.55 584.01 436.85 582.87 424.01 581.39 411.08 579.98 402.72 567.38 394.07 555.81 385.11 545.56 375.82 536.84 366.21 529.78 356.27 524.43 346.03 520.72 335.49 518.5 324.67 517.56 313.6 517.6 302.31 518.27 290.82 519.22 279.17 520.05 267.39 520.4 255.51 519.94 243.58 518.37 240.79 506.1 237.65 493.83 234.35 481.56 231.09 469.29 228.06 457.02 225.44 444.75 223.38 432.48 222 420.21 221.38 407.94 221.57 395.67 222.54 383.41 224.24 371.14 226.58 358.87 229.4 346.6 232.56 334.33 235.86 322.06 247.92 312.56 260.07 302.39 272.28 291.79 284.52 281.01 296.76 270.34 308.95 260.02 321.05 250.28 333.03 241.32 344.85 233.29 356.48 226.27 367.87 220.3 379 215.37 389.84 211.38 400.36 208.21 415.46 204.65 420.38 203.61" stroke-dasharray="7 11" transform="rotate(44.44, 400, 400)" opacity="0.38"></path><path d="M422.14 216.16Q432.59 225.59 442.75 235.22 452.61 244.84 462.14 254.27 471.33 263.3 480.19 271.76 488.7 279.49 496.86 286.38 512.06 296.86 526.36 304.51 542.28 314.95 538.73 332.75 533.11 343.85 528.56 354.96 525.32 366.06 523.54 377.17 523.32 388.27 524.68 399.37 527.53 410.48 531.75 421.58 537.1 432.69 543.32 443.79 550.08 454.9 557.05 466 563.86 477.11 570.16 488.21 563.07 499.97 555.66 511.56 547.89 522.68 539.75 533.05 531.24 542.44 522.36 550.65 513.1 557.53 503.47 563 493.49 567.04 483.18 569.71 472.55 571.12 461.63 571.47 450.46 570.98 439.06 569.93 427.47 568.64 415.72 567.44 407.42 555.74 398.82 544.91 389.92 535.19 380.73 526.75 371.26 519.72 361.5 514.14 351.49 510.01 341.24 507.22 330.76 505.64 320.09 505.05 309.24 505.21 298.25 505.84 287.15 506.62 275.96 507.27 264.72 507.48 253.45 507 250.54 495.61 247.4 484.23 244.18 472.85 241.05 461.47 238.18 450.09 235.7 438.71 233.76 427.33 232.44 415.95 231.81 404.57 231.91 393.19 232.73 381.81 234.23 370.43 236.33 359.05 238.93 347.67 241.89 336.29 245.06 324.91 256.32 315.31 267.69 305.32 279.14 295.17 290.65 285.07 302.19 275.24 313.73 265.87 325.24 257.15 336.68 249.2 348.03 242.13 359.24 235.98 370.29 230.78 381.15 226.47 391.79 222.99 402.18 220.21 417.22 217.07 422.14 216.16" stroke-dasharray="11 9" transform="rotate(48.48, 400, 400)" opacity="0.37"></path><path d="M422.42 228.7Q431.52 237.55 440.34 246.57 448.89 255.62 457.15 264.52 465.13 273.13 472.82 281.28 480.24 288.84 487.38 295.71 500.81 306.61 513.59 314.99 528.3 326.12 525.55 343.13 520.78 353.54 517 363.95 514.37 374.36 513 384.76 512.96 395.17 514.24 405.58 516.8 415.98 520.51 426.39 525.22 436.8 530.71 447.21 536.75 457.61 543.06 468.02 549.37 478.43 555.4 488.84 549.04 499.47 542.43 509.69 535.55 519.29 528.38 528.06 520.91 535.85 513.12 542.54 505.03 548.04 496.62 552.33 487.91 555.42 478.89 557.39 469.58 558.36 460 558.48 450.16 557.96 440.09 557.02 429.8 555.91 419.32 554.89 411.05 544.1 402.52 534.02 393.72 524.85 384.68 516.75 375.4 509.83 365.89 504.13 356.18 499.67 346.28 496.4 336.22 494.23 326.01 493.02 315.68 492.59 305.25 492.75 294.75 493.27 284.2 493.91 266.87 489.26 257.02 473.61 253.92 463.13 250.96 452.64 248.26 442.15 245.95 431.67 244.13 421.18 242.87 410.69 242.24 400.21 242.26 389.72 242.94 379.23 244.23 368.75 246.09 358.26 248.42 347.78 251.14 337.29 254.12 326.8 264.55 317.41 275.11 307.88 285.76 298.4 296.49 289.14 307.28 280.27 318.1 271.93 328.93 264.25 339.74 257.3 350.51 251.17 361.21 245.86 371.81 241.37 382.28 237.66 392.6 234.65 402.75 232.24 417.56 229.5 422.42 228.7" stroke-dasharray="9 3" transform="rotate(52.52, 400, 400)" opacity="0.89"></path><path d="M421.21 241.25Q429.03 249.49 436.62 257.9 443.98 266.35 451.1 274.7 458 282.84 464.67 290.62 471.13 297.95 477.4 304.71 489.31 315.89 500.78 324.89 514.53 336.96 512.63 353.29 508.67 362.98 505.59 372.67 503.5 382.36 502.49 392.06 502.59 401.75 503.8 411.44 506.08 421.13 509.32 430.82 513.43 440.51 518.23 450.2 523.55 459.89 529.19 469.58 534.93 479.27 540.57 488.96 534.85 498.22 528.96 506.94 522.86 514.95 516.54 522.14 503.08 533.19 488.86 541.23 473.37 544.52 457.12 545.49 448.57 544.96 439.8 544.14 430.81 543.2 421.63 542.35 413.44 532.44 405.03 523.12 396.41 514.55 387.59 506.84 378.59 500.1 369.41 494.37 360.09 489.69 350.62 486.03 341.05 483.34 331.38 481.55 321.63 480.53 311.82 480.14 301.98 480.23 292.13 480.61 275.89 476.52 266.52 462.35 263.59 452.75 260.82 443.16 258.32 433.56 256.18 423.97 254.49 414.37 253.31 404.78 252.68 395.18 252.63 385.58 253.16 375.99 254.24 366.39 255.84 356.8 257.9 347.2 260.34 337.61 263.07 328.01 272.66 319.12 282.37 310.3 292.18 301.67 302.09 293.39 312.07 285.56 322.11 278.28 332.18 271.63 342.28 265.67 352.38 260.43 362.45 255.92 372.49 252.1 382.45 248.94 392.33 246.37 402.09 244.31 416.47 241.94 421.21 241.25" stroke-dasharray="11 1" transform="rotate(56.56, 400, 400)" opacity="0.12"></path><path d="M418.57 253.8Q431.73 269.21 444.16 284.81 455.92 299.79 467.08 313.39 477.75 324.97 488.07 334.13 498.18 340.74 508.27 344.98 499.97 362.88 494.32 380.78 492.02 398.68 493.37 416.58 498.18 434.48 505.87 452.38 515.45 470.27 525.73 488.17 515.33 503.08 504.36 515.23 492.71 524.15 480.29 529.74 467.07 532.3 453.01 532.49 438.14 531.27 422.49 529.8 406.28 512.22 389.44 497.01 372.07 484.87 354.28 476.12 336.22 470.7 318 468.14 299.75 467.66 281.6 468.26 275.93 450.83 270.64 433.41 266.4 415.98 263.75 398.56 263.01 381.13 264.27 363.7 267.39 346.28 271.96 328.85 289.53 312.79 307.51 297.94 325.84 284.98 344.41 274.34 363.1 266.17 381.78 260.33 400.32 256.41 418.57 253.8 418.57 253.8 418.57 253.8" stroke-dasharray="4 6" transform="rotate(60.599999999999994, 400, 400)" opacity="0.51"></path><path d="M414.7 266.34Q425.9 280.47 436.57 294.83 446.79 308.78 456.63 321.72 466.19 333.13 475.57 342.62 484.91 349.98 494.33 355.21 487.6 371.58 483.2 387.95 481.59 404.32 482.93 420.69 487.09 437.06 493.64 453.43 501.88 469.8 510.97 486.17 501.65 498.01 491.94 507.34 481.77 513.95 471.05 517.92 459.73 519.58 447.76 519.5 435.13 518.44 421.85 517.25 406.27 501.32 390.25 487.25 373.9 475.6 357.31 466.68 340.59 460.53 323.82 456.91 307.12 455.35 290.56 455.21 285.25 439.51 280.43 423.82 276.61 408.12 274.18 392.43 273.4 376.73 274.34 361.03 276.91 345.34 280.84 329.64 296.64 315.58 312.84 302.92 329.4 292.08 346.24 283.3 363.29 276.6 380.45 271.8 406.16 267.44 414.7 266.34" stroke-dasharray="9 2" transform="rotate(64.64, 400, 400)" opacity="0.13"></path><path d="M409.84 278.89Q419.37 291.72 428.57 304.78 437.5 317.61 446.23 329.75 454.83 340.77 463.4 350.34 472.02 358.23 480.79 364.34 475.51 379.13 472.21 393.93 471.18 408.72 472.49 423.51 476.04 438.3 481.53 453.1 488.5 467.89 496.35 482.69 487.99 491.64 479.42 498.46 470.54 503.13 461.29 505.79 451.63 506.77 441.5 506.53 430.88 505.63 419.75 504.71 405.06 490.41 390.12 477.56 375.01 466.56 359.79 457.69 344.55 451.03 329.35 446.52 314.26 443.9 299.35 442.78 294.5 428.78 290.2 414.77 286.81 400.77 284.62 386.76 283.81 372.76 284.45 358.75 286.48 344.75 289.74 330.74 303.77 318.89 318.16 308.45 332.88 299.66 347.91 292.61 363.18 287.23 378.64 283.37 402.03 279.8 409.84 278.89" stroke-dasharray="7 9" transform="rotate(68.68, 400, 400)" opacity="0.32"></path><path d="M404.33 291.43Q412.48 302.93 420.45 314.66 428.29 326.28 436.06 337.46 443.83 347.88 451.64 357.27 459.56 365.42 467.66 372.17 463.7 385.35 461.36 398.52 460.8 411.7 462.06 424.87 465.05 438.05 469.57 451.23 475.32 464.4 481.93 477.58 466.81 487.86 451.19 493.42 434.26 493.39 416.32 492.16 402.81 479.5 389.19 467.92 375.5 457.72 361.82 449.12 348.18 442.23 334.64 437.06 321.24 433.5 308.02 431.35 303.72 419 299.96 406.64 297.01 394.28 295.06 381.92 294.24 369.57 294.6 357.21 296.13 344.85 298.72 332.5 310.97 322.92 323.54 314.64 336.41 307.75 349.57 302.25 362.97 298.07 376.6 295.03 397.36 292.17 404.33 291.43" stroke-dasharray="10 1" transform="rotate(72.72, 400, 400)" opacity="0.24"></path><path d="M398.52 303.98Q405.53 314.12 412.47 324.47 419.38 334.81 426.31 344.89 433.29 354.5 440.37 363.43 447.59 371.51 454.98 378.59 452.17 390.11 450.63 401.64 450.45 413.16 451.62 424.69 454.09 436.21 457.74 447.74 461.75 467.15 454.49 478.03 440.86 480.46 426.79 480.68 419.41 480.12 411.81 479.62 399.72 468.58 387.62 458.33 375.54 449.06 363.51 440.95 351.58 434.1 339.77 428.55 328.11 424.28 316.61 421.21 312.9 410.46 309.71 399.71 307.2 388.96 305.49 378.21 304.69 367.46 304.82 356.71 305.88 345.96 307.81 335.21 318.31 327.85 329.07 321.57 340.09 316.39 351.35 312.26 362.85 309.11 374.56 306.79 392.49 304.56 398.52 303.98" stroke-dasharray="3 4" transform="rotate(76.76, 400, 400)" opacity="0.66"></path><path d="M392.82 316.52Q398.85 325.28 404.89 334.23 410.97 343.21 417.11 352.07 423.33 360.67 429.66 368.87 436.13 376.53 442.75 383.55 440.92 393.41 440.03 403.26 440.12 413.12 441.18 422.97 443.18 432.83 446.04 442.68 442.69 463.21 430.69 468.12 418.76 467.75 406.51 467.08 396.05 457.65 385.63 448.77 375.28 440.57 365.02 433.16 354.86 426.62 344.82 421 334.92 416.33 325.17 412.58 322.09 403.4 319.47 394.22 317.39 385.04 315.93 375.85 315.16 366.67 315.09 357.49 320.8 341.05 334.85 329.29 344.04 325.58 353.42 322.63 363 320.35 372.77 318.66 387.77 316.97 392.82 316.52" stroke-dasharray="4 4" transform="rotate(80.80000000000001, 400, 400)" opacity="0.56"></path><path d="M387.59 329.07Q397.97 343.93 408.6 359.02 419.56 373.64 430.99 387.12 429.54 403.47 430.75 419.82 434.47 436.17 440.34 452.52 430.46 454.72 420.65 455.31 410.79 454.98 400.77 454.52 383.47 439.25 366.49 425.69 349.89 414.37 333.73 405.56 329.23 390.28 326.37 374.99 325.44 359.71 326.55 344.43 340.94 337.83 355.92 333.35 379.53 329.84 387.59 329.07" stroke-dasharray="6 9" transform="rotate(84.84, 400, 400)" opacity="0.69"></path><path d="M383.19 341.62Q391.91 353.58 400.86 365.78 410.1 377.86 419.67 389.44 419.16 402.44 420.31 415.44 421.03 435.38 410.98 442.47 402.98 442.21 394.98 441.98 381.39 429.74 368.07 418.52 355.05 408.6 342.36 400.17 339.02 387.93 336.81 375.69 335.88 363.45 336.29 351.21 347.44 347.19 358.97 344.43 377.04 342.14 383.19 341.62" stroke-dasharray="3 5" transform="rotate(88.88, 400, 400)" opacity="0.36"></path><path d="M379.92 354.16Q386.86 363.19 393.98 372.4 401.29 381.64 408.8 390.75 408.88 400.42 409.87 410.09 402.77 427.11 389.53 429.43 379.63 420.25 369.92 411.59 360.41 403.58 351.11 396.32 348.83 387.1 347.24 377.89 350.4 363.01 362.68 355.83 375.55 354.49 379.92 354.16" stroke-dasharray="2 5" transform="rotate(92.92, 400, 400)" opacity="0.56"></path><path d="M377.99 366.7Q387.98 378.9 398.34 391.34 396.37 410.51 384.77 416.89 372.2 404.86 360.02 393.83 370.2 370.61 377.99 366.7" stroke-dasharray="4 3" transform="rotate(96.96, 400, 400)" opacity="0.68"></path></g></svg>