<svg xmlns="http://www.w3.org/2000/svg" version="1.1" xmlns:xlink="http://www.w3.org/1999/xlink" xmlns:svgjs="http://svgjs.dev/svgjs" viewBox="0 0 800 800"><g shape-rendering="crispEdges"><g><use xlink:href="#SvgjsSymbol1000" x="275" y="237.5" fill="#221c5a"></use><use xlink:href="#SvgjsSymbol1001" x="275" y="237.5" fill="#504388"></use><use xlink:href="#SvgjsSymbol1002" x="275" y="237.5" fill="#000031"></use></g><g><use xlink:href="#SvgjsSymbol1000" x="325" y="237.5" fill="#221c5a"></use><use xlink:href="#SvgjsSymbol1001" x="325" y="237.5" fill="#504388"></use><use xlink:href="#SvgjsSymbol1002" x="325" y="237.5" fill="#000031"></use></g><g><use xlink:href="#SvgjsSymbol1000" x="375" y="237.5" fill="#221c5a"></use><use xlink:href="#SvgjsSymbol1001" x="375" y="237.5" fill="#504388"></use><use xlink:href="#SvgjsSymbol1002" x="375" y="237.5" fill="#000031"></use></g><g><use xlink:href="#SvgjsSymbol1000" x="250" y="200" fill="#221c5a"></use><use xlink:href="#SvgjsSymbol1001" x="250" y="200" fill="#504388"></use><use xlink:href="#SvgjsSymbol1002" x="250" y="200" fill="#000031"></use></g><g><use xlink:href="#SvgjsSymbol1000" x="225" y="162.5" fill="#221c5a"></use><use xlink:href="#SvgjsSymbol1001" x="225" y="162.5" fill="#504388"></use><use xlink:href="#SvgjsSymbol1002" x="225" y="162.5" fill="#000031"></use></g><g><use xlink:href="#SvgjsSymbol1000" x="250" y="125" fill="#221c5a"></use><use xlink:href="#SvgjsSymbol1001" x="250" y="125" fill="#504388"></use><use xlink:href="#SvgjsSymbol1002" x="250" y="125" fill="#000031"></use></g><g><use xlink:href="#SvgjsSymbol1000" x="300" y="125" fill="#221c5a"></use><use xlink:href="#SvgjsSymbol1001" x="300" y="125" fill="#504388"></use><use xlink:href="#SvgjsSymbol1002" x="300" y="125" fill="#000031"></use></g><g><use xlink:href="#SvgjsSymbol1000" x="275" y="87.5" fill="#221c5a"></use><use xlink:href="#SvgjsSymbol1001" x="275" y="87.5" fill="#504388"></use><use xlink:href="#SvgjsSymbol1002" x="275" y="87.5" fill="#000031"></use></g><g><use xlink:href="#SvgjsSymbol1000" x="350" y="125" fill="#221c5a"></use><use xlink:href="#SvgjsSymbol1001" x="350" y="125" fill="#504388"></use><use xlink:href="#SvgjsSymbol1002" x="350" y="125" fill="#000031"></use></g><g><use xlink:href="#SvgjsSymbol1000" x="400" y="137.5" fill="#221c5a"></use><use xlink:href="#SvgjsSymbol1001" x="400" y="137.5" fill="#504388"></use><use xlink:href="#SvgjsSymbol1002" x="400" y="137.5" fill="#000031"></use></g><g><use xlink:href="#SvgjsSymbol1000" x="387.5" y="112.5" fill="#221c5a"></use><use xlink:href="#SvgjsSymbol1001" x="387.5" y="112.5" fill="#504388"></use><use xlink:href="#SvgjsSymbol1002" x="387.5" y="112.5" fill="#000031"></use></g><g><use xlink:href="#SvgjsSymbol1000" x="400" y="200" fill="#221c5a"></use><use xlink:href="#SvgjsSymbol1001" x="400" y="200" fill="#504388"></use><use xlink:href="#SvgjsSymbol1002" x="400" y="200" fill="#000031"></use></g><g><use xlink:href="#SvgjsSymbol1000" x="425" y="162.5" fill="#221c5a"></use><use xlink:href="#SvgjsSymbol1001" x="425" y="162.5" fill="#504388"></use><use xlink:href="#SvgjsSymbol1002" x="425" y="162.5" fill="#000031"></use></g><g><use xlink:href="#SvgjsSymbol1000" x="325" y="87.5" fill="#221c5a"></use><use xlink:href="#SvgjsSymbol1001" x="325" y="87.5" fill="#504388"></use><use xlink:href="#SvgjsSymbol1002" x="325" y="87.5" fill="#000031"></use></g><g><use xlink:href="#SvgjsSymbol1000" x="375" y="87.5" fill="#221c5a"></use><use xlink:href="#SvgjsSymbol1001" x="375" y="87.5" fill="#504388"></use><use xlink:href="#SvgjsSymbol1002" x="375" y="87.5" fill="#000031"></use></g><g><use xlink:href="#SvgjsSymbol1000" x="325" y="162.5" fill="#221c5a"></use><use xlink:href="#SvgjsSymbol1001" x="325" y="162.5" fill="#504388"></use><use xlink:href="#SvgjsSymbol1002" x="325" y="162.5" fill="#000031"></use></g><g><use xlink:href="#SvgjsSymbol1000" x="325" y="200" fill="#221c5a"></use><use xlink:href="#SvgjsSymbol1001" x="325" y="200" fill="#504388"></use><use xlink:href="#SvgjsSymbol1002" x="325" y="200" fill="#000031"></use></g><g><use xlink:href="#SvgjsSymbol1000" x="375" y="162.5" fill="#645bb7"></use><use xlink:href="#SvgjsSymbol1001" x="375" y="162.5" fill="#9688ea"></use><use xlink:href="#SvgjsSymbol1002" x="375" y="162.5" fill="#323186"></use></g><g><use xlink:href="#SvgjsSymbol1000" x="350" y="187.5" fill="#645bb7"></use><use xlink:href="#SvgjsSymbol1001" x="350" y="187.5" fill="#9688ea"></use><use xlink:href="#SvgjsSymbol1002" x="350" y="187.5" fill="#323186"></use></g><g><use xlink:href="#SvgjsSymbol1000" x="362.5" y="212.5" fill="#645bb7"></use><use xlink:href="#SvgjsSymbol1001" x="362.5" y="212.5" fill="#9688ea"></use><use xlink:href="#SvgjsSymbol1002" x="362.5" y="212.5" fill="#323186"></use></g><g><use xlink:href="#SvgjsSymbol1000" x="275" y="162.5" fill="#645bb7"></use><use xlink:href="#SvgjsSymbol1001" x="275" y="162.5" fill="#9688ea"></use><use xlink:href="#SvgjsSymbol1002" x="275" y="162.5" fill="#323186"></use></g><g><use xlink:href="#SvgjsSymbol1000" x="300" y="200" fill="#645bb7"></use><use xlink:href="#SvgjsSymbol1001" x="300" y="200" fill="#9688ea"></use><use xlink:href="#SvgjsSymbol1002" x="300" y="200" fill="#323186"></use></g><g><use xlink:href="#SvgjsSymbol1000" x="350" y="62.5" fill="#935e19"></use><use xlink:href="#SvgjsSymbol1001" x="350" y="62.5" fill="#c78b46"></use><use xlink:href="#SvgjsSymbol1002" x="350" y="62.5" fill="#613400"></use></g><g><use xlink:href="#SvgjsSymbol1000" x="325" y="137.5" fill="#935e19"></use><use xlink:href="#SvgjsSymbol1001" x="325" y="137.5" fill="#c78b46"></use><use xlink:href="#SvgjsSymbol1002" x="325" y="137.5" fill="#613400"></use></g><g><use xlink:href="#SvgjsSymbol1000" x="375" y="225" fill="#935e19"></use><use xlink:href="#SvgjsSymbol1001" x="375" y="225" fill="#c78b46"></use><use xlink:href="#SvgjsSymbol1002" x="375" y="225" fill="#613400"></use></g><g><use xlink:href="#SvgjsSymbol1000" x="237.5" y="162.5" fill="#935e19"></use><use xlink:href="#SvgjsSymbol1001" x="237.5" y="162.5" fill="#c78b46"></use><use xlink:href="#SvgjsSymbol1002" x="237.5" y="162.5" fill="#613400"></use></g><g><use xlink:href="#SvgjsSymbol1000" x="425" y="125" fill="#935e19"></use><use xlink:href="#SvgjsSymbol1001" x="425" y="125" fill="#c78b46"></use><use xlink:href="#SvgjsSymbol1002" x="425" y="125" fill="#613400"></use></g></g><symbol id="SvgjsSymbol1000"><polygon points="0,12.5 25,0 50,12.5 25,25"></polygon></symbol><symbol id="SvgjsSymbol1001"><polygon points="0,12.5 25,25 25,50 0,37.5"></polygon></symbol><symbol id="SvgjsSymbol1002"><polygon points="25,25 50,12.5 50,37.5 25,50"></polygon></symbol><g></g></svg>