<svg width="518" height="434" viewBox="0 0 518 434" fill="none" xmlns="http://www.w3.org/2000/svg">
<g clip-path="url(#clip0_2_2)">
<path d="M212.822 249.136C215.252 248.783 217.023 247.13 216.777 245.443C216.531 243.756 214.361 242.675 211.931 243.028C209.5 243.38 207.729 245.034 207.975 246.721C208.221 248.407 210.391 249.489 212.822 249.136Z" fill="#E6E6E6"/>
<path d="M183.881 246.319C186.312 245.966 188.083 244.313 187.837 242.626C187.591 240.939 185.421 239.858 182.99 240.211C180.559 240.563 178.788 242.217 179.034 243.904C179.28 245.59 181.45 246.672 183.881 246.319Z" fill="#3F3D56"/>
<path d="M220.746 225.764C223.177 225.411 224.948 223.758 224.702 222.071C224.456 220.384 222.286 219.303 219.856 219.656C217.425 220.009 215.654 221.662 215.9 223.349C216.146 225.035 218.316 226.117 220.746 225.764Z" fill="#FF6584"/>
<path d="M230.452 216.564C231.532 216.556 232.398 215.294 232.386 213.746C232.374 212.197 231.489 210.948 230.409 210.957C229.329 210.965 228.463 212.227 228.475 213.775C228.487 215.324 229.372 216.572 230.452 216.564Z" fill="#E6E6E6"/>
<path d="M234.716 198.733C235.796 198.725 236.662 197.463 236.65 195.914C236.639 194.366 235.754 193.117 234.674 193.125C233.594 193.133 232.728 194.395 232.74 195.944C232.751 197.492 233.636 198.741 234.716 198.733Z" fill="#3F3D56"/>
<path d="M201.554 230.115C202.634 230.107 203.499 228.845 203.488 227.296C203.476 225.748 202.591 224.499 201.511 224.507C200.431 224.516 199.565 225.777 199.577 227.326C199.589 228.875 200.474 230.123 201.554 230.115Z" fill="#E6E6E6"/>
<path d="M215.539 237.081C216.619 237.072 217.485 235.811 217.473 234.262C217.461 232.713 216.576 231.465 215.496 231.473C214.417 231.481 213.551 232.743 213.562 234.291C213.574 235.84 214.459 237.089 215.539 237.081Z" fill="#FF6584"/>
<path d="M196.071 249.955C197.151 249.947 198.017 248.685 198.005 247.136C197.993 245.588 197.108 244.339 196.028 244.347C194.948 244.355 194.083 245.617 194.094 247.166C194.106 248.714 194.991 249.963 196.071 249.955Z" fill="#3F3D56"/>
<path d="M121.925 266.29C124.318 265.734 125.943 263.937 125.555 262.277C125.167 260.617 122.913 259.722 120.521 260.278C118.129 260.835 116.504 262.631 116.892 264.291C117.28 265.951 119.533 266.846 121.925 266.29Z" fill="#E6E6E6"/>
<path d="M151.001 266.661C153.393 266.105 155.018 264.309 154.63 262.649C154.243 260.989 151.989 260.094 149.597 260.65C147.204 261.206 145.58 263.002 145.967 264.662C146.355 266.323 148.609 267.217 151.001 266.661Z" fill="#3F3D56"/>
<path d="M116.006 290.246C118.398 289.69 120.023 287.893 119.635 286.233C119.247 284.573 116.994 283.678 114.601 284.234C112.209 284.79 110.584 286.587 110.972 288.247C111.36 289.907 113.614 290.802 116.006 290.246Z" fill="#FF6584"/>
<path d="M106.225 299.802C107.301 299.703 108.057 298.373 107.914 296.831C107.772 295.289 106.784 294.119 105.709 294.218C104.633 294.317 103.877 295.647 104.02 297.189C104.163 298.731 105.15 299.901 106.225 299.802Z" fill="#E6E6E6"/>
<path d="M103.484 317.929C104.56 317.83 105.316 316.5 105.173 314.958C105.03 313.416 104.043 312.246 102.968 312.345C101.892 312.444 101.136 313.774 101.279 315.316C101.421 316.858 102.409 318.028 103.484 317.929Z" fill="#3F3D56"/>
<path d="M133.874 283.867C134.95 283.768 135.706 282.438 135.563 280.896C135.42 279.354 134.433 278.184 133.358 278.283C132.282 278.382 131.526 279.713 131.669 281.255C131.812 282.797 132.799 283.966 133.874 283.867Z" fill="#E6E6E6"/>
<path d="M119.35 278.104C120.425 278.005 121.181 276.674 121.039 275.132C120.896 273.59 119.908 272.421 118.833 272.52C117.758 272.619 117.002 273.949 117.144 275.491C117.287 277.033 118.274 278.203 119.35 278.104Z" fill="#FF6584"/>
<path d="M137.66 263.637C138.735 263.538 139.491 262.208 139.348 260.666C139.206 259.124 138.218 257.954 137.143 258.053C136.068 258.152 135.311 259.482 135.454 261.024C135.597 262.566 136.584 263.736 137.66 263.637Z" fill="#3F3D56"/>
<path d="M95.5136 408.862L87.907 392.826L87.8616 392.859V372.015H81.0197V392.859L80.9743 392.826L73.3677 409.317C73.2671 409.493 73.2351 409.7 73.2779 409.898C73.3208 410.096 73.4353 410.272 73.5997 410.391C73.7641 410.51 73.9668 410.564 74.1689 410.544C74.371 410.523 74.5583 410.429 74.695 410.279L82.4753 401.197L83.7345 409.466C83.7569 409.668 83.8529 409.854 84.0042 409.989C84.1556 410.124 84.3516 410.199 84.5547 410.199C84.7578 410.199 84.9538 410.124 85.1052 409.989C85.2565 409.854 85.3525 409.668 85.3749 409.466L86.6202 401.288L94.1863 409.824C94.323 409.974 94.5103 410.068 94.7124 410.089C94.9145 410.109 95.1172 410.055 95.2816 409.936C95.446 409.817 95.5606 409.641 95.6034 409.443C95.6462 409.245 95.6142 409.038 95.5136 408.862Z" fill="#2F2E41"/>
<path d="M41.1766 348.633C39.9652 356.628 57.4941 370.682 83.336 374.578C109.178 378.475 134.39 372.847 135.601 364.852C136.813 356.857 116.723 348.692 90.8808 344.796C65.0389 340.899 42.388 340.639 41.1766 348.633Z" fill="#6C63FF"/>
<path opacity="0.3" d="M41.1766 348.633C39.9652 356.628 57.4941 370.682 83.336 374.578C109.178 378.475 134.39 372.847 135.601 364.852C136.813 356.857 116.723 348.692 90.8808 344.796C65.0389 340.899 42.388 340.639 41.1766 348.633Z" fill="black"/>
<path d="M42.1948 347.463C41.1971 354.048 58.3021 365.349 84.1441 369.245C109.986 373.142 134.868 370.357 135.865 363.773C136.863 357.189 116.723 348.692 90.8808 344.796C65.0389 340.899 43.1925 340.879 42.1948 347.463Z" fill="#6C63FF"/>
<path d="M351.801 302.032C335.475 302.032 319.685 296.216 307.276 285.631C303.137 282.096 298.727 275.952 294.168 267.369C291.259 261.84 289.629 255.731 289.399 249.491C289.17 243.252 290.345 237.04 292.84 231.313C290.435 233.753 287.776 235.929 284.906 237.804L283.456 238.767L283.372 237.032C283.317 235.904 283.289 234.779 283.289 233.69C283.289 227.269 288.158 220.753 285.912 214.818C276.449 189.804 246.434 164.945 289.935 126.231C293.959 122.65 288.584 115.49 288.584 110.072C288.584 56.9712 363.818 -34.8945 385.141 13.7709C411.438 73.7876 456.743 67.3681 476.814 79.7645L477.105 80.6415L476.247 80.9877C471.854 82.8293 467.228 84.0568 462.498 84.6355C467.54 85.6612 472.686 86.0912 477.829 85.9166L478.626 85.8888L478.82 86.662C480.733 94.319 481.7 102.181 481.699 110.072L481.695 110.925C481.677 116.919 482.926 122.849 485.36 128.329C487.794 133.809 491.358 138.716 495.821 142.73C502.869 149.14 508.502 156.946 512.359 165.648C516.216 174.351 518.213 183.76 518.223 193.275C518.223 204.532 510.553 219.309 504.119 229.723C502.488 232.376 500.277 234.626 497.65 236.304C495.023 237.982 492.049 239.046 488.952 239.414C486.018 239.783 483.038 239.504 480.224 238.598C477.41 237.691 474.831 236.178 472.668 234.166C475.713 240.275 479.682 245.88 484.435 250.785L485.313 251.688L484.223 252.321C473.748 258.414 461.838 261.623 449.712 261.618L449.002 261.616C430.592 261.616 413.118 268.731 401.06 281.136C394.657 287.715 387.002 292.953 378.544 296.541C370.085 300.129 360.993 301.996 351.801 302.032Z" fill="#19115F" fill-opacity="0.83"/>
<path d="M328.007 410.263C327.711 410.263 327.424 410.156 327.201 409.962C326.977 409.768 326.831 409.5 326.789 409.207C326.736 408.84 321.609 371.953 326.214 322.927C330.467 277.651 344.124 212.438 385.035 158.879C385.133 158.75 385.255 158.642 385.395 158.561C385.535 158.479 385.69 158.426 385.85 158.404C386.011 158.382 386.174 158.392 386.331 158.433C386.487 158.475 386.634 158.546 386.763 158.644C386.892 158.742 387 158.865 387.082 159.004C387.163 159.144 387.216 159.299 387.238 159.459C387.259 159.619 387.249 159.782 387.207 159.938C387.165 160.094 387.093 160.241 386.995 160.369C346.437 213.465 332.89 278.2 328.668 323.157C324.089 371.897 329.177 408.497 329.229 408.861C329.253 409.035 329.24 409.213 329.19 409.382C329.14 409.551 329.054 409.707 328.938 409.84C328.823 409.973 328.68 410.079 328.519 410.152C328.358 410.225 328.184 410.263 328.007 410.263Z" fill="#3F3D56"/>
<path d="M361.393 234.426C361.133 234.426 360.879 234.344 360.668 234.192C360.458 234.039 360.301 233.824 360.22 233.577C360.14 233.331 360.14 233.065 360.22 232.818C360.3 232.571 360.457 232.355 360.668 232.203C360.816 232.095 375.782 221.338 398.157 213.166C418.841 205.612 450.293 198.764 482.673 209.044C482.984 209.143 483.243 209.361 483.394 209.65C483.544 209.94 483.572 210.277 483.473 210.588C483.374 210.898 483.155 211.157 482.865 211.307C482.575 211.456 482.237 211.485 481.926 211.386C450.209 201.317 419.327 208.052 399.004 215.474C376.949 223.53 362.262 234.086 362.116 234.191C361.906 234.344 361.653 234.426 361.393 234.426Z" fill="#3F3D56"/>
<path d="M305.001 94.3218C304.982 94.0628 305.046 93.8046 305.183 93.584C305.321 93.3634 305.524 93.1919 305.765 93.094C306.007 92.9961 306.272 92.9768 306.525 93.039C306.778 93.1011 307.004 93.2415 307.172 93.44C307.29 93.58 319.124 107.696 328.907 129.369C337.949 149.404 347.061 180.205 339.114 213.161C339.076 213.318 339.008 213.466 338.913 213.596C338.818 213.727 338.698 213.837 338.56 213.922C338.422 214.006 338.268 214.062 338.108 214.088C337.949 214.113 337.786 214.106 337.628 214.069C337.471 214.031 337.323 213.962 337.192 213.868C337.061 213.773 336.95 213.653 336.866 213.515C336.781 213.378 336.725 213.225 336.699 213.065C336.674 212.906 336.681 212.743 336.718 212.586C344.502 180.305 335.544 150.064 326.659 130.378C317.017 109.015 305.404 95.162 305.288 95.0245C305.12 94.8265 305.02 94.5804 305.001 94.3218Z" fill="#3F3D56"/>
<path d="M320.557 370.642L319.132 376.747C319.132 376.747 319.118 382.375 318.119 383.413C317.127 384.446 295.305 382.372 295.305 382.372C295.305 382.372 297.619 373.302 297.588 366.438L320.557 370.642Z" fill="#FFB6B6"/>
<path d="M236.391 426.351L232.635 423.65L241.383 407.527L246.926 411.513L236.391 426.351Z" fill="#FFB6B6"/>
<path d="M232.983 431.425L230.467 429.044L232.271 426.249L228.867 427.53L222.195 421.214C221.875 420.911 221.66 420.515 221.582 420.082C221.505 419.649 221.568 419.202 221.762 418.808C221.957 418.413 222.273 418.091 222.664 417.888C223.055 417.685 223.501 417.612 223.937 417.68L232.757 419.052L235.036 416.657L240.323 422.295L232.983 431.425Z" fill="#2F2E41"/>
<path d="M238.636 411.156L245.431 414.191C252.47 406.765 259.553 397.224 263.991 381.624C274.129 394.717 283.061 402.131 295.185 408.631C299.279 410.844 314.091 411.637 316.395 407.496C316.503 407.302 316.603 407.105 316.696 406.904C318.814 402.248 316.941 390.129 318.139 383.972C313.761 375.957 303.08 382.432 295.774 379.275L287.599 382.818L272.437 364.836C271.697 363.976 270.794 363.27 269.779 362.759C268.764 362.248 267.658 361.943 266.525 361.861C265.391 361.778 264.252 361.921 263.174 362.28C262.096 362.638 261.099 363.206 260.242 363.951C260.048 364.116 259.86 364.29 259.68 364.471C256.624 369.643 253.703 374.727 251.039 379.646C250.179 381.233 247.471 383.367 248.542 384.354C249.613 385.342 246.881 387.607 246.106 389.197C241.338 398.986 239.344 403.993 238.636 411.156Z" fill="#2F2E41"/>
<path d="M283.898 385.33C284.426 385.298 284.94 385.152 285.405 384.901C285.869 384.649 286.273 384.3 286.588 383.876C286.902 383.452 287.12 382.965 287.225 382.448C287.33 381.931 287.321 381.398 287.197 380.885L310.523 363.42L304.42 360.719L282.575 378.25C281.725 378.514 281.003 379.08 280.543 379.841C280.084 380.601 279.921 381.503 280.084 382.376C280.247 383.249 280.725 384.031 281.428 384.576C282.131 385.12 283.01 385.388 283.898 385.33Z" fill="#FFB6B6"/>
<path d="M310.656 337.851C310.656 337.851 315.104 336.592 317.049 341.502C318.993 346.413 313.193 361.816 312.333 364.327C311.473 366.838 295.663 374.456 295.663 374.456L288.764 372.104C293.508 366.455 298.01 361.858 301.679 360.876L310.656 337.851Z" fill="#6C63FF"/>
<path d="M323.727 331.994L314.728 331.464C314.349 331.441 313.972 331.537 313.65 331.739C313.328 331.941 313.077 332.237 312.932 332.588L310.389 338.738L299.819 347.452C299.819 347.452 295.634 352.764 295.625 359.625C295.615 366.485 295.774 379.275 295.774 379.275C295.774 379.275 300.247 373.789 304.017 376.07C304.658 376.458 304.884 377.251 305.556 377.652C305.891 377.852 306.665 377.658 307.003 377.858C312.198 380.934 317.615 383.94 318.121 383.413C318.567 382.949 320.271 381.274 319.458 380.317C318.645 379.361 320.321 377.091 320.321 377.091L328.558 346.9C329.005 345.311 329.094 343.644 328.818 342.017C328.542 340.39 327.909 338.844 326.964 337.491C326.389 336.682 325.786 336.081 325.226 335.981C323.967 335.714 324.637 332.901 323.727 331.994Z" fill="#6C63FF"/>
<path d="M215.691 428.459L213.982 424.17L230.121 415.407L232.643 421.737L215.691 428.459Z" fill="#FFB6B6"/>
<path d="M221.227 419.082L223.252 426.787C236.969 423.229 251.103 414.867 265.436 404.235C281.253 409.117 296.257 412.042 309.899 410.392C312.162 410.095 314.221 408.931 315.638 407.146C317.055 405.361 317.72 403.095 317.492 400.83C317.468 400.609 317.436 400.39 317.396 400.173C316.444 395.15 308.502 390.74 305.935 385.018L289.051 389.028L287.797 392.265L283.994 391.263L280.784 390.417L277.109 389.448L265.062 386.273C263.962 385.995 262.816 385.937 261.693 386.103C260.57 386.269 259.491 386.655 258.518 387.239C257.545 387.822 256.697 388.593 256.024 389.505C255.351 390.417 254.866 391.454 254.596 392.554C254.532 392.801 254.479 393.05 254.436 393.302L237.752 406.254C237.752 406.254 236.263 409.726 235.119 408.298C233.975 406.87 231.831 410.85 231.831 410.85L221.227 419.082Z" fill="#2F2E41"/>
<path d="M207.624 434L206.343 430.785L209.157 429.005L205.528 428.742L202.13 420.215C201.967 419.806 201.939 419.356 202.051 418.931C202.163 418.505 202.408 418.126 202.75 417.85C203.093 417.573 203.515 417.413 203.956 417.392C204.396 417.372 204.832 417.493 205.199 417.737L212.627 422.676L215.703 421.456L218.128 428.788L207.624 434Z" fill="#2F2E41"/>
<path d="M331.445 310.437C332.269 311.135 333.249 311.625 334.301 311.869C335.366 312.024 336.613 311.511 336.908 310.478C337.268 309.215 336.125 308.066 335.098 307.245L331.84 304.643C331.244 304.115 330.57 303.68 329.843 303.354C329.478 303.194 329.081 303.118 328.682 303.131C328.283 303.144 327.892 303.247 327.538 303.431C327.188 303.667 326.904 303.988 326.714 304.365C326.524 304.741 326.433 305.159 326.451 305.58C326.497 306.424 326.776 307.239 327.258 307.935C327.862 308.875 328.652 309.684 329.578 310.312C330.504 310.94 331.548 311.374 332.647 311.589" fill="#2F2E41"/>
<path d="M329.998 303.846C329.903 301.491 332.419 299.626 334.777 299.773C337.135 299.921 339.161 301.575 340.498 303.519C341.835 305.46 342.638 307.71 343.691 309.818C344.744 311.926 346.147 313.991 348.239 315.083C350.331 316.174 353.243 315.98 354.689 314.117C355.139 314.797 355.422 315.573 355.515 316.383C355.607 317.192 355.508 318.012 355.223 318.776C354.632 320.305 353.527 321.583 352.099 322.393C351.53 322.729 350.922 322.996 350.289 323.187C350.028 322.484 349.661 321.825 349.201 321.233C349.409 321.934 349.488 322.666 349.435 323.395C348.459 323.582 347.456 323.566 346.487 323.349C345.535 323.137 344.646 322.706 343.89 322.091C343.134 321.476 342.532 320.694 342.132 319.807C341.248 317.719 341.698 315.338 341.509 313.079C341.322 310.82 339.957 308.241 337.684 308.204C335.954 308.175 336.183 308.318 335.086 309.653" fill="#2F2E41"/>
<path d="M314.283 316.223C314.283 317.564 314.548 318.891 315.063 320.13C315.577 321.369 316.331 322.494 317.281 323.442C318.232 324.39 319.36 325.142 320.602 325.655C321.843 326.168 323.174 326.432 324.518 326.432C330.171 326.432 335.54 319.898 335.54 314.259C335.54 308.621 330.171 306.013 324.518 306.013C321.804 306.013 319.201 307.089 317.281 309.004C315.362 310.918 314.283 313.515 314.283 316.223Z" fill="#2F2E41"/>
<path d="M321.432 328.655C326.825 328.655 331.197 324.295 331.197 318.915C331.197 313.536 326.825 309.175 321.432 309.175C316.039 309.175 311.668 313.536 311.668 318.915C311.668 324.295 316.039 328.655 321.432 328.655Z" fill="#FFB6B6"/>
<path d="M309.166 317.401C312.057 318.188 314.975 319.013 316.102 317.401C316.321 316.332 316.736 315.312 317.326 314.393C317.437 315.422 317.679 316.433 318.047 317.401C319.052 317.55 320.066 317.626 321.082 317.628C321.495 318.339 323.386 319.515 323.453 320.368C323.599 320.276 323.751 320.196 323.91 320.128C324.003 320.075 324.107 320.043 324.215 320.033C324.322 320.024 324.43 320.037 324.531 320.073C324.602 320.115 324.661 320.173 324.705 320.242C324.75 320.31 324.778 320.388 324.787 320.47C324.807 320.633 324.799 320.799 324.764 320.96C324.722 321.522 324.554 322.067 324.272 322.555C324.16 322.723 324.014 322.866 323.844 322.974C323.674 323.083 323.483 323.156 323.284 323.187C322.874 325.484 321.969 328.59 321.969 328.59C331.81 328.983 334.753 321.736 334.753 315.437L333.572 313.081H329.636V307.976H318.614C316.108 307.977 313.705 308.97 311.934 310.737C310.162 312.505 309.167 314.902 309.166 317.401Z" fill="#2F2E41"/>
<path d="M289.813 366.188L304.715 367.311L306.486 374.431C306.486 374.431 289.089 370.992 288.567 370.791C287.959 371.186 287.245 371.387 286.52 371.368C285.794 371.349 285.092 371.111 284.505 370.686C283.918 370.26 283.475 369.667 283.233 368.984C282.992 368.301 282.964 367.562 283.153 366.863C283.342 366.164 283.739 365.539 284.293 365.071C284.846 364.602 285.528 364.312 286.25 364.239C286.972 364.165 287.699 364.313 288.335 364.661C288.972 365.009 289.487 365.541 289.813 366.188Z" fill="#FFB6B6"/>
<path d="M324.123 341.358C324.965 338.198 315.93 355.848 319.868 371.788C319.565 372.887 319.036 373.911 318.314 374.794C317.591 375.678 316.692 376.401 315.674 376.918C314.656 377.434 313.54 377.734 312.399 377.796C311.259 377.859 310.117 377.683 309.048 377.28L297.843 372.857L301.219 365.993L306.521 366.246L311.92 351.96L317.037 344.499L324.123 341.358Z" fill="#6C63FF"/>
<path d="M287.588 382.224L273.933 370.721C273.466 370.327 273.175 369.764 273.124 369.156C273.072 368.549 273.265 367.945 273.659 367.479L276.172 364.51C276.567 364.044 277.131 363.754 277.74 363.703C278.35 363.652 278.954 363.844 279.422 364.237L293.077 375.74C293.544 376.134 293.835 376.696 293.886 377.304C293.937 377.912 293.745 378.515 293.351 378.982L290.838 381.951C290.443 382.416 289.879 382.706 289.269 382.758C288.66 382.809 288.055 382.617 287.588 382.224Z" fill="#3F3D56"/>
<path d="M274.649 367.718C274.437 367.969 274.333 368.295 274.361 368.622C274.389 368.95 274.545 369.253 274.797 369.465L288.452 380.968C288.704 381.18 289.03 381.283 289.358 381.256C289.686 381.228 289.99 381.072 290.203 380.821L292.716 377.852C292.929 377.601 293.032 377.276 293.005 376.948C292.977 376.621 292.82 376.317 292.569 376.105L278.914 364.602C278.662 364.39 278.336 364.287 278.008 364.315C277.679 364.342 277.375 364.499 277.162 364.749L274.649 367.718Z" fill="white"/>
<path d="M282.666 372.19C282.618 372.256 282.556 372.31 282.484 372.348C282.412 372.386 282.332 372.407 282.25 372.409L280.105 372.458C280.036 372.46 279.967 372.448 279.902 372.424C279.838 372.399 279.779 372.362 279.728 372.314C279.678 372.267 279.638 372.21 279.61 372.147C279.582 372.083 279.567 372.015 279.565 371.946C279.563 371.877 279.576 371.809 279.601 371.744C279.626 371.68 279.663 371.621 279.711 371.572C279.759 371.522 279.817 371.482 279.88 371.454C279.943 371.427 280.012 371.412 280.081 371.411L281.484 371.379L280.102 367.74C280.078 367.676 280.066 367.607 280.068 367.539C280.07 367.47 280.086 367.402 280.114 367.34C280.143 367.277 280.183 367.22 280.233 367.173C280.284 367.126 280.343 367.089 280.407 367.065C280.472 367.041 280.54 367.029 280.609 367.031C280.678 367.033 280.746 367.049 280.809 367.077C280.872 367.105 280.928 367.146 280.976 367.196C281.023 367.246 281.06 367.305 281.084 367.369L282.729 371.7C282.759 371.778 282.77 371.862 282.76 371.945C282.75 372.029 282.721 372.108 282.674 372.178L282.666 372.19Z" fill="#6C63FF"/>
</g>
<defs>
<clipPath id="clip0_2_2">
<rect width="518" height="434" fill="white"/>
</clipPath>
</defs>
</svg>
